<svg xmlns="http://www.w3.org/2000/svg" xmlns:xlink="http://www.w3.org/1999/xlink" width="400" viewBox="0 0 300 299.999988" height="400" preserveAspectRatio="xMidYMid meet"><defs><clipPath id="d539d60019"><path d="M 32.398438 141 L 270 141 L 270 272.25 L 32.398438 272.25 Z M 32.398438 141 " clip-rule="nonzero"></path></clipPath><clipPath id="d71bbb29ac"><path d="M 58.367188 111 L 141 111 L 141 194 L 58.367188 194 Z M 58.367188 111 " clip-rule="nonzero"></path></clipPath><clipPath id="ab7a37f97d"><path d="M 64.460938 130.5625 L 154.984375 130.5625 L 154.984375 220.730469 L 64.460938 220.730469 Z M 64.460938 130.5625 " clip-rule="nonzero"></path></clipPath><clipPath id="f22ff4a7ae"><path d="M 193.375 132.5 L 244.035156 132.5 L 244.035156 183.222656 L 193.375 183.222656 Z M 193.375 132.5 " clip-rule="nonzero"></path></clipPath></defs><rect x="-30" width="360" fill="#ffffff" y="-29.999999" height="359.999986" fill-opacity="1"></rect><rect x="-30" width="360" fill="#ffffff" y="-29.999999" height="359.999986" fill-opacity="1"></rect><g clip-path="url(#d539d60019)"><path fill="#fbb424" d="M 244.824219 141.347656 C 223.085938 141.347656 205.402344 159.035156 205.402344 180.769531 L 205.402344 187.96875 C 196.675781 184.847656 179.792969 180.769531 151.199219 180.769531 C 122.605469 180.769531 105.726562 184.847656 96.996094 187.96875 L 96.996094 180.769531 C 96.996094 159.035156 79.308594 141.347656 57.574219 141.347656 C 43.988281 141.347656 32.9375 152.402344 32.9375 165.988281 C 32.9375 175.964844 38.890625 184.898438 48.109375 188.738281 C 50.867188 189.894531 52.648438 192.570312 52.648438 195.550781 L 57.574219 215.261719 C 57.574219 232.953125 70.972656 247.5625 88.15625 249.519531 C 84.109375 251.449219 81.292969 255.550781 81.292969 260.332031 C 81.292969 266.964844 86.671875 272.34375 93.304688 272.34375 C 99.9375 272.34375 105.316406 266.964844 105.316406 260.332031 C 105.316406 255.726562 102.695312 251.777344 98.890625 249.753906 L 203.519531 249.753906 C 199.714844 251.769531 197.09375 255.722656 197.09375 260.332031 C 197.09375 266.964844 202.476562 272.34375 209.109375 272.34375 C 215.742188 272.34375 221.121094 266.964844 221.121094 260.332031 C 221.121094 255.550781 218.304688 251.449219 214.257812 249.519531 C 231.425781 247.5625 244.824219 232.953125 244.824219 215.261719 L 249.75 195.550781 C 249.75 192.566406 251.53125 189.894531 254.289062 188.738281 C 263.507812 184.902344 269.460938 175.964844 269.460938 165.988281 C 269.460938 152.402344 258.410156 141.347656 244.824219 141.347656 Z M 244.824219 141.347656 " fill-opacity="1" fill-rule="nonzero"></path></g><path fill="#fbb424" d="M 110.546875 169.25 C 120.800781 167.375 134.148438 165.988281 151.199219 165.988281 C 168.25 165.988281 181.597656 167.375 191.851562 169.25 C 195.722656 151.410156 208.429688 136.855469 225.117188 130.316406 L 225.117188 104.011719 C 225.117188 63.191406 192.023438 30.097656 151.199219 30.097656 C 110.378906 30.097656 77.285156 63.191406 77.285156 104.011719 L 77.285156 130.320312 C 93.976562 136.859375 106.671875 151.414062 110.546875 169.25 Z M 110.546875 169.25 " fill-opacity="1" fill-rule="nonzero"></path><g clip-path="url(#d71bbb29ac)"><path fill="#ffffff" d="M 128.335938 180.578125 C 127.234375 179.148438 125.21875 178.683594 123.335938 178.871094 C 121.839844 179.019531 120.382812 178.335938 119.578125 177.066406 L 109.171875 160.640625 C 109.351562 160.4375 109.523438 160.226562 109.6875 160.011719 L 114.4375 162.550781 C 115.191406 162.949219 115.640625 163.746094 115.617188 164.597656 C 115.589844 165.671875 115.9375 166.792969 116.792969 167.355469 C 118.234375 168.304688 120.167969 167.90625 121.117188 166.464844 C 122.066406 165.027344 121.667969 163.089844 120.226562 162.140625 C 119.375 161.578125 118.207031 161.699219 117.230469 162.148438 C 116.457031 162.503906 115.550781 162.40625 114.882812 161.875 L 110.675781 158.511719 C 111.851562 156.425781 112.375 154.132812 112.300781 151.875 L 128.171875 147.058594 C 129.488281 146.660156 130.902344 147.054688 131.847656 148.046875 C 133.039062 149.300781 134.707031 150.179688 136.320312 149.847656 C 139.039062 149.289062 140.789062 146.632812 140.230469 143.914062 C 139.667969 141.199219 137.011719 139.449219 134.296875 140.007812 C 132.683594 140.335938 131.496094 141.804688 130.894531 143.425781 C 130.421875 144.710938 129.277344 145.632812 127.910156 145.785156 L 111.425781 147.621094 C 111.296875 147.285156 111.148438 146.957031 110.988281 146.632812 L 125.238281 133.402344 C 126.339844 132.382812 127.921875 132.089844 129.332031 132.617188 C 131.105469 133.277344 133.171875 133.34375 134.601562 132.242188 C 137.007812 130.386719 137.457031 126.929688 135.601562 124.519531 C 133.746094 122.113281 130.289062 121.664062 127.882812 123.519531 C 126.453125 124.621094 125.988281 126.636719 126.175781 128.519531 C 126.324219 130.015625 125.640625 131.472656 124.367188 132.277344 L 107.945312 142.679688 C 107.742188 142.503906 107.53125 142.332031 107.3125 142.167969 L 109.851562 137.414062 C 110.253906 136.664062 111.050781 136.214844 111.902344 136.238281 C 112.976562 136.261719 114.09375 135.917969 114.660156 135.0625 C 115.605469 133.621094 115.210938 131.683594 113.769531 130.734375 C 112.328125 129.789062 110.394531 130.1875 109.445312 131.625 C 108.878906 132.480469 109.003906 133.648438 109.453125 134.621094 C 109.808594 135.398438 109.710938 136.304688 109.179688 136.972656 L 105.8125 141.179688 C 103.730469 140.003906 101.433594 139.480469 99.179688 139.550781 L 94.359375 123.679688 C 93.960938 122.367188 94.355469 120.953125 95.351562 120.007812 C 96.601562 118.816406 97.484375 117.148438 97.152344 115.535156 C 96.59375 112.816406 93.9375 111.066406 91.21875 111.625 C 88.5 112.183594 86.75 114.839844 87.308594 117.558594 C 87.640625 119.171875 89.109375 120.359375 90.726562 120.957031 C 92.015625 121.433594 92.9375 122.578125 93.089844 123.941406 L 94.925781 140.425781 C 94.589844 140.558594 94.257812 140.703125 93.9375 140.863281 L 80.707031 126.617188 C 79.683594 125.515625 79.394531 123.933594 79.917969 122.523438 C 80.582031 120.75 80.644531 118.683594 79.542969 117.253906 C 77.6875 114.84375 74.230469 114.398438 71.824219 116.253906 C 69.414062 118.109375 68.96875 121.566406 70.824219 123.972656 C 71.925781 125.402344 73.9375 125.867188 75.824219 125.679688 C 77.320312 125.53125 78.773438 126.214844 79.582031 127.484375 L 89.984375 143.910156 C 89.804688 144.113281 89.632812 144.324219 89.46875 144.539062 L 84.71875 142.003906 C 83.964844 141.601562 83.519531 140.804688 83.539062 139.953125 C 83.566406 138.878906 83.21875 137.757812 82.363281 137.195312 C 80.925781 136.246094 78.988281 136.644531 78.039062 138.085938 C 77.089844 139.523438 77.488281 141.460938 78.929688 142.410156 C 79.785156 142.972656 80.949219 142.851562 81.925781 142.402344 C 82.699219 142.046875 83.609375 142.144531 84.273438 142.675781 L 88.480469 146.039062 C 87.308594 148.125 86.78125 150.417969 86.855469 152.675781 L 70.984375 157.492188 C 69.671875 157.890625 68.253906 157.496094 67.308594 156.503906 C 66.117188 155.25 64.449219 154.371094 62.835938 154.703125 C 60.121094 155.261719 58.371094 157.917969 58.929688 160.636719 C 59.488281 163.355469 62.144531 165.101562 64.859375 164.542969 C 66.472656 164.214844 67.660156 162.746094 68.261719 161.125 C 68.738281 159.839844 69.878906 158.917969 71.246094 158.765625 L 87.730469 156.929688 C 87.859375 157.265625 88.007812 157.59375 88.167969 157.917969 L 73.921875 171.148438 C 72.816406 172.171875 71.234375 172.460938 69.824219 171.933594 C 68.050781 171.273438 65.984375 171.207031 64.554688 172.308594 C 62.148438 174.164062 61.699219 177.621094 63.554688 180.03125 C 65.410156 182.4375 68.867188 182.886719 71.273438 181.03125 C 72.703125 179.929688 73.167969 177.914062 72.980469 176.03125 C 72.832031 174.535156 73.515625 173.078125 74.789062 172.273438 L 91.210938 161.871094 C 91.417969 162.046875 91.625 162.21875 91.84375 162.382812 L 89.304688 167.136719 C 88.902344 167.886719 88.109375 168.335938 87.253906 168.316406 C 86.183594 168.289062 85.0625 168.632812 84.5 169.488281 C 83.550781 170.929688 83.949219 172.867188 85.386719 173.816406 C 86.828125 174.761719 88.765625 174.363281 89.714844 172.925781 C 90.277344 172.070312 90.152344 170.902344 89.703125 169.929688 C 89.347656 169.152344 89.445312 168.246094 89.980469 167.578125 L 93.34375 163.371094 C 95.425781 164.546875 97.722656 165.070312 99.980469 165 L 104.796875 180.871094 C 105.195312 182.183594 104.800781 183.597656 103.804688 184.542969 C 102.554688 185.734375 101.675781 187.402344 102.007812 189.015625 C 102.566406 191.734375 105.222656 193.484375 107.9375 192.925781 C 110.65625 192.367188 112.40625 189.710938 111.847656 186.992188 C 111.515625 185.378906 110.046875 184.191406 108.429688 183.59375 C 107.140625 183.117188 106.21875 181.972656 106.066406 180.609375 L 104.230469 164.125 C 104.566406 163.992188 104.898438 163.847656 105.222656 163.6875 L 118.449219 177.933594 C 119.472656 179.035156 119.761719 180.621094 119.238281 182.027344 C 118.578125 183.800781 118.511719 185.867188 119.613281 187.296875 C 121.46875 189.707031 124.925781 190.152344 127.332031 188.300781 C 129.742188 186.445312 130.191406 182.988281 128.335938 180.578125 " fill-opacity="1" fill-rule="nonzero"></path></g><g clip-path="url(#ab7a37f97d)"><path fill="#ffffff" d="M 146.542969 193.390625 C 145.019531 192.390625 142.941406 192.609375 141.203125 193.40625 C 139.820312 194.042969 138.203125 193.867188 137.015625 192.917969 L 126.367188 184.402344 C 127.074219 183.042969 127.59375 181.625 127.941406 180.179688 L 133.554688 180.671875 C 134.699219 180.773438 135.671875 181.519531 136.097656 182.585938 C 136.628906 183.929688 137.652344 185.132812 139.007812 185.378906 C 141.289062 185.789062 143.476562 184.273438 143.886719 181.992188 C 144.300781 179.710938 142.785156 177.523438 140.503906 177.109375 C 139.148438 176.863281 137.769531 177.632812 136.800781 178.703125 C 136.027344 179.554688 134.855469 179.910156 133.746094 179.605469 L 128.316406 178.09375 C 128.484375 176.726562 128.5 175.351562 128.363281 173.988281 L 141.414062 170.027344 C 142.871094 169.585938 144.4375 170.023438 145.484375 171.125 C 146.804688 172.511719 148.652344 173.488281 150.4375 173.121094 C 153.449219 172.5 155.386719 169.558594 154.769531 166.546875 C 154.148438 163.539062 151.207031 161.601562 148.195312 162.21875 C 146.410156 162.585938 145.09375 164.210938 144.429688 166.003906 C 143.902344 167.429688 142.636719 168.453125 141.125 168.621094 L 127.570312 170.128906 C 127.117188 168.703125 126.492188 167.324219 125.699219 166.03125 L 130.019531 162.410156 C 130.898438 161.671875 132.117188 161.511719 133.167969 161.964844 C 134.496094 162.535156 136.066406 162.664062 137.199219 161.878906 C 139.105469 160.558594 139.582031 157.941406 138.257812 156.035156 C 136.9375 154.128906 134.320312 153.652344 132.414062 154.976562 C 131.28125 155.761719 130.847656 157.277344 130.921875 158.722656 C 130.976562 159.867188 130.398438 160.953125 129.398438 161.515625 L 124.492188 164.289062 C 123.660156 163.226562 122.703125 162.234375 121.625 161.351562 L 128.050781 149.324219 C 128.765625 147.984375 130.183594 147.183594 131.703125 147.222656 C 133.617188 147.269531 135.613281 146.652344 136.617188 145.128906 C 138.308594 142.5625 137.597656 139.109375 135.03125 137.421875 C 132.464844 135.730469 129.015625 136.441406 127.324219 139.007812 C 126.320312 140.53125 126.539062 142.609375 127.339844 144.347656 C 127.972656 145.726562 127.796875 147.34375 126.847656 148.535156 L 118.335938 159.183594 C 116.972656 158.476562 115.554688 157.953125 114.113281 157.609375 L 114.605469 151.996094 C 114.703125 150.851562 115.453125 149.875 116.515625 149.453125 C 117.859375 148.917969 119.0625 147.898438 119.308594 146.542969 C 119.722656 144.261719 118.207031 142.074219 115.921875 141.660156 C 113.640625 141.246094 111.453125 142.761719 111.039062 145.046875 C 110.796875 146.402344 111.5625 147.78125 112.632812 148.75 C 113.484375 149.519531 113.84375 150.695312 113.535156 151.800781 L 112.027344 157.234375 C 110.65625 157.066406 109.28125 157.050781 107.921875 157.183594 L 103.960938 144.132812 C 103.519531 142.679688 103.957031 141.113281 105.058594 140.066406 C 106.445312 138.746094 107.417969 136.898438 107.050781 135.109375 C 106.433594 132.101562 103.488281 130.160156 100.480469 130.78125 C 97.46875 131.398438 95.53125 134.339844 96.148438 137.351562 C 96.515625 139.140625 98.140625 140.453125 99.9375 141.117188 C 101.363281 141.644531 102.382812 142.914062 102.550781 144.425781 L 104.0625 157.976562 C 102.632812 158.433594 101.257812 159.058594 99.964844 159.847656 L 96.339844 155.53125 C 95.601562 154.652344 95.441406 153.433594 95.894531 152.378906 C 96.46875 151.054688 96.597656 149.480469 95.8125 148.347656 C 94.488281 146.441406 91.871094 145.96875 89.964844 147.289062 C 88.058594 148.613281 87.585938 151.230469 88.90625 153.136719 C 89.691406 154.269531 91.210938 154.699219 92.652344 154.628906 C 93.800781 154.570312 94.882812 155.148438 95.449219 156.148438 L 98.222656 161.058594 C 97.15625 161.890625 96.167969 162.84375 95.28125 163.925781 L 83.257812 157.5 C 81.914062 156.78125 81.117188 155.367188 81.152344 153.84375 C 81.203125 151.933594 80.582031 149.933594 79.058594 148.933594 C 76.492188 147.242188 73.042969 147.953125 71.351562 150.515625 C 69.660156 153.085938 70.371094 156.535156 72.9375 158.226562 C 74.460938 159.230469 76.539062 159.011719 78.277344 158.210938 C 79.660156 157.574219 81.277344 157.75 82.464844 158.699219 L 93.113281 167.214844 C 92.40625 168.578125 91.886719 169.996094 91.539062 171.4375 L 85.925781 170.945312 C 84.78125 170.84375 83.808594 170.097656 83.382812 169.03125 C 82.851562 167.6875 81.828125 166.484375 80.472656 166.242188 C 78.191406 165.828125 76.003906 167.34375 75.59375 169.625 C 75.179688 171.910156 76.695312 174.09375 78.976562 174.507812 C 80.332031 174.753906 81.710938 173.984375 82.679688 172.914062 C 83.453125 172.066406 84.625 171.707031 85.734375 172.015625 L 91.164062 173.523438 C 90.996094 174.890625 90.980469 176.269531 91.117188 177.628906 L 78.066406 181.589844 C 76.609375 182.03125 75.042969 181.59375 73.996094 180.492188 C 72.675781 179.105469 70.828125 178.128906 69.042969 178.5 C 66.03125 179.117188 64.09375 182.058594 64.710938 185.070312 C 65.332031 188.082031 68.273438 190.019531 71.285156 189.398438 C 73.070312 189.03125 74.386719 187.40625 75.050781 185.613281 C 75.578125 184.1875 76.84375 183.167969 78.355469 182.996094 L 91.910156 181.488281 C 92.363281 182.917969 92.988281 184.292969 93.78125 185.585938 L 89.460938 189.210938 C 88.582031 189.945312 87.363281 190.109375 86.3125 189.652344 C 84.984375 189.082031 83.410156 188.953125 82.28125 189.738281 C 80.375 191.058594 79.898438 193.675781 81.222656 195.582031 C 82.542969 197.488281 85.160156 197.964844 87.066406 196.640625 C 88.199219 195.855469 88.632812 194.339844 88.558594 192.894531 C 88.503906 191.75 89.082031 190.667969 90.082031 190.101562 L 94.988281 187.328125 C 95.820312 188.394531 96.777344 189.382812 97.855469 190.269531 L 91.429688 202.292969 C 90.714844 203.632812 89.296875 204.433594 87.777344 204.394531 C 85.863281 204.347656 83.867188 204.964844 82.863281 206.488281 C 81.171875 209.054688 81.882812 212.507812 84.449219 214.199219 C 87.015625 215.886719 90.464844 215.179688 92.15625 212.613281 C 93.160156 211.089844 92.941406 209.011719 92.140625 207.269531 C 91.507812 205.890625 91.679688 204.273438 92.632812 203.085938 L 101.144531 192.433594 C 102.507812 193.140625 103.925781 193.664062 105.367188 194.011719 L 104.875 199.625 C 104.777344 200.765625 104.027344 201.742188 102.960938 202.164062 C 101.621094 202.699219 100.417969 203.71875 100.171875 205.074219 C 99.757812 207.359375 101.273438 209.542969 103.558594 209.957031 C 105.839844 210.371094 108.027344 208.855469 108.441406 206.570312 C 108.683594 205.21875 107.917969 203.839844 106.847656 202.867188 C 105.996094 202.097656 105.636719 200.921875 105.945312 199.816406 L 107.453125 194.382812 C 108.824219 194.550781 110.199219 194.566406 111.558594 194.433594 L 115.519531 207.484375 C 115.960938 208.9375 115.523438 210.503906 114.421875 211.554688 C 113.035156 212.871094 112.0625 214.722656 112.429688 216.507812 C 113.046875 219.519531 115.992188 221.457031 119 220.835938 C 122.011719 220.21875 123.949219 217.277344 123.332031 214.265625 C 122.964844 212.480469 121.339844 211.164062 119.542969 210.5 C 118.117188 209.972656 117.097656 208.703125 116.929688 207.195312 L 115.417969 193.640625 C 116.847656 193.183594 118.222656 192.558594 119.515625 191.769531 L 123.140625 196.085938 C 123.878906 196.964844 124.039062 198.183594 123.585938 199.238281 C 123.011719 200.566406 122.882812 202.136719 123.667969 203.269531 C 124.992188 205.175781 127.609375 205.648438 129.515625 204.328125 C 131.421875 203.003906 131.894531 200.386719 130.574219 198.480469 C 129.789062 197.347656 128.269531 196.917969 126.828125 196.988281 C 125.679688 197.046875 124.597656 196.46875 124.03125 195.46875 L 121.257812 190.558594 C 122.324219 189.726562 123.3125 188.773438 124.199219 187.695312 L 136.222656 194.117188 C 137.566406 194.835938 138.363281 196.253906 138.328125 197.773438 C 138.277344 199.6875 138.898438 201.683594 140.417969 202.6875 C 142.988281 204.375 146.4375 203.667969 148.128906 201.101562 C 149.820312 198.535156 149.109375 195.082031 146.542969 193.390625 " fill-opacity="1" fill-rule="nonzero"></path></g><g clip-path="url(#f22ff4a7ae)"><path fill="#ffffff" d="M 239.367188 167.773438 C 238.515625 167.210938 237.351562 167.332031 236.375 167.78125 C 235.601562 168.136719 234.699219 168.039062 234.03125 167.507812 L 228.25 162.882812 C 228.667969 162.082031 228.976562 161.246094 229.179688 160.394531 L 232.09375 160.648438 C 232.734375 160.707031 233.28125 161.125 233.515625 161.722656 C 233.816406 162.472656 234.386719 163.148438 235.148438 163.285156 C 236.425781 163.515625 237.648438 162.667969 237.878906 161.386719 C 238.113281 160.109375 237.261719 158.886719 235.984375 158.65625 C 235.226562 158.519531 234.453125 158.949219 233.910156 159.546875 C 233.480469 160.023438 232.820312 160.222656 232.203125 160.050781 L 229.382812 159.269531 C 229.484375 158.460938 229.492188 157.644531 229.410156 156.839844 L 236.496094 154.691406 C 237.308594 154.441406 238.1875 154.6875 238.773438 155.304688 C 239.511719 156.082031 240.546875 156.625 241.546875 156.421875 C 243.234375 156.074219 244.320312 154.425781 243.972656 152.742188 C 243.625 151.054688 241.976562 149.96875 240.292969 150.316406 C 239.292969 150.523438 238.554688 151.433594 238.183594 152.4375 C 237.890625 153.234375 237.179688 153.808594 236.335938 153.902344 L 228.972656 154.722656 C 228.710938 153.878906 228.339844 153.066406 227.871094 152.304688 L 230.113281 150.421875 C 230.605469 150.011719 231.289062 149.921875 231.878906 150.175781 C 232.621094 150.496094 233.5 150.566406 234.136719 150.128906 C 235.203125 149.386719 235.46875 147.921875 234.726562 146.855469 C 233.988281 145.785156 232.523438 145.523438 231.457031 146.261719 C 230.820312 146.699219 230.578125 147.550781 230.621094 148.359375 C 230.652344 149 230.328125 149.605469 229.769531 149.921875 L 227.21875 151.363281 C 226.726562 150.734375 226.164062 150.148438 225.523438 149.628906 L 229.011719 143.097656 C 229.414062 142.347656 230.207031 141.898438 231.058594 141.921875 C 232.128906 141.945312 233.246094 141.601562 233.808594 140.746094 C 234.757812 139.3125 234.359375 137.378906 232.921875 136.433594 C 231.484375 135.484375 229.550781 135.882812 228.605469 137.320312 C 228.042969 138.171875 228.167969 139.335938 228.613281 140.308594 C 228.96875 141.082031 228.871094 141.988281 228.339844 142.652344 L 223.714844 148.4375 C 222.914062 148.015625 222.078125 147.707031 221.226562 147.507812 L 221.484375 144.59375 C 221.539062 143.953125 221.957031 143.40625 222.554688 143.167969 C 223.304688 142.871094 223.980469 142.296875 224.117188 141.539062 C 224.347656 140.261719 223.5 139.035156 222.222656 138.804688 C 220.941406 138.574219 219.71875 139.421875 219.488281 140.699219 C 219.351562 141.460938 219.78125 142.230469 220.378906 142.773438 C 220.855469 143.207031 221.058594 143.863281 220.886719 144.484375 L 220.101562 147.304688 C 219.292969 147.203125 218.476562 147.195312 217.675781 147.277344 L 215.523438 140.191406 C 215.277344 139.375 215.519531 138.5 216.136719 137.914062 C 216.914062 137.171875 217.460938 136.136719 217.253906 135.136719 C 216.90625 133.453125 215.261719 132.367188 213.574219 132.714844 C 211.886719 133.058594 210.804688 134.707031 211.148438 136.394531 C 211.355469 137.394531 212.265625 138.128906 213.269531 138.5 C 214.070312 138.796875 214.640625 139.507812 214.734375 140.351562 L 215.554688 147.710938 C 214.710938 147.976562 213.898438 148.347656 213.136719 148.816406 L 211.257812 146.570312 C 210.84375 146.078125 210.753906 145.398438 211.007812 144.808594 C 211.328125 144.066406 211.398438 143.183594 210.960938 142.550781 C 210.21875 141.484375 208.753906 141.21875 207.6875 141.957031 C 206.621094 142.699219 206.355469 144.164062 207.09375 145.230469 C 207.535156 145.863281 208.382812 146.105469 209.191406 146.066406 C 209.832031 146.035156 210.441406 146.359375 210.757812 146.917969 L 212.199219 149.46875 C 211.566406 149.957031 210.980469 150.523438 210.460938 151.164062 L 203.929688 147.675781 C 203.179688 147.273438 202.730469 146.480469 202.753906 145.628906 C 202.78125 144.558594 202.433594 143.4375 201.582031 142.878906 C 200.144531 141.929688 198.210938 142.328125 197.265625 143.765625 C 196.316406 145.203125 196.714844 147.136719 198.152344 148.082031 C 199.003906 148.644531 200.167969 148.519531 201.144531 148.074219 C 201.914062 147.71875 202.820312 147.816406 203.488281 148.347656 L 209.269531 152.96875 C 208.851562 153.773438 208.539062 154.609375 208.339844 155.457031 L 205.425781 155.203125 C 204.785156 155.148438 204.238281 154.730469 204 154.132812 C 203.703125 153.378906 203.132812 152.707031 202.371094 152.570312 C 201.09375 152.335938 199.871094 153.1875 199.640625 154.464844 C 199.40625 155.742188 200.257812 156.96875 201.535156 157.199219 C 202.292969 157.335938 203.066406 156.90625 203.609375 156.304688 C 204.039062 155.832031 204.699219 155.628906 205.316406 155.800781 L 208.136719 156.585938 C 208.035156 157.394531 208.027344 158.207031 208.109375 159.011719 L 201.023438 161.164062 C 200.210938 161.410156 199.332031 161.164062 198.746094 160.546875 C 198.007812 159.773438 196.972656 159.226562 195.972656 159.433594 C 194.285156 159.78125 193.199219 161.425781 193.546875 163.113281 C 193.894531 164.796875 195.539062 165.882812 197.226562 165.535156 C 198.226562 165.332031 198.960938 164.421875 199.335938 163.414062 C 199.628906 162.617188 200.339844 162.046875 201.1875 161.953125 L 208.546875 161.132812 C 208.808594 161.976562 209.179688 162.785156 209.648438 163.546875 L 207.40625 165.429688 C 206.914062 165.84375 206.230469 165.933594 205.640625 165.679688 C 204.898438 165.359375 204.019531 165.285156 203.382812 165.726562 C 202.316406 166.464844 202.050781 167.929688 202.792969 169 C 203.53125 170.066406 204.996094 170.332031 206.0625 169.589844 C 206.699219 169.152344 206.9375 168.304688 206.898438 167.496094 C 206.867188 166.851562 207.191406 166.246094 207.75 165.929688 L 210.300781 164.488281 C 210.792969 165.121094 211.355469 165.707031 211.996094 166.226562 L 208.507812 172.757812 C 208.105469 173.507812 207.3125 173.953125 206.460938 173.933594 C 205.390625 173.90625 204.273438 174.253906 203.710938 175.105469 C 202.761719 176.542969 203.160156 178.476562 204.597656 179.421875 C 206.035156 180.367188 207.96875 179.972656 208.914062 178.535156 C 209.476562 177.679688 209.351562 176.519531 208.90625 175.542969 C 208.550781 174.769531 208.648438 173.863281 209.179688 173.199219 L 213.804688 167.417969 C 214.605469 167.835938 215.441406 168.144531 216.292969 168.347656 L 216.035156 171.261719 C 215.980469 171.902344 215.5625 172.445312 214.964844 172.683594 C 214.214844 172.984375 213.539062 173.554688 213.402344 174.3125 C 213.171875 175.59375 214.019531 176.816406 215.296875 177.046875 C 216.574219 177.28125 217.800781 176.429688 218.03125 175.152344 C 218.167969 174.394531 217.738281 173.621094 217.140625 173.078125 C 216.664062 172.648438 216.460938 171.988281 216.632812 171.371094 L 217.417969 168.546875 C 218.226562 168.652344 219.042969 168.660156 219.84375 168.578125 L 221.996094 175.664062 C 222.242188 176.476562 222 177.355469 221.382812 177.941406 C 220.605469 178.679688 220.058594 179.714844 220.265625 180.714844 C 220.613281 182.402344 222.257812 183.488281 223.945312 183.140625 C 225.632812 182.792969 226.714844 181.144531 226.371094 179.460938 C 226.164062 178.460938 225.253906 177.722656 224.25 177.351562 C 223.449219 177.054688 222.878906 176.347656 222.785156 175.5 L 221.964844 168.140625 C 222.808594 167.875 223.621094 167.507812 224.382812 167.039062 L 226.261719 169.28125 C 226.675781 169.773438 226.765625 170.457031 226.511719 171.046875 C 226.191406 171.789062 226.121094 172.667969 226.558594 173.300781 C 227.300781 174.371094 228.765625 174.636719 229.832031 173.894531 C 230.898438 173.15625 231.164062 171.691406 230.425781 170.621094 C 229.984375 169.988281 229.136719 169.746094 228.328125 169.785156 C 227.6875 169.816406 227.078125 169.496094 226.761719 168.933594 L 225.320312 166.386719 C 225.953125 165.894531 226.539062 165.332031 227.058594 164.691406 L 233.589844 168.179688 C 234.339844 168.582031 234.789062 169.375 234.765625 170.226562 C 234.738281 171.296875 235.085938 172.414062 235.9375 172.976562 C 237.375 173.921875 239.308594 173.523438 240.253906 172.089844 C 241.203125 170.652344 240.804688 168.71875 239.367188 167.773438 " fill-opacity="1" fill-rule="nonzero"></path></g><path fill="#ffffff" d="M 189.511719 181.117188 C 189.097656 180.84375 188.53125 180.902344 188.058594 181.121094 C 187.683594 181.292969 187.242188 181.246094 186.917969 180.988281 L 184.105469 178.738281 C 184.308594 178.347656 184.457031 177.941406 184.558594 177.527344 L 185.976562 177.648438 C 186.285156 177.675781 186.550781 177.882812 186.667969 178.171875 C 186.8125 178.539062 187.089844 178.867188 187.460938 178.933594 C 188.082031 179.042969 188.679688 178.632812 188.789062 178.011719 C 188.902344 177.386719 188.492188 176.792969 187.867188 176.679688 C 187.5 176.613281 187.125 176.820312 186.859375 177.113281 C 186.648438 177.34375 186.328125 177.441406 186.027344 177.359375 L 184.65625 176.976562 C 184.703125 176.585938 184.707031 176.1875 184.667969 175.796875 L 188.117188 174.75 C 188.511719 174.628906 188.941406 174.75 189.226562 175.050781 C 189.585938 175.425781 190.089844 175.691406 190.574219 175.59375 C 191.394531 175.425781 191.925781 174.621094 191.753906 173.800781 C 191.585938 172.980469 190.785156 172.453125 189.964844 172.621094 C 189.476562 172.722656 189.121094 173.164062 188.9375 173.652344 C 188.792969 174.042969 188.449219 174.320312 188.039062 174.367188 L 184.457031 174.765625 C 184.328125 174.355469 184.148438 173.960938 183.921875 173.589844 L 185.011719 172.675781 C 185.25 172.472656 185.582031 172.429688 185.871094 172.554688 C 186.230469 172.707031 186.660156 172.742188 186.96875 172.53125 C 187.488281 172.171875 187.617188 171.457031 187.257812 170.9375 C 186.898438 170.417969 186.183594 170.289062 185.664062 170.648438 C 185.355469 170.863281 185.238281 171.277344 185.257812 171.667969 C 185.273438 171.980469 185.113281 172.277344 184.84375 172.429688 L 183.601562 173.132812 C 183.363281 172.824219 183.089844 172.539062 182.777344 172.285156 L 184.476562 169.109375 C 184.671875 168.742188 185.054688 168.527344 185.46875 168.535156 C 185.992188 168.550781 186.535156 168.378906 186.808594 167.964844 C 187.269531 167.265625 187.078125 166.324219 186.378906 165.863281 C 185.679688 165.40625 184.738281 165.597656 184.277344 166.296875 C 184.003906 166.710938 184.0625 167.277344 184.28125 167.753906 C 184.453125 168.128906 184.40625 168.570312 184.148438 168.894531 L 181.898438 171.707031 C 181.507812 171.503906 181.101562 171.351562 180.6875 171.253906 L 180.8125 169.835938 C 180.839844 169.523438 181.042969 169.257812 181.332031 169.144531 C 181.699219 169 182.027344 168.71875 182.09375 168.351562 C 182.207031 167.730469 181.792969 167.132812 181.171875 167.019531 C 180.546875 166.90625 179.953125 167.320312 179.839844 167.941406 C 179.773438 168.3125 179.984375 168.6875 180.273438 168.953125 C 180.507812 169.164062 180.605469 169.480469 180.519531 169.785156 L 180.140625 171.15625 C 179.746094 171.105469 179.347656 171.101562 178.957031 171.144531 L 177.910156 167.695312 C 177.789062 167.296875 177.910156 166.871094 178.210938 166.585938 C 178.585938 166.226562 178.851562 165.722656 178.753906 165.234375 C 178.585938 164.414062 177.78125 163.886719 176.960938 164.054688 C 176.144531 164.226562 175.613281 165.027344 175.78125 165.847656 C 175.882812 166.332031 176.324219 166.691406 176.816406 166.871094 C 177.203125 167.015625 177.480469 167.363281 177.527344 167.773438 L 177.925781 171.355469 C 177.515625 171.484375 177.121094 171.664062 176.75 171.890625 L 175.835938 170.800781 C 175.632812 170.558594 175.589844 170.230469 175.714844 169.941406 C 175.871094 169.578125 175.90625 169.152344 175.691406 168.84375 C 175.332031 168.324219 174.617188 168.195312 174.097656 168.554688 C 173.578125 168.914062 173.449219 169.628906 173.808594 170.148438 C 174.023438 170.457031 174.4375 170.574219 174.832031 170.554688 C 175.140625 170.539062 175.4375 170.695312 175.589844 170.96875 L 176.292969 172.210938 C 175.984375 172.445312 175.699219 172.722656 175.445312 173.035156 L 172.269531 171.335938 C 171.902344 171.140625 171.6875 170.753906 171.695312 170.339844 C 171.710938 169.820312 171.542969 169.273438 171.125 169 C 170.425781 168.539062 169.488281 168.734375 169.027344 169.433594 C 168.566406 170.132812 168.757812 171.074219 169.457031 171.535156 C 169.875 171.808594 170.441406 171.75 170.914062 171.53125 C 171.289062 171.359375 171.730469 171.40625 172.054688 171.664062 L 174.867188 173.914062 C 174.664062 174.304688 174.511719 174.710938 174.414062 175.125 L 172.996094 175 C 172.6875 174.972656 172.421875 174.769531 172.304688 174.480469 C 172.160156 174.113281 171.878906 173.785156 171.511719 173.71875 C 170.890625 173.605469 170.292969 174.019531 170.179688 174.640625 C 170.070312 175.261719 170.480469 175.859375 171.101562 175.972656 C 171.472656 176.039062 171.847656 175.828125 172.113281 175.535156 C 172.324219 175.304688 172.644531 175.207031 172.945312 175.292969 L 174.316406 175.671875 C 174.269531 176.066406 174.261719 176.460938 174.304688 176.851562 L 170.855469 177.902344 C 170.457031 178.019531 170.03125 177.902344 169.746094 177.601562 C 169.386719 177.222656 168.882812 176.957031 168.394531 177.058594 C 167.578125 177.226562 167.046875 178.027344 167.214844 178.847656 C 167.386719 179.667969 168.1875 180.195312 169.007812 180.027344 C 169.496094 179.929688 169.851562 179.484375 170.035156 178.996094 C 170.175781 178.609375 170.523438 178.328125 170.933594 178.285156 L 174.515625 177.882812 C 174.644531 178.296875 174.824219 178.691406 175.050781 179.058594 L 173.960938 179.976562 C 173.722656 180.175781 173.390625 180.222656 173.101562 180.097656 C 172.742188 179.941406 172.3125 179.90625 172.003906 180.121094 C 171.484375 180.480469 171.355469 181.195312 171.714844 181.714844 C 172.074219 182.234375 172.789062 182.363281 173.308594 182 C 173.617188 181.789062 173.734375 181.375 173.714844 180.980469 C 173.699219 180.667969 173.855469 180.375 174.128906 180.21875 L 175.371094 179.519531 C 175.609375 179.824219 175.882812 180.109375 176.195312 180.363281 L 174.496094 183.542969 C 174.300781 183.90625 173.914062 184.125 173.5 184.113281 C 172.980469 184.101562 172.4375 184.269531 172.164062 184.683594 C 171.703125 185.382812 171.894531 186.324219 172.59375 186.785156 C 173.292969 187.246094 174.234375 187.050781 174.695312 186.351562 C 174.96875 185.9375 174.910156 185.371094 174.691406 184.898438 C 174.519531 184.523438 174.566406 184.082031 174.824219 183.757812 L 177.074219 180.941406 C 177.464844 181.148438 177.871094 181.296875 178.285156 181.394531 L 178.160156 182.8125 C 178.132812 183.125 177.929688 183.390625 177.640625 183.507812 C 177.273438 183.652344 176.945312 183.929688 176.878906 184.300781 C 176.765625 184.921875 177.179688 185.515625 177.800781 185.628906 C 178.421875 185.742188 179.019531 185.328125 179.132812 184.707031 C 179.199219 184.339844 178.988281 183.960938 178.699219 183.699219 C 178.464844 183.488281 178.367188 183.167969 178.453125 182.867188 L 178.832031 181.496094 C 179.226562 181.542969 179.621094 181.546875 180.015625 181.507812 L 181.0625 184.957031 C 181.179688 185.351562 181.0625 185.78125 180.761719 186.066406 C 180.382812 186.425781 180.117188 186.929688 180.21875 187.414062 C 180.386719 188.234375 181.191406 188.761719 182.007812 188.59375 C 182.828125 188.425781 183.359375 187.625 183.1875 186.804688 C 183.089844 186.316406 182.648438 185.957031 182.15625 185.777344 C 181.769531 185.632812 181.492188 185.289062 181.445312 184.878906 L 181.046875 181.296875 C 181.457031 181.167969 181.851562 180.988281 182.222656 180.757812 L 183.136719 181.851562 C 183.339844 182.089844 183.382812 182.421875 183.257812 182.710938 C 183.101562 183.070312 183.066406 183.5 183.28125 183.808594 C 183.640625 184.328125 184.355469 184.457031 184.875 184.097656 C 185.394531 183.734375 185.523438 183.023438 185.164062 182.503906 C 184.949219 182.195312 184.535156 182.078125 184.140625 182.097656 C 183.828125 182.113281 183.535156 181.953125 183.378906 181.683594 L 182.679688 180.441406 C 182.988281 180.203125 183.269531 179.929688 183.523438 179.617188 L 186.703125 181.3125 C 187.066406 181.507812 187.285156 181.894531 187.273438 182.308594 C 187.261719 182.832031 187.429688 183.375 187.84375 183.648438 C 188.546875 184.109375 189.484375 183.914062 189.945312 183.21875 C 190.40625 182.515625 190.214844 181.578125 189.511719 181.117188 " fill-opacity="1" fill-rule="nonzero"></path><path fill="#ffffff" d="M 165.894531 111.875 C 165.105469 111.351562 164.023438 111.464844 163.121094 111.882812 C 162.40625 112.210938 161.566406 112.121094 160.949219 111.628906 L 153.136719 105.378906 C 153.21875 105.175781 153.292969 104.972656 153.359375 104.765625 L 159.152344 105.269531 C 159.746094 105.324219 160.253906 105.710938 160.472656 106.265625 C 160.75 106.960938 161.277344 107.585938 161.984375 107.714844 C 163.167969 107.929688 164.300781 107.140625 164.515625 105.957031 C 164.730469 104.769531 163.945312 103.636719 162.757812 103.421875 C 162.054688 103.292969 161.339844 103.695312 160.835938 104.25 C 160.4375 104.691406 159.828125 104.875 159.253906 104.714844 L 153.648438 103.160156 C 153.65625 102.988281 153.664062 102.820312 153.660156 102.652344 L 163.234375 99.746094 C 163.988281 99.515625 164.800781 99.742188 165.34375 100.316406 C 166.03125 101.035156 166.988281 101.542969 167.917969 101.351562 C 169.480469 101.03125 170.484375 99.503906 170.164062 97.941406 C 169.84375 96.378906 168.316406 95.371094 166.753906 95.691406 C 165.824219 95.882812 165.144531 96.726562 164.796875 97.660156 C 164.523438 98.398438 163.867188 98.925781 163.082031 99.015625 L 153.140625 100.125 C 153.058594 99.921875 152.964844 99.722656 152.863281 99.53125 L 157.316406 95.792969 C 157.773438 95.40625 158.40625 95.324219 158.953125 95.5625 C 159.640625 95.859375 160.457031 95.925781 161.046875 95.515625 C 162.035156 94.832031 162.28125 93.472656 161.59375 92.484375 C 160.90625 91.492188 159.550781 91.246094 158.558594 91.933594 C 157.972656 92.339844 157.75 93.128906 157.785156 93.878906 C 157.8125 94.472656 157.515625 95.035156 156.996094 95.328125 L 151.933594 98.191406 C 151.820312 98.0625 151.703125 97.941406 151.582031 97.824219 L 156.296875 89 C 156.667969 88.304688 157.402344 87.890625 158.191406 87.910156 C 159.183594 87.933594 160.222656 87.613281 160.742188 86.824219 C 161.621094 85.488281 161.25 83.699219 159.917969 82.820312 C 158.585938 81.945312 156.796875 82.3125 155.917969 83.644531 C 155.398438 84.433594 155.511719 85.511719 155.925781 86.414062 C 156.253906 87.132812 156.164062 87.972656 155.671875 88.589844 L 149.425781 96.402344 C 149.222656 96.316406 149.015625 96.246094 148.808594 96.179688 L 149.316406 90.386719 C 149.367188 89.792969 149.753906 89.285156 150.308594 89.066406 C 151.007812 88.789062 151.632812 88.257812 151.757812 87.554688 C 151.972656 86.371094 151.1875 85.238281 150 85.023438 C 148.816406 84.808594 147.679688 85.59375 147.46875 86.777344 C 147.339844 87.480469 147.738281 88.199219 148.292969 88.703125 C 148.734375 89.101562 148.921875 89.710938 148.761719 90.285156 L 147.203125 95.890625 C 147.035156 95.878906 146.867188 95.875 146.695312 95.878906 L 143.792969 86.304688 C 143.5625 85.550781 143.789062 84.738281 144.359375 84.191406 C 145.082031 83.507812 145.585938 82.550781 145.394531 81.621094 C 145.074219 80.058594 143.546875 79.050781 141.984375 79.375 C 140.421875 79.695312 139.414062 81.222656 139.738281 82.785156 C 139.929688 83.710938 140.769531 84.394531 141.703125 84.738281 C 142.445312 85.015625 142.972656 85.671875 143.058594 86.457031 L 144.167969 96.398438 C 143.964844 96.480469 143.769531 96.574219 143.574219 96.675781 L 139.835938 92.222656 C 139.453125 91.765625 139.371094 91.132812 139.605469 90.585938 C 139.902344 89.898438 139.96875 89.082031 139.5625 88.492188 C 138.875 87.503906 137.515625 87.257812 136.527344 87.945312 C 135.539062 88.628906 135.292969 89.988281 135.976562 90.976562 C 136.386719 91.566406 137.171875 91.789062 137.921875 91.753906 C 138.515625 91.722656 139.082031 92.023438 139.375 92.542969 L 142.234375 97.605469 C 142.109375 97.71875 141.988281 97.835938 141.867188 97.957031 L 133.042969 93.242188 C 132.347656 92.871094 131.933594 92.136719 131.953125 91.347656 C 131.980469 90.351562 131.65625 89.316406 130.867188 88.796875 C 129.535156 87.917969 127.742188 88.285156 126.867188 89.617188 C 125.988281 90.949219 126.355469 92.742188 127.6875 93.621094 C 128.480469 94.140625 129.558594 94.027344 130.460938 93.613281 C 131.175781 93.28125 132.019531 93.371094 132.632812 93.867188 L 140.449219 100.113281 C 140.363281 100.316406 140.289062 100.523438 140.226562 100.730469 L 134.429688 100.222656 C 133.835938 100.171875 133.332031 99.78125 133.109375 99.230469 C 132.835938 98.53125 132.304688 97.90625 131.601562 97.78125 C 130.417969 97.566406 129.28125 98.351562 129.066406 99.539062 C 128.851562 100.722656 129.640625 101.855469 130.824219 102.070312 C 131.527344 102.199219 132.242188 101.800781 132.746094 101.246094 C 133.148438 100.804688 133.757812 100.617188 134.328125 100.777344 L 139.933594 102.335938 C 139.925781 102.503906 139.921875 102.671875 139.921875 102.839844 L 130.351562 105.746094 C 129.59375 105.976562 128.78125 105.75 128.238281 105.175781 C 127.554688 104.457031 126.59375 103.953125 125.667969 104.140625 C 124.105469 104.464844 123.097656 105.992188 123.417969 107.554688 C 123.742188 109.117188 125.265625 110.121094 126.832031 109.800781 C 127.757812 109.609375 128.441406 108.765625 128.785156 107.835938 C 129.058594 107.09375 129.714844 106.566406 130.5 106.476562 L 140.441406 105.371094 C 140.527344 105.570312 140.617188 105.769531 140.722656 105.964844 L 136.265625 109.703125 C 135.808594 110.085938 135.175781 110.167969 134.628906 109.933594 C 133.941406 109.636719 133.125 109.570312 132.539062 109.976562 C 131.546875 110.664062 131.304688 112.019531 131.988281 113.011719 C 132.675781 114 134.035156 114.246094 135.023438 113.558594 C 135.609375 113.152344 135.835938 112.363281 135.796875 111.617188 C 135.769531 111.019531 136.066406 110.457031 136.585938 110.164062 L 141.652344 107.304688 C 141.761719 107.429688 141.878906 107.550781 142 107.671875 L 137.289062 116.492188 C 136.914062 117.191406 136.179688 117.605469 135.390625 117.585938 C 134.398438 117.558594 133.363281 117.878906 132.839844 118.671875 C 131.964844 120.003906 132.332031 121.796875 133.664062 122.671875 C 134.996094 123.550781 136.789062 123.183594 137.664062 121.851562 C 138.1875 121.058594 138.074219 119.980469 137.65625 119.078125 C 137.328125 118.359375 137.417969 117.519531 137.910156 116.90625 L 144.15625 109.089844 C 144.359375 109.175781 144.566406 109.25 144.773438 109.3125 L 144.265625 115.109375 C 144.214844 115.699219 143.828125 116.207031 143.273438 116.425781 C 142.578125 116.703125 141.953125 117.234375 141.824219 117.9375 C 141.609375 119.121094 142.398438 120.257812 143.582031 120.472656 C 144.765625 120.6875 145.902344 119.898438 146.117188 118.714844 C 146.242188 118.011719 145.84375 117.296875 145.289062 116.792969 C 144.847656 116.390625 144.664062 115.78125 144.820312 115.207031 L 146.378906 109.601562 C 146.546875 109.613281 146.71875 109.617188 146.886719 109.617188 L 149.792969 119.1875 C 150.019531 119.941406 149.792969 120.757812 149.222656 121.300781 C 148.503906 121.984375 147.996094 122.945312 148.1875 123.871094 C 148.507812 125.433594 150.035156 126.441406 151.597656 126.121094 C 153.160156 125.796875 154.167969 124.269531 153.847656 122.707031 C 153.65625 121.78125 152.8125 121.097656 151.878906 120.753906 C 151.140625 120.480469 150.609375 119.820312 150.523438 119.039062 L 149.414062 109.09375 C 149.617188 109.011719 149.816406 108.917969 150.007812 108.816406 L 153.746094 113.273438 C 154.128906 113.730469 154.214844 114.359375 153.976562 114.90625 C 153.679688 115.597656 153.613281 116.414062 154.019531 117 C 154.707031 117.988281 156.066406 118.234375 157.054688 117.550781 C 158.046875 116.863281 158.292969 115.503906 157.605469 114.515625 C 157.199219 113.925781 156.410156 113.703125 155.660156 113.742188 C 155.066406 113.769531 154.503906 113.46875 154.210938 112.953125 L 151.347656 107.886719 C 151.472656 107.777344 151.597656 107.660156 151.714844 107.535156 L 160.539062 112.25 C 161.234375 112.621094 161.648438 113.359375 161.628906 114.148438 C 161.605469 115.140625 161.925781 116.175781 162.714844 116.695312 C 164.046875 117.574219 165.839844 117.207031 166.71875 115.875 C 167.59375 114.542969 167.226562 112.75 165.894531 111.875 " fill-opacity="1" fill-rule="nonzero"></path><path fill="#ffffff" d="M 217.214844 152.855469 C 216.734375 152.230469 215.855469 152.027344 215.03125 152.109375 C 214.375 152.175781 213.738281 151.875 213.386719 151.320312 L 208.835938 144.136719 C 208.914062 144.046875 208.988281 143.957031 209.0625 143.859375 L 211.140625 144.96875 C 211.46875 145.148438 211.664062 145.492188 211.65625 145.867188 C 211.644531 146.335938 211.792969 146.828125 212.167969 147.074219 C 212.796875 147.488281 213.644531 147.3125 214.058594 146.683594 C 214.476562 146.054688 214.300781 145.207031 213.671875 144.792969 C 213.296875 144.546875 212.789062 144.601562 212.359375 144.796875 C 212.023438 144.953125 211.625 144.910156 211.332031 144.675781 L 209.492188 143.203125 C 210.007812 142.292969 210.238281 141.289062 210.203125 140.300781 L 217.144531 138.195312 C 217.722656 138.019531 218.339844 138.195312 218.753906 138.628906 C 219.273438 139.175781 220.003906 139.5625 220.710938 139.417969 C 221.898438 139.171875 222.664062 138.011719 222.417969 136.820312 C 222.175781 135.632812 221.011719 134.867188 219.824219 135.113281 C 219.117188 135.257812 218.597656 135.898438 218.335938 136.605469 C 218.128906 137.167969 217.628906 137.574219 217.03125 137.640625 L 209.824219 138.441406 C 209.765625 138.296875 209.699219 138.152344 209.632812 138.007812 L 215.863281 132.222656 C 216.34375 131.777344 217.035156 131.648438 217.652344 131.878906 C 218.429688 132.167969 219.332031 132.195312 219.957031 131.714844 C 221.011719 130.902344 221.207031 129.390625 220.394531 128.339844 C 219.582031 127.285156 218.070312 127.089844 217.019531 127.902344 C 216.394531 128.382812 216.191406 129.261719 216.273438 130.085938 C 216.335938 130.742188 216.039062 131.378906 215.480469 131.730469 L 208.296875 136.28125 C 208.210938 136.203125 208.117188 136.128906 208.023438 136.054688 L 209.132812 133.976562 C 209.308594 133.648438 209.65625 133.453125 210.03125 133.460938 C 210.5 133.472656 210.988281 133.324219 211.234375 132.949219 C 211.652344 132.320312 211.476562 131.472656 210.847656 131.058594 C 210.214844 130.640625 209.371094 130.816406 208.953125 131.445312 C 208.707031 131.820312 208.761719 132.332031 208.957031 132.757812 C 209.113281 133.097656 209.070312 133.492188 208.839844 133.785156 L 207.367188 135.625 C 206.457031 135.109375 205.453125 134.882812 204.464844 134.914062 L 202.359375 127.972656 C 202.183594 127.398438 202.355469 126.777344 202.792969 126.363281 C 203.339844 125.84375 203.722656 125.113281 203.578125 124.410156 C 203.332031 123.21875 202.171875 122.453125 200.984375 122.699219 C 199.796875 122.941406 199.03125 124.105469 199.273438 125.292969 C 199.417969 126 200.0625 126.519531 200.769531 126.78125 C 201.332031 126.988281 201.734375 127.488281 201.800781 128.085938 L 202.605469 135.296875 C 202.457031 135.351562 202.3125 135.417969 202.171875 135.488281 L 196.386719 129.253906 C 195.9375 128.773438 195.8125 128.082031 196.042969 127.464844 C 196.332031 126.6875 196.359375 125.785156 195.878906 125.160156 C 195.066406 124.105469 193.554688 123.910156 192.5 124.722656 C 191.449219 125.535156 191.253906 127.046875 192.0625 128.097656 C 192.542969 128.722656 193.425781 128.925781 194.25 128.84375 C 194.90625 128.78125 195.542969 129.078125 195.894531 129.636719 L 200.445312 136.816406 C 200.367188 136.90625 200.292969 137 200.21875 137.09375 L 198.140625 135.984375 C 197.8125 135.808594 197.617188 135.460938 197.625 135.085938 C 197.636719 134.617188 197.484375 134.128906 197.113281 133.882812 C 196.480469 133.46875 195.636719 133.640625 195.21875 134.269531 C 194.804688 134.902344 194.980469 135.746094 195.609375 136.164062 C 195.984375 136.410156 196.492188 136.355469 196.917969 136.160156 C 197.257812 136.003906 197.65625 136.046875 197.945312 136.277344 L 199.785156 137.75 C 199.273438 138.660156 199.042969 139.664062 199.074219 140.652344 L 192.132812 142.761719 C 191.558594 142.933594 190.941406 142.761719 190.527344 142.324219 C 190.007812 141.777344 189.277344 141.394531 188.570312 141.539062 C 187.382812 141.785156 186.617188 142.945312 186.863281 144.132812 C 187.105469 145.324219 188.265625 146.085938 189.457031 145.84375 C 190.160156 145.699219 190.679688 145.058594 190.941406 144.347656 C 191.152344 143.785156 191.652344 143.382812 192.25 143.316406 L 199.457031 142.511719 C 199.515625 142.660156 199.578125 142.804688 199.648438 142.945312 L 193.417969 148.730469 C 192.9375 149.179688 192.242188 149.304688 191.628906 149.074219 C 190.851562 148.785156 189.949219 148.757812 189.324219 149.238281 C 188.269531 150.050781 188.074219 151.5625 188.886719 152.617188 C 189.695312 153.667969 191.207031 153.867188 192.261719 153.054688 C 192.886719 152.574219 193.089844 151.691406 193.007812 150.867188 C 192.941406 150.210938 193.242188 149.574219 193.796875 149.222656 L 200.980469 144.675781 C 201.070312 144.75 201.160156 144.824219 201.257812 144.898438 L 200.148438 146.976562 C 199.972656 147.304688 199.625 147.5 199.25 147.492188 C 198.78125 147.480469 198.292969 147.632812 198.042969 148.003906 C 197.628906 148.636719 197.804688 149.484375 198.433594 149.898438 C 199.0625 150.3125 199.910156 150.136719 200.324219 149.507812 C 200.570312 149.132812 200.519531 148.625 200.320312 148.199219 C 200.164062 147.859375 200.207031 147.460938 200.441406 147.171875 L 201.914062 145.332031 C 202.824219 145.84375 203.828125 146.074219 204.816406 146.042969 L 206.921875 152.984375 C 207.097656 153.558594 206.925781 154.175781 206.488281 154.589844 C 205.941406 155.109375 205.554688 155.839844 205.703125 156.546875 C 205.945312 157.734375 207.109375 158.5 208.296875 158.257812 C 209.484375 158.011719 210.25 156.851562 210.007812 155.660156 C 209.859375 154.957031 209.21875 154.4375 208.511719 154.175781 C 207.949219 153.964844 207.542969 153.464844 207.480469 152.871094 L 206.675781 145.660156 C 206.820312 145.601562 206.964844 145.539062 207.109375 145.46875 L 212.894531 151.699219 C 213.339844 152.179688 213.46875 152.875 213.238281 153.488281 C 212.949219 154.265625 212.921875 155.171875 213.402344 155.792969 C 214.214844 156.847656 215.726562 157.042969 216.777344 156.234375 C 217.832031 155.421875 218.027344 153.910156 217.214844 152.855469 " fill-opacity="1" fill-rule="nonzero"></path><path fill="#ffffff" d="M 166.675781 159.75 C 166.566406 159.226562 166.089844 158.84375 165.5625 158.648438 C 165.144531 158.496094 164.84375 158.125 164.796875 157.683594 L 164.144531 151.957031 C 164.21875 151.925781 164.289062 151.890625 164.363281 151.855469 L 165.300781 153.144531 C 165.449219 153.351562 165.464844 153.621094 165.351562 153.84375 C 165.203125 154.128906 165.152344 154.472656 165.308594 154.730469 C 165.570312 155.171875 166.136719 155.316406 166.574219 155.054688 C 167.015625 154.792969 167.160156 154.226562 166.898438 153.785156 C 166.742188 153.523438 166.414062 153.40625 166.097656 153.398438 C 165.84375 153.394531 165.617188 153.25 165.507812 153.023438 L 164.820312 151.582031 C 165.402344 151.179688 165.839844 150.632812 166.109375 150.023438 L 170.96875 150.789062 C 171.371094 150.851562 171.695312 151.140625 171.820312 151.527344 C 171.976562 152.015625 172.308594 152.464844 172.78125 152.585938 C 173.578125 152.789062 174.386719 152.308594 174.589844 151.507812 C 174.792969 150.710938 174.308594 149.902344 173.511719 149.699219 C 173.039062 149.578125 172.53125 149.816406 172.164062 150.171875 C 171.871094 150.453125 171.445312 150.550781 171.0625 150.414062 L 166.425781 148.773438 C 166.4375 148.667969 166.441406 148.5625 166.4375 148.453125 L 171.949219 146.765625 C 172.375 146.636719 172.835938 146.765625 173.144531 147.085938 C 173.53125 147.492188 174.074219 147.777344 174.597656 147.667969 C 175.480469 147.484375 176.046875 146.621094 175.863281 145.738281 C 175.679688 144.855469 174.816406 144.289062 173.933594 144.472656 C 173.410156 144.582031 173.023438 145.058594 172.832031 145.585938 C 172.675781 146.003906 172.308594 146.304688 171.863281 146.355469 L 166.136719 147.007812 C 166.105469 146.933594 166.070312 146.859375 166.035156 146.789062 L 167.328125 145.847656 C 167.53125 145.699219 167.800781 145.683594 168.027344 145.796875 C 168.308594 145.945312 168.652344 145.996094 168.914062 145.84375 C 169.351562 145.582031 169.496094 145.011719 169.234375 144.574219 C 168.972656 144.132812 168.40625 143.988281 167.964844 144.25 C 167.707031 144.40625 167.589844 144.734375 167.582031 145.050781 C 167.578125 145.304688 167.433594 145.535156 167.203125 145.644531 L 165.761719 146.328125 C 165.359375 145.746094 164.816406 145.308594 164.203125 145.039062 L 164.96875 140.183594 C 165.035156 139.78125 165.320312 139.453125 165.710938 139.328125 C 166.199219 139.175781 166.648438 138.84375 166.769531 138.371094 C 166.96875 137.574219 166.488281 136.761719 165.691406 136.558594 C 164.894531 136.355469 164.082031 136.839844 163.878906 137.636719 C 163.761719 138.109375 164 138.617188 164.351562 138.984375 C 164.636719 139.277344 164.734375 139.703125 164.597656 140.085938 L 162.957031 144.722656 C 162.847656 144.714844 162.742188 144.710938 162.636719 144.710938 L 160.949219 139.199219 C 160.816406 138.773438 160.945312 138.3125 161.269531 138.003906 C 161.671875 137.617188 161.957031 137.074219 161.847656 136.550781 C 161.664062 135.667969 160.800781 135.101562 159.917969 135.285156 C 159.035156 135.46875 158.46875 136.335938 158.652344 137.214844 C 158.761719 137.738281 159.242188 138.125 159.765625 138.316406 C 160.183594 138.472656 160.484375 138.84375 160.535156 139.285156 L 161.1875 145.011719 C 161.113281 145.042969 161.039062 145.078125 160.96875 145.113281 L 160.03125 143.824219 C 159.882812 143.617188 159.863281 143.347656 159.980469 143.125 C 160.125 142.839844 160.179688 142.496094 160.023438 142.234375 C 159.761719 141.796875 159.195312 141.652344 158.753906 141.914062 C 158.316406 142.175781 158.171875 142.742188 158.433594 143.183594 C 158.585938 143.445312 158.914062 143.5625 159.234375 143.566406 C 159.484375 143.574219 159.714844 143.714844 159.824219 143.945312 L 160.511719 145.386719 C 159.929688 145.789062 159.492188 146.335938 159.21875 146.945312 L 154.363281 146.179688 C 153.960938 146.117188 153.636719 145.828125 153.511719 145.441406 C 153.355469 144.953125 153.023438 144.5 152.550781 144.382812 C 151.753906 144.179688 150.941406 144.660156 150.742188 145.457031 C 150.539062 146.257812 151.019531 147.066406 151.816406 147.269531 C 152.292969 147.386719 152.796875 147.152344 153.167969 146.796875 C 153.460938 146.515625 153.886719 146.417969 154.269531 146.550781 L 158.902344 148.195312 C 158.894531 148.300781 158.890625 148.40625 158.890625 148.515625 L 153.382812 150.199219 C 152.953125 150.332031 152.496094 150.203125 152.1875 149.882812 C 151.800781 149.476562 151.257812 149.191406 150.734375 149.300781 C 149.851562 149.484375 149.285156 150.347656 149.46875 151.230469 C 149.652344 152.113281 150.515625 152.679688 151.398438 152.496094 C 151.921875 152.386719 152.304688 151.910156 152.5 151.382812 C 152.652344 150.964844 153.023438 150.664062 153.46875 150.613281 L 159.191406 149.960938 C 159.226562 150.035156 159.257812 150.109375 159.292969 150.179688 L 158.003906 151.121094 C 157.800781 151.269531 157.53125 151.285156 157.304688 151.167969 C 157.023438 151.023438 156.679688 150.972656 156.417969 151.125 C 155.976562 151.386719 155.832031 151.957031 156.09375 152.394531 C 156.355469 152.835938 156.925781 152.976562 157.363281 152.71875 C 157.625 152.5625 157.742188 152.234375 157.75 151.917969 C 157.753906 151.664062 157.898438 151.433594 158.125 151.324219 L 159.566406 150.636719 C 159.972656 151.21875 160.515625 151.65625 161.128906 151.929688 L 160.359375 156.785156 C 160.296875 157.1875 160.007812 157.515625 159.621094 157.636719 C 159.132812 157.792969 158.683594 158.125 158.5625 158.597656 C 158.359375 159.394531 158.84375 160.207031 159.640625 160.410156 C 160.4375 160.609375 161.246094 160.128906 161.449219 159.332031 C 161.570312 158.859375 161.332031 158.351562 160.976562 157.980469 C 160.695312 157.6875 160.597656 157.265625 160.734375 156.882812 L 162.375 152.246094 C 162.480469 152.253906 162.589844 152.257812 162.695312 152.257812 L 164.382812 157.769531 C 164.511719 158.195312 164.386719 158.65625 164.0625 158.960938 C 163.65625 159.351562 163.371094 159.894531 163.480469 160.417969 C 163.664062 161.300781 164.53125 161.863281 165.410156 161.679688 C 166.292969 161.496094 166.859375 160.632812 166.675781 159.75 " fill-opacity="1" fill-rule="nonzero"></path></svg>