<svg xmlns="http://www.w3.org/2000/svg" xmlns:xlink="http://www.w3.org/1999/xlink" width="400" viewBox="0 0 300 299.999988" height="400" preserveAspectRatio="xMidYMid meet"><defs><g></g></defs><path fill="#fbb424" d="M 247.871094 153.683594 C 271.292969 180.128906 263.78125 203.582031 229.175781 211.226562 C 232.589844 246.53125 212.59375 260.894531 180.226562 246.792969 C 162.273438 277.308594 137.65625 277.289062 119.714844 246.792969 C 87.328125 260.902344 67.351562 246.511719 70.765625 211.226562 C 36.347656 203.621094 28.523438 180.269531 52.070312 153.683594 C 28.648438 127.242188 36.160156 103.789062 70.765625 96.140625 C 67.351562 60.839844 87.347656 46.476562 119.714844 60.578125 C 137.667969 30.0625 162.285156 30.082031 180.226562 60.578125 C 212.613281 46.46875 232.589844 60.859375 229.175781 96.140625 C 263.59375 103.746094 271.417969 127.101562 247.871094 153.683594 Z M 247.871094 153.683594 " fill-opacity="1" fill-rule="nonzero"></path><path fill="#e6e6eb" d="M 207.957031 153.683594 C 207.957031 155.582031 207.867188 157.480469 207.679688 159.367188 C 207.492188 161.257812 207.214844 163.136719 206.84375 164.996094 C 206.472656 166.859375 206.011719 168.699219 205.460938 170.519531 C 204.910156 172.335938 204.269531 174.121094 203.542969 175.875 C 202.816406 177.628906 202.007812 179.34375 201.109375 181.019531 C 200.214844 182.695312 199.242188 184.320312 198.1875 185.902344 C 197.128906 187.480469 196 189.003906 194.796875 190.472656 C 193.589844 191.941406 192.316406 193.34375 190.972656 194.6875 C 189.632812 196.03125 188.226562 197.304688 186.757812 198.507812 C 185.289062 199.714844 183.765625 200.84375 182.1875 201.898438 C 180.609375 202.953125 178.980469 203.929688 177.304688 204.824219 C 175.632812 205.71875 173.917969 206.53125 172.160156 207.257812 C 170.40625 207.984375 168.621094 208.625 166.804688 209.175781 C 164.988281 209.726562 163.148438 210.1875 161.285156 210.558594 C 159.421875 210.929688 157.542969 211.207031 155.65625 211.394531 C 153.765625 211.578125 151.871094 211.671875 149.972656 211.671875 C 148.070312 211.671875 146.175781 211.578125 144.289062 211.394531 C 142.398438 211.207031 140.519531 210.929688 138.660156 210.558594 C 136.796875 210.1875 134.957031 209.726562 133.136719 209.175781 C 131.320312 208.625 129.535156 207.984375 127.78125 207.257812 C 126.027344 206.53125 124.3125 205.71875 122.636719 204.824219 C 120.960938 203.929688 119.335938 202.953125 117.753906 201.898438 C 116.175781 200.84375 114.652344 199.714844 113.183594 198.507812 C 111.714844 197.304688 110.3125 196.03125 108.96875 194.6875 C 107.625 193.34375 106.351562 191.941406 105.144531 190.472656 C 103.941406 189.003906 102.8125 187.480469 101.757812 185.902344 C 100.703125 184.320312 99.726562 182.695312 98.832031 181.019531 C 97.9375 179.34375 97.125 177.628906 96.398438 175.875 C 95.671875 174.121094 95.03125 172.335938 94.480469 170.519531 C 93.929688 168.699219 93.46875 166.859375 93.097656 164.996094 C 92.726562 163.136719 92.449219 161.257812 92.261719 159.367188 C 92.078125 157.480469 91.984375 155.582031 91.984375 153.683594 C 91.984375 151.785156 92.078125 149.890625 92.261719 148 C 92.449219 146.109375 92.726562 144.234375 93.097656 142.371094 C 93.46875 140.507812 93.929688 138.667969 94.480469 136.851562 C 95.03125 135.035156 95.671875 133.25 96.398438 131.492188 C 97.125 129.738281 97.9375 128.023438 98.832031 126.351562 C 99.726562 124.675781 100.703125 123.046875 101.757812 121.46875 C 102.8125 119.890625 103.941406 118.367188 105.144531 116.898438 C 106.351562 115.429688 107.625 114.023438 108.96875 112.683594 C 110.3125 111.339844 111.714844 110.066406 113.183594 108.859375 C 114.652344 107.65625 116.175781 106.523438 117.753906 105.46875 C 119.335938 104.414062 120.960938 103.441406 122.636719 102.542969 C 124.3125 101.648438 126.027344 100.839844 127.78125 100.113281 C 129.535156 99.386719 131.320312 98.746094 133.136719 98.195312 C 134.957031 97.644531 136.796875 97.183594 138.660156 96.8125 C 140.519531 96.441406 142.398438 96.164062 144.289062 95.976562 C 146.175781 95.789062 148.070312 95.699219 149.972656 95.699219 C 151.871094 95.699219 153.765625 95.789062 155.65625 95.976562 C 157.542969 96.164062 159.421875 96.441406 161.285156 96.8125 C 163.148438 97.183594 164.988281 97.644531 166.804688 98.195312 C 168.621094 98.746094 170.40625 99.386719 172.160156 100.113281 C 173.917969 100.839844 175.632812 101.648438 177.304688 102.542969 C 178.980469 103.441406 180.609375 104.414062 182.1875 105.46875 C 183.765625 106.523438 185.289062 107.65625 186.757812 108.859375 C 188.226562 110.066406 189.632812 111.339844 190.972656 112.683594 C 192.316406 114.023438 193.589844 115.429688 194.796875 116.898438 C 196 118.367188 197.128906 119.890625 198.1875 121.46875 C 199.242188 123.046875 200.214844 124.675781 201.109375 126.351562 C 202.007812 128.023438 202.816406 129.738281 203.542969 131.492188 C 204.269531 133.25 204.910156 135.035156 205.460938 136.851562 C 206.011719 138.667969 206.472656 140.507812 206.84375 142.371094 C 207.214844 144.234375 207.492188 146.109375 207.679688 148 C 207.867188 149.890625 207.957031 151.785156 207.957031 153.683594 Z M 207.957031 153.683594 " fill-opacity="1" fill-rule="nonzero"></path><path fill="#fbb424" d="M 138.5625 172.339844 L 124.066406 157.84375 C 121.238281 155.011719 121.238281 150.421875 124.066406 147.59375 C 126.898438 144.761719 131.488281 144.761719 134.316406 147.59375 L 143.6875 156.964844 L 165.625 135.027344 C 168.453125 132.199219 173.042969 132.199219 175.875 135.027344 C 178.707031 137.859375 178.707031 142.449219 175.875 145.28125 L 148.816406 172.339844 C 145.984375 175.171875 141.394531 175.171875 138.5625 172.339844 Z M 138.5625 172.339844 " fill-opacity="1" fill-rule="nonzero"></path><path fill="#fbb424" d="M 149.972656 276.90625 C 137.730469 276.90625 126.351562 269.613281 116.8125 255.734375 C 100.9375 261.355469 87.449219 260.570312 77.542969 253.375 C 67.640625 246.179688 62.722656 233.589844 63.164062 216.753906 C 47.015625 211.972656 36.5625 203.40625 32.777344 191.761719 C 28.996094 180.121094 32.417969 167.046875 42.671875 153.683594 C 32.417969 140.324219 28.996094 127.25 32.777344 115.605469 C 36.5625 103.964844 47.015625 95.398438 63.164062 90.617188 C 62.722656 73.777344 67.640625 61.191406 77.542969 53.996094 C 87.445312 46.800781 100.9375 46.011719 116.8125 51.636719 C 126.351562 37.753906 137.730469 30.460938 149.972656 30.460938 C 162.210938 30.460938 173.589844 37.753906 183.128906 51.636719 C 199.003906 46.015625 212.496094 46.800781 222.398438 53.996094 C 232.304688 61.191406 237.21875 73.777344 236.777344 90.617188 C 252.929688 95.398438 263.378906 103.964844 267.164062 115.605469 C 270.945312 127.25 267.527344 140.324219 257.269531 153.683594 C 267.527344 167.046875 270.945312 180.121094 267.164062 191.761719 C 263.378906 203.40625 252.929688 211.972656 236.777344 216.753906 C 237.21875 233.589844 232.304688 246.179688 222.398438 253.375 C 212.496094 260.570312 199.003906 261.355469 183.128906 255.734375 C 173.589844 269.613281 162.210938 276.90625 149.972656 276.90625 Z M 125.964844 243.121094 C 133.28125 255.558594 141.808594 262.410156 149.972656 262.410156 C 158.136719 262.410156 166.660156 255.558594 173.976562 243.121094 C 175.835938 239.960938 179.761719 238.683594 183.117188 240.148438 C 196.351562 245.914062 207.273438 246.445312 213.878906 241.648438 C 220.484375 236.847656 223.351562 226.292969 221.960938 211.929688 C 221.605469 208.28125 224.03125 204.941406 227.609375 204.152344 C 241.703125 201.039062 250.851562 195.046875 253.375 187.28125 C 255.898438 179.519531 252.015625 169.292969 242.445312 158.492188 C 240.015625 155.75 240.015625 151.621094 242.445312 148.878906 C 252.015625 138.074219 255.898438 127.851562 253.375 120.085938 C 250.851562 112.324219 241.703125 106.332031 227.609375 103.21875 C 224.03125 102.425781 221.605469 99.089844 221.960938 95.441406 C 223.351562 81.074219 220.484375 70.523438 213.878906 65.722656 C 207.273438 60.925781 196.351562 61.457031 183.117188 67.222656 C 179.761719 68.683594 175.835938 67.410156 173.976562 64.25 C 166.660156 51.808594 158.136719 44.957031 149.972656 44.957031 C 141.808594 44.957031 133.28125 51.808594 125.964844 64.25 C 124.109375 67.410156 120.183594 68.683594 116.824219 67.21875 C 103.589844 61.457031 92.667969 60.925781 86.0625 65.722656 C 79.460938 70.523438 76.589844 81.074219 77.980469 95.441406 C 78.335938 99.089844 75.910156 102.425781 72.332031 103.21875 C 58.238281 106.332031 49.089844 112.324219 46.566406 120.085938 C 44.042969 127.851562 47.925781 138.074219 57.496094 148.878906 C 59.925781 151.621094 59.925781 155.746094 57.496094 158.492188 C 47.925781 169.292969 44.042969 179.519531 46.566406 187.28125 C 49.089844 195.046875 58.238281 201.039062 72.332031 204.152344 C 75.910156 204.941406 78.335938 208.28125 77.980469 211.929688 C 76.589844 226.292969 79.460938 236.847656 86.0625 241.644531 C 92.667969 246.445312 103.589844 245.914062 116.824219 240.148438 C 120.175781 238.6875 124.105469 239.953125 125.964844 243.121094 Z M 125.964844 243.121094 " fill-opacity="1" fill-rule="nonzero"></path><path fill="#d7d6e8" d="M 149.972656 218.921875 C 114 218.921875 84.734375 189.65625 84.734375 153.683594 C 84.734375 117.714844 114 88.449219 149.972656 88.449219 C 185.941406 88.449219 215.207031 117.714844 215.207031 153.683594 C 215.207031 189.65625 185.941406 218.921875 149.972656 218.921875 Z M 149.972656 102.945312 C 121.992188 102.945312 99.230469 125.707031 99.230469 153.683594 C 99.230469 181.664062 121.992188 204.421875 149.972656 204.421875 C 177.949219 204.421875 200.710938 181.664062 200.710938 153.683594 C 200.710938 125.707031 177.949219 102.945312 149.972656 102.945312 Z M 149.972656 102.945312 " fill-opacity="1" fill-rule="nonzero"></path><g fill="#fbb424" fill-opacity="1"><g transform="translate(145.584369, 161.624987)"><g><path d="M 4.40625 0.140625 C 3.851562 0.140625 3.363281 0.03125 2.9375 -0.1875 C 2.519531 -0.414062 2.195312 -0.726562 1.96875 -1.125 C 1.75 -1.519531 1.640625 -1.96875 1.640625 -2.46875 C 1.640625 -2.96875 1.75 -3.414062 1.96875 -3.8125 C 2.195312 -4.207031 2.519531 -4.519531 2.9375 -4.75 C 3.363281 -4.976562 3.851562 -5.09375 4.40625 -5.09375 C 4.96875 -5.09375 5.457031 -4.976562 5.875 -4.75 C 6.300781 -4.53125 6.625 -4.222656 6.84375 -3.828125 C 7.070312 -3.429688 7.1875 -2.984375 7.1875 -2.484375 C 7.1875 -1.722656 6.929688 -1.09375 6.421875 -0.59375 C 5.921875 -0.101562 5.25 0.140625 4.40625 0.140625 Z M 4.40625 0.140625 "></path></g></g></g></svg>