<svg xmlns="http://www.w3.org/2000/svg" xmlns:xlink="http://www.w3.org/1999/xlink" width="400" viewBox="0 0 300 299.999988" height="400" preserveAspectRatio="xMidYMid meet"><defs><clipPath id="48f85c8d90"><path d="M 40.5 30 L 259.5 30 L 259.5 270 L 40.5 270 Z M 40.5 30 " clip-rule="nonzero"></path></clipPath></defs><g clip-path="url(#48f85c8d90)"><path fill="#fbb424" d="M 68.984375 140.980469 C 64.96875 140.980469 60.5 134.601562 60.5 125.445312 C 60.5 116.289062 64.96875 109.910156 68.984375 109.910156 C 73 109.910156 77.472656 116.289062 77.472656 125.445312 C 77.472656 134.601562 73 140.980469 68.984375 140.980469 Z M 68.984375 102.636719 C 60.152344 102.636719 53.226562 112.652344 53.226562 125.445312 C 53.226562 138.234375 60.152344 148.253906 68.984375 148.253906 C 77.816406 148.253906 84.742188 138.238281 84.742188 125.445312 C 84.742188 112.652344 77.820312 102.636719 68.984375 102.636719 Z M 206.214844 37.265625 C 208.367188 37.265625 210.109375 39.007812 210.109375 41.152344 C 210.109375 43.300781 208.367188 45.046875 206.214844 45.046875 C 204.074219 45.046875 202.328125 43.300781 202.328125 41.152344 C 202.328125 39.007812 204.074219 37.265625 206.214844 37.265625 Z M 206.214844 52.320312 C 212.375 52.320312 217.382812 47.3125 217.382812 41.152344 C 217.382812 35 212.375 29.992188 206.214844 29.992188 C 200.066406 29.992188 195.054688 35 195.054688 41.152344 C 195.054688 47.308594 200.066406 52.320312 206.214844 52.320312 Z M 243.238281 39.859375 C 247.046875 39.859375 250.140625 42.957031 250.140625 46.761719 C 250.140625 50.5625 247.042969 53.664062 243.238281 53.664062 C 239.433594 53.664062 236.335938 50.5625 236.335938 46.761719 C 236.335938 42.957031 239.433594 39.859375 243.238281 39.859375 Z M 243.238281 60.9375 C 251.054688 60.9375 257.414062 54.574219 257.414062 46.761719 C 257.414062 38.945312 251.054688 32.585938 243.238281 32.585938 C 235.421875 32.585938 229.0625 38.945312 229.0625 46.761719 C 229.0625 54.574219 235.421875 60.9375 243.238281 60.9375 Z M 170.414062 74.785156 C 168.550781 74.785156 167.039062 73.269531 167.039062 71.410156 C 167.039062 69.546875 168.550781 68.035156 170.414062 68.035156 C 172.277344 68.035156 173.789062 69.546875 173.789062 71.410156 C 173.789062 73.273438 172.277344 74.785156 170.414062 74.785156 Z M 170.414062 60.761719 C 164.542969 60.761719 159.765625 65.539062 159.765625 71.410156 C 159.765625 77.28125 164.542969 82.058594 170.414062 82.058594 C 176.285156 82.058594 181.0625 77.28125 181.0625 71.410156 C 181.0625 65.539062 176.285156 60.761719 170.414062 60.761719 Z M 240.835938 144.722656 C 247.441406 143.226562 252.050781 137.441406 252.050781 130.65625 C 252.050781 122.371094 245.042969 115.753906 236.765625 116.25 C 233.21875 116.464844 231.539062 111.988281 234.269531 109.792969 C 239.828125 105.308594 243.019531 98.644531 243.019531 91.511719 C 243.019531 78.574219 232.5 68.054688 219.5625 68.054688 C 212.214844 68.054688 205.429688 71.398438 200.945312 77.234375 C 198.898438 79.898438 194.609375 78.566406 194.433594 75.207031 C 193.777344 62.753906 183.484375 53 171.003906 53 C 155.617188 53 144.425781 67.597656 148.308594 82.421875 C 148.796875 84.289062 147.738281 86.210938 145.898438 86.804688 C 135.75 90.058594 132.5625 102.765625 139.832031 110.460938 C 141.460938 112.1875 141.023438 114.992188 138.953125 116.144531 C 131.484375 120.285156 126.84375 128.152344 126.84375 136.679688 C 126.84375 150.945312 139.507812 161.972656 153.792969 159.871094 L 153.792969 87.40625 C 153.792969 84.574219 156.910156 82.820312 159.332031 84.3125 L 190 103.183594 C 190.535156 99.035156 194.085938 95.8125 198.375 95.8125 L 208.613281 95.8125 C 215.597656 95.8125 221.28125 101.496094 221.28125 108.484375 L 221.28125 173.195312 C 230.808594 178.828125 243.019531 171.945312 243.019531 160.765625 C 243.019531 157.03125 241.601562 153.488281 239.015625 150.789062 C 237.066406 148.75 238.082031 145.351562 240.835938 144.722656 Z M 189.921875 168.523438 L 161.066406 186.277344 L 161.066406 174.25 L 175.046875 169.085938 C 176.929688 168.386719 177.894531 166.296875 177.199219 164.410156 C 176.503906 162.527344 174.414062 161.566406 172.527344 162.257812 L 161.066406 166.488281 L 161.066406 153.855469 L 174.234375 152.230469 C 176.226562 151.988281 177.644531 150.171875 177.402344 148.175781 C 177.152344 146.183594 175.335938 144.765625 173.34375 145.015625 L 161.066406 146.523438 L 161.066406 133.671875 L 173.792969 135.210938 C 175.601562 135.210938 177.171875 133.863281 177.402344 132.019531 C 177.644531 130.023438 176.226562 128.207031 174.234375 127.964844 L 161.066406 126.34375 L 161.066406 113.699219 L 172.527344 117.933594 C 174.386719 118.625 176.5 117.695312 177.199219 115.785156 C 177.894531 113.898438 176.933594 111.808594 175.046875 111.113281 L 161.066406 105.945312 L 161.066406 93.871094 L 189.921875 111.671875 Z M 205.601562 166.621094 L 197.191406 166.621094 L 197.191406 104.269531 C 197.191406 103.628906 197.738281 103.085938 198.375 103.085938 L 208.613281 103.085938 C 211.589844 103.085938 214.011719 105.507812 214.011719 108.484375 L 214.011719 222.320312 C 214.011719 223.609375 212.914062 224.707031 211.625 224.707031 C 210.332031 224.707031 209.238281 223.609375 209.238281 222.320312 L 209.238281 170.257812 C 209.238281 168.25 207.609375 166.621094 205.601562 166.621094 Z M 230.222656 243.539062 L 230.222656 244.890625 L 97.734375 244.890625 L 97.734375 128.816406 C 98.039062 117.953125 96.226562 109.191406 92.347656 102.734375 L 91.605469 101.558594 C 90.371094 99.71875 88.953125 98.074219 87.355469 96.632812 L 128.960938 96.632812 C 127.984375 101.976562 129.035156 107.480469 131.910156 112.058594 C 124.210938 117.820312 119.570312 126.921875 119.570312 136.679688 C 119.570312 154.992188 135.566406 169.28125 153.792969 167.214844 L 153.792969 192.792969 C 153.792969 195.632812 156.917969 197.375 159.332031 195.882812 L 195.070312 173.894531 L 201.964844 173.894531 L 201.964844 222.320312 C 201.964844 227.644531 206.292969 231.980469 211.625 231.980469 C 216.949219 231.980469 221.28125 227.644531 221.28125 222.320312 L 221.28125 181.207031 C 224.191406 182.246094 227.113281 182.621094 230.222656 182.398438 Z M 87.25 154.222656 L 90.460938 154.207031 L 90.460938 128.761719 C 90.460938 128.726562 90.460938 128.691406 90.460938 128.65625 C 90.730469 119.28125 89.304688 111.890625 86.21875 106.652344 C 84.714844 104.355469 82.972656 102.421875 81.070312 100.875 C 78.023438 98.621094 74.207031 97.226562 69.539062 96.644531 C 57.617188 96.785156 47.945312 109.648438 47.945312 125.445312 C 47.945312 141.332031 57.722656 154.257812 69.738281 154.257812 Z M 259.328125 130.65625 C 259.328125 120.964844 252.941406 112.734375 244.15625 109.957031 C 248.109375 104.695312 250.292969 98.265625 250.292969 91.511719 C 250.292969 74.566406 236.507812 60.78125 219.5625 60.78125 C 212.472656 60.78125 205.785156 63.15625 200.402344 67.460938 C 196.554688 54.820312 184.800781 45.726562 171.003906 45.726562 C 152.21875 45.726562 137.796875 62.492188 140.621094 81.117188 C 136.863281 82.984375 133.796875 85.863281 131.695312 89.359375 L 69.738281 89.359375 C 53.710938 89.359375 40.671875 105.550781 40.671875 125.445312 C 40.671875 145.34375 53.683594 161.53125 69.792969 161.53125 L 90.460938 161.480469 L 90.460938 266.375 C 90.460938 268.378906 92.09375 270.007812 94.097656 270.007812 C 96.105469 270.007812 97.734375 268.378906 97.734375 266.375 L 97.734375 252.164062 L 110.429688 252.164062 L 110.429688 266.371094 C 110.429688 268.378906 112.054688 270.007812 114.0625 270.007812 C 116.070312 270.007812 117.703125 268.378906 117.703125 266.371094 L 117.703125 252.164062 L 130.390625 252.164062 L 130.390625 266.371094 C 130.390625 268.378906 132.019531 270.007812 134.027344 270.007812 C 136.039062 270.007812 137.664062 268.378906 137.664062 266.371094 L 137.664062 252.164062 L 150.359375 252.164062 L 150.359375 266.371094 C 150.359375 268.378906 151.988281 270.007812 153.996094 270.007812 C 156.003906 270.007812 157.628906 268.378906 157.628906 266.371094 L 157.628906 252.164062 L 170.324219 252.164062 L 170.324219 266.371094 C 170.324219 268.378906 171.949219 270.007812 173.960938 270.007812 C 175.96875 270.007812 177.597656 268.378906 177.597656 266.371094 L 177.597656 252.164062 L 190.292969 252.164062 L 190.292969 266.371094 C 190.292969 268.378906 191.917969 270.007812 193.929688 270.007812 C 195.9375 270.007812 197.566406 268.378906 197.566406 266.371094 L 197.566406 252.164062 L 210.253906 252.164062 L 210.253906 266.371094 C 210.253906 268.378906 211.882812 270.007812 213.890625 270.007812 C 215.898438 270.007812 217.527344 268.378906 217.527344 266.371094 L 217.527344 252.164062 L 230.222656 252.164062 L 230.222656 266.371094 C 230.222656 268.378906 231.851562 270.007812 233.859375 270.007812 C 235.867188 270.007812 237.496094 268.378906 237.496094 266.371094 L 237.496094 180.546875 C 249.140625 175.285156 253.789062 161.125 247.457031 150.023438 C 254.644531 146.410156 259.328125 139.042969 259.328125 130.65625 Z M 259.328125 130.65625 " fill-opacity="1" fill-rule="evenodd"></path></g></svg>