<svg xmlns="http://www.w3.org/2000/svg" xmlns:xlink="http://www.w3.org/1999/xlink" width="400" viewBox="0 0 300 299.999988" height="400" preserveAspectRatio="xMidYMid meet"><defs><clipPath id="4776d1872f"><path d="M 23 42 L 277 42 L 277 258.878906 L 23 258.878906 Z M 23 42 " clip-rule="nonzero"></path></clipPath></defs><rect x="-30" width="360" fill="#ffffff" y="-29.999999" height="359.999986" fill-opacity="1"></rect><rect x="-30" width="360" fill="#ffffff" y="-29.999999" height="359.999986" fill-opacity="1"></rect><g clip-path="url(#4776d1872f)"><path fill="#fbb424" d="M 119.300781 140.511719 C 117.730469 141.898438 115.324219 141.761719 113.9375 140.183594 C 112.535156 138.628906 112.675781 136.21875 114.25 134.820312 C 133.015625 118.117188 160.511719 115.65625 181.914062 128.710938 L 180.847656 123.53125 C 180.429688 121.464844 181.753906 119.460938 183.808594 119.042969 C 185.859375 118.625 187.863281 119.953125 188.277344 122.003906 L 191.269531 136.652344 C 191.824219 138.964844 190.472656 141.03125 188.125 141.4375 L 173.476562 144.425781 C 171.425781 144.847656 169.417969 143.519531 169.003906 141.46875 C 168.574219 139.417969 169.894531 137.410156 171.945312 136.980469 L 178.609375 135.625 C 160.011719 123.851562 135.769531 125.84375 119.300781 140.511719 Z M 136.308594 170.117188 C 134.199219 170.117188 132.5 168.402344 132.5 166.308594 C 132.5 164.199219 134.199219 162.5 136.308594 162.5 L 154.785156 162.5 C 154.925781 162.5 155.0625 162.5 155.203125 162.515625 C 160.910156 162.625 163.808594 161.5 164.84375 159.953125 C 166.832031 157.011719 160.015625 149.085938 154.664062 156.316406 C 153.414062 157.996094 151.039062 158.347656 149.359375 157.101562 C 147.679688 155.851562 147.324219 153.480469 148.570312 151.800781 C 155.832031 141.972656 166.953125 145.277344 171.238281 152.925781 C 173.214844 156.457031 173.535156 160.648438 171.148438 164.179688 C 168.800781 167.667969 163.792969 170.257812 155.035156 170.105469 C 154.957031 170.121094 154.882812 170.121094 154.789062 170.121094 L 136.308594 170.121094 Z M 121.566406 208.609375 C 119.472656 208.609375 117.757812 206.898438 117.757812 204.804688 C 117.757812 202.707031 119.472656 200.996094 121.566406 200.996094 L 140.058594 200.996094 C 140.199219 200.996094 140.316406 201.011719 140.460938 201.011719 C 146.167969 201.121094 149.066406 199.992188 150.117188 198.449219 C 152.089844 195.503906 145.289062 187.578125 139.921875 194.808594 C 138.667969 196.507812 136.296875 196.859375 134.617188 195.609375 C 132.933594 194.359375 132.582031 191.96875 133.828125 190.289062 C 141.089844 180.464844 152.226562 183.765625 156.496094 191.429688 C 158.472656 194.945312 158.792969 199.140625 156.421875 202.671875 C 154.058594 206.15625 149.050781 208.746094 140.308594 208.59375 C 140.214844 208.609375 140.136719 208.609375 140.0625 208.609375 Z M 152.253906 181.453125 C 150.144531 181.453125 148.445312 179.757812 148.445312 177.644531 C 148.445312 175.550781 150.144531 173.835938 152.253906 173.835938 L 170.726562 173.835938 C 170.820312 173.835938 170.898438 173.835938 170.972656 173.855469 C 179.730469 173.703125 184.742188 176.289062 187.085938 179.773438 C 191.726562 186.679688 186.070312 195.933594 178.386719 197.859375 C 173.824219 199.003906 168.640625 197.769531 164.511719 192.15625 C 163.257812 190.472656 163.601562 188.097656 165.300781 186.851562 C 166.980469 185.597656 169.359375 185.941406 170.601562 187.640625 C 175.957031 194.867188 182.773438 186.941406 180.78125 184 C 179.75 182.460938 176.847656 181.332031 171.140625 181.4375 C 171.007812 181.453125 170.863281 181.453125 170.722656 181.453125 Z M 91.066406 183.917969 C 89.570312 185.382812 87.167969 185.355469 85.703125 183.84375 C 84.242188 182.347656 84.265625 179.941406 85.78125 178.476562 L 96.699219 167.898438 C 98.195312 166.433594 100.597656 166.460938 102.0625 167.972656 L 112.644531 178.875 C 114.105469 180.386719 114.078125 182.792969 112.566406 184.238281 C 111.070312 185.703125 108.667969 185.675781 107.203125 184.179688 L 102.765625 179.582031 C 103.582031 199.226562 115.902344 216.363281 134.007812 223.515625 C 135.964844 224.289062 136.921875 226.492188 136.152344 228.453125 C 135.378906 230.410156 133.175781 231.367188 131.214844 230.59375 C 110.429688 222.375 96.132812 202.5625 95.148438 179.96875 Z M 187.402344 227.933594 C 189.410156 228.550781 190.53125 230.683594 189.914062 232.683594 C 189.300781 234.6875 187.167969 235.8125 185.183594 235.195312 L 170.902344 230.769531 C 168.589844 230.136719 167.433594 227.945312 168.21875 225.683594 L 172.648438 211.433594 C 173.261719 209.425781 175.394531 208.304688 177.398438 208.921875 C 179.40625 209.535156 180.527344 211.652344 179.910156 213.652344 L 178.046875 219.699219 C 194.605469 209.535156 203.78125 190.648438 201.285156 171.089844 C 201.023438 169.007812 202.488281 167.113281 204.570312 166.847656 C 206.65625 166.585938 208.546875 168.066406 208.816406 170.132812 C 211.699219 192.816406 201.03125 214.546875 181.917969 226.230469 Z M 25.539062 132.96875 L 138.886719 46.582031 C 145.46875 41.570312 154.925781 41.664062 161.386719 46.734375 L 188.421875 67.335938 L 188.421875 50.40625 C 188.421875 48.308594 190.132812 46.597656 192.226562 46.597656 L 223.683594 46.597656 C 225.792969 46.597656 227.492188 48.308594 227.492188 50.40625 L 227.492188 97.113281 L 274.738281 133.140625 C 277.621094 135.332031 276.050781 139.957031 272.445312 139.957031 L 232.394531 139.957031 L 232.394531 235.214844 C 232.394531 248.03125 221.953125 258.453125 209.152344 258.453125 L 90.925781 258.453125 C 78.109375 258.453125 67.6875 248.03125 67.6875 235.214844 L 67.703125 235.214844 L 67.703125 139.957031 L 27.640625 139.957031 C 23.859375 139.957031 22.414062 135.039062 25.539062 132.96875 Z M 196.035156 73.132812 L 219.875 91.316406 L 219.875 54.214844 L 196.035156 54.214844 Z M 224.78125 138.03125 L 150.035156 81.066406 L 75.285156 138.046875 L 75.285156 235.214844 L 75.300781 235.214844 C 75.300781 243.820312 82.320312 250.832031 90.921875 250.832031 L 209.15625 250.832031 C 217.765625 250.832031 224.777344 243.816406 224.777344 235.214844 L 224.777344 138.03125 Z M 143.496094 52.625 L 38.894531 132.339844 L 70.214844 132.339844 L 147.671875 73.308594 C 149 72.257812 150.925781 72.199219 152.347656 73.277344 L 229.851562 132.339844 L 261.171875 132.339844 L 221.582031 102.171875 C 221.449219 102.082031 221.304688 101.972656 221.179688 101.863281 L 190.121094 78.195312 C 189.980469 78.101562 189.84375 77.992188 189.71875 77.882812 L 156.761719 52.777344 L 156.761719 52.761719 C 152.875 49.757812 147.394531 49.664062 143.496094 52.625 Z M 143.496094 52.625 " fill-opacity="1" fill-rule="nonzero"></path></g></svg>