<svg xmlns="http://www.w3.org/2000/svg" xmlns:xlink="http://www.w3.org/1999/xlink" width="400" viewBox="0 0 300 299.999988" height="400" preserveAspectRatio="xMidYMid meet"><defs><clipPath id="c0df94f52e"><path d="M 149 146 L 291.414062 146 L 291.414062 242 L 149 242 Z M 149 146 " clip-rule="nonzero"></path></clipPath><clipPath id="6841b93a11"><path d="M 8.664062 163 L 140 163 L 140 250.355469 L 8.664062 250.355469 Z M 8.664062 163 " clip-rule="nonzero"></path></clipPath></defs><rect x="-30" width="360" fill="#ffffff" y="-29.999999" height="359.999986" fill-opacity="1"></rect><rect x="-30" width="360" fill="#ffffff" y="-29.999999" height="359.999986" fill-opacity="1"></rect><path fill="#fbb424" d="M 228.460938 154.894531 C 226.59375 154.074219 224.800781 153.328125 223.117188 152.652344 C 201.359375 160.648438 183.570312 170.464844 183.304688 170.613281 L 182.449219 169.074219 C 182.710938 168.929688 199.605469 159.605469 220.664062 151.691406 C 215 149.519531 211.09375 148.351562 210.996094 148.324219 L 211.492188 146.636719 C 211.601562 146.667969 216.410156 148.101562 223.144531 150.769531 C 234.058594 146.792969 245.929688 143.289062 257.101562 141.671875 L 257.351562 143.414062 C 246.929688 144.921875 235.878906 148.09375 225.582031 151.757812 C 227.253906 152.449219 229.007812 153.207031 230.820312 154.027344 C 239.421875 150.90625 248.066406 148.359375 255.761719 147.144531 L 256.171875 149.75 C 249.378906 150.820312 241.820312 152.957031 234.207031 155.613281 C 240.496094 158.660156 247.128906 162.421875 252.734375 166.828125 L 251.648438 168.210938 C 245.679688 163.519531 238.511719 159.5625 231.871094 156.445312 C 215.121094 162.507812 198.445312 170.816406 189.332031 175.597656 L 272.167969 175.597656 L 272.167969 123.238281 C 272.167969 119.007812 268.742188 115.578125 264.511719 115.578125 L 207.542969 115.578125 C 207.21875 117.554688 205.515625 119.066406 203.449219 119.066406 C 201.382812 119.066406 199.679688 117.554688 199.355469 115.578125 L 194.371094 115.578125 C 194.542969 116 194.640625 116.457031 194.640625 116.9375 C 194.640625 118.941406 193.015625 120.566406 191.007812 120.566406 C 189.003906 120.566406 187.378906 118.941406 187.378906 116.9375 C 187.378906 116.457031 187.476562 116 187.648438 115.578125 L 176.367188 115.578125 C 172.136719 115.578125 168.710938 119.007812 168.710938 123.238281 L 168.710938 126.503906 C 168.816406 126.496094 168.921875 126.472656 169.035156 126.472656 C 171.039062 126.472656 172.664062 128.097656 172.664062 130.101562 C 172.664062 132.109375 171.039062 133.734375 169.035156 133.734375 C 168.921875 133.734375 168.816406 133.710938 168.710938 133.699219 L 168.710938 175.597656 L 183.730469 175.597656 C 190.578125 171.886719 209.191406 162.121094 228.460938 154.894531 Z M 200.15625 122.9375 C 203.046875 122.9375 205.386719 125.28125 205.386719 128.167969 C 205.386719 131.054688 203.046875 133.394531 200.15625 133.394531 C 197.269531 133.394531 194.929688 131.054688 194.929688 128.167969 C 194.929688 125.28125 197.269531 122.9375 200.15625 122.9375 Z M 176.003906 124.949219 C 176.003906 122.15625 178.269531 119.890625 181.0625 119.890625 C 183.855469 119.890625 186.121094 122.15625 186.121094 124.949219 C 186.121094 127.742188 183.855469 130.007812 181.0625 130.007812 C 178.269531 130.007812 176.003906 127.742188 176.003906 124.949219 Z M 180.214844 139.226562 C 180.214844 136.40625 182.5 134.121094 185.320312 134.121094 C 188.140625 134.121094 190.429688 136.40625 190.429688 139.226562 C 190.429688 142.046875 188.140625 144.332031 185.320312 144.332031 C 182.5 144.332031 180.214844 142.046875 180.214844 139.226562 Z M 180.214844 139.226562 " fill-opacity="1" fill-rule="nonzero"></path><g clip-path="url(#c0df94f52e)"><path fill="#fbb424" d="M 281.160156 239.398438 C 281.457031 240.558594 282.605469 241.28125 283.78125 241.046875 C 284.953125 240.816406 285.738281 239.707031 285.566406 238.523438 L 282.625 217.953125 L 291.289062 217.953125 L 291.289062 154.605469 C 291.289062 150.375 287.859375 146.945312 283.632812 146.945312 L 276.566406 146.945312 L 276.566406 182.796875 C 275.917969 183.148438 275.273438 183.515625 274.632812 183.898438 C 270.523438 186.355469 266.6875 189.386719 263.46875 192.253906 L 194.996094 192.253906 C 194.101562 190.496094 193.125 188.847656 192.148438 187.34375 C 210.089844 184.539062 232.617188 182.269531 252.601562 183.980469 L 252.753906 182.230469 C 232.3125 180.476562 209.25 182.855469 191.070312 185.734375 C 188.183594 181.570312 185.558594 178.835938 185.347656 178.621094 L 184.085938 179.84375 C 184.132812 179.894531 186.449219 182.304688 189.117188 186.046875 C 187.644531 186.289062 186.207031 186.53125 184.804688 186.773438 C 183.230469 184.515625 181.75 183.144531 181.632812 183.035156 L 180.445312 184.335938 C 180.46875 184.359375 181.574219 185.390625 182.867188 187.117188 C 176.140625 188.320312 170.429688 189.507812 166.246094 190.4375 C 165.558594 190.589844 164.914062 190.734375 164.3125 190.871094 L 164.3125 146.945312 L 157.246094 146.945312 C 153.019531 146.945312 149.589844 150.375 149.589844 154.605469 L 149.589844 217.953125 L 158.253906 217.953125 L 155.3125 238.523438 C 155.140625 239.707031 155.925781 240.816406 157.097656 241.046875 C 158.273438 241.28125 159.421875 240.558594 159.71875 239.398438 L 165.207031 217.953125 L 275.671875 217.953125 Z M 274.632812 185.980469 C 275.273438 185.582031 275.917969 185.195312 276.566406 184.824219 L 276.566406 192.25 L 266.195312 192.25 C 268.75 190.078125 271.617188 187.878906 274.632812 185.980469 Z M 190.222656 187.648438 C 191.160156 189.054688 192.109375 190.601562 192.996094 192.25 L 187.664062 192.25 C 187.160156 190.828125 186.523438 189.523438 185.84375 188.378906 C 187.265625 188.132812 188.726562 187.890625 190.222656 187.648438 Z M 183.960938 188.707031 C 184.621094 189.746094 185.269531 190.9375 185.789062 192.25 L 166.1875 192.25 C 166.207031 192.246094 166.226562 192.242188 166.246094 192.238281 C 170.597656 191.269531 176.710938 189.988281 183.960938 188.707031 Z M 183.960938 188.707031 " fill-opacity="1" fill-rule="nonzero"></path></g><path fill="#fbb424" d="M 150.027344 115.542969 L 147.234375 118.503906 C 146.527344 119.257812 146.5625 120.441406 147.3125 121.148438 L 149.523438 123.230469 L 146.554688 126.382812 L 153.195312 132.640625 L 171.796875 112.902344 L 171.394531 111.503906 L 172.757812 111.878906 L 179.023438 105.230469 L 172.382812 98.976562 L 169.414062 102.128906 L 167.203125 100.042969 C 166.453125 99.335938 165.269531 99.371094 164.558594 100.121094 L 161.765625 103.085938 L 153.976562 97.1875 C 152.679688 96.203125 150.847656 96.355469 149.730469 97.542969 L 145.671875 101.851562 C 143.941406 100.785156 141.765625 100.472656 139.6875 101.183594 L 107.074219 112.40625 L 77.828125 90.265625 C 77.433594 89.964844 77.019531 89.71875 76.589844 89.515625 C 70.027344 85.535156 58.632812 86.058594 50.441406 96.6875 C 39.101562 111.582031 34.191406 122.113281 30.101562 141.351562 C 29.53125 145.621094 29.914062 149.011719 30.929688 151.738281 C 31.464844 154.019531 32.722656 156.152344 34.683594 157.742188 L 38.730469 161.035156 L 74.4375 190.058594 L 88.855469 235.582031 C 90.339844 240.265625 94.667969 243.257812 99.332031 243.257812 C 100.433594 243.257812 101.550781 243.089844 102.65625 242.742188 C 108.441406 240.90625 111.648438 234.730469 109.816406 228.945312 L 94.402344 180.285156 C 93.753906 178.242188 92.523438 176.429688 90.859375 175.074219 L 59.992188 149.988281 L 59.996094 149.984375 C 61.304688 144.972656 63.277344 139.964844 65.535156 135.136719 L 56.898438 109.089844 C 56.136719 106.792969 56.316406 104.335938 57.402344 102.175781 C 58.488281 100.011719 60.347656 98.402344 62.644531 97.640625 C 63.570312 97.332031 64.53125 97.179688 65.5 97.179688 C 69.40625 97.179688 72.859375 99.671875 74.09375 103.386719 L 77.398438 113.351562 C 77.59375 113.007812 77.796875 112.660156 77.988281 112.324219 C 78.644531 111.378906 79.21875 110.375 79.710938 109.335938 L 101.570312 125.886719 C 102.8125 126.824219 104.304688 127.3125 105.820312 127.3125 C 106.585938 127.3125 107.359375 127.1875 108.105469 126.929688 L 135.675781 117.445312 L 132.152344 121.183594 L 133.195312 122.167969 C 129.601562 126.246094 122.875 134.941406 119.269531 146.253906 C 120.121094 146.566406 120.90625 147 121.613281 147.539062 C 125.011719 136.480469 131.617188 127.945312 135.113281 123.972656 L 136.171875 124.972656 L 147.664062 112.777344 Z M 176.539062 105.304688 L 172.203125 109.90625 L 168.832031 108.976562 L 169.828125 112.425781 L 153.121094 130.15625 L 149.039062 126.3125 L 172.457031 101.460938 Z M 176.539062 105.304688 " fill-opacity="1" fill-rule="nonzero"></path><path fill="#fbb424" d="M 34.402344 225.867188 C 31.050781 230.929688 32.433594 237.75 37.496094 241.101562 C 39.363281 242.339844 41.472656 242.929688 43.554688 242.929688 C 47.121094 242.929688 50.617188 241.199219 52.730469 238.007812 C 65.054688 219.398438 68.945312 202.328125 69.003906 188.257812 L 43.007812 167.175781 C 48.074219 179.796875 51.101562 200.652344 34.402344 225.867188 Z M 34.402344 225.867188 " fill-opacity="1" fill-rule="nonzero"></path><path fill="#fbb424" d="M 92.96875 90.320312 C 103.691406 92.417969 114.085938 85.425781 116.183594 74.703125 C 118.28125 63.980469 111.289062 53.585938 100.566406 51.488281 C 89.84375 49.390625 79.449219 56.382812 77.347656 67.105469 C 75.25 77.832031 82.246094 88.222656 92.96875 90.320312 Z M 92.96875 90.320312 " fill-opacity="1" fill-rule="nonzero"></path><g clip-path="url(#6841b93a11)"><path fill="#fbb424" d="M 118.1875 172.164062 C 119.914062 179.019531 123.152344 186.546875 126.582031 194.519531 C 133.4375 210.460938 140.527344 226.945312 134.457031 236.949219 C 130.925781 242.765625 123.238281 246.03125 110.949219 246.941406 C 80.390625 249.203125 57.074219 247.414062 38.335938 245.976562 C 26.097656 245.039062 16.433594 244.296875 8.6875 245.058594 L 8.945312 247.683594 C 16.460938 246.945312 26.023438 247.675781 38.132812 248.605469 C 50.492188 249.554688 64.835938 250.65625 81.9375 250.65625 C 90.878906 250.65625 100.582031 250.355469 111.144531 249.574219 C 124.34375 248.59375 132.707031 244.914062 136.710938 238.320312 C 143.488281 227.152344 136.125 210.03125 129.003906 193.476562 C 125.617188 185.605469 122.421875 178.171875 120.746094 171.519531 C 120.027344 168.65625 119.652344 165.851562 119.535156 163.117188 C 118.707031 163.457031 117.828125 163.679688 116.917969 163.761719 C 117.070312 166.5 117.46875 169.304688 118.1875 172.164062 Z M 118.1875 172.164062 " fill-opacity="1" fill-rule="nonzero"></path></g><path fill="#fbb424" d="M 118.136719 147.996094 L 83.3125 137.621094 L 72.171875 104.023438 C 70.949219 100.335938 66.972656 98.335938 63.28125 99.5625 C 59.59375 100.785156 57.59375 104.765625 58.820312 108.453125 L 71.113281 145.53125 C 71.835938 147.710938 73.578125 149.402344 75.78125 150.058594 L 114.117188 161.480469 C 114.789062 161.679688 115.464844 161.773438 116.128906 161.773438 C 119.160156 161.773438 121.957031 159.800781 122.867188 156.746094 C 123.976562 153.023438 121.859375 149.105469 118.136719 147.996094 Z M 118.136719 147.996094 " fill-opacity="1" fill-rule="nonzero"></path><path fill="#fbb424" d="M 191.007812 110.382812 C 193.375 110.382812 195.300781 108.460938 195.300781 106.09375 C 195.300781 103.730469 193.375 101.804688 191.007812 101.804688 C 188.644531 101.804688 186.71875 103.730469 186.71875 106.09375 C 186.71875 108.460938 188.644531 110.382812 191.007812 110.382812 Z M 191.007812 103.125 C 192.648438 103.125 193.980469 104.457031 193.980469 106.09375 C 193.980469 107.734375 192.648438 109.066406 191.007812 109.066406 C 189.371094 109.066406 188.039062 107.734375 188.039062 106.09375 C 188.039062 104.457031 189.371094 103.125 191.007812 103.125 Z M 191.007812 103.125 " fill-opacity="1" fill-rule="nonzero"></path><path fill="#fbb424" d="M 151.773438 138.914062 C 151.773438 141.277344 153.695312 143.203125 156.0625 143.203125 C 158.425781 143.203125 160.351562 141.277344 160.351562 138.914062 C 160.351562 136.546875 158.425781 134.621094 156.0625 134.621094 C 153.695312 134.621094 151.773438 136.546875 151.773438 138.914062 Z M 153.089844 138.914062 C 153.089844 137.273438 154.425781 135.941406 156.0625 135.941406 C 157.699219 135.941406 159.03125 137.273438 159.03125 138.914062 C 159.03125 140.550781 157.699219 141.882812 156.0625 141.882812 C 154.425781 141.882812 153.089844 140.550781 153.089844 138.914062 Z M 153.089844 138.914062 " fill-opacity="1" fill-rule="nonzero"></path><path fill="#fbb424" d="M 183.847656 89.945312 C 181.480469 89.945312 179.554688 91.871094 179.554688 94.234375 C 179.554688 96.601562 181.480469 98.523438 183.847656 98.523438 C 186.210938 98.523438 188.136719 96.601562 188.136719 94.234375 C 188.136719 91.871094 186.210938 89.945312 183.847656 89.945312 Z M 183.847656 97.207031 C 182.207031 97.207031 180.875 95.875 180.875 94.234375 C 180.875 92.597656 182.207031 91.265625 183.847656 91.265625 C 185.484375 91.265625 186.816406 92.597656 186.816406 94.234375 C 186.816406 95.875 185.484375 97.207031 183.847656 97.207031 Z M 183.847656 97.207031 " fill-opacity="1" fill-rule="nonzero"></path><path fill="#fbb424" d="M 171.066406 93.441406 C 173.433594 93.441406 175.355469 91.519531 175.355469 89.152344 C 175.355469 86.789062 173.433594 84.863281 171.066406 84.863281 C 168.703125 84.863281 166.777344 86.789062 166.777344 89.152344 C 166.777344 91.519531 168.703125 93.441406 171.066406 93.441406 Z M 171.066406 86.183594 C 172.707031 86.183594 174.039062 87.515625 174.039062 89.152344 C 174.039062 90.792969 172.707031 92.125 171.066406 92.125 C 169.429688 92.125 168.097656 90.792969 168.097656 89.152344 C 168.097656 87.515625 169.429688 86.183594 171.066406 86.183594 Z M 171.066406 86.183594 " fill-opacity="1" fill-rule="nonzero"></path><path fill="#fbb424" d="M 188.269531 81.457031 C 188.269531 83.824219 190.191406 85.746094 192.558594 85.746094 C 194.925781 85.746094 196.847656 83.824219 196.847656 81.457031 C 196.847656 79.089844 194.925781 77.167969 192.558594 77.167969 C 190.191406 77.167969 188.269531 79.089844 188.269531 81.457031 Z M 192.558594 78.484375 C 194.195312 78.484375 195.53125 79.820312 195.53125 81.457031 C 195.53125 83.09375 194.195312 84.429688 192.558594 84.429688 C 190.921875 84.429688 189.585938 83.09375 189.585938 81.457031 C 189.585938 79.820312 190.921875 78.484375 192.558594 78.484375 Z M 192.558594 78.484375 " fill-opacity="1" fill-rule="nonzero"></path></svg>