<svg xmlns="http://www.w3.org/2000/svg" xmlns:xlink="http://www.w3.org/1999/xlink" width="400" viewBox="0 0 300 299.999988" height="400" preserveAspectRatio="xMidYMid meet"><defs><clipPath id="d5a1e1233b"><path d="M 91 159 L 266.398438 159 L 266.398438 262 L 91 262 Z M 91 159 " clip-rule="nonzero"></path></clipPath><clipPath id="982eedbc12"><path d="M 33.898438 246 L 60 246 L 60 256 L 33.898438 256 Z M 33.898438 246 " clip-rule="nonzero"></path></clipPath></defs><path fill="#fbb424" d="M 194.289062 267.007812 C 194.316406 267.003906 194.335938 266.992188 194.371094 266.992188 C 195.09375 266.992188 195.09375 267.9375 195.8125 267.9375 C 196.53125 267.9375 196.53125 267.601562 197.253906 267.601562 C 197.972656 267.601562 197.972656 269.324219 198.691406 269.324219 C 199.410156 269.324219 199.410156 266.925781 200.128906 266.925781 C 200.847656 266.925781 200.847656 267.234375 201.566406 267.234375 C 202.285156 267.234375 202.285156 268.375 203.003906 268.375 C 203.722656 268.375 203.722656 267.027344 204.441406 267.027344 C 205.15625 267.027344 205.15625 269.378906 205.875 269.378906 C 206.589844 269.378906 206.589844 267.65625 207.304688 267.65625 C 208.027344 267.65625 208.027344 268.230469 208.742188 268.230469 C 209.460938 268.230469 209.460938 268.941406 210.179688 268.941406 C 210.898438 268.941406 210.898438 266.863281 211.617188 266.863281 C 212.335938 266.863281 212.335938 267.53125 213.050781 267.53125 C 213.769531 267.53125 213.769531 269.011719 214.488281 269.011719 C 215.207031 269.011719 215.207031 268.511719 215.921875 268.511719 C 216.640625 268.511719 216.640625 268.769531 217.355469 268.769531 C 218.074219 268.769531 218.074219 268.273438 218.792969 268.273438 C 219.511719 268.273438 219.511719 268.480469 220.226562 268.480469 C 220.945312 268.480469 220.945312 267.59375 221.660156 267.59375 C 222.378906 267.59375 222.378906 267.117188 223.09375 267.117188 C 223.808594 267.117188 223.8125 269.5 224.527344 269.5 C 225.246094 269.5 225.246094 269.089844 225.960938 269.089844 C 226.679688 269.089844 226.679688 267.667969 227.394531 267.667969 C 228.113281 267.667969 228.113281 269.539062 228.828125 269.539062 C 229.542969 269.539062 229.542969 269.332031 230.257812 269.332031 C 230.972656 269.332031 230.972656 268.550781 231.6875 268.550781 C 232.40625 268.550781 232.40625 267.832031 233.121094 267.832031 C 233.835938 267.832031 233.835938 269.570312 234.554688 269.570312 C 235.269531 269.570312 235.269531 267.78125 235.988281 267.78125 C 236.703125 267.78125 236.703125 268.867188 237.421875 268.867188 C 238.136719 268.867188 238.136719 268.066406 238.851562 268.066406 C 239.566406 268.066406 239.566406 267.800781 240.28125 267.800781 C 240.992188 267.800781 240.992188 269.53125 241.707031 269.53125 C 242.421875 269.53125 242.421875 269.015625 243.136719 269.015625 C 243.855469 269.015625 243.855469 269.253906 244.570312 269.253906 C 245.285156 269.253906 245.285156 267.460938 246 267.460938 C 246.71875 267.460938 246.71875 267.105469 247.433594 267.105469 C 248.148438 267.105469 248.148438 266.867188 248.867188 266.867188 C 249.582031 266.867188 249.582031 268.476562 250.300781 268.476562 C 251.019531 268.476562 251.019531 267.945312 251.734375 267.945312 C 252.449219 267.945312 252.449219 268.289062 253.167969 268.289062 C 253.882812 268.289062 253.882812 269.152344 254.597656 269.152344 C 255.316406 269.152344 255.316406 269.121094 256.03125 269.121094 C 256.746094 269.121094 256.746094 267.03125 257.460938 267.03125 C 258.175781 267.03125 258.179688 267.164062 258.894531 267.164062 C 259.609375 267.164062 259.613281 267.566406 260.328125 267.566406 C 261.046875 267.566406 261.046875 267.867188 261.761719 267.867188 C 262.480469 267.867188 261.957031 268.03125 262.457031 267.519531 C 262.96875 267 263.460938 267.347656 263.527344 266.832031 C 263.628906 266.109375 264.585938 266.058594 264.585938 265.328125 C 264.585938 264.601562 261.972656 264.601562 261.972656 263.871094 C 261.972656 263.835938 261.988281 263.808594 261.992188 263.773438 L 197.179688 263.773438 C 196.332031 264.945312 195.355469 266.027344 194.289062 267.007812 Z M 194.289062 267.007812 " fill-opacity="1" fill-rule="nonzero"></path><path fill="#fbb424" d="M 193.996094 267.269531 C 193.929688 267.328125 193.859375 267.386719 193.792969 267.445312 C 194.058594 267.699219 193.960938 267.488281 193.996094 267.269531 Z M 193.996094 267.269531 " fill-opacity="1" fill-rule="nonzero"></path><path fill="#fbb424" d="M 101.929688 35.0625 C 102.640625 35.226562 103.34375 35.429688 104.039062 35.664062 C 104.730469 35.898438 105.410156 36.167969 106.078125 36.46875 C 106.746094 36.769531 107.394531 37.105469 108.027344 37.46875 C 108.664062 37.835938 109.277344 38.230469 109.871094 38.65625 C 110.46875 39.082031 111.039062 39.539062 111.589844 40.019531 C 112.140625 40.503906 112.664062 41.011719 113.167969 41.542969 C 113.667969 42.078125 114.140625 42.636719 114.585938 43.214844 C 115.03125 43.796875 115.449219 44.398438 115.835938 45.019531 C 116.222656 45.640625 116.574219 46.28125 116.898438 46.9375 C 117.222656 47.59375 117.515625 48.261719 117.773438 48.949219 C 118.03125 49.632812 118.253906 50.328125 118.445312 51.035156 C 118.632812 51.742188 118.789062 52.457031 118.90625 53.179688 C 119.027344 53.898438 119.109375 54.625 119.160156 55.355469 C 119.207031 56.085938 119.21875 56.816406 119.195312 57.550781 C 119.171875 58.28125 119.113281 59.007812 119.015625 59.734375 C 118.921875 60.460938 118.789062 61.179688 118.625 61.890625 C 118.457031 62.605469 118.257812 63.308594 118.023438 64 C 117.789062 64.695312 117.519531 65.375 117.21875 66.039062 C 116.917969 66.707031 116.582031 67.359375 116.214844 67.992188 C 115.851562 68.625 115.453125 69.238281 115.027344 69.835938 C 114.601562 70.429688 114.148438 71.003906 113.667969 71.550781 C 113.183594 72.101562 112.675781 72.628906 112.140625 73.128906 C 111.609375 73.628906 111.050781 74.101562 110.46875 74.546875 C 109.890625 74.992188 109.289062 75.410156 108.667969 75.796875 C 108.046875 76.183594 107.40625 76.539062 106.75 76.863281 C 106.09375 77.1875 105.421875 77.476562 104.738281 77.734375 C 104.054688 77.992188 103.359375 78.214844 102.652344 78.40625 C 101.945312 78.597656 101.230469 78.75 100.507812 78.871094 C 99.785156 78.988281 99.058594 79.074219 98.328125 79.121094 C 97.597656 79.167969 96.867188 79.179688 96.136719 79.15625 C 95.40625 79.132812 94.675781 79.074219 93.949219 78.980469 C 93.226562 78.882812 92.507812 78.753906 91.792969 78.585938 C 91.082031 78.421875 90.378906 78.21875 89.683594 77.984375 C 88.992188 77.75 88.3125 77.480469 87.644531 77.179688 C 86.976562 76.878906 86.328125 76.542969 85.695312 76.179688 C 85.058594 75.8125 84.445312 75.417969 83.851562 74.992188 C 83.253906 74.566406 82.683594 74.109375 82.132812 73.628906 C 81.582031 73.144531 81.054688 72.636719 80.554688 72.101562 C 80.054688 71.570312 79.582031 71.011719 79.136719 70.433594 C 78.691406 69.851562 78.273438 69.25 77.886719 68.628906 C 77.5 68.007812 77.144531 67.367188 76.824219 66.710938 C 76.5 66.054688 76.207031 65.386719 75.949219 64.699219 C 75.691406 64.015625 75.46875 63.320312 75.277344 62.613281 C 75.089844 61.90625 74.933594 61.191406 74.816406 60.46875 C 74.695312 59.746094 74.613281 59.023438 74.5625 58.292969 C 74.515625 57.5625 74.503906 56.832031 74.527344 56.097656 C 74.550781 55.367188 74.609375 54.640625 74.707031 53.914062 C 74.800781 53.1875 74.929688 52.46875 75.097656 51.757812 C 75.261719 51.042969 75.464844 50.339844 75.699219 49.648438 C 75.933594 48.953125 76.203125 48.273438 76.503906 47.609375 C 76.804688 46.941406 77.140625 46.289062 77.503906 45.65625 C 77.871094 45.023438 78.265625 44.410156 78.695312 43.8125 C 79.121094 43.21875 79.574219 42.644531 80.054688 42.09375 C 80.539062 41.546875 81.046875 41.019531 81.582031 40.519531 C 82.113281 40.019531 82.671875 39.546875 83.253906 39.101562 C 83.832031 38.65625 84.433594 38.238281 85.054688 37.851562 C 85.675781 37.464844 86.316406 37.109375 86.972656 36.785156 C 87.628906 36.460938 88.300781 36.171875 88.984375 35.914062 C 89.667969 35.65625 90.363281 35.429688 91.070312 35.242188 C 91.777344 35.050781 92.492188 34.898438 93.214844 34.777344 C 93.9375 34.660156 94.664062 34.574219 95.394531 34.527344 C 96.125 34.480469 96.855469 34.46875 97.585938 34.492188 C 98.316406 34.515625 99.046875 34.574219 99.773438 34.667969 C 100.496094 34.765625 101.214844 34.894531 101.929688 35.0625 Z M 101.929688 35.0625 " fill-opacity="1" fill-rule="nonzero"></path><path fill="#fbb424" d="M 88.8125 247.875 C 92.78125 233.574219 94.253906 220.246094 94.253906 208.476562 C 94.226562 183.964844 88.039062 166.25 85.128906 159.246094 C 85.140625 158.140625 85.105469 156.929688 85.027344 155.597656 C 84.496094 151.617188 84.359375 147.484375 84.480469 143.304688 C 79.265625 138.074219 75.636719 132.765625 73.132812 128.101562 C 66.328125 115.542969 65.542969 104.5625 65.523438 100.421875 C 65.523438 100.070312 65.527344 99.839844 65.53125 99.730469 C 65.738281 94.378906 70.09375 90.179688 75.453125 90.179688 C 75.578125 90.179688 75.707031 90.183594 75.832031 90.1875 C 81.304688 90.394531 85.589844 95.015625 85.386719 100.488281 C 85.386719 100.515625 85.367188 106.449219 88.414062 113.992188 C 89.074219 110.683594 89.726562 107.542969 90.289062 104.671875 C 93.136719 94.785156 89.410156 82.953125 80.929688 80.839844 C 72.449219 78.726562 60.15625 83.328125 55.15625 97.875 C 48.394531 117.914062 46.941406 130.957031 49.511719 153.027344 C 51.484375 163.175781 56.621094 167.542969 62.433594 169.351562 C 64.578125 174.699219 69.4375 189.023438 69.417969 208.472656 C 69.414062 219.566406 67.859375 232.339844 63.367188 246.289062 C 63.503906 246.289062 63.636719 246.28125 63.773438 246.28125 C 72.222656 246.285156 80.824219 247.167969 88.8125 247.875 Z M 88.8125 247.875 " fill-opacity="1" fill-rule="nonzero"></path><path fill="#fbb424" d="M 62.363281 249.289062 C 62.085938 250.085938 61.804688 250.878906 61.507812 251.679688 C 59.128906 258.109375 62.410156 265.253906 68.839844 267.636719 C 70.261719 268.164062 71.71875 268.414062 73.152344 268.414062 C 78.199219 268.414062 82.941406 265.3125 84.796875 260.304688 C 85.988281 257.09375 87.035156 253.921875 87.972656 250.789062 C 80.125 250.089844 71.820312 249.261719 63.777344 249.261719 C 63.300781 249.265625 62.832031 249.285156 62.363281 249.289062 Z M 62.363281 249.289062 " fill-opacity="1" fill-rule="nonzero"></path><g clip-path="url(#d5a1e1233b)"><path fill="#fbb424" d="M 124.863281 164.207031 L 131.761719 172.410156 C 131.8125 174.722656 131.855469 177.640625 131.855469 180.996094 C 131.855469 190.886719 131.484375 204.445312 129.917969 216.679688 C 128.398438 228.898438 125.457031 239.84375 121.09375 244.09375 C 117.71875 247.527344 111.601562 248.753906 103.78125 248.734375 C 100.140625 248.734375 96.160156 248.484375 91.972656 248.144531 L 91.792969 250.308594 L 91.730469 251.113281 C 95.953125 251.457031 100.007812 251.714844 103.78125 251.714844 C 111.835938 251.699219 118.746094 250.601562 123.203125 246.203125 C 128.578125 240.71875 131.230469 229.515625 132.875 217.058594 C 134.46875 204.613281 134.832031 190.960938 134.832031 180.996094 C 134.832031 179.207031 134.820312 177.546875 134.800781 176.027344 L 178.324219 227.785156 C 178.554688 227.777344 178.785156 227.765625 179.019531 227.765625 C 191.480469 227.765625 201.617188 237.902344 201.617188 250.367188 C 201.617188 254.53125 200.480469 258.433594 198.507812 261.789062 L 262.671875 261.789062 C 264.527344 261.789062 266.03125 260.285156 266.03125 258.429688 L 266.03125 246.386719 C 266.03125 244.53125 264.527344 243.027344 262.671875 243.027344 L 255.113281 243.027344 L 255.113281 230.496094 C 255.113281 228.644531 253.359375 227.4375 251.753906 227.140625 C 251.027344 227.003906 239.710938 224.816406 227.570312 222.464844 L 227.570312 203.925781 L 228.8125 203.925781 C 231.007812 203.925781 232.785156 202.144531 232.785156 199.949219 L 232.785156 195.480469 C 232.785156 193.285156 231.007812 191.507812 228.8125 191.507812 L 202.488281 191.507812 C 200.292969 191.507812 198.515625 193.285156 198.515625 195.480469 L 198.515625 199.949219 C 198.515625 202.144531 200.292969 203.925781 202.488281 203.925781 L 203.730469 203.925781 L 203.730469 217.847656 C 199.722656 217.070312 197.167969 216.574219 197.167969 216.574219 C 195.3125 216.574219 193.808594 218.082031 193.808594 219.9375 L 193.808594 233.144531 L 177.941406 214.277344 L 185.4375 207.972656 L 165.160156 169.066406 L 144.417969 174.417969 L 131.757812 159.359375 C 130.300781 161.921875 127.785156 163.699219 124.863281 164.207031 Z M 124.863281 164.207031 " fill-opacity="1" fill-rule="nonzero"></path></g><path fill="#fbb424" d="M 88.847656 119.570312 C 83.609375 109.988281 83.390625 101.394531 83.402344 100.414062 C 83.566406 96.03125 80.144531 92.339844 75.761719 92.175781 C 71.375 92.007812 67.683594 95.429688 67.519531 99.816406 C 67.515625 99.910156 67.507812 100.113281 67.507812 100.414062 C 67.523438 103.082031 67.898438 114.265625 74.882812 127.160156 C 81.8125 140.0625 95.746094 154.304688 120.785156 162.011719 C 121.570312 162.253906 122.363281 162.371094 123.144531 162.371094 C 126.53125 162.371094 129.671875 160.1875 130.730469 156.78125 C 132.035156 152.589844 129.691406 148.136719 125.503906 146.832031 C 104.042969 140.085938 94.136719 129.144531 88.847656 119.570312 Z M 88.847656 119.570312 " fill-opacity="1" fill-rule="nonzero"></path><path fill="#fbb424" d="M 198.640625 250.363281 C 198.640625 239.53125 189.855469 230.746094 179.019531 230.746094 C 168.183594 230.746094 159.402344 239.53125 159.402344 250.363281 C 159.402344 261.199219 168.183594 269.984375 179.019531 269.984375 C 189.855469 269.984375 198.640625 261.199219 198.640625 250.363281 Z M 169.332031 250.363281 C 169.332031 245.023438 173.679688 240.679688 179.019531 240.679688 C 184.359375 240.679688 188.707031 245.023438 188.707031 250.363281 C 188.707031 255.703125 184.359375 260.050781 179.019531 260.050781 C 173.679688 260.050781 169.332031 255.703125 169.332031 250.363281 Z M 169.332031 250.363281 " fill-opacity="1" fill-rule="nonzero"></path><g clip-path="url(#982eedbc12)"><path fill="#fbb424" d="M 33.972656 252.808594 L 35.492188 255.371094 C 42.425781 251.257812 50.878906 249.664062 59.863281 249.335938 L 59.800781 247.640625 L 59.753906 246.359375 C 50.5 246.699219 41.539062 248.328125 33.972656 252.808594 Z M 33.972656 252.808594 " fill-opacity="1" fill-rule="nonzero"></path></g></svg>