<svg xmlns="http://www.w3.org/2000/svg" xmlns:xlink="http://www.w3.org/1999/xlink" width="400" viewBox="0 0 300 299.999988" height="400" preserveAspectRatio="xMidYMid meet"><rect x="-30" width="360" fill="#ffffff" y="-29.999999" height="359.999986" fill-opacity="1"></rect><rect x="-30" width="360" fill="#ffffff" y="-29.999999" height="359.999986" fill-opacity="1"></rect><path fill="#fbb424" d="M 217.351562 139.566406 C 216.183594 136.746094 213.429688 134.90625 210.375 134.90625 C 202.785156 134.917969 196.371094 129.273438 195.414062 121.742188 C 194.457031 114.214844 199.253906 107.144531 206.605469 105.253906 L 206.605469 100.945312 C 206.605469 98.859375 208.292969 97.171875 210.375 97.171875 C 212.460938 97.171875 214.152344 98.859375 214.152344 100.945312 L 214.152344 105.253906 C 220.796875 106.96875 225.445312 112.953125 225.46875 119.8125 C 225.46875 121.898438 223.78125 123.585938 221.699219 123.585938 C 219.613281 123.585938 217.921875 121.898438 217.921875 119.8125 C 217.921875 115.640625 214.546875 112.265625 210.375 112.265625 C 206.210938 112.265625 202.832031 115.640625 202.832031 119.8125 C 202.832031 123.980469 206.210938 127.359375 210.375 127.359375 C 217.96875 127.347656 224.382812 132.988281 225.339844 140.519531 C 226.296875 148.050781 221.503906 155.121094 214.152344 157.011719 L 214.152344 161.320312 C 214.152344 163.40625 212.460938 165.09375 210.375 165.09375 C 208.292969 165.09375 206.605469 163.40625 206.605469 161.320312 L 206.605469 157.011719 C 199.960938 155.296875 195.308594 149.3125 195.28125 142.453125 C 195.28125 140.367188 196.972656 138.679688 199.054688 138.679688 C 201.140625 138.679688 202.832031 140.367188 202.832031 142.453125 C 202.832031 145.507812 204.667969 148.257812 207.488281 149.425781 C 210.308594 150.59375 213.554688 149.949219 215.714844 147.789062 C 217.875 145.632812 218.519531 142.386719 217.351562 139.566406 Z M 210.375 180.1875 C 241.65625 180.1875 255.660156 163.128906 255.660156 146.226562 C 255.660156 120.789062 232.605469 88.957031 227.390625 82.078125 L 193.363281 82.078125 C 188.144531 88.96875 165.09375 120.824219 165.09375 146.226562 C 165.09375 163.128906 179.097656 180.1875 210.375 180.1875 " fill-opacity="1" fill-rule="nonzero"></path><path fill="#fbb424" d="M 188.085938 58.351562 L 194.125 74.558594 L 226.648438 74.558594 L 232.6875 58.332031 C 232.734375 58.203125 232.785156 58.078125 232.84375 57.953125 C 233.371094 56.90625 232.609375 55.664062 231.433594 55.660156 L 226.878906 55.660156 C 225.738281 55.65625 224.65625 55.136719 223.941406 54.242188 C 223.226562 53.347656 222.957031 52.179688 223.207031 51.0625 L 224.160156 46.785156 C 224.1875 46.65625 224.222656 46.53125 224.265625 46.410156 C 224.609375 45.382812 223.835938 44.324219 222.753906 44.34375 L 198 44.34375 C 196.921875 44.324219 196.144531 45.375 196.488281 46.398438 C 196.53125 46.523438 196.5625 46.648438 196.589844 46.777344 L 197.546875 51.0625 C 197.796875 52.179688 197.527344 53.347656 196.8125 54.242188 C 196.097656 55.136719 195.019531 55.65625 193.875 55.660156 L 189.320312 55.660156 C 188.769531 55.65625 188.257812 55.945312 187.976562 56.417969 C 187.679688 56.890625 187.660156 57.484375 187.929688 57.972656 C 187.988281 58.105469 188.039062 58.230469 188.085938 58.351562 " fill-opacity="1" fill-rule="nonzero"></path><path fill="#fbb424" d="M 130.945312 117.222656 C 130.628906 118.171875 129.945312 118.960938 129.050781 119.410156 C 128.15625 119.859375 127.117188 119.933594 126.167969 119.617188 L 114.84375 115.839844 C 113.304688 115.328125 112.265625 113.890625 112.265625 112.265625 L 112.265625 85.847656 C 112.265625 83.765625 113.953125 82.078125 116.035156 82.078125 C 118.121094 82.078125 119.8125 83.765625 119.8125 85.847656 L 119.8125 109.546875 L 128.550781 112.460938 L 128.550781 112.449219 C 129.5 112.761719 130.285156 113.441406 130.734375 114.339844 C 131.183594 115.234375 131.257812 116.273438 130.945312 117.222656 Z M 161.320312 108.492188 L 164.902344 108.492188 C 164.109375 98.121094 160.03125 88.273438 153.25 80.390625 L 150.726562 82.914062 C 150.019531 83.640625 149.054688 84.054688 148.042969 84.066406 C 147.03125 84.074219 146.058594 83.675781 145.34375 82.960938 C 144.625 82.246094 144.230469 81.273438 144.238281 80.257812 C 144.246094 79.25 144.660156 78.28125 145.390625 77.578125 L 147.914062 75.054688 C 140.027344 68.273438 130.179688 64.191406 119.8125 63.398438 L 119.8125 66.980469 C 119.8125 69.066406 118.121094 70.757812 116.035156 70.757812 C 113.953125 70.757812 112.265625 69.066406 112.265625 66.980469 L 112.265625 63.398438 C 101.894531 64.191406 92.050781 68.273438 84.164062 75.054688 L 86.6875 77.578125 C 87.414062 78.28125 87.828125 79.25 87.839844 80.257812 C 87.847656 81.273438 87.449219 82.246094 86.730469 82.960938 C 86.015625 83.675781 85.042969 84.074219 84.03125 84.066406 C 83.019531 84.054688 82.054688 83.640625 81.351562 82.914062 L 78.828125 80.390625 C 72.046875 88.273438 67.960938 98.121094 67.171875 108.492188 L 70.753906 108.492188 C 72.839844 108.492188 74.53125 110.179688 74.53125 112.265625 C 74.53125 114.347656 72.839844 116.035156 70.753906 116.035156 L 67.171875 116.035156 C 67.960938 126.410156 72.046875 136.253906 78.828125 144.140625 L 81.351562 141.613281 C 82.054688 140.886719 83.019531 140.472656 84.03125 140.464844 C 85.042969 140.457031 86.015625 140.851562 86.730469 141.566406 C 87.449219 142.285156 87.847656 143.253906 87.839844 144.269531 C 87.828125 145.28125 87.414062 146.25 86.6875 146.953125 L 84.164062 149.476562 C 92.050781 156.253906 101.894531 160.339844 112.265625 161.128906 L 112.265625 157.546875 C 112.265625 155.464844 113.953125 153.773438 116.035156 153.773438 C 118.121094 153.773438 119.8125 155.464844 119.8125 157.546875 L 119.8125 161.160156 C 130.183594 160.355469 140.03125 156.269531 147.933594 149.492188 L 145.390625 146.953125 C 143.957031 145.46875 143.980469 143.113281 145.433594 141.660156 C 146.890625 140.203125 149.246094 140.1875 150.726562 141.613281 L 153.277344 144.167969 C 155.210938 141.90625 156.933594 139.476562 158.421875 136.902344 C 159.6875 129.730469 161.78125 122.726562 164.664062 116.035156 L 161.320312 116.035156 C 159.234375 116.035156 157.546875 114.347656 157.546875 112.265625 C 157.546875 110.179688 159.234375 108.492188 161.320312 108.492188 " fill-opacity="1" fill-rule="nonzero"></path><path fill="#fbb424" d="M 159.878906 158.980469 C 158.851562 156.210938 158.15625 153.332031 157.808594 150.402344 C 140.097656 169.816406 111.367188 174.496094 88.410156 161.710938 C 65.457031 148.925781 54.3125 122.03125 61.492188 96.757812 C 68.671875 71.484375 92.292969 54.464844 118.539062 55.65625 C 144.785156 56.851562 166.769531 75.9375 171.628906 101.761719 C 173.433594 98.464844 175.253906 95.386719 177.015625 92.558594 C 169.601562 69.585938 149.914062 52.71875 126.074219 48.914062 C 102.234375 45.109375 78.28125 55.011719 64.078125 74.535156 C 49.882812 94.0625 47.851562 119.90625 58.816406 141.410156 C 69.785156 162.914062 91.898438 176.441406 116.035156 176.417969 C 132.328125 176.351562 147.992188 170.121094 159.878906 158.980469 " fill-opacity="1" fill-rule="nonzero"></path><path fill="#fbb424" d="M 251.28125 213.09375 L 195.988281 257.546875 C 191.339844 261.207031 185.59375 263.203125 179.671875 263.207031 C 176.949219 263.21875 174.246094 262.75 171.683594 261.824219 L 124.769531 244.996094 C 123.554688 244.5625 122.265625 244.339844 120.972656 244.339844 L 103.660156 244.339844 C 102.324219 246.664062 99.851562 248.105469 97.167969 248.113281 L 44.339844 248.113281 C 40.171875 248.113281 36.792969 244.734375 36.792969 240.566406 L 36.792969 202.832031 C 36.792969 198.664062 40.171875 195.285156 44.339844 195.285156 L 97.167969 195.285156 C 99.863281 195.296875 102.34375 196.75 103.671875 199.09375 L 118.550781 199.09375 C 121 199.089844 123.382812 198.296875 125.34375 196.832031 C 128.738281 194.285156 130.542969 192.933594 131.628906 192.214844 L 131.585938 192.15625 C 136.386719 188.527344 142.484375 187.0625 148.410156 188.113281 L 208.453125 197.925781 C 213.261719 198.65625 217.199219 202.125 218.527344 206.804688 L 236.128906 193.972656 C 239.898438 191.261719 244.878906 190.902344 249 193.042969 C 253.066406 195.066406 255.644531 199.210938 255.660156 203.75 C 255.664062 207.359375 254.058594 210.789062 251.28125 213.09375 Z M 52.832031 146.140625 C 40.351562 122.84375 41.707031 94.5625 56.359375 72.566406 C 71.015625 50.570312 96.582031 38.425781 122.894531 40.96875 C 149.203125 43.507812 171.976562 60.324219 182.148438 84.71875 C 184.320312 81.566406 186.105469 79.164062 187.238281 77.65625 L 181.054688 61.128906 C 179.746094 58.328125 179.9375 55.054688 181.566406 52.429688 C 183.199219 49.804688 186.046875 48.179688 189.140625 48.113281 C 188.460938 45.386719 189.074219 42.5 190.804688 40.289062 C 192.535156 38.078125 195.191406 36.789062 198 36.792969 L 222.753906 36.792969 C 225.5625 36.789062 228.21875 38.078125 229.949219 40.289062 C 231.679688 42.5 232.296875 45.386719 231.613281 48.113281 C 234.703125 48.179688 237.554688 49.804688 239.183594 52.429688 C 240.816406 55.054688 241.007812 58.328125 239.699219 61.128906 L 233.515625 77.65625 C 239.410156 85.394531 263.207031 118.328125 263.207031 146.226562 C 263.207031 166.226562 246.675781 187.734375 210.375 187.734375 C 186.289062 187.734375 170.957031 178.246094 163.335938 166.03125 C 150.253906 177.527344 133.453125 183.894531 116.035156 183.964844 C 89.609375 183.976562 65.3125 169.441406 52.832031 146.140625 Z M 252.136719 187.019531 C 250.621094 186.230469 249 185.675781 247.332031 185.316406 C 262.734375 175.933594 270 160.734375 270 146.226562 C 270 119.21875 250.175781 88.925781 241.175781 76.570312 L 245.980469 63.726562 C 248.132812 58.890625 247.757812 53.351562 244.953125 48.84375 C 243.339844 46.246094 241.0625 44.21875 238.410156 42.925781 C 237.941406 40.472656 236.894531 38.140625 235.300781 36.105469 C 232.265625 32.226562 227.699219 30 222.753906 30 L 197.984375 30 C 193.058594 30 188.488281 32.226562 185.460938 36.101562 C 183.863281 38.136719 182.8125 40.472656 182.347656 42.925781 C 179.695312 44.21875 177.417969 46.246094 175.796875 48.84375 C 173.90625 51.890625 173.125 55.414062 173.476562 58.875 C 160.632812 45.039062 142.996094 36.089844 123.550781 34.207031 C 121.042969 33.964844 118.5 33.839844 115.988281 33.839844 C 89.691406 33.839844 65.289062 46.914062 50.707031 68.804688 C 34.632812 92.929688 33.152344 123.792969 46.84375 149.347656 C 57.5625 169.351562 76.152344 183.378906 97.652344 188.539062 C 97.492188 188.53125 97.332031 188.492188 97.167969 188.488281 L 44.34375 188.488281 C 36.433594 188.488281 30 194.925781 30 202.832031 L 30 240.566406 C 30 248.472656 36.433594 254.902344 44.34375 254.902344 L 97.191406 254.902344 C 100.796875 254.890625 104.222656 253.503906 106.816406 251.128906 L 120.972656 251.128906 C 121.488281 251.128906 122 251.21875 122.480469 251.390625 L 169.378906 268.214844 C 172.667969 269.398438 176.109375 270 179.597656 270 C 179.601562 270 179.679688 270 179.679688 270 C 187.09375 269.992188 194.375 267.460938 200.242188 262.839844 L 255.625 218.316406 C 259.96875 214.703125 262.460938 209.390625 262.453125 203.730469 C 262.429688 196.570312 258.429688 190.148438 252.136719 187.019531 " fill-opacity="1" fill-rule="nonzero"></path><path fill="#fbb424" d="M 44.339844 240.566406 L 97.167969 240.566406 L 97.167969 202.832031 L 44.339844 202.832031 L 44.339844 240.566406 " fill-opacity="1" fill-rule="nonzero"></path><path fill="#fbb424" d="M 198.082031 221.699219 L 179.164062 221.699219 L 187.917969 229.105469 Z M 198.082031 221.699219 " fill-opacity="1" fill-rule="nonzero"></path><path fill="#fbb424" d="M 245.585938 199.769531 C 243.984375 198.925781 242.046875 199.042969 240.566406 200.078125 L 191.996094 235.472656 C 189.394531 237.34375 185.855469 237.21875 183.398438 235.167969 L 167.484375 221.699219 L 153.773438 221.699219 C 151.691406 221.699219 150 220.007812 150 217.921875 C 150 215.839844 151.691406 214.152344 153.773438 214.152344 L 206.941406 214.152344 C 208.09375 214.167969 209.203125 213.707031 210.007812 212.886719 C 210.914062 212.035156 211.402344 210.835938 211.355469 209.59375 C 211.136719 207.398438 209.429688 205.640625 207.234375 205.359375 L 147.089844 195.515625 C 143.222656 194.847656 139.25 195.804688 136.109375 198.15625 L 136.082031 198.183594 C 135.75 198.421875 129.871094 202.832031 129.871094 202.832031 C 126.605469 205.273438 122.636719 206.59375 118.554688 206.605469 L 104.71875 206.605469 L 104.71875 236.792969 L 120.972656 236.792969 C 123.132812 236.792969 125.273438 237.164062 127.308594 237.890625 L 174.257812 254.730469 C 180.082031 256.597656 186.453125 255.457031 191.257812 251.675781 L 246.503906 207.261719 C 247.53125 206.386719 248.121094 205.101562 248.109375 203.75 C 248.097656 202.046875 247.117188 200.503906 245.585938 199.769531 " fill-opacity="1" fill-rule="nonzero"></path></svg>