<svg xmlns="http://www.w3.org/2000/svg" xmlns:xlink="http://www.w3.org/1999/xlink" width="400" viewBox="0 0 300 299.999988" height="400" preserveAspectRatio="xMidYMid meet"><defs><clipPath id="0fbaf981dc"><path d="M 66 138 L 197 138 L 197 269.25 L 66 269.25 Z M 66 138 " clip-rule="nonzero"></path></clipPath></defs><rect x="-30" width="360" fill="#ffffff" y="-29.999999" height="359.999986" fill-opacity="1"></rect><rect x="-30" width="360" fill="#ffffff" y="-29.999999" height="359.999986" fill-opacity="1"></rect><path fill="#fbb424" d="M 51.460938 46.503906 L 71.453125 66.496094 L 66.523438 71.425781 L 46.53125 51.433594 Z M 109.042969 104.082031 L 129.246094 124.289062 L 124.316406 129.21875 L 104.113281 109.015625 Z M 91.375 32.859375 L 91.375 60.804688 L 84.402344 60.804688 L 84.402344 32.859375 Z M 91.375 115.769531 L 91.375 142.863281 L 84.402344 142.863281 L 84.402344 115.769531 Z M 46.53125 124.289062 L 66.203125 104.617188 L 71.132812 109.546875 L 51.460938 129.21875 Z M 105.074219 65.746094 L 124.316406 46.503906 L 129.246094 51.433594 L 110.003906 70.679688 Z M 32.886719 84.375 L 61.472656 84.375 L 61.472656 91.347656 L 32.886719 91.347656 Z M 115.371094 84.375 L 142.890625 84.375 L 142.890625 91.347656 L 115.371094 91.347656 Z M 115.371094 84.375 " fill-opacity="1" fill-rule="evenodd"></path><path fill="#fbb424" d="M 102.265625 59.105469 C 103.207031 59.574219 104.125 60.09375 105.015625 60.652344 C 105.90625 61.214844 106.765625 61.816406 107.597656 62.460938 C 108.429688 63.109375 109.230469 63.792969 109.992188 64.515625 C 110.757812 65.242188 111.484375 66 112.175781 66.796875 C 112.863281 67.59375 113.515625 68.417969 114.121094 69.277344 C 114.730469 70.136719 115.296875 71.023438 115.816406 71.941406 C 116.339844 72.855469 116.816406 73.792969 117.246094 74.753906 C 117.671875 75.714844 118.054688 76.695312 118.386719 77.695312 C 118.71875 78.695312 119.003906 79.707031 119.238281 80.734375 C 119.472656 81.761719 119.652344 82.796875 119.785156 83.839844 C 119.917969 84.886719 119.996094 85.933594 120.027344 86.988281 C 120.054688 88.039062 120.03125 89.089844 119.957031 90.140625 C 119.882812 91.191406 119.757812 92.234375 119.578125 93.273438 C 119.402344 94.3125 119.171875 95.339844 118.894531 96.355469 C 118.617188 97.371094 118.289062 98.371094 117.914062 99.351562 C 117.539062 100.335938 117.113281 101.300781 116.644531 102.242188 C 116.171875 103.183594 115.65625 104.097656 115.09375 104.992188 C 114.535156 105.882812 113.929688 106.742188 113.285156 107.574219 C 112.640625 108.40625 111.953125 109.203125 111.230469 109.96875 C 110.507812 110.734375 109.746094 111.460938 108.953125 112.152344 C 108.15625 112.839844 107.328125 113.492188 106.46875 114.097656 C 105.609375 114.707031 104.722656 115.273438 103.808594 115.792969 C 102.894531 116.316406 101.957031 116.792969 100.992188 117.21875 C 100.03125 117.648438 99.050781 118.03125 98.054688 118.363281 C 97.054688 118.695312 96.042969 118.980469 95.015625 119.214844 C 93.988281 119.445312 92.953125 119.628906 91.90625 119.761719 C 90.863281 119.894531 89.8125 119.972656 88.761719 120.003906 C 87.707031 120.03125 86.65625 120.007812 85.605469 119.933594 C 84.554688 119.859375 83.511719 119.734375 82.472656 119.554688 C 81.4375 119.378906 80.410156 119.148438 79.394531 118.871094 C 78.378906 118.59375 77.378906 118.265625 76.394531 117.890625 C 75.410156 117.515625 74.449219 117.089844 73.507812 116.621094 C 72.566406 116.148438 71.648438 115.632812 70.757812 115.070312 C 69.867188 114.511719 69.003906 113.90625 68.171875 113.261719 C 67.339844 112.617188 66.542969 111.929688 65.777344 111.207031 C 65.015625 110.484375 64.289062 109.722656 63.597656 108.929688 C 62.90625 108.132812 62.257812 107.304688 61.648438 106.445312 C 61.039062 105.585938 60.476562 104.699219 59.953125 103.785156 C 59.433594 102.871094 58.957031 101.933594 58.527344 100.96875 C 58.097656 100.007812 57.71875 99.027344 57.386719 98.03125 C 57.050781 97.03125 56.769531 96.019531 56.535156 94.992188 C 56.300781 93.964844 56.117188 92.929688 55.988281 91.882812 C 55.855469 90.839844 55.777344 89.789062 55.746094 88.738281 C 55.71875 87.683594 55.742188 86.632812 55.816406 85.582031 C 55.890625 84.53125 56.015625 83.488281 56.195312 82.449219 C 56.371094 81.414062 56.597656 80.386719 56.875 79.371094 C 57.15625 78.355469 57.480469 77.355469 57.859375 76.371094 C 58.234375 75.386719 58.660156 74.425781 59.128906 73.484375 C 59.601562 72.542969 60.117188 71.625 60.675781 70.734375 C 61.238281 69.84375 61.839844 68.980469 62.488281 68.148438 C 63.132812 67.316406 63.816406 66.519531 64.542969 65.753906 C 65.265625 64.992188 66.023438 64.261719 66.820312 63.574219 C 67.617188 62.882812 68.445312 62.234375 69.304688 61.625 C 70.164062 61.015625 71.050781 60.453125 71.964844 59.929688 C 72.878906 59.410156 73.816406 58.933594 74.777344 58.503906 C 75.738281 58.074219 76.71875 57.695312 77.71875 57.359375 C 78.71875 57.027344 79.730469 56.746094 80.757812 56.511719 C 81.785156 56.277344 82.820312 56.09375 83.863281 55.964844 C 84.910156 55.832031 85.957031 55.75 87.011719 55.722656 C 88.0625 55.695312 89.117188 55.71875 90.164062 55.792969 C 91.214844 55.867188 92.261719 55.992188 93.296875 56.167969 C 94.335938 56.347656 95.363281 56.574219 96.378906 56.851562 C 97.394531 57.128906 98.394531 57.457031 99.378906 57.835938 C 100.359375 58.210938 101.324219 58.632812 102.265625 59.105469 Z M 102.265625 59.105469 " fill-opacity="1" fill-rule="nonzero"></path><path fill="#fbb424" d="M 46.976562 46.945312 C 51.535156 42.386719 56.917969 40.382812 59.003906 42.46875 C 61.089844 44.554688 59.085938 49.941406 54.527344 54.5 C 49.96875 59.058594 44.582031 61.0625 42.496094 58.976562 C 40.410156 56.890625 42.417969 51.503906 46.976562 46.945312 Z M 87.890625 30 C 94.335938 30 99.5625 32.390625 99.5625 35.339844 C 99.5625 38.289062 94.335938 40.679688 87.890625 40.679688 C 81.441406 40.679688 76.214844 38.289062 76.214844 35.339844 C 76.214844 32.390625 81.441406 30 87.890625 30 Z M 128.804688 46.945312 C 133.359375 51.503906 135.367188 56.890625 133.28125 58.976562 C 131.195312 61.0625 125.808594 59.058594 121.25 54.5 C 116.691406 49.941406 114.6875 44.554688 116.773438 42.46875 C 118.859375 40.382812 124.246094 42.390625 128.804688 46.945312 Z M 145.75 87.859375 C 145.75 94.308594 143.359375 99.535156 140.410156 99.535156 C 137.460938 99.535156 135.070312 94.308594 135.070312 87.859375 C 135.070312 81.414062 137.460938 76.1875 140.410156 76.1875 C 143.359375 76.1875 145.75 81.414062 145.75 87.859375 Z M 128.804688 128.773438 C 124.246094 133.335938 118.859375 135.339844 116.773438 133.253906 C 114.6875 131.167969 116.691406 125.78125 121.25 121.222656 C 125.808594 116.664062 131.195312 114.660156 133.28125 116.746094 C 135.367188 118.832031 133.363281 124.21875 128.804688 128.773438 Z M 87.890625 145.722656 C 81.441406 145.722656 76.214844 143.332031 76.214844 140.382812 C 76.214844 137.433594 81.441406 135.042969 87.890625 135.042969 C 94.335938 135.042969 99.5625 137.433594 99.5625 140.382812 C 99.5625 143.332031 94.335938 145.722656 87.890625 145.722656 Z M 46.976562 128.773438 C 42.417969 124.21875 40.410156 118.832031 42.496094 116.746094 C 44.582031 114.660156 49.96875 116.664062 54.527344 121.222656 C 59.085938 125.78125 61.089844 131.167969 59.003906 133.253906 C 56.917969 135.339844 51.535156 133.335938 46.976562 128.773438 Z M 30.027344 87.859375 C 30.027344 81.414062 32.417969 76.1875 35.367188 76.1875 C 38.316406 76.1875 40.707031 81.414062 40.707031 87.859375 C 40.707031 94.308594 38.316406 99.535156 35.367188 99.535156 C 32.417969 99.535156 30.027344 94.308594 30.027344 87.859375 Z M 30.027344 87.859375 " fill-opacity="1" fill-rule="evenodd"></path><path fill="#fbb424" d="M 94.9375 82.796875 C 98.125 82.796875 100.726562 80.199219 100.726562 77.007812 C 100.726562 73.820312 98.125 71.21875 94.9375 71.21875 C 91.746094 71.21875 89.148438 73.820312 89.148438 77.007812 C 89.148438 80.199219 91.746094 82.796875 94.9375 82.796875 Z M 94.9375 82.796875 " fill-opacity="1" fill-rule="evenodd"></path><path fill="#fbb424" d="M 77.191406 83.429688 C 77.429688 83.667969 77.640625 83.925781 77.828125 84.203125 C 78.015625 84.484375 78.171875 84.777344 78.300781 85.089844 C 78.429688 85.398438 78.527344 85.71875 78.59375 86.046875 C 78.65625 86.378906 78.691406 86.710938 78.691406 87.046875 C 78.691406 87.382812 78.65625 87.714844 78.59375 88.042969 C 78.527344 88.371094 78.429688 88.691406 78.300781 89.003906 C 78.171875 89.3125 78.015625 89.609375 77.828125 89.886719 C 77.640625 90.167969 77.429688 90.425781 77.191406 90.660156 C 76.957031 90.898438 76.699219 91.109375 76.417969 91.296875 C 76.140625 91.484375 75.84375 91.640625 75.535156 91.769531 C 75.222656 91.898438 74.902344 91.996094 74.574219 92.0625 C 74.246094 92.125 73.914062 92.160156 73.578125 92.160156 C 73.242188 92.160156 72.910156 92.125 72.578125 92.0625 C 72.25 91.996094 71.929688 91.898438 71.621094 91.769531 C 71.308594 91.640625 71.015625 91.484375 70.734375 91.296875 C 70.457031 91.109375 70.199219 90.898438 69.960938 90.660156 C 69.722656 90.425781 69.511719 90.167969 69.324219 89.886719 C 69.140625 89.609375 68.980469 89.3125 68.851562 89.003906 C 68.722656 88.691406 68.628906 88.371094 68.5625 88.042969 C 68.496094 87.714844 68.464844 87.382812 68.464844 87.046875 C 68.464844 86.710938 68.496094 86.378906 68.5625 86.046875 C 68.628906 85.71875 68.722656 85.398438 68.851562 85.089844 C 68.980469 84.777344 69.140625 84.484375 69.324219 84.203125 C 69.511719 83.925781 69.722656 83.667969 69.960938 83.429688 C 70.199219 83.191406 70.457031 82.980469 70.734375 82.792969 C 71.015625 82.609375 71.308594 82.449219 71.621094 82.320312 C 71.929688 82.191406 72.25 82.097656 72.578125 82.03125 C 72.910156 81.964844 73.242188 81.933594 73.578125 81.933594 C 73.914062 81.933594 74.246094 81.964844 74.574219 82.03125 C 74.902344 82.097656 75.222656 82.191406 75.535156 82.320312 C 75.84375 82.449219 76.140625 82.609375 76.417969 82.792969 C 76.695312 82.980469 76.957031 83.191406 77.191406 83.429688 Z M 77.191406 83.429688 " fill-opacity="1" fill-rule="nonzero"></path><path fill="#fbb424" d="M 95.628906 93.660156 C 96.074219 93.84375 96.492188 94.066406 96.890625 94.335938 C 97.292969 94.601562 97.660156 94.902344 98 95.242188 C 98.339844 95.582031 98.640625 95.949219 98.90625 96.351562 C 99.175781 96.75 99.398438 97.167969 99.582031 97.613281 C 99.765625 98.054688 99.90625 98.511719 100 98.984375 C 100.09375 99.453125 100.140625 99.929688 100.140625 100.410156 C 100.140625 100.886719 100.09375 101.363281 100 101.832031 C 99.90625 102.304688 99.765625 102.761719 99.582031 103.203125 C 99.398438 103.648438 99.175781 104.070312 98.90625 104.46875 C 98.640625 104.867188 98.339844 105.234375 98 105.574219 C 97.660156 105.914062 97.292969 106.214844 96.890625 106.484375 C 96.492188 106.75 96.074219 106.972656 95.628906 107.15625 C 95.1875 107.339844 94.730469 107.480469 94.257812 107.574219 C 93.789062 107.667969 93.3125 107.714844 92.832031 107.714844 C 92.355469 107.714844 91.878906 107.667969 91.410156 107.574219 C 90.9375 107.480469 90.480469 107.339844 90.039062 107.15625 C 89.59375 106.972656 89.171875 106.75 88.773438 106.484375 C 88.375 106.214844 88.007812 105.914062 87.667969 105.574219 C 87.328125 105.234375 87.027344 104.867188 86.757812 104.46875 C 86.492188 104.070312 86.265625 103.648438 86.085938 103.203125 C 85.902344 102.761719 85.761719 102.304688 85.667969 101.832031 C 85.574219 101.363281 85.527344 100.886719 85.527344 100.410156 C 85.527344 99.929688 85.574219 99.453125 85.667969 98.984375 C 85.761719 98.511719 85.902344 98.054688 86.085938 97.613281 C 86.269531 97.167969 86.492188 96.75 86.757812 96.351562 C 87.027344 95.949219 87.328125 95.582031 87.667969 95.242188 C 88.007812 94.902344 88.375 94.601562 88.773438 94.335938 C 89.171875 94.066406 89.59375 93.84375 90.039062 93.660156 C 90.480469 93.476562 90.9375 93.335938 91.410156 93.242188 C 91.878906 93.148438 92.355469 93.101562 92.832031 93.101562 C 93.3125 93.101562 93.789062 93.148438 94.257812 93.242188 C 94.730469 93.335938 95.1875 93.476562 95.628906 93.660156 Z M 95.628906 93.660156 " fill-opacity="1" fill-rule="nonzero"></path><path fill="#efc7a4" d="M 254.3125 117.65625 L 260.773438 111.21875 C 264.152344 107.84375 264.15625 102.316406 260.78125 98.941406 C 257.410156 95.5625 251.882812 95.558594 248.484375 98.914062 L 255.960938 91.476562 C 259.339844 88.101562 259.34375 82.574219 255.96875 79.195312 C 252.597656 75.820312 247.070312 75.8125 243.691406 79.1875 L 238.714844 84.167969 C 242.09375 80.792969 242.09375 75.265625 238.722656 71.886719 C 235.347656 68.507812 229.820312 68.503906 226.445312 71.878906 L 196.527344 101.738281 C 198.941406 98.351562 198.632812 93.585938 195.605469 90.554688 C 192.230469 87.175781 186.707031 87.171875 183.328125 90.546875 L 155.023438 119.347656 C 138.164062 136.207031 138.164062 163.542969 155.023438 180.40625 C 171.882812 197.265625 199.222656 197.265625 216.082031 180.40625 L 266.589844 129.953125 C 269.96875 126.578125 269.972656 121.050781 266.597656 117.671875 C 263.222656 114.296875 257.695312 114.292969 254.3125 117.65625 Z M 254.3125 117.65625 " fill-opacity="1" fill-rule="evenodd"></path><g clip-path="url(#0fbaf981dc)"><path fill="#efc7a4" d="M 66.109375 227.472656 L 155.332031 138.25 L 196.957031 179.875 L 107.734375 269.097656 Z M 66.109375 227.472656 " fill-opacity="1" fill-rule="evenodd"></path></g><path fill="#d5a889" d="M 254.3125 117.65625 L 260.773438 111.21875 C 263.738281 108.261719 264.105469 103.644531 261.871094 100.277344 L 221.035156 141.121094 C 219.671875 142.484375 219.671875 144.691406 221.035156 146.050781 C 222.394531 147.414062 224.601562 147.414062 225.964844 146.050781 Z M 248.863281 98.5625 L 213.429688 134.003906 C 212.066406 135.367188 209.859375 135.367188 208.5 134.003906 C 207.136719 132.644531 207.136719 130.4375 208.5 129.074219 L 257.050781 80.515625 L 257.132812 80.644531 L 257.160156 80.683594 L 257.234375 80.804688 L 257.257812 80.84375 C 257.285156 80.890625 257.308594 80.933594 257.335938 80.976562 L 257.347656 81 C 257.464844 81.199219 257.570312 81.402344 257.667969 81.609375 L 257.679688 81.636719 C 257.699219 81.679688 257.722656 81.726562 257.742188 81.773438 L 257.757812 81.808594 C 257.777344 81.851562 257.796875 81.898438 257.816406 81.945312 L 257.832031 81.980469 C 257.851562 82.027344 257.871094 82.074219 257.890625 82.121094 L 257.898438 82.144531 C 257.984375 82.359375 258.058594 82.578125 258.125 82.796875 L 258.128906 82.8125 C 258.144531 82.863281 258.160156 82.917969 258.171875 82.96875 L 258.179688 82.988281 C 258.195312 83.039062 258.207031 83.089844 258.21875 83.140625 L 258.226562 83.171875 C 258.238281 83.21875 258.253906 83.269531 258.265625 83.316406 L 258.273438 83.355469 C 258.324219 83.574219 258.363281 83.792969 258.398438 84.015625 L 258.402344 84.035156 C 258.410156 84.089844 258.417969 84.140625 258.421875 84.191406 L 258.425781 84.21875 C 258.433594 84.269531 258.4375 84.320312 258.445312 84.367188 L 258.449219 84.414062 C 258.453125 84.460938 258.457031 84.507812 258.460938 84.550781 L 258.464844 84.59375 C 258.488281 84.875 258.5 85.160156 258.496094 85.441406 L 258.496094 85.464844 C 258.496094 85.515625 258.492188 85.566406 258.492188 85.617188 L 258.492188 85.65625 C 258.488281 85.707031 258.488281 85.757812 258.484375 85.808594 L 258.484375 85.820312 C 258.46875 86.054688 258.449219 86.285156 258.417969 86.515625 L 258.414062 86.523438 C 258.410156 86.578125 258.402344 86.628906 258.390625 86.683594 L 258.386719 86.710938 C 258.378906 86.765625 258.371094 86.816406 258.363281 86.871094 L 258.359375 86.882812 C 258.308594 87.171875 258.242188 87.457031 258.160156 87.738281 L 258.15625 87.75 C 258.144531 87.804688 258.128906 87.855469 258.113281 87.90625 L 258.105469 87.929688 C 258.089844 87.984375 258.070312 88.035156 258.054688 88.089844 L 258.050781 88.089844 C 257.941406 88.429688 257.804688 88.765625 257.648438 89.089844 L 257.644531 89.101562 C 257.621094 89.152344 257.59375 89.207031 257.570312 89.257812 L 257.566406 89.265625 C 257.429688 89.53125 257.28125 89.792969 257.117188 90.046875 L 257.109375 90.058594 C 257.078125 90.105469 257.046875 90.15625 257.011719 90.203125 L 257.007812 90.210938 C 256.976562 90.261719 256.941406 90.308594 256.90625 90.355469 L 256.898438 90.367188 C 256.722656 90.613281 256.535156 90.855469 256.328125 91.085938 L 256.320312 91.09375 C 256.28125 91.140625 256.242188 91.183594 256.203125 91.226562 L 256.195312 91.234375 L 253.9375 93.488281 L 248.488281 98.914062 C 248.53125 98.871094 248.578125 98.824219 248.625 98.78125 L 248.632812 98.777344 L 248.660156 98.746094 L 248.667969 98.742188 L 248.679688 98.730469 L 248.757812 98.660156 L 248.773438 98.644531 L 248.78125 98.640625 L 248.847656 98.582031 L 248.851562 98.574219 L 248.859375 98.570312 Z M 243.824219 79.058594 C 243.78125 79.101562 243.734375 79.144531 243.691406 79.1875 L 238.742188 84.140625 Z M 238.742188 84.140625 L 238.714844 84.167969 L 201.402344 121.488281 C 200.039062 122.851562 197.832031 122.851562 196.472656 121.488281 C 195.109375 120.128906 195.109375 117.921875 196.472656 116.558594 L 239.804688 73.214844 C 242.042969 76.585938 241.679688 81.203125 238.714844 84.167969 Z M 196.527344 101.734375 Z M 196.527344 101.738281 C 196.5625 101.6875 196.597656 101.632812 196.632812 101.582031 L 196.652344 101.554688 L 196.761719 101.390625 C 196.785156 101.355469 196.808594 101.3125 196.835938 101.277344 L 196.867188 101.222656 L 196.933594 101.113281 L 196.957031 101.070312 L 197.027344 100.949219 L 197.050781 100.90625 C 197.074219 100.859375 197.101562 100.816406 197.125 100.769531 L 197.136719 100.746094 C 197.164062 100.691406 197.195312 100.636719 197.222656 100.582031 L 197.226562 100.566406 C 197.253906 100.519531 197.277344 100.472656 197.296875 100.421875 L 197.324219 100.363281 L 197.375 100.253906 L 197.398438 100.203125 L 197.445312 100.09375 L 197.476562 100.023438 L 197.511719 99.929688 L 197.542969 99.855469 L 197.582031 99.753906 L 197.605469 99.691406 C 197.621094 99.648438 197.636719 99.605469 197.648438 99.5625 L 197.664062 99.523438 C 197.683594 99.46875 197.703125 99.410156 197.71875 99.355469 L 197.722656 99.351562 C 197.738281 99.296875 197.753906 99.238281 197.773438 99.183594 L 197.792969 99.113281 L 197.820312 99.015625 L 197.839844 98.941406 L 197.867188 98.832031 L 197.882812 98.777344 L 197.90625 98.664062 L 197.925781 98.589844 L 197.945312 98.492188 L 197.960938 98.417969 L 197.980469 98.316406 L 197.996094 98.242188 L 197.996094 98.238281 C 198.003906 98.183594 198.015625 98.128906 198.023438 98.074219 L 198.035156 98.003906 L 198.050781 97.902344 L 198.058594 97.832031 L 198.070312 97.722656 L 198.078125 97.65625 L 198.089844 97.546875 L 198.097656 97.46875 L 198.113281 97.289062 L 198.117188 97.207031 L 198.121094 97.113281 L 198.125 97.011719 L 198.128906 96.941406 L 198.128906 96.933594 C 198.128906 96.878906 198.132812 96.824219 198.132812 96.769531 L 198.132812 96.59375 L 198.128906 96.515625 L 198.128906 96.417969 L 198.125 96.335938 L 198.121094 96.242188 L 198.113281 96.15625 L 198.109375 96.0625 L 198.101562 95.984375 L 198.09375 95.878906 L 198.085938 95.808594 L 198.078125 95.710938 L 198.066406 95.628906 C 198.0625 95.574219 198.054688 95.519531 198.046875 95.464844 L 198.035156 95.386719 L 198.019531 95.292969 L 198.003906 95.207031 L 197.972656 95.027344 L 197.957031 94.949219 L 197.9375 94.855469 L 197.917969 94.769531 L 197.898438 94.6875 L 197.878906 94.59375 L 197.855469 94.511719 L 197.832031 94.425781 L 197.8125 94.339844 C 197.796875 94.289062 197.78125 94.234375 197.765625 94.183594 L 197.730469 94.074219 L 197.714844 94.011719 L 197.6875 93.933594 L 197.65625 93.839844 L 197.628906 93.761719 L 197.597656 93.675781 L 197.5625 93.589844 L 197.535156 93.515625 L 197.5 93.425781 L 197.464844 93.339844 L 197.433594 93.261719 C 197.414062 93.222656 197.398438 93.179688 197.378906 93.136719 L 197.359375 93.097656 C 197.335938 93.046875 197.316406 92.996094 197.289062 92.945312 L 197.257812 92.878906 L 197.128906 92.621094 L 197.042969 92.464844 L 197 92.390625 L 196.949219 92.300781 L 196.910156 92.230469 L 196.859375 92.148438 L 196.8125 92.074219 L 196.757812 91.992188 L 196.714844 91.921875 C 196.683594 91.875 196.652344 91.828125 196.621094 91.78125 L 171.71875 116.6875 C 169.988281 118.417969 169.433594 121.101562 171.828125 122.636719 C 171.863281 122.660156 184.355469 130.492188 183.253906 146.6875 C 183.128906 148.605469 184.578125 150.265625 186.496094 150.394531 C 188.414062 150.523438 190.074219 149.070312 190.203125 147.152344 C 191.179688 132.769531 183.488281 123.554688 178.886719 119.382812 Z M 194.558594 192.105469 L 267.671875 118.984375 L 267.675781 118.988281 C 267.703125 119.035156 267.734375 119.078125 267.761719 119.125 L 267.777344 119.144531 C 267.808594 119.195312 267.835938 119.242188 267.867188 119.289062 L 267.871094 119.296875 C 267.898438 119.347656 267.929688 119.394531 267.957031 119.445312 L 267.96875 119.460938 C 268.085938 119.664062 268.191406 119.871094 268.289062 120.078125 L 268.296875 120.085938 C 268.316406 120.136719 268.339844 120.183594 268.363281 120.234375 L 268.375 120.261719 C 268.394531 120.308594 268.417969 120.355469 268.433594 120.402344 L 268.449219 120.429688 C 268.535156 120.640625 268.617188 120.855469 268.6875 121.074219 L 268.691406 121.078125 C 268.707031 121.128906 268.722656 121.179688 268.738281 121.230469 L 268.746094 121.257812 C 268.761719 121.308594 268.777344 121.359375 268.792969 121.410156 L 268.792969 121.421875 C 268.890625 121.753906 268.964844 122.09375 269.015625 122.4375 L 269.023438 122.464844 C 269.03125 122.519531 269.039062 122.570312 269.042969 122.621094 L 269.046875 122.628906 C 269.074219 122.851562 269.097656 123.078125 269.109375 123.304688 L 269.113281 123.332031 C 269.113281 123.382812 269.117188 123.433594 269.117188 123.484375 L 269.121094 123.515625 C 269.121094 123.566406 269.121094 123.617188 269.125 123.671875 L 269.125 123.6875 C 269.125 123.914062 269.121094 124.140625 269.105469 124.363281 L 269.105469 124.382812 L 269.09375 124.527344 L 269.089844 124.570312 C 269.085938 124.621094 269.082031 124.675781 269.074219 124.726562 L 269.074219 124.734375 C 269.046875 125.015625 269 125.300781 268.945312 125.578125 L 268.9375 125.609375 C 268.925781 125.660156 268.917969 125.710938 268.902344 125.761719 L 268.898438 125.78125 C 268.886719 125.835938 268.875 125.886719 268.863281 125.9375 L 268.859375 125.957031 C 268.800781 126.175781 268.738281 126.398438 268.664062 126.613281 L 268.660156 126.625 C 268.640625 126.679688 268.625 126.730469 268.605469 126.78125 L 268.597656 126.800781 C 268.578125 126.851562 268.558594 126.902344 268.539062 126.957031 C 268.453125 127.179688 268.359375 127.394531 268.257812 127.609375 L 268.253906 127.613281 C 268.230469 127.660156 268.207031 127.710938 268.183594 127.757812 L 268.171875 127.78125 C 268.144531 127.832031 268.121094 127.878906 268.09375 127.925781 L 268.085938 127.941406 C 267.917969 128.25 267.730469 128.554688 267.523438 128.847656 L 267.511719 128.863281 C 267.476562 128.910156 267.445312 128.953125 267.410156 129 L 267.402344 129.011719 C 267.257812 129.203125 267.105469 129.390625 266.941406 129.574219 L 246.835938 149.683594 L 216.082031 180.402344 C 215.828125 180.660156 215.570312 180.910156 215.308594 181.15625 L 215.265625 181.199219 C 215.011719 181.4375 214.757812 181.675781 214.5 181.910156 L 214.441406 181.960938 C 214.183594 182.191406 213.925781 182.417969 213.664062 182.644531 L 213.613281 182.6875 C 213.351562 182.914062 213.089844 183.132812 212.824219 183.351562 L 212.777344 183.386719 C 212.519531 183.597656 212.257812 183.804688 211.996094 184.007812 L 211.914062 184.074219 C 211.65625 184.273438 211.394531 184.46875 211.128906 184.664062 L 211.027344 184.738281 C 210.769531 184.925781 210.511719 185.113281 210.25 185.296875 L 210.132812 185.378906 C 209.878906 185.554688 209.621094 185.726562 209.367188 185.898438 L 209.246094 185.976562 C 208.996094 186.140625 208.742188 186.300781 208.492188 186.460938 L 208.347656 186.550781 C 208.097656 186.707031 207.84375 186.859375 207.589844 187.011719 L 207.394531 187.128906 C 207.148438 187.269531 206.902344 187.414062 206.652344 187.550781 L 206.445312 187.667969 C 206.214844 187.792969 205.984375 187.917969 205.753906 188.042969 L 205.496094 188.175781 C 205.273438 188.292969 205.054688 188.40625 204.828125 188.519531 L 204.558594 188.652344 C 204.332031 188.761719 204.101562 188.871094 203.871094 188.980469 C 203.777344 189.023438 203.683594 189.066406 203.589844 189.109375 C 203.378906 189.207031 203.164062 189.304688 202.953125 189.398438 C 202.828125 189.453125 202.707031 189.503906 202.582031 189.558594 C 202.394531 189.640625 202.203125 189.71875 202.011719 189.796875 C 201.871094 189.855469 201.726562 189.914062 201.582031 189.972656 C 201.402344 190.042969 201.222656 190.113281 201.039062 190.183594 C 200.886719 190.242188 200.734375 190.300781 200.582031 190.355469 C 200.398438 190.421875 200.21875 190.488281 200.039062 190.554688 C 199.886719 190.605469 199.738281 190.660156 199.585938 190.710938 C 199.433594 190.765625 199.277344 190.816406 199.125 190.867188 C 198.949219 190.925781 198.777344 190.980469 198.601562 191.035156 C 198.445312 191.085938 198.289062 191.132812 198.136719 191.179688 C 197.941406 191.238281 197.75 191.296875 197.558594 191.351562 C 197.40625 191.394531 197.257812 191.4375 197.105469 191.480469 C 196.910156 191.53125 196.714844 191.585938 196.519531 191.636719 C 196.40625 191.664062 196.289062 191.695312 196.175781 191.726562 C 195.941406 191.78125 195.710938 191.839844 195.480469 191.894531 L 195.160156 191.96875 C 194.960938 192.011719 194.757812 192.058594 194.558594 192.101562 Z M 194.558594 192.105469 " fill-opacity="1" fill-rule="evenodd"></path><path fill="#fbb424" d="M 94.648438 217.066406 C 97.402344 217.066406 99.632812 219.296875 99.632812 222.046875 C 99.632812 224.796875 97.402344 227.027344 94.648438 227.027344 C 91.898438 227.027344 89.667969 224.796875 89.667969 222.046875 C 89.667969 219.296875 91.898438 217.066406 94.648438 217.066406 Z M 188.585938 163.964844 C 191.335938 163.964844 193.566406 166.195312 193.566406 168.945312 C 193.566406 171.695312 191.335938 173.925781 188.585938 173.925781 C 185.835938 173.925781 183.605469 171.695312 183.605469 168.945312 C 183.605469 166.195312 185.835938 163.964844 188.585938 163.964844 Z M 117.175781 223.027344 C 119.925781 223.027344 122.15625 225.257812 122.15625 228.007812 C 122.15625 230.757812 119.925781 232.988281 117.175781 232.988281 C 114.421875 232.988281 112.191406 230.757812 112.191406 228.007812 C 112.191406 225.257812 114.421875 223.027344 117.175781 223.027344 Z M 137.3125 175.242188 C 140.066406 175.242188 142.292969 177.46875 142.292969 180.222656 C 142.292969 182.972656 140.066406 185.203125 137.3125 185.203125 C 134.5625 185.203125 132.332031 182.972656 132.332031 180.222656 C 132.332031 177.46875 134.5625 175.242188 137.3125 175.242188 Z M 103.78125 240.640625 C 106.53125 240.640625 108.761719 242.871094 108.761719 245.621094 C 108.761719 248.375 106.53125 250.605469 103.78125 250.605469 C 101.027344 250.605469 98.796875 248.375 98.796875 245.621094 C 98.796875 242.871094 101.027344 240.640625 103.78125 240.640625 Z M 162.863281 189.058594 C 165.617188 189.058594 167.84375 191.289062 167.84375 194.039062 C 167.84375 196.789062 165.617188 199.019531 162.863281 199.019531 C 160.113281 199.019531 157.882812 196.789062 157.882812 194.039062 C 157.882812 191.289062 160.113281 189.058594 162.863281 189.058594 Z M 163.839844 164.121094 C 166.589844 164.121094 168.820312 166.351562 168.820312 169.105469 C 168.820312 171.855469 166.589844 174.085938 163.839844 174.085938 C 161.085938 174.085938 158.855469 171.855469 158.855469 169.105469 C 158.855469 166.351562 161.085938 164.121094 163.839844 164.121094 Z M 174.058594 136.296875 C 176.808594 136.296875 179.039062 138.527344 179.039062 141.277344 C 179.039062 144.03125 176.808594 146.257812 174.058594 146.257812 C 171.308594 146.257812 169.078125 144.03125 169.078125 141.277344 C 169.078125 138.527344 171.308594 136.296875 174.058594 136.296875 Z M 200.609375 140.769531 C 203.359375 140.769531 205.589844 143 205.589844 145.75 C 205.589844 148.503906 203.359375 150.730469 200.609375 150.730469 C 197.859375 150.730469 195.628906 148.503906 195.628906 145.75 C 195.628906 143 197.859375 140.769531 200.609375 140.769531 Z M 213.796875 156.34375 C 216.550781 156.34375 218.78125 158.574219 218.78125 161.328125 C 218.78125 164.078125 216.550781 166.308594 213.796875 166.308594 C 211.046875 166.308594 208.816406 164.078125 208.816406 161.328125 C 208.816406 158.574219 211.046875 156.34375 213.796875 156.34375 Z M 120.417969 199.199219 C 123.167969 199.199219 125.398438 201.429688 125.398438 204.179688 C 125.398438 206.929688 123.167969 209.160156 120.417969 209.160156 C 117.667969 209.160156 115.4375 206.929688 115.4375 204.179688 C 115.4375 201.429688 117.667969 199.199219 120.417969 199.199219 Z M 140.894531 206.785156 C 143.648438 206.785156 145.878906 209.011719 145.878906 211.765625 C 145.878906 214.515625 143.648438 216.746094 140.894531 216.746094 C 138.144531 216.746094 135.914062 214.515625 135.914062 211.765625 C 135.914062 209.011719 138.144531 206.785156 140.894531 206.785156 Z M 140.894531 206.785156 " fill-opacity="1" fill-rule="evenodd"></path></svg>