<svg xmlns="http://www.w3.org/2000/svg" xmlns:xlink="http://www.w3.org/1999/xlink" width="512" zoomAndPan="magnify" viewBox="0 0 384 383.999986" height="512" preserveAspectRatio="xMidYMid meet" version="1.0"><defs><g/><clipPath id="8863f3ed34"><path d="M 19.011719 23.015625 L 356 23.015625 L 356 360 L 19.011719 360 Z M 19.011719 23.015625 " clip-rule="nonzero"/></clipPath></defs><g clip-path="url(#8863f3ed34)"><path fill="#fcb424" d="M 177.394531 23.378906 C 173.859375 23.351562 170.808594 25.890625 170.179688 29.367188 L 166.1875 51.210938 C 162.765625 52.320312 159.460938 53.660156 156.207031 55.257812 L 138.273438 42.3125 C 135.394531 40.230469 131.402344 40.515625 128.890625 43.054688 L 113.296875 58.394531 C 110.785156 60.902344 110.414062 64.839844 112.441406 67.746094 L 125.042969 85.996094 C 123.390625 89.21875 121.992188 92.527344 120.878906 95.917969 L 99.011719 99.453125 C 95.503906 99.996094 92.90625 103.019531 92.878906 106.613281 L 92.738281 128.511719 C 92.707031 132.046875 95.246094 135.097656 98.726562 135.722656 L 120.652344 139.714844 C 121.734375 143.109375 123.105469 146.386719 124.699219 149.609375 L 111.671875 167.632812 C 109.589844 170.511719 109.875 174.503906 112.382812 177.039062 L 127.78125 192.609375 C 130.261719 195.117188 134.195312 195.488281 137.105469 193.464844 L 155.582031 180.746094 C 158.773438 182.371094 162.054688 183.710938 165.417969 184.824219 L 169.183594 206.953125 C 169.78125 210.457031 172.773438 213.023438 176.339844 213.054688 L 198.210938 213.167969 C 201.800781 213.195312 204.851562 210.601562 205.453125 207.09375 L 209.1875 184.996094 C 212.523438 183.914062 215.773438 182.601562 218.9375 181.003906 L 237.273438 194.035156 C 240.183594 196.085938 244.117188 195.746094 246.625 193.265625 L 262.222656 177.894531 C 264.761719 175.386719 265.101562 171.394531 263.019531 168.457031 L 250.019531 150.210938 C 251.644531 147.042969 253.011719 143.820312 254.125 140.515625 L 276.335938 136.75 C 279.816406 136.152344 282.382812 133.128906 282.410156 129.566406 L 282.523438 107.695312 C 282.554688 104.128906 279.988281 101.078125 276.453125 100.480469 L 254.4375 96.746094 C 253.355469 93.382812 252.015625 90.101562 250.445312 86.878906 L 263.390625 68.601562 C 265.472656 65.722656 265.160156 61.789062 262.652344 59.25 L 247.253906 43.679688 C 244.742188 41.171875 240.753906 40.800781 237.84375 42.882812 L 219.765625 55.714844 C 216.574219 54.089844 213.320312 52.71875 209.984375 51.609375 L 206.449219 29.652344 C 205.878906 26.117188 202.855469 23.523438 199.265625 23.492188 Z M 183.4375 38.007812 L 193.019531 38.0625 L 196.183594 57.796875 C 196.640625 60.675781 198.78125 62.984375 201.574219 63.699219 C 206.933594 65.066406 212.097656 67.261719 216.941406 70.199219 C 219.421875 71.738281 222.589844 71.625 224.957031 69.941406 L 241.238281 58.394531 L 247.964844 65.179688 L 236.246094 81.605469 C 234.59375 83.972656 234.449219 87.078125 235.933594 89.558594 C 238.8125 94.4375 240.921875 99.625 242.179688 104.957031 C 242.863281 107.808594 245.171875 109.976562 248.082031 110.488281 L 267.898438 113.824219 L 267.839844 123.378906 L 247.824219 126.742188 C 244.972656 127.226562 242.664062 129.367188 241.949219 132.160156 C 240.609375 137.464844 238.472656 142.597656 235.535156 147.386719 C 234.023438 149.894531 234.136719 153.058594 235.847656 155.425781 L 247.511719 171.878906 L 240.753906 178.582031 L 224.1875 166.832031 C 221.820312 165.148438 218.710938 165.035156 216.230469 166.519531 C 211.382812 169.398438 206.25 171.453125 200.917969 172.761719 C 198.066406 173.449219 195.929688 175.757812 195.445312 178.636719 L 192.078125 198.539062 L 182.554688 198.453125 L 179.191406 178.496094 C 178.707031 175.644531 176.566406 173.332031 173.714844 172.648438 C 168.441406 171.335938 163.25 169.171875 158.402344 166.261719 C 155.953125 164.78125 152.84375 164.863281 150.476562 166.519531 L 133.855469 177.980469 L 127.125 171.167969 L 138.84375 154.972656 C 140.554688 152.605469 140.695312 149.4375 139.1875 146.929688 C 136.304688 142.054688 134.195312 136.863281 132.882812 131.503906 C 132.199219 128.710938 129.949219 126.570312 127.097656 126.03125 L 107.363281 122.464844 L 107.449219 112.882812 L 127.097656 109.71875 C 129.976562 109.261719 132.3125 107.125 133.027344 104.300781 C 134.394531 98.914062 136.535156 93.722656 139.5 88.875 C 141.011719 86.421875 140.925781 83.285156 139.269531 80.921875 L 127.953125 64.496094 L 134.738281 57.765625 L 150.875 69.402344 C 153.214844 71.113281 156.351562 71.253906 158.859375 69.800781 C 163.765625 66.863281 168.984375 64.78125 174.371094 63.46875 C 177.195312 62.8125 179.332031 60.53125 179.847656 57.710938 Z M 187.546875 82.03125 C 178.164062 81.976562 168.753906 85.484375 161.597656 92.582031 C 147.285156 106.726562 147.167969 130.019531 161.3125 144.363281 C 175.457031 158.675781 198.78125 158.792969 213.09375 144.648438 C 227.40625 130.507812 227.523438 107.183594 213.378906 92.867188 C 206.308594 85.710938 196.925781 82.089844 187.546875 82.03125 Z M 187.488281 96.546875 C 193.105469 96.574219 198.695312 98.769531 203 103.132812 C 211.609375 111.828125 211.527344 125.660156 202.828125 134.242188 C 194.132812 142.851562 180.304688 142.796875 171.691406 134.097656 C 163.082031 125.375 163.164062 111.542969 171.863281 102.960938 C 176.226562 98.65625 181.84375 96.515625 187.488281 96.546875 Z M 110.414062 213.167969 C 91.367188 213.167969 82.585938 217.730469 73.121094 221.378906 C 73.121094 221.40625 73.121094 221.40625 73.121094 221.40625 C 54.957031 228.480469 23.875 243.136719 23.875 243.136719 C 20.226562 244.847656 18.65625 249.210938 20.367188 252.859375 C 22.109375 256.507812 26.46875 258.078125 30.121094 256.367188 C 30.121094 256.367188 61.398438 241.625 78.394531 235.007812 C 88.886719 230.933594 93.449219 227.765625 110.414062 227.765625 C 147.855469 227.765625 146.34375 244.019531 162.140625 253.316406 C 162.367188 253.457031 162.625 253.601562 162.878906 253.6875 C 182.46875 262.46875 203.511719 264.265625 220.480469 264.265625 C 227.976562 264.265625 232.710938 266.003906 235.277344 267.941406 C 237.816406 269.910156 238.726562 271.933594 238.726562 275.214844 C 238.726562 279.0625 237.757812 280.886719 235.21875 282.742188 C 232.710938 284.566406 227.863281 286.164062 220.480469 286.164062 L 182.15625 286.164062 C 166.074219 286.164062 138.386719 279.089844 138.386719 279.089844 C 135.878906 278.40625 133.167969 279.148438 131.316406 281.003906 C 129.460938 282.855469 128.75 285.5625 129.433594 288.074219 C 130.148438 290.609375 132.144531 292.578125 134.679688 293.234375 C 134.679688 293.234375 162.140625 300.761719 182.15625 300.761719 L 220.480469 300.761719 C 227.921875 300.761719 234.394531 299.535156 239.8125 296.855469 C 240.523438 296.65625 241.207031 296.34375 241.808594 295.914062 L 311.039062 250.492188 C 321.445312 244.476562 328.546875 242.792969 332.710938 242.851562 C 336.871094 242.9375 338.296875 244.191406 339.550781 245.789062 C 341.40625 248.183594 341.519531 249.09375 340.324219 251.859375 C 339.097656 254.65625 335.53125 258.960938 329.117188 263.410156 C 329.117188 263.410156 329.117188 263.410156 329.089844 263.410156 C 321.160156 268.941406 232.511719 326.710938 222.273438 332.527344 C 214.546875 336.917969 208.417969 341.535156 201.429688 343.503906 C 194.445312 345.441406 186.207031 345.441406 172.574219 338.941406 C 163.480469 334.578125 124.757812 314.734375 112.210938 308.375 C 105.226562 304.839844 99.265625 302.84375 93.191406 303.1875 C 87.089844 303.527344 81.929688 306.121094 76.597656 309.488281 C 76.570312 309.488281 76.539062 309.515625 76.539062 309.542969 L 58.464844 321.09375 C 56.183594 322.460938 54.84375 324.96875 54.925781 327.621094 C 55.011719 330.273438 56.554688 332.667969 58.917969 333.867188 C 61.316406 335.0625 64.136719 334.894531 66.332031 333.382812 L 84.324219 321.863281 C 88.972656 318.953125 91.597656 317.898438 93.992188 317.757812 C 96.386719 317.613281 99.664062 318.382812 105.625 321.40625 C 118.058594 327.707031 156.179688 347.269531 166.300781 352.085938 C 182.183594 359.699219 195.042969 360.414062 205.339844 357.5625 C 215.632812 354.683594 222.960938 348.921875 229.488281 345.214844 C 243.574219 337.203125 327.261719 282.457031 337.441406 275.386719 C 345.167969 269.996094 350.84375 264.378906 353.722656 257.648438 C 356.605469 250.917969 355.664062 242.707031 351.070312 236.835938 C 351.070312 236.835938 351.070312 236.835938 351.070312 236.804688 C 347.449219 232.1875 341.035156 228.421875 332.964844 228.25 C 328.375 228.164062 323.269531 229.222656 317.597656 231.300781 C 316.542969 229.90625 314.945312 228.082031 312.75 226.484375 C 308.5 223.320312 301.742188 220.46875 292.5625 220.46875 C 287.855469 220.46875 284.007812 221.550781 280.929688 222.832031 C 276.535156 218.640625 268.753906 213.308594 257.433594 213.308594 C 248.25 213.308594 239.640625 216.390625 233.652344 219.925781 C 232.539062 220.582031 229.859375 222.261719 225.296875 225.113281 C 220.734375 227.964844 214.777344 231.644531 208.902344 235.324219 C 199.519531 241.167969 193.703125 244.816406 190.339844 246.929688 C 183.183594 245.503906 176.027344 243.476562 169.269531 240.511719 C 163.507812 236.804688 152.417969 213.167969 110.414062 213.167969 Z M 257.433594 227.910156 C 262.050781 227.910156 265.359375 229.078125 267.699219 230.445312 L 233.9375 251.375 C 229.917969 250.234375 225.410156 249.664062 220.480469 249.664062 C 218.367188 249.664062 216.058594 249.523438 213.863281 249.4375 C 215.230469 248.582031 215.230469 248.582031 216.628906 247.726562 C 222.503906 244.046875 228.433594 240.339844 233.023438 237.488281 C 237.585938 234.667969 241.324219 232.355469 241.066406 232.5 C 244.515625 230.445312 252.015625 227.910156 257.433594 227.910156 Z M 292.5625 235.066406 C 298.492188 235.066406 301.6875 236.578125 303.625 237.917969 C 303.511719 237.976562 303.425781 238.03125 303.3125 238.117188 L 252.871094 271.191406 C 252.1875 267.117188 250.503906 263.210938 247.824219 259.957031 L 283.09375 238.089844 L 283.125 238.03125 C 283.410156 237.890625 289.511719 235.066406 292.5625 235.066406 Z M 292.5625 235.066406 " fill-opacity="1" fill-rule="nonzero"/></g><g fill="#fcb424" fill-opacity="1"><g transform="translate(255.811451, 247.480204)"><g><path d="M 4 -3.03125 C 4.488281 -3.03125 4.898438 -2.859375 5.234375 -2.515625 C 5.566406 -2.179688 5.734375 -1.773438 5.734375 -1.296875 C 5.734375 -0.816406 5.5625 -0.40625 5.21875 -0.0625 C 4.882812 0.269531 4.476562 0.4375 4 0.4375 C 3.519531 0.4375 3.109375 0.269531 2.765625 -0.0625 C 2.429688 -0.40625 2.265625 -0.816406 2.265625 -1.296875 C 2.265625 -1.785156 2.429688 -2.195312 2.765625 -2.53125 C 3.109375 -2.863281 3.519531 -3.03125 4 -3.03125 Z M 4 -3.03125 "/></g></g></g><g fill="#fcb424" fill-opacity="1"><g transform="translate(124.855017, 228.555203)"><g><path d="M 4 -3.03125 C 4.488281 -3.03125 4.898438 -2.859375 5.234375 -2.515625 C 5.566406 -2.179688 5.734375 -1.773438 5.734375 -1.296875 C 5.734375 -0.816406 5.5625 -0.40625 5.21875 -0.0625 C 4.882812 0.269531 4.476562 0.4375 4 0.4375 C 3.519531 0.4375 3.109375 0.269531 2.765625 -0.0625 C 2.429688 -0.40625 2.265625 -0.816406 2.265625 -1.296875 C 2.265625 -1.785156 2.429688 -2.195312 2.765625 -2.53125 C 3.109375 -2.863281 3.519531 -3.03125 4 -3.03125 Z M 4 -3.03125 "/></g></g></g><g fill="#fcb424" fill-opacity="1"><g transform="translate(183.993744, 209.630199)"><g><path d="M 4 -3.03125 C 4.488281 -3.03125 4.898438 -2.859375 5.234375 -2.515625 C 5.566406 -2.179688 5.734375 -1.773438 5.734375 -1.296875 C 5.734375 -0.816406 5.5625 -0.40625 5.21875 -0.0625 C 4.882812 0.269531 4.476562 0.4375 4 0.4375 C 3.519531 0.4375 3.109375 0.269531 2.765625 -0.0625 C 2.429688 -0.40625 2.265625 -0.816406 2.265625 -1.296875 C 2.265625 -1.785156 2.429688 -2.195312 2.765625 -2.53125 C 3.109375 -2.863281 3.519531 -3.03125 4 -3.03125 Z M 4 -3.03125 "/></g></g></g></svg>