<svg xmlns="http://www.w3.org/2000/svg" xmlns:xlink="http://www.w3.org/1999/xlink" width="400" viewBox="0 0 300 299.999988" height="400" preserveAspectRatio="xMidYMid meet"><path fill="#ffffff" d="M 259.925781 117.550781 L 222.988281 90.378906 L 222.988281 57.964844 C 222.988281 52.882812 218.863281 48.773438 213.789062 48.773438 L 198.839844 48.773438 C 193.757812 48.773438 189.640625 52.890625 189.640625 57.964844 L 189.640625 65.839844 L 161.472656 45.125 C 155.363281 40.617188 145.355469 40.617188 139.246094 45.125 L 40.792969 117.550781 C 34.683594 122.050781 33.363281 130.738281 37.863281 136.855469 L 40.585938 140.546875 C 45.074219 146.667969 53.761719 147.992188 59.867188 143.492188 L 139.246094 85.074219 C 145.355469 80.574219 155.363281 80.574219 161.472656 85.074219 L 240.84375 143.492188 C 246.957031 147.992188 255.636719 146.660156 260.128906 140.546875 L 262.855469 136.855469 C 267.347656 130.738281 266.03125 122.050781 259.925781 117.550781 Z M 259.925781 117.550781 " fill-opacity="1" fill-rule="nonzero"></path><path fill="#ffffff" d="M 230.472656 148.574219 L 161.453125 97.5625 C 155.347656 93.046875 145.371094 93.046875 139.269531 97.5625 L 70.246094 148.574219 C 64.144531 153.085938 59.148438 159.6875 59.148438 163.265625 L 59.148438 237.222656 C 59.148438 249.230469 69.441406 258.96875 82.144531 258.96875 L 124.296875 258.96875 L 124.296875 193.546875 C 124.296875 188.492188 128.433594 184.363281 133.488281 184.363281 L 167.21875 184.363281 C 172.269531 184.363281 176.410156 188.492188 176.410156 193.546875 L 176.410156 258.96875 L 218.566406 258.96875 C 231.265625 258.96875 241.550781 249.230469 241.550781 237.222656 L 241.550781 163.265625 C 241.558594 159.6875 236.578125 153.085938 230.472656 148.574219 Z M 230.472656 148.574219 " fill-opacity="1" fill-rule="nonzero"></path><path fill="#ffffff" d="M 259.925781 117.550781 L 222.988281 90.378906 L 222.988281 57.964844 C 222.988281 52.882812 218.863281 48.773438 213.789062 48.773438 L 198.839844 48.773438 C 193.757812 48.773438 189.640625 52.890625 189.640625 57.964844 L 189.640625 65.839844 L 161.472656 45.125 C 155.363281 40.617188 145.355469 40.617188 139.246094 45.125 L 40.792969 117.550781 C 34.683594 122.050781 33.363281 130.738281 37.863281 136.855469 L 40.585938 140.546875 C 45.074219 146.667969 53.761719 147.992188 59.867188 143.492188 L 139.246094 85.074219 C 145.355469 80.574219 155.363281 80.574219 161.472656 85.074219 L 240.84375 143.492188 C 246.957031 147.992188 255.636719 146.660156 260.128906 140.546875 L 262.855469 136.855469 C 267.347656 130.738281 266.03125 122.050781 259.925781 117.550781 Z M 259.925781 117.550781 " fill-opacity="1" fill-rule="nonzero"></path><path fill="#ffffff" d="M 230.472656 148.574219 L 161.453125 97.5625 C 155.347656 93.046875 145.371094 93.046875 139.269531 97.5625 L 70.246094 148.574219 C 64.144531 153.085938 59.148438 159.6875 59.148438 163.265625 L 59.148438 237.222656 C 59.148438 249.230469 69.441406 258.96875 82.144531 258.96875 L 124.296875 258.96875 L 124.296875 193.546875 C 124.296875 188.492188 128.433594 184.363281 133.488281 184.363281 L 167.21875 184.363281 C 172.269531 184.363281 176.410156 188.492188 176.410156 193.546875 L 176.410156 258.96875 L 218.566406 258.96875 C 231.265625 258.96875 241.550781 249.230469 241.550781 237.222656 L 241.550781 163.265625 C 241.558594 159.6875 236.578125 153.085938 230.472656 148.574219 Z M 230.472656 148.574219 " fill-opacity="1" fill-rule="nonzero"></path></svg>