<?xml version="1.0" encoding="UTF-8"?>
<svg xmlns="http://www.w3.org/2000/svg" xmlns:xlink="http://www.w3.org/1999/xlink" width="500" zoomAndPan="magnify" viewBox="0 0 375 374.999991" height="500" preserveAspectRatio="xMidYMid meet" version="1.0">
  <defs>
    <g></g>
    <clipPath id="bbf51c8fb7">
      <path d="M 37.5 241 L 337.5 241 L 337.5 284.4375 L 37.5 284.4375 Z M 37.5 241 " clip-rule="nonzero"></path>
    </clipPath>
  </defs>
  <g clip-path="url(#bbf51c8fb7)">
    <path fill="#fcb424" d="M 201.289062 241.554688 C 200.257812 243.878906 199 246.410156 198.433594 246.410156 C 197.734375 246.410156 194.820312 243.492188 192.960938 241.554688 L 189.125 241.554688 L 188.234375 242.222656 C 188.234375 242.222656 179.863281 245.625 179.078125 245.625 C 178.292969 245.625 172.539062 245.886719 172.539062 245.886719 C 172.539062 245.886719 164.433594 243.007812 163.648438 242.484375 C 163.417969 242.332031 162.515625 241.980469 161.363281 241.554688 L 146.425781 241.554688 L 140.371094 247.191406 L 133.308594 246.929688 C 133.308594 246.929688 128.648438 243.4375 125.851562 241.554688 L 117.285156 241.554688 L 110.640625 245.363281 L 105.0625 247.453125 L 99.398438 241.554688 L 85.460938 241.554688 C 83.199219 242.085938 80.792969 242.828125 79.691406 243.792969 C 77.601562 245.625 66.09375 246.410156 66.09375 246.410156 L 59.554688 242.222656 C 59.554688 242.222656 57.644531 241.90625 55.476562 241.554688 L 47.167969 241.554688 C 45.5 242.347656 43.242188 243.496094 41.542969 244.378906 L 37.632812 284.101562 L 337.367188 284.101562 L 331.613281 241.554688 Z M 201.289062 241.554688 " fill-opacity="1" fill-rule="nonzero"></path>
  </g>
  <path fill="#fcb424" d="M 59.875 220.210938 C 61.792969 225.542969 66.820312 228.863281 72.175781 228.859375 C 73.648438 228.859375 75.144531 228.609375 76.609375 228.082031 L 132.753906 207.859375 C 136.664062 206.449219 139.667969 203.269531 140.855469 199.289062 C 142.042969 195.304688 141.265625 190.996094 138.761719 187.679688 L 127.953125 173.347656 L 103.511719 176.878906 C 102.773438 176.984375 102.027344 177.039062 101.289062 177.039062 C 100.039062 177.039062 98.816406 176.886719 97.644531 176.597656 L 107.199219 189.265625 L 67.746094 203.476562 C 60.949219 205.925781 57.425781 213.417969 59.875 220.210938 Z M 59.875 220.210938 " fill-opacity="1" fill-rule="nonzero"></path>
  <path fill="#fcb424" d="M 103.164062 174.496094 L 138.847656 169.339844 L 152.511719 218.578125 C 154.117188 224.367188 159.375 228.160156 165.105469 228.160156 C 166.261719 228.160156 167.441406 228.007812 168.609375 227.683594 C 175.566406 225.75 179.644531 218.542969 177.714844 211.585938 L 171.246094 188.269531 L 163.078125 184.964844 C 160.003906 183.722656 157.636719 181.078125 156.742188 177.886719 L 146.609375 141.796875 C 146.574219 141.800781 146.539062 141.800781 146.503906 141.808594 L 99.425781 148.605469 C 98.929688 148.679688 98.449219 148.78125 97.976562 148.90625 L 99.082031 146.226562 L 145.953125 139.457031 L 144.1875 133.164062 C 143.410156 130.394531 143.757812 127.484375 145.167969 124.976562 C 146.578125 122.464844 148.878906 120.65625 151.652344 119.875 C 152.605469 119.609375 153.589844 119.472656 154.570312 119.472656 C 159.375 119.472656 163.636719 122.707031 164.9375 127.339844 L 167.730469 137.292969 C 171.953125 133.050781 174.207031 127.585938 172.605469 122.46875 C 169.863281 113.683594 158.984375 105.148438 143.160156 108.621094 C 121.433594 113.523438 108.90625 119.363281 90.464844 133.765625 C 77.78125 145.324219 82.3125 156.082031 87.402344 164.207031 C 88.25 165.558594 89.039062 166.765625 89.828125 167.808594 C 89.890625 167.929688 89.953125 168.050781 90.019531 168.171875 C 92.636719 172.613281 97.753906 175.273438 103.164062 174.496094 Z M 103.164062 174.496094 " fill-opacity="1" fill-rule="nonzero"></path>
  <path fill="#fcb424" d="M 178.800781 127.171875 C 183.585938 138.097656 195.660156 143.554688 206.816406 140.355469 C 206.0625 138.367188 205.371094 136.226562 204.777344 133.972656 C 201.652344 122.183594 202.25 111.777344 206.0625 110.398438 C 203.386719 113.3125 204.582031 122.972656 209.121094 133.328125 C 212.542969 141.140625 216.972656 147.300781 220.640625 149.859375 C 222.3125 151.023438 223.828125 151.441406 225.015625 150.921875 C 228.808594 149.257812 227.839844 138.6875 222.855469 127.308594 C 222.683594 126.917969 222.503906 126.546875 222.328125 126.164062 C 224.472656 120.582031 224.507812 114.1875 221.917969 108.277344 C 216.699219 96.371094 202.816406 90.949219 190.910156 96.164062 C 179.003906 101.382812 173.582031 115.265625 178.800781 127.171875 Z M 178.800781 127.171875 " fill-opacity="1" fill-rule="nonzero"></path>
  <path fill="#fcb424" d="M 206.757812 176.097656 C 205.632812 174.664062 203.542969 174.410156 202.109375 175.53125 C 201.585938 175.941406 201.226562 176.480469 201.023438 177.066406 L 210.523438 180.90625 Z M 206.757812 176.097656 " fill-opacity="1" fill-rule="nonzero"></path>
  <path fill="#fcb424" d="M 218.105469 204.648438 C 218.664062 210.941406 220.527344 220.691406 226.542969 228.375 L 237.046875 220.148438 L 247.546875 211.925781 C 241.074219 203.660156 231.121094 199.480469 225.234375 197.613281 C 225.152344 197.867188 225.070312 198.121094 224.96875 198.371094 C 223.71875 201.464844 221.175781 203.726562 218.105469 204.648438 Z M 218.105469 204.648438 " fill-opacity="1" fill-rule="nonzero"></path>
  <path fill="#fcb424" d="M 211.84375 202.09375 C 212.871094 202.507812 213.933594 202.703125 214.976562 202.703125 C 218.289062 202.703125 221.421875 200.726562 222.742188 197.46875 C 224.472656 193.183594 222.402344 188.304688 218.117188 186.574219 L 174.066406 168.757812 L 162.621094 127.992188 C 161.375 123.542969 156.757812 120.945312 152.300781 122.195312 C 147.851562 123.445312 145.257812 128.066406 146.507812 132.515625 L 159.0625 177.238281 C 159.761719 179.734375 161.578125 181.765625 163.980469 182.738281 Z M 211.84375 202.09375 " fill-opacity="1" fill-rule="nonzero"></path>
  <path fill="#fcb424" d="M 192.289062 235.945312 C 192.289062 236.886719 193.046875 237.648438 193.988281 237.648438 C 194.925781 237.648438 195.6875 236.886719 195.6875 235.945312 C 195.6875 235.238281 195.253906 234.632812 194.640625 234.378906 C 194.4375 234.292969 194.21875 234.246094 193.988281 234.246094 C 193.757812 234.246094 193.535156 234.292969 193.335938 234.378906 C 192.71875 234.632812 192.289062 235.238281 192.289062 235.945312 Z M 192.289062 235.945312 " fill-opacity="1" fill-rule="nonzero"></path>
  <path fill="#fcb424" d="M 182.480469 240.261719 C 182.480469 240.488281 182.4375 240.703125 182.351562 240.914062 C 182.265625 241.121094 182.140625 241.304688 181.980469 241.464844 C 181.820312 241.625 181.636719 241.746094 181.429688 241.832031 C 181.222656 241.917969 181.003906 241.960938 180.78125 241.960938 C 180.554688 241.960938 180.335938 241.917969 180.128906 241.832031 C 179.921875 241.746094 179.738281 241.625 179.578125 241.464844 C 179.417969 241.304688 179.296875 241.121094 179.207031 240.914062 C 179.121094 240.703125 179.078125 240.488281 179.078125 240.261719 C 179.078125 240.035156 179.121094 239.820312 179.207031 239.613281 C 179.296875 239.402344 179.417969 239.21875 179.578125 239.058594 C 179.738281 238.902344 179.921875 238.777344 180.128906 238.691406 C 180.335938 238.605469 180.554688 238.5625 180.78125 238.5625 C 181.003906 238.5625 181.222656 238.605469 181.429688 238.691406 C 181.636719 238.777344 181.820312 238.902344 181.980469 239.058594 C 182.140625 239.21875 182.265625 239.402344 182.351562 239.613281 C 182.4375 239.820312 182.480469 240.035156 182.480469 240.261719 Z M 182.480469 240.261719 " fill-opacity="1" fill-rule="nonzero"></path>
  <path fill="#fcb424" d="M 181.171875 235.945312 C 181.171875 236.886719 181.933594 237.648438 182.871094 237.648438 C 183.808594 237.648438 184.570312 236.886719 184.570312 235.945312 C 184.570312 235.238281 184.136719 234.632812 183.523438 234.378906 C 183.324219 234.292969 183.101562 234.246094 182.871094 234.246094 C 182.640625 234.246094 182.417969 234.292969 182.21875 234.378906 C 181.605469 234.632812 181.171875 235.238281 181.171875 235.945312 Z M 181.171875 235.945312 " fill-opacity="1" fill-rule="nonzero"></path>
  <path fill="#fcb424" d="M 171.363281 240.261719 C 171.363281 240.488281 171.320312 240.703125 171.234375 240.914062 C 171.148438 241.121094 171.023438 241.304688 170.867188 241.464844 C 170.707031 241.625 170.523438 241.746094 170.3125 241.832031 C 170.105469 241.917969 169.890625 241.960938 169.664062 241.960938 C 169.4375 241.960938 169.222656 241.917969 169.011719 241.832031 C 168.804688 241.746094 168.621094 241.625 168.460938 241.464844 C 168.300781 241.304688 168.179688 241.121094 168.09375 240.914062 C 168.007812 240.703125 167.964844 240.488281 167.964844 240.261719 C 167.964844 240.035156 168.007812 239.820312 168.09375 239.613281 C 168.179688 239.402344 168.300781 239.21875 168.460938 239.058594 C 168.621094 238.902344 168.804688 238.777344 169.011719 238.691406 C 169.222656 238.605469 169.4375 238.5625 169.664062 238.5625 C 169.890625 238.5625 170.105469 238.605469 170.3125 238.691406 C 170.523438 238.777344 170.707031 238.902344 170.867188 239.058594 C 171.023438 239.21875 171.148438 239.402344 171.234375 239.613281 C 171.320312 239.820312 171.363281 240.035156 171.363281 240.261719 Z M 171.363281 240.261719 " fill-opacity="1" fill-rule="nonzero"></path>
  <path fill="#fcb424" d="M 154.550781 239.191406 C 154.914062 238.878906 155.148438 238.425781 155.148438 237.90625 C 155.148438 236.96875 154.386719 236.207031 153.449219 236.207031 C 152.507812 236.207031 151.746094 236.96875 151.746094 237.90625 C 151.746094 238.527344 152.082031 239.0625 152.578125 239.359375 C 152.832031 239.515625 153.128906 239.609375 153.449219 239.609375 C 153.871094 239.609375 154.253906 239.449219 154.550781 239.191406 Z M 154.550781 239.191406 " fill-opacity="1" fill-rule="nonzero"></path>
  <path fill="#fcb424" d="M 138.277344 240.261719 C 138.277344 240.488281 138.234375 240.703125 138.148438 240.914062 C 138.0625 241.121094 137.941406 241.304688 137.78125 241.464844 C 137.621094 241.625 137.4375 241.746094 137.230469 241.832031 C 137.019531 241.917969 136.804688 241.960938 136.578125 241.960938 C 136.351562 241.960938 136.136719 241.917969 135.925781 241.832031 C 135.71875 241.746094 135.535156 241.625 135.375 241.464844 C 135.214844 241.304688 135.09375 241.121094 135.007812 240.914062 C 134.921875 240.703125 134.878906 240.488281 134.878906 240.261719 C 134.878906 240.035156 134.921875 239.820312 135.007812 239.613281 C 135.09375 239.402344 135.214844 239.21875 135.375 239.058594 C 135.535156 238.902344 135.71875 238.777344 135.925781 238.691406 C 136.136719 238.605469 136.351562 238.5625 136.578125 238.5625 C 136.804688 238.5625 137.019531 238.605469 137.230469 238.691406 C 137.4375 238.777344 137.621094 238.902344 137.78125 239.058594 C 137.941406 239.21875 138.0625 239.402344 138.148438 239.613281 C 138.234375 239.820312 138.277344 240.035156 138.277344 240.261719 Z M 138.277344 240.261719 " fill-opacity="1" fill-rule="nonzero"></path>
  <path fill="#fcb424" d="M 121.148438 235.945312 C 121.148438 236.886719 121.90625 237.648438 122.847656 237.648438 C 123.785156 237.648438 124.546875 236.886719 124.546875 235.945312 C 124.546875 235.238281 124.113281 234.632812 123.5 234.378906 C 123.300781 234.292969 123.078125 234.246094 122.847656 234.246094 C 122.617188 234.246094 122.394531 234.292969 122.195312 234.378906 C 121.582031 234.632812 121.148438 235.238281 121.148438 235.945312 Z M 121.148438 235.945312 " fill-opacity="1" fill-rule="nonzero"></path>
  <path fill="#fcb424" d="M 111.339844 240.261719 C 111.339844 240.488281 111.296875 240.703125 111.210938 240.914062 C 111.125 241.121094 111 241.304688 110.839844 241.464844 C 110.683594 241.625 110.496094 241.746094 110.289062 241.832031 C 110.082031 241.917969 109.863281 241.960938 109.640625 241.960938 C 109.414062 241.960938 109.195312 241.917969 108.988281 241.832031 C 108.78125 241.746094 108.597656 241.625 108.4375 241.464844 C 108.277344 241.304688 108.15625 241.121094 108.070312 240.914062 C 107.980469 240.703125 107.9375 240.488281 107.9375 240.261719 C 107.9375 240.035156 107.980469 239.820312 108.070312 239.613281 C 108.15625 239.402344 108.277344 239.21875 108.4375 239.058594 C 108.597656 238.902344 108.78125 238.777344 108.988281 238.691406 C 109.195312 238.605469 109.414062 238.5625 109.640625 238.5625 C 109.863281 238.5625 110.082031 238.605469 110.289062 238.691406 C 110.496094 238.777344 110.683594 238.902344 110.839844 239.058594 C 111 239.21875 111.125 239.402344 111.210938 239.613281 C 111.296875 239.820312 111.339844 240.035156 111.339844 240.261719 Z M 111.339844 240.261719 " fill-opacity="1" fill-rule="nonzero"></path>
  <path fill="#fcb424" d="M 96.429688 238.167969 C 96.429688 238.394531 96.386719 238.613281 96.300781 238.820312 C 96.214844 239.027344 96.09375 239.210938 95.933594 239.371094 C 95.773438 239.53125 95.589844 239.652344 95.382812 239.742188 C 95.171875 239.828125 94.957031 239.871094 94.730469 239.871094 C 94.503906 239.871094 94.289062 239.828125 94.082031 239.742188 C 93.871094 239.652344 93.6875 239.53125 93.527344 239.371094 C 93.371094 239.210938 93.246094 239.027344 93.160156 238.820312 C 93.074219 238.613281 93.03125 238.394531 93.03125 238.167969 C 93.03125 237.945312 93.074219 237.726562 93.160156 237.519531 C 93.246094 237.3125 93.371094 237.125 93.527344 236.96875 C 93.6875 236.808594 93.871094 236.683594 94.082031 236.597656 C 94.289062 236.511719 94.503906 236.46875 94.730469 236.46875 C 94.957031 236.46875 95.171875 236.511719 95.382812 236.597656 C 95.589844 236.683594 95.773438 236.808594 95.933594 236.96875 C 96.09375 237.125 96.214844 237.3125 96.300781 237.519531 C 96.386719 237.726562 96.429688 237.945312 96.429688 238.167969 Z M 96.429688 238.167969 " fill-opacity="1" fill-rule="nonzero"></path>
  <path fill="#fcb424" d="M 91.027344 238.167969 C 91.027344 238.394531 90.984375 238.613281 90.898438 238.820312 C 90.8125 239.027344 90.6875 239.210938 90.527344 239.371094 C 90.367188 239.53125 90.183594 239.652344 89.976562 239.742188 C 89.769531 239.828125 89.550781 239.871094 89.328125 239.871094 C 89.101562 239.871094 88.882812 239.828125 88.675781 239.742188 C 88.46875 239.652344 88.285156 239.53125 88.125 239.371094 C 87.964844 239.210938 87.84375 239.027344 87.753906 238.820312 C 87.667969 238.613281 87.625 238.394531 87.625 238.167969 C 87.625 237.945312 87.667969 237.726562 87.753906 237.519531 C 87.84375 237.3125 87.964844 237.125 88.125 236.96875 C 88.285156 236.808594 88.46875 236.683594 88.675781 236.597656 C 88.882812 236.511719 89.101562 236.46875 89.328125 236.46875 C 89.550781 236.46875 89.769531 236.511719 89.976562 236.597656 C 90.183594 236.683594 90.367188 236.808594 90.527344 236.96875 C 90.6875 237.125 90.8125 237.3125 90.898438 237.519531 C 90.984375 237.726562 91.027344 237.945312 91.027344 238.167969 Z M 91.027344 238.167969 " fill-opacity="1" fill-rule="nonzero"></path>
  <path fill="#fcb424" d="M 68.445312 243.226562 C 68.445312 243.453125 68.402344 243.667969 68.316406 243.875 C 68.230469 244.085938 68.105469 244.269531 67.949219 244.429688 C 67.789062 244.585938 67.605469 244.710938 67.394531 244.796875 C 67.1875 244.882812 66.972656 244.925781 66.746094 244.925781 C 66.519531 244.925781 66.304688 244.882812 66.09375 244.796875 C 65.886719 244.710938 65.703125 244.585938 65.542969 244.429688 C 65.382812 244.269531 65.261719 244.085938 65.175781 243.875 C 65.089844 243.667969 65.046875 243.453125 65.046875 243.226562 C 65.046875 243 65.089844 242.785156 65.175781 242.574219 C 65.261719 242.367188 65.382812 242.183594 65.542969 242.023438 C 65.703125 241.863281 65.886719 241.742188 66.09375 241.65625 C 66.304688 241.570312 66.519531 241.527344 66.746094 241.527344 C 66.972656 241.527344 67.1875 241.570312 67.394531 241.65625 C 67.605469 241.742188 67.789062 241.863281 67.949219 242.023438 C 68.105469 242.183594 68.230469 242.367188 68.316406 242.574219 C 68.402344 242.785156 68.445312 243 68.445312 243.226562 Z M 68.445312 243.226562 " fill-opacity="1" fill-rule="nonzero"></path>
  <g fill="#000000" fill-opacity="1">
    <g transform="translate(152.047245, 59.319)">
      <g>
        <path d="M 0.125 -0.15625 C 0.144531 -0.15625 0.160156 -0.144531 0.171875 -0.125 C 0.191406 -0.113281 0.203125 -0.0976562 0.203125 -0.078125 C 0.203125 -0.046875 0.191406 -0.0195312 0.171875 0 C 0.160156 0.0078125 0.144531 0.015625 0.125 0.015625 C 0.101562 0.015625 0.0820312 0.0078125 0.0625 0 C 0.0390625 -0.0195312 0.03125 -0.046875 0.03125 -0.078125 C 0.03125 -0.0976562 0.0390625 -0.113281 0.0625 -0.125 C 0.0820312 -0.144531 0.101562 -0.15625 0.125 -0.15625 Z M 0.125 -0.15625 "></path>
      </g>
    </g>
  </g>
</svg>
