<?xml version="1.0" encoding="UTF-8"?>
<svg xmlns="http://www.w3.org/2000/svg" xmlns:xlink="http://www.w3.org/1999/xlink" width="500" zoomAndPan="magnify" viewBox="0 0 375 374.999991" height="500" preserveAspectRatio="xMidYMid meet" version="1.0">
  <defs>
    <g></g>
    <clipPath id="b909ee8518">
      <path d="M 76.3125 37.5 L 299 37.5 L 299 337 L 76.3125 337 Z M 76.3125 37.5 " clip-rule="nonzero"></path>
    </clipPath>
  </defs>
  <g clip-path="url(#b909ee8518)">
    <path fill="#fcb424" d="M 110.617188 81.902344 C 110.617188 81.203125 110.617188 80.484375 110.636719 79.765625 C 107.464844 79.898438 104.265625 80.105469 101.132812 80.425781 C 99.507812 80.601562 97.875 80.785156 96.25 81.019531 C 95.996094 81.066406 95.355469 81.222656 94.800781 81.378906 C 93.339844 87.613281 92.601562 94.003906 92.5625 100.386719 L 110.617188 88.332031 Z M 132.152344 102.175781 L 130.121094 87.214844 C 129.800781 84.839844 129.457031 82.378906 128.777344 80.105469 C 128.058594 77.625 126.996094 75.628906 125.605469 74.132812 C 124.078125 72.46875 122.046875 71.417969 120.089844 71.3125 C 119.46875 71.273438 118.875 71.339844 118.292969 71.496094 C 117.816406 71.789062 117.40625 72.128906 117.054688 72.527344 C 116.511719 73.207031 116.054688 74.0625 115.558594 74.96875 C 115.296875 75.445312 115.015625 75.949219 114.710938 76.464844 C 114.429688 78.207031 114.410156 80.085938 114.410156 81.902344 L 114.429688 101.980469 C 117.457031 102 120.527344 102.039062 123.621094 102.078125 C 126.460938 102.136719 129.324219 102.15625 132.152344 102.175781 Z M 152.414062 82.457031 C 152.929688 80.027344 153.457031 77.527344 153.398438 75.105469 C 153.347656 72.613281 152.628906 70.433594 151.394531 68.917969 C 150.390625 68.878906 149.4375 68.820312 148.515625 68.773438 C 145.664062 68.820312 142.765625 69.191406 139.75 69.558594 C 136.230469 70.035156 132.609375 70.492188 128.894531 70.433594 C 128.078125 70.433594 127.261719 70.394531 126.445312 70.339844 C 126.101562 70.339844 125.800781 70.328125 125.480469 70.300781 C 126.277344 70.851562 127.035156 71.476562 127.71875 72.214844 C 129.382812 74.015625 130.65625 76.40625 131.511719 79.289062 C 132.242188 81.785156 132.609375 84.355469 132.929688 86.816406 L 134.847656 100.804688 C 140.421875 93.867188 146.480469 87.855469 152.53125 83.304688 C 152.414062 83.042969 152.355469 82.761719 152.414062 82.457031 Z M 166.761719 70.871094 C 165.101562 70.71875 163.4375 71.195312 162.335938 72.253906 C 161.226562 73.316406 160.625 74.929688 160.167969 76.367188 C 158.765625 80.726562 158.25 85.433594 158.621094 89.996094 C 159.945312 90.074219 161.304688 90.210938 162.640625 90.355469 C 163.183594 90.414062 163.738281 90.453125 164.261719 90.511719 C 163.699219 88.121094 163.144531 85.660156 162.921875 83.140625 C 162.660156 79.859375 163.019531 76.941406 164.019531 74.453125 C 164.664062 72.808594 165.636719 71.59375 166.761719 70.871094 Z M 173.210938 76.328125 C 172.609375 75.367188 171.996094 74.394531 171.207031 73.714844 C 170.46875 73.089844 169.632812 72.808594 168.953125 72.933594 C 167.695312 73.207031 166.917969 74.8125 166.65625 75.492188 C 165.820312 77.585938 165.539062 80.066406 165.761719 82.894531 C 165.976562 85.316406 166.539062 87.777344 167.113281 90.152344 C 168.078125 88.167969 169.019531 85.902344 169.953125 83.664062 C 170.996094 81.164062 172.074219 78.566406 173.210938 76.328125 Z M 178.347656 298.785156 C 179.789062 298.289062 181.246094 297.949219 182.695312 297.703125 C 175.75 297.511719 168.496094 297.226562 160.800781 296.867188 C 146.917969 296.207031 133.3125 295.351562 122.988281 294.691406 C 121.347656 294.59375 119.613281 294.746094 117.816406 294.902344 C 114.917969 295.148438 111.921875 295.390625 108.984375 294.574219 C 101.667969 292.550781 93.953125 291.636719 86.484375 290.769531 L 86.222656 290.730469 C 86.164062 292.132812 86.105469 293.53125 86.085938 294.914062 C 86.027344 298.085938 86.027344 301.265625 86.066406 304.4375 C 86.066406 304.933594 86.046875 305.4375 86.046875 305.964844 C 86.007812 307.492188 85.96875 309.191406 86.445312 310.214844 C 86.804688 310.933594 87.765625 311.730469 88.703125 312.492188 C 89.003906 312.722656 89.285156 312.96875 89.558594 313.191406 C 91.257812 314.648438 93.339844 315.925781 96.132812 317.167969 C 97.078125 317.585938 98.050781 317.988281 99.011719 318.367188 C 120.910156 327.050781 144.925781 331.351562 168.476562 330.789062 C 168.535156 330.789062 168.574219 330.789062 168.621094 330.789062 C 167.675781 324.796875 167.472656 318.707031 168.039062 312.664062 C 168.28125 310.011719 168.738281 307.199219 170.253906 304.757812 C 171.890625 302.121094 174.691406 300.050781 178.347656 298.785156 Z M 181.558594 43.53125 C 180.761719 43.53125 179.945312 43.53125 179.125 43.53125 C 177.066406 43.5 174.449219 43.605469 172.472656 44.707031 C 170.671875 45.707031 169.214844 47.554688 168.679688 49.472656 C 169.398438 49.335938 170.128906 49.199219 170.839844 49.054688 C 172.433594 48.722656 174.03125 48.382812 175.644531 48.121094 C 177.007812 47.898438 178.40625 47.703125 179.777344 47.554688 C 180.058594 46.261719 180.625 44.941406 180.625 44.921875 C 180.878906 44.40625 181.199219 43.949219 181.558594 43.53125 Z M 203.910156 49.054688 C 204.621094 49.199219 205.351562 49.316406 206.070312 49.472656 C 205.535156 47.554688 204.078125 45.707031 202.277344 44.707031 C 200.304688 43.605469 197.667969 43.5 195.625 43.53125 C 194.886719 43.53125 194.144531 43.53125 193.40625 43.53125 C 194.292969 44.84375 194.769531 46.417969 194.992188 47.554688 C 196.363281 47.703125 197.746094 47.917969 199.105469 48.121094 C 200.722656 48.382812 202.316406 48.722656 203.910156 49.054688 Z M 190.554688 330.847656 C 195.710938 330.914062 200.953125 330.992188 206.199219 330.953125 C 205.992188 328.414062 206.03125 325.875 206.070312 323.433594 C 206.128906 320.964844 206.160156 318.617188 205.972656 316.304688 C 205.710938 313.25 204.640625 307.714844 200.625 305.039062 C 198.105469 303.375 194.652344 303.035156 191.605469 302.917969 C 188.328125 302.800781 184.078125 302.839844 180.207031 304.171875 C 178.523438 304.757812 176.265625 305.835938 175.089844 307.753906 C 174.234375 309.132812 173.914062 310.914062 173.707031 313.191406 C 173.171875 318.863281 173.367188 324.582031 174.273438 330.222656 C 174.3125 330.390625 174.3125 330.5625 174.3125 330.730469 C 175.167969 330.730469 176.003906 330.710938 176.851562 330.710938 C 181.480469 330.710938 186.0625 330.769531 190.554688 330.847656 Z M 208.988281 82.894531 C 209.214844 80.066406 208.929688 77.585938 208.09375 75.492188 C 207.832031 74.8125 207.054688 73.207031 205.800781 72.933594 C 205.117188 72.808594 204.28125 73.089844 203.542969 73.714844 C 202.753906 74.394531 202.140625 75.367188 201.539062 76.328125 C 202.675781 78.566406 203.757812 81.164062 204.796875 83.664062 C 205.730469 85.902344 206.675781 88.167969 207.636719 90.152344 C 208.210938 87.777344 208.777344 85.316406 208.988281 82.894531 Z M 218.621094 56.214844 C 216.820312 55.210938 214.902344 54.375 212.910156 53.734375 C 211.351562 53.355469 209.808594 53.03125 208.25 52.789062 C 206.578125 52.515625 204.953125 52.175781 203.320312 51.835938 C 201.761719 51.515625 200.226562 51.195312 198.660156 50.933594 C 196.964844 50.660156 195.265625 50.4375 193.589844 50.242188 C 192.929688 50.191406 192.40625 49.65625 192.328125 48.996094 C 192.152344 47.265625 191.566406 45.640625 190.847656 44.804688 C 190.546875 44.445312 189.195312 44.347656 188.570312 44.296875 L 188.300781 44.277344 C 186.773438 44.160156 184.078125 44.21875 183.222656 46.097656 C 183.105469 46.398438 182.539062 48.382812 182.425781 48.917969 C 182.40625 49.054688 182.386719 49.199219 182.335938 49.335938 C 182.140625 49.84375 181.683594 50.191406 181.160156 50.242188 C 179.488281 50.4375 177.785156 50.660156 176.089844 50.933594 C 174.527344 51.195312 172.988281 51.515625 171.433594 51.835938 C 169.796875 52.175781 168.171875 52.515625 166.5 52.789062 C 164.945312 53.03125 163.398438 53.355469 161.839844 53.734375 C 159.828125 54.375 157.890625 55.230469 156.09375 56.234375 C 161.324219 54.949219 166.695312 53.996094 172.09375 53.488281 C 177.140625 52.992188 182.238281 53.011719 187.179688 53.050781 C 188.570312 53.050781 189.953125 53.050781 191.335938 53.050781 C 200.859375 53.050781 209.953125 54.09375 218.621094 56.214844 Z M 216.128906 89.996094 C 216.5 85.433594 215.984375 80.726562 214.582031 76.347656 C 214.125 74.929688 213.523438 73.316406 212.414062 72.253906 C 211.316406 71.195312 209.652344 70.71875 207.988281 70.871094 C 209.117188 71.59375 210.089844 72.808594 210.730469 74.453125 C 211.734375 76.941406 212.09375 79.859375 211.828125 83.140625 C 211.605469 85.660156 211.050781 88.121094 210.488281 90.511719 C 211.011719 90.453125 211.566406 90.414062 212.113281 90.355469 C 213.445312 90.210938 214.804688 90.074219 216.128906 89.996094 Z M 219.84375 60.582031 C 219.863281 60.203125 219.882812 59.863281 219.902344 59.480469 C 210.90625 57.089844 201.382812 55.875 191.335938 55.894531 C 189.953125 55.894531 188.570312 55.894531 187.179688 55.894531 C 182.316406 55.855469 177.269531 55.835938 172.355469 56.3125 C 166.441406 56.886719 160.546875 57.953125 154.847656 59.492188 C 154.867188 59.863281 154.886719 60.203125 154.90625 60.601562 C 154.972656 61.847656 155.03125 63.121094 155.070312 64.367188 C 156.6875 64.023438 158.289062 63.722656 159.90625 63.5 C 162.726562 63.140625 165.800781 62.925781 169.59375 62.878906 C 170.351562 62.859375 171.09375 62.859375 171.851562 62.859375 C 173.933594 62.878906 175.886719 62.878906 177.824219 62.585938 C 180.097656 62.226562 182.484375 62.34375 184.796875 62.4375 C 185.820312 62.488281 186.839844 62.527344 187.832031 62.527344 L 194.90625 62.527344 C 195.925781 62.527344 196.890625 62.605469 197.824219 62.703125 C 198.726562 62.78125 199.601562 62.859375 200.476562 62.859375 C 205.078125 62.828125 209.992188 62.859375 214.84375 63.5 C 216.460938 63.722656 218.066406 64.023438 219.679688 64.367188 C 219.71875 63.121094 219.777344 61.847656 219.84375 60.582031 Z M 249.269531 70.300781 C 248.949219 70.328125 248.648438 70.339844 248.308594 70.339844 C 247.492188 70.394531 246.671875 70.433594 245.855469 70.433594 C 242.160156 70.492188 238.523438 70.035156 235 69.558594 C 231.984375 69.191406 229.105469 68.820312 226.234375 68.773438 C 225.3125 68.820312 224.359375 68.878906 223.355469 68.917969 C 222.121094 70.433594 221.402344 72.613281 221.351562 75.105469 C 221.292969 77.527344 221.820312 80.027344 222.335938 82.457031 C 222.394531 82.761719 222.335938 83.042969 222.21875 83.304688 C 228.269531 87.855469 234.328125 93.867188 239.902344 100.804688 L 241.820312 86.816406 C 242.160156 84.355469 242.511719 81.777344 243.238281 79.289062 C 244.09375 76.40625 245.371094 74.015625 247.035156 72.214844 C 247.714844 71.476562 248.472656 70.851562 249.269531 70.300781 Z M 260.320312 101.980469 L 260.339844 81.902344 C 260.339844 80.085938 260.320312 78.207031 260.039062 76.445312 C 259.738281 75.949219 259.457031 75.445312 259.203125 74.96875 C 258.695312 74.0625 258.238281 73.207031 257.695312 72.527344 C 257.34375 72.109375 256.917969 71.789062 256.441406 71.476562 C 255.847656 71.332031 255.261719 71.253906 254.660156 71.3125 C 252.703125 71.417969 250.671875 72.46875 249.144531 74.132812 C 247.753906 75.628906 246.691406 77.625 245.972656 80.105469 C 245.292969 82.378906 244.953125 84.820312 244.628906 87.214844 L 242.597656 102.175781 C 245.429688 102.15625 248.289062 102.136719 251.128906 102.078125 C 254.203125 102.039062 257.296875 102 260.320312 101.980469 Z M 264.132812 88.332031 L 282.1875 100.386719 C 282.148438 94.003906 281.410156 87.613281 279.949219 81.378906 C 279.394531 81.222656 278.753906 81.058594 278.492188 81.019531 C 276.875 80.785156 275.242188 80.601562 273.617188 80.425781 C 270.484375 80.105469 267.285156 79.898438 264.113281 79.765625 C 264.132812 80.484375 264.132812 81.203125 264.132812 81.902344 Z M 287.925781 256.492188 C 287.90625 253 287.886719 249.515625 287.886719 246.082031 L 287.847656 236.832031 C 287.828125 235.75 287.820312 234.671875 287.789062 233.613281 C 287.761719 231.382812 287.722656 229.117188 287.820312 226.839844 C 287.820312 226.742188 287.828125 226.667969 287.847656 226.570312 C 276 229.15625 264.035156 229.136719 252.402344 229.117188 C 249.125 229.097656 245.835938 229.097656 242.53125 229.136719 C 232.082031 229.28125 221.519531 229.359375 211.03125 229.359375 C 207.753906 229.359375 204.476562 229.359375 201.21875 229.339844 C 188.855469 229.28125 175.644531 229.097656 160.839844 228.757812 C 146.957031 228.445312 133.339844 228.039062 123.046875 227.726562 C 121.328125 227.679688 119.59375 227.746094 117.757812 227.824219 C 114.917969 227.941406 112 228.058594 109.175781 227.6875 C 101.890625 226.722656 94.234375 226.265625 86.804688 225.859375 C 86.863281 226.179688 86.921875 226.480469 86.929688 226.839844 C 87.027344 229.117188 86.988281 231.382812 86.949219 233.613281 C 86.929688 234.671875 86.921875 235.75 86.902344 236.832031 L 86.863281 246.082031 C 86.863281 249.320312 86.84375 252.578125 86.824219 255.867188 C 94.351562 256.296875 102.125 256.734375 109.558594 257.726562 C 112.132812 258.066406 114.917969 257.949219 117.628906 257.832031 C 119.449219 257.765625 121.308594 257.6875 123.125 257.746094 C 133.515625 258.066406 147.203125 258.464844 160.90625 258.785156 C 175.691406 259.105469 188.875 259.292969 201.21875 259.351562 C 214.921875 259.410156 228.792969 259.351562 242.492188 259.144531 C 245.808594 259.105469 249.125 259.105469 252.421875 259.125 C 264.648438 259.164062 276.253906 259.164062 287.925781 256.492188 Z M 288.441406 288.949219 C 288.402344 288.132812 288.363281 287.296875 288.304688 286.480469 C 288.121094 283.035156 287.925781 279.484375 287.925781 275.953125 C 287.964844 270.457031 287.945312 264.925781 287.925781 259.410156 C 276.058594 262.003906 264.054688 261.984375 252.402344 261.964844 C 249.125 261.949219 245.835938 261.949219 242.53125 261.984375 C 232.0625 262.140625 221.480469 262.210938 210.945312 262.210938 C 207.695312 262.210938 204.4375 262.210938 201.21875 262.199219 C 188.855469 262.140625 175.644531 261.949219 160.839844 261.625 C 147.125 261.304688 133.4375 260.90625 123.046875 260.585938 C 121.328125 260.527344 119.59375 260.605469 117.757812 260.683594 C 114.917969 260.789062 112 260.925781 109.175781 260.546875 C 101.890625 259.582031 94.234375 259.144531 86.824219 258.726562 C 86.804688 264.476562 86.785156 270.234375 86.824219 275.953125 C 86.824219 279.484375 86.628906 283.035156 86.445312 286.460938 C 86.40625 286.9375 86.386719 287.414062 86.367188 287.878906 L 86.824219 287.9375 C 94.382812 288.832031 102.210938 289.757812 109.742188 291.847656 C 112.183594 292.53125 114.800781 292.304688 117.570312 292.054688 C 119.410156 291.898438 121.308594 291.730469 123.183594 291.867188 C 133.476562 292.53125 147.074219 293.367188 160.945312 294.027344 C 175.710938 294.726562 188.894531 295.128906 201.238281 295.242188 C 214.902344 295.371094 228.785156 295.222656 242.472656 294.804688 C 245.808594 294.710938 249.164062 294.726562 252.421875 294.746094 C 264.835938 294.824219 276.632812 294.863281 288.441406 288.949219 Z M 288.304688 310.195312 C 288.78125 309.191406 288.746094 307.492188 288.707031 305.964844 C 288.707031 305.4375 288.6875 304.933594 288.6875 304.4375 C 288.726562 301.265625 288.726562 298.085938 288.667969 294.914062 C 288.648438 293.96875 288.609375 293.007812 288.570312 292.035156 C 276.476562 297.703125 264.25 297.667969 252.402344 297.589844 C 249.183594 297.570312 245.835938 297.550781 242.558594 297.648438 C 232.082031 297.96875 221.5 298.125 210.972656 298.125 C 207.714844 298.125 204.457031 298.105469 201.199219 298.085938 C 200.265625 298.066406 199.320312 298.066406 198.367188 298.046875 C 200.226562 298.503906 202.082031 299.183594 203.777344 300.300781 C 208.230469 303.257812 211.011719 308.773438 211.625 315.808594 C 211.847656 318.425781 211.8125 321.019531 211.753906 323.539062 C 211.714844 326.078125 211.683594 328.492188 211.886719 330.855469 C 215.886719 330.769531 219.84375 330.632812 223.8125 330.332031 C 241.691406 328.96875 259.152344 324.941406 275.71875 318.367188 C 275.738281 318.367188 275.738281 318.367188 275.738281 318.367188 C 276.703125 317.988281 277.675781 317.585938 278.617188 317.167969 C 281.410156 315.925781 283.492188 314.648438 285.195312 313.191406 C 285.464844 312.96875 285.75 312.722656 286.050781 312.492188 C 286.984375 311.730469 287.945312 310.933594 288.304688 310.195312 Z M 289.464844 200.851562 L 289.464844 193.320312 C 277.101562 196.277344 264.550781 196.277344 252.402344 196.238281 C 249.125 196.238281 245.828125 196.21875 242.53125 196.277344 C 232.0625 196.433594 221.480469 196.511719 210.945312 196.511719 C 207.695312 196.511719 204.4375 196.492188 201.21875 196.492188 C 188.855469 196.433594 175.644531 196.238281 160.839844 195.898438 C 146.957031 195.597656 133.339844 195.179688 123.046875 194.878906 C 121.328125 194.820312 119.59375 194.898438 117.757812 194.972656 C 114.917969 195.082031 112 195.199219 109.175781 194.820312 C 101.832031 193.855469 94.082031 193.417969 86.609375 193 L 85.285156 192.921875 L 85.285156 200.851562 C 85.285156 205.984375 85.570312 211.257812 85.851562 216.335938 L 86.027344 219.488281 C 86.046875 219.953125 86.066406 220.449219 86.066406 220.945312 C 86.085938 221.6875 86.125 222.347656 86.183594 222.96875 L 86.746094 223.007812 C 94.292969 223.425781 102.085938 223.882812 109.558594 224.867188 C 112.132812 225.207031 114.9375 225.101562 117.648438 224.984375 C 119.449219 224.90625 121.308594 224.828125 123.125 224.886719 C 133.417969 225.207031 147.035156 225.605469 160.90625 225.90625 C 175.691406 226.246094 188.875 226.441406 201.21875 226.5 C 214.902344 226.558594 228.785156 226.5 242.492188 226.285156 C 245.808594 226.246094 249.125 226.246094 252.421875 226.265625 C 264.835938 226.285156 276.632812 226.285156 288.519531 223.484375 C 288.628906 222.746094 288.667969 221.871094 288.6875 220.945312 C 288.6875 220.449219 288.707031 219.953125 288.726562 219.488281 L 288.898438 216.335938 C 289.183594 211.257812 289.464844 205.984375 289.464844 200.851562 Z M 289.980469 162.632812 C 290.039062 162.417969 290.066406 162.230469 290.125 162.058594 C 277.578125 163.613281 264.804688 163.613281 252.421875 163.59375 C 249.125 163.59375 245.828125 163.59375 242.53125 163.613281 C 232.023438 163.691406 221.402344 163.730469 210.867188 163.730469 C 207.636719 163.730469 204.417969 163.730469 201.21875 163.710938 C 188.855469 163.691406 175.644531 163.59375 160.847656 163.429688 C 148.261719 163.292969 135.65625 163.097656 123.066406 162.914062 C 121.308594 162.894531 119.527344 162.933594 117.726562 162.972656 C 114.917969 163.03125 112.019531 163.078125 109.265625 162.894531 C 101.890625 162.417969 94.140625 162.191406 86.628906 161.980469 L 84.605469 161.929688 C 84.644531 162.136719 84.703125 162.367188 84.769531 162.632812 C 84.886719 163.011719 85.003906 163.390625 85.074219 163.789062 C 85.589844 166.171875 85.480469 168.640625 85.363281 171.027344 C 85.324219 171.941406 85.285156 172.824219 85.285156 173.660156 L 85.285156 190.0625 L 86.765625 190.160156 C 94.3125 190.578125 102.105469 191.003906 109.558594 192.015625 C 112.132812 192.359375 114.917969 192.242188 117.628906 192.125 C 119.449219 192.046875 121.308594 191.976562 123.125 192.035156 C 133.417969 192.339844 147.035156 192.757812 160.90625 193.058594 C 175.691406 193.398438 188.875 193.582031 201.21875 193.640625 C 214.921875 193.699219 228.792969 193.621094 242.492188 193.4375 C 245.808594 193.378906 249.105469 193.398438 252.402344 193.398438 C 265.15625 193.4375 277.277344 193.4375 289.464844 190.402344 L 289.464844 173.660156 C 289.464844 172.824219 289.425781 171.941406 289.386719 171.027344 C 289.277344 168.640625 289.164062 166.171875 289.667969 163.789062 C 289.746094 163.390625 289.863281 163.011719 289.980469 162.632812 Z M 291.925781 112.691406 C 291.546875 112.273438 291.039062 111.84375 290.601562 111.484375 C 290.183594 111.113281 289.785156 110.773438 289.425781 110.433594 C 288.839844 109.910156 288.285156 109.355469 287.722656 108.808594 C 287.421875 108.527344 287.128906 108.234375 286.828125 107.953125 C 286.683594 107.855469 286.527344 107.769531 286.351562 107.652344 C 285.183594 106.914062 283.949219 106.132812 282.65625 105.257812 L 264.132812 92.886719 L 264.113281 103.878906 C 264.113281 104.917969 263.277344 105.753906 262.238281 105.773438 C 258.578125 105.773438 254.882812 105.832031 251.1875 105.871094 C 247.492188 105.929688 243.773438 105.980469 240.097656 105.980469 C 239.515625 105.980469 238.960938 105.714844 238.601562 105.238281 C 232.78125 97.699219 226.371094 91.210938 220.019531 86.398438 C 220.058594 88.292969 219.960938 90.210938 219.71875 92.109375 C 219.601562 93.03125 218.785156 93.75 217.839844 93.75 C 216.167969 93.75 214.386719 93.925781 212.492188 94.132812 C 210.605469 94.324219 208.628906 94.511719 206.773438 94.511719 C 206.070312 94.511719 205.417969 94.132812 205.097656 93.527344 C 203.757812 91.058594 202.5 88.042969 201.304688 85.125 C 200.136719 82.300781 198.921875 79.382812 197.667969 77.089844 C 197.40625 76.59375 197.367188 76.027344 197.570312 75.511719 C 198.902344 71.972656 201.441406 69.191406 204.515625 67.859375 C 208.152344 66.300781 212.402344 66.960938 215.050781 69.53125 C 216.761719 71.175781 217.597656 73.316406 218.203125 75.210938 C 218.335938 75.609375 218.425781 76.007812 218.542969 76.40625 C 218.523438 75.949219 218.484375 75.492188 218.503906 75.027344 C 218.542969 73.167969 218.921875 70.667969 220.261719 68.402344 C 218.316406 67.933594 216.324219 67.515625 214.328125 67.253906 C 209.730469 66.640625 204.972656 66.621094 200.496094 66.640625 C 199.445312 66.660156 198.445312 66.5625 197.480469 66.476562 C 196.625 66.398438 195.789062 66.320312 194.90625 66.320312 L 187.832031 66.320312 C 186.792969 66.320312 185.710938 66.28125 184.621094 66.222656 C 182.503906 66.136719 180.304688 66.039062 178.386719 66.320312 C 176.167969 66.660156 173.972656 66.660156 171.832031 66.640625 C 171.113281 66.640625 170.390625 66.640625 169.652344 66.660156 C 166.003906 66.71875 163.066406 66.914062 160.421875 67.253906 C 158.425781 67.515625 156.453125 67.933594 154.488281 68.402344 C 155.828125 70.667969 156.210938 73.1875 156.246094 75.027344 C 156.265625 75.492188 156.226562 75.949219 156.210938 76.40625 C 156.324219 76.007812 156.414062 75.609375 156.550781 75.210938 C 157.152344 73.316406 157.988281 71.175781 159.699219 69.53125 C 162.347656 66.960938 166.597656 66.300781 170.234375 67.859375 C 173.308594 69.191406 175.847656 71.972656 177.191406 75.511719 C 177.386719 76.027344 177.347656 76.59375 177.082031 77.089844 C 175.828125 79.382812 174.613281 82.300781 173.445312 85.125 C 172.25 88.042969 170.996094 91.058594 169.652344 93.527344 C 169.332031 94.132812 168.679688 94.511719 167.980469 94.511719 C 166.121094 94.511719 164.148438 94.324219 162.257812 94.132812 C 160.363281 93.925781 158.582031 93.75 156.910156 93.75 C 155.964844 93.75 155.148438 93.03125 155.03125 92.109375 C 154.789062 90.210938 154.691406 88.292969 154.730469 86.398438 C 148.378906 91.210938 141.949219 97.699219 136.152344 105.238281 C 135.792969 105.714844 135.238281 105.980469 134.652344 105.980469 C 130.976562 105.980469 127.261719 105.929688 123.5625 105.871094 C 119.867188 105.832031 116.171875 105.773438 112.515625 105.773438 C 111.472656 105.753906 110.636719 104.917969 110.636719 103.878906 L 110.617188 92.886719 L 92.097656 105.257812 C 90.800781 106.132812 89.566406 106.914062 88.378906 107.671875 C 88.226562 107.769531 88.070312 107.855469 87.921875 107.953125 L 87.046875 108.808594 C 86.484375 109.355469 85.910156 109.910156 85.324219 110.433594 C 84.964844 110.773438 84.566406 111.113281 84.148438 111.484375 C 83.710938 111.84375 83.207031 112.273438 82.824219 112.691406 C 95.199219 112.449219 107.738281 112.105469 120.089844 111.707031 C 133.117188 111.269531 146.355469 110.746094 159.429688 110.113281 L 160.0625 110.074219 C 161.988281 109.988281 164.019531 109.890625 166.160156 110.433594 C 166.898438 110.628906 167.375 110.589844 168.28125 110.414062 C 169.457031 110.210938 170.597656 110.230469 171.714844 110.25 C 172.09375 110.25 172.492188 110.25 172.851562 110.25 C 175.964844 110.210938 179.050781 110.171875 182.140625 110.152344 C 187.054688 110.113281 191.949219 110.113281 196.851562 110.152344 C 198.339844 110.171875 199.789062 110.328125 201.238281 110.472656 C 203.835938 110.753906 206.277344 111.027344 208.589844 110.433594 C 210.730469 109.890625 212.765625 109.988281 214.691406 110.074219 L 215.320312 110.113281 C 228.394531 110.746094 241.632812 111.269531 254.660156 111.707031 C 267.011719 112.105469 279.550781 112.449219 291.925781 112.691406 Z M 292.082031 127.855469 C 292.101562 127.808594 292.121094 127.75 292.121094 127.710938 C 278.792969 128.527344 265.125 128.527344 251.90625 128.507812 C 248.589844 128.507812 245.234375 128.507812 241.898438 128.527344 C 231.34375 128.546875 220.757812 128.554688 210.195312 128.554688 C 206.832031 128.554688 203.453125 128.554688 200.078125 128.554688 C 186.519531 128.546875 172.8125 128.507812 159.242188 128.429688 C 146.480469 128.371094 133.75 128.292969 120.984375 128.195312 C 119.207031 128.1875 117.386719 128.195312 115.558594 128.214844 C 112.738281 128.253906 109.820312 128.273438 107.066406 128.195312 C 99.546875 127.972656 91.640625 127.875 84.011719 127.789062 L 82.632812 127.769531 C 82.652344 127.808594 82.652344 127.847656 82.671875 127.855469 C 83.488281 130.269531 83.566406 132.886719 83.625 135.199219 C 83.632812 135.878906 83.652344 136.5625 83.691406 137.222656 C 84.089844 143.78125 84.363281 150.421875 84.46875 156.960938 C 84.46875 157.535156 84.46875 158.097656 84.46875 158.683594 C 84.46875 158.816406 84.488281 158.953125 84.488281 159.082031 L 86.707031 159.140625 C 94.234375 159.351562 102.027344 159.578125 109.460938 160.074219 C 112.09375 160.238281 114.917969 160.179688 117.667969 160.121094 C 119.507812 160.09375 121.328125 160.054688 123.105469 160.074219 C 135.695312 160.257812 148.28125 160.453125 160.886719 160.578125 C 175.671875 160.753906 188.875 160.851562 201.21875 160.871094 C 214.921875 160.898438 228.792969 160.871094 242.511719 160.773438 C 245.828125 160.753906 249.125 160.753906 252.421875 160.753906 C 265.445312 160.773438 277.792969 160.773438 290.261719 159.179688 C 290.261719 159.003906 290.28125 158.855469 290.28125 158.683594 C 290.28125 158.117188 290.28125 157.535156 290.28125 156.960938 C 290.386719 150.421875 290.660156 143.78125 291.058594 137.222656 C 291.097656 136.5625 291.117188 135.878906 291.128906 135.199219 C 291.1875 132.886719 291.261719 130.269531 292.082031 127.855469 Z M 292.636719 118.480469 C 292.664062 117.808594 292.683594 117.144531 292.703125 116.503906 C 280.019531 116.242188 267.1875 115.921875 254.523438 115.503906 C 241.5 115.0625 228.25 114.53125 215.148438 113.90625 L 214.503906 113.867188 C 212.6875 113.769531 211.128906 113.703125 209.515625 114.109375 C 206.558594 114.871094 203.640625 114.546875 200.820312 114.246094 C 199.4375 114.089844 198.105469 113.964844 196.820312 113.945312 C 191.949219 113.90625 187.054688 113.90625 182.160156 113.945312 C 179.085938 113.964844 176.003906 114.003906 172.929688 114.042969 C 172.511719 114.042969 172.09375 114.042969 171.65625 114.042969 C 170.691406 114.023438 169.777344 114.003906 168.980469 114.148438 C 167.675781 114.402344 166.636719 114.480469 165.234375 114.109375 C 163.621094 113.703125 162.066406 113.769531 160.246094 113.867188 L 159.605469 113.90625 C 146.5 114.53125 133.253906 115.0625 120.226562 115.503906 C 107.5625 115.921875 94.722656 116.242188 82.046875 116.503906 C 82.066406 117.144531 82.085938 117.808594 82.117188 118.480469 C 82.15625 119.34375 82.214844 120.199219 82.214844 121.015625 C 82.214844 121.542969 82.195312 122.058594 82.195312 122.59375 C 82.175781 123.382812 82.175781 124.160156 82.214844 124.917969 L 84.03125 124.9375 C 91.699219 125.035156 99.597656 125.132812 107.144531 125.355469 C 109.859375 125.433594 112.738281 125.414062 115.527344 125.375 C 117.367188 125.355469 119.207031 125.335938 121.003906 125.355469 C 133.75 125.453125 146.5 125.53125 159.261719 125.578125 C 172.832031 125.65625 186.539062 125.695312 200.078125 125.714844 C 214.027344 125.734375 227.949219 125.714844 241.878906 125.675781 C 245.234375 125.65625 248.589844 125.65625 251.925781 125.65625 C 265.710938 125.675781 278.714844 125.675781 291.984375 124.871094 C 292.179688 124.851562 292.363281 124.878906 292.539062 124.9375 C 292.578125 124.179688 292.578125 123.402344 292.558594 122.59375 C 292.558594 122.058594 292.539062 121.542969 292.539062 121.015625 C 292.539062 120.199219 292.597656 119.34375 292.636719 118.480469 Z M 298.054688 112.273438 C 298.53125 114.441406 298.414062 116.726562 298.316406 118.761719 C 298.257812 119.539062 298.21875 120.296875 298.21875 121.035156 C 298.21875 121.523438 298.238281 122 298.238281 122.496094 C 298.277344 124.714844 298.316406 127.214844 297.46875 129.703125 C 296.933594 131.289062 296.875 133.363281 296.816406 135.347656 C 296.796875 136.105469 296.757812 136.84375 296.71875 137.5625 C 296.351562 144.050781 296.078125 150.609375 295.960938 157.078125 C 295.960938 157.601562 295.960938 158.136719 295.960938 158.664062 C 295.960938 159.730469 295.960938 160.8125 295.894531 161.851562 C 295.835938 162.777344 295.613281 163.574219 295.4375 164.195312 C 295.359375 164.449219 295.28125 164.710938 295.230469 164.976562 C 294.863281 166.628906 294.960938 168.730469 295.058594 170.761719 C 295.117188 171.765625 295.15625 172.726562 295.15625 173.660156 L 295.15625 200.851562 C 295.15625 206.140625 294.863281 211.480469 294.582031 216.65625 L 294.414062 219.769531 C 294.394531 220.207031 294.375 220.625 294.375 221.054688 C 294.335938 222.171875 294.316406 223.445312 294.074219 224.710938 C 293.976562 225.167969 293.859375 225.585938 293.734375 226.023438 C 293.617188 226.460938 293.5 226.800781 293.5 227.085938 C 293.402344 229.175781 293.441406 231.375 293.480469 233.496094 C 293.5 234.59375 293.519531 235.691406 293.539062 236.792969 L 293.578125 246.0625 C 293.617188 255.867188 293.65625 266.003906 293.617188 275.984375 C 293.617188 279.328125 293.800781 282.800781 293.996094 286.160156 C 294.144531 289 294.316406 291.917969 294.355469 294.84375 C 294.414062 298.046875 294.414062 301.265625 294.375 304.496094 C 294.375 304.902344 294.394531 305.359375 294.394531 305.835938 C 294.453125 307.878906 294.503906 310.449219 293.402344 312.703125 C 292.519531 314.554688 290.921875 315.847656 289.648438 316.886719 C 289.386719 317.101562 289.144531 317.304688 288.898438 317.519531 C 286.769531 319.339844 284.25 320.867188 280.953125 322.34375 C 279.929688 322.820312 278.871094 323.238281 277.820312 323.65625 C 260.71875 330.449219 242.675781 334.589844 224.230469 336 C 217.539062 336.507812 210.769531 336.664062 204.078125 336.664062 C 199.503906 336.664062 194.960938 336.585938 190.488281 336.527344 C 183.320312 336.417969 175.886719 336.304688 168.613281 336.476562 C 144.304688 337.0625 119.527344 332.625 96.929688 323.65625 C 95.878906 323.238281 94.839844 322.820312 93.796875 322.34375 C 90.5 320.867188 87.980469 319.339844 85.851562 317.519531 C 85.609375 317.304688 85.363281 317.101562 85.09375 316.886719 C 83.828125 315.847656 82.234375 314.554688 81.347656 312.703125 C 80.238281 310.449219 80.296875 307.878906 80.355469 305.835938 C 80.355469 305.359375 80.375 304.902344 80.375 304.496094 C 80.335938 301.265625 80.335938 298.046875 80.394531 294.84375 C 80.433594 291.917969 80.609375 288.980469 80.753906 286.140625 C 80.949219 282.800781 81.132812 279.328125 81.132812 275.984375 C 81.09375 266.003906 81.132812 255.867188 81.171875 246.0625 L 81.210938 236.792969 C 81.230469 235.691406 81.25 234.59375 81.269531 233.496094 C 81.308594 231.375 81.347656 229.175781 81.25 227.085938 C 81.25 226.800781 81.132812 226.460938 81.015625 226.023438 C 80.890625 225.585938 80.773438 225.167969 80.675781 224.710938 C 80.433594 223.445312 80.414062 222.171875 80.375 221.054688 C 80.375 220.625 80.355469 220.207031 80.335938 219.769531 L 80.171875 216.65625 C 79.886719 211.480469 79.597656 206.140625 79.597656 200.851562 L 79.597656 173.660156 C 79.597656 172.726562 79.636719 171.765625 79.695312 170.761719 C 79.789062 168.730469 79.886719 166.628906 79.527344 164.976562 C 79.46875 164.710938 79.390625 164.449219 79.3125 164.195312 C 79.140625 163.574219 78.914062 162.777344 78.855469 161.851562 C 78.789062 160.8125 78.789062 159.730469 78.789062 158.664062 C 78.789062 158.136719 78.789062 157.601562 78.789062 157.078125 C 78.671875 150.609375 78.398438 144.050781 78.03125 137.5625 C 77.992188 136.84375 77.953125 136.105469 77.933594 135.347656 C 77.875 133.363281 77.816406 131.289062 77.28125 129.703125 C 76.433594 127.214844 76.472656 124.714844 76.511719 122.496094 C 76.511719 122 76.53125 121.523438 76.53125 121.035156 C 76.53125 120.296875 76.492188 119.539062 76.433594 118.761719 C 76.335938 116.726562 76.222656 114.441406 76.699219 112.273438 C 77.234375 109.851562 79.128906 108.253906 80.511719 107.117188 C 80.832031 106.835938 81.132812 106.574219 81.414062 106.320312 C 81.988281 105.792969 82.535156 105.238281 83.089844 104.714844 L 84.585938 103.273438 C 84.734375 103.117188 85.113281 102.816406 85.570312 102.457031 C 85.871094 102.222656 86.425781 101.796875 86.84375 101.4375 C 86.804688 93.789062 87.730469 86.175781 89.585938 78.761719 C 90.140625 76.5625 93.097656 75.726562 95.472656 75.386719 C 97.15625 75.152344 98.855469 74.949219 100.570312 74.785156 C 103.507812 74.472656 106.484375 74.25 109.460938 74.113281 C 109.839844 73.546875 110.199219 72.914062 110.558594 72.234375 C 111.121094 71.195312 111.792969 69.996094 112.660156 68.917969 C 114.671875 66.476562 117.726562 64.996094 121.472656 64.65625 C 123.300781 64.5 125.042969 64.578125 126.707031 64.675781 C 127.464844 64.707031 128.222656 64.746094 128.980469 64.746094 C 132.261719 64.804688 135.546875 64.386719 139.03125 63.9375 C 142.386719 63.5 145.820312 63.0625 149.339844 63.0625 C 149.3125 62.382812 149.273438 61.679688 149.214844 60.960938 C 149.097656 59.121094 148.980469 57.207031 149.019531 55.425781 C 149.058594 54.53125 149.496094 53.695312 150.238281 53.167969 C 154.128906 50.417969 158.632812 48.433594 163.378906 47.363281 C 164.4375 44.238281 166.761719 41.378906 169.710938 39.746094 C 172.851562 37.984375 176.433594 37.789062 179.203125 37.847656 C 184.613281 37.90625 190.109375 37.90625 195.546875 37.847656 C 198.339844 37.808594 201.898438 37.984375 205.039062 39.746094 C 207.988281 41.378906 210.3125 44.238281 211.371094 47.363281 C 216.121094 48.433594 220.625 50.417969 224.515625 53.167969 C 225.253906 53.695312 225.691406 54.53125 225.730469 55.425781 C 225.769531 57.207031 225.652344 59.121094 225.535156 60.960938 C 225.476562 61.679688 225.4375 62.382812 225.410156 63.0625 C 228.871094 63.101562 232.363281 63.5 235.738281 63.9375 C 239.203125 64.386719 242.472656 64.804688 245.769531 64.746094 C 246.527344 64.746094 247.285156 64.707031 248.046875 64.675781 C 249.726562 64.578125 251.46875 64.5 253.277344 64.65625 C 257.023438 64.996094 260.078125 66.476562 262.089844 68.917969 C 262.976562 69.996094 263.628906 71.195312 264.191406 72.234375 C 264.550781 72.914062 264.914062 73.546875 265.292969 74.113281 C 268.269531 74.25 271.246094 74.472656 274.183594 74.785156 C 275.894531 74.949219 277.597656 75.152344 279.28125 75.386719 C 281.652344 75.726562 284.609375 76.5625 285.164062 78.761719 C 287.023438 86.175781 287.945312 93.789062 287.90625 101.4375 C 288.324219 101.796875 288.878906 102.222656 289.183594 102.457031 C 289.640625 102.816406 290.019531 103.117188 290.164062 103.273438 C 290.679688 103.742188 291.167969 104.238281 291.664062 104.714844 C 292.21875 105.257812 292.78125 105.792969 293.335938 106.320312 C 293.617188 106.574219 293.917969 106.835938 294.238281 107.117188 C 295.621094 108.253906 297.519531 109.851562 298.054688 112.273438 " fill-opacity="1" fill-rule="nonzero"></path>
  </g>
  <path fill="#fcb424" d="M 192.753906 320.242188 C 192.707031 320.242188 192.753906 319.921875 192.667969 319.386719 C 192.511719 318.464844 192.132812 317.664062 191.625 317.121094 C 191.167969 316.644531 190.546875 316.363281 189.992188 316.363281 C 189.75 316.382812 188.988281 316.402344 188.71875 317.53125 C 188.511719 318.347656 188.71875 319.40625 189.496094 319.84375 C 190.070312 320.164062 190.828125 320.339844 191.753906 320.359375 C 192.433594 320.378906 192.726562 320.261719 192.753906 320.242188 Z M 198.28125 318.445312 C 198.679688 320.757812 198.164062 322.800781 196.851562 324.191406 C 195.683594 325.417969 194.007812 326.050781 191.890625 326.050781 C 191.792969 326.050781 191.714844 326.050781 191.625 326.050781 C 189.769531 326.011719 188.113281 325.59375 186.734375 324.816406 C 183.796875 323.179688 182.335938 319.621094 183.183594 316.167969 C 183.980469 312.929688 186.597656 310.769531 189.855469 310.671875 C 191.996094 310.613281 194.164062 311.546875 195.730469 313.191406 C 197.042969 314.582031 197.921875 316.382812 198.28125 318.445312 " fill-opacity="1" fill-rule="nonzero"></path>
  <g fill="#000000" fill-opacity="1">
    <g transform="translate(152.047245, 59.319)">
      <g>
        <path d="M 0.125 -0.15625 C 0.144531 -0.15625 0.160156 -0.144531 0.171875 -0.125 C 0.191406 -0.113281 0.203125 -0.0976562 0.203125 -0.078125 C 0.203125 -0.046875 0.191406 -0.0195312 0.171875 0 C 0.160156 0.0078125 0.144531 0.015625 0.125 0.015625 C 0.101562 0.015625 0.0820312 0.0078125 0.0625 0 C 0.0390625 -0.0195312 0.03125 -0.046875 0.03125 -0.078125 C 0.03125 -0.0976562 0.0390625 -0.113281 0.0625 -0.125 C 0.0820312 -0.144531 0.101562 -0.15625 0.125 -0.15625 Z M 0.125 -0.15625 "></path>
      </g>
    </g>
  </g>
</svg>
