<svg xmlns="http://www.w3.org/2000/svg" xmlns:xlink="http://www.w3.org/1999/xlink" width="512" zoomAndPan="magnify" viewBox="0 0 384 383.999986" height="512" preserveAspectRatio="xMidYMid meet" version="1.0"><defs><g/><clipPath id="0c4acbc164"><path d="M 11.136719 121 L 72 121 L 72 261 L 11.136719 261 Z M 11.136719 121 " clip-rule="nonzero"/></clipPath><clipPath id="11fe195461"><path d="M 300 121 L 372.636719 121 L 372.636719 261 L 300 261 Z M 300 121 " clip-rule="nonzero"/></clipPath><clipPath id="7732a61b29"><path d="M 55 244 L 84 244 L 84 309.1875 L 55 309.1875 Z M 55 244 " clip-rule="nonzero"/></clipPath><clipPath id="1b14b4f7fc"><path d="M 108 244 L 136 244 L 136 309.1875 L 108 309.1875 Z M 108 244 " clip-rule="nonzero"/></clipPath><clipPath id="8332290c6e"><path d="M 160 244 L 188 244 L 188 309.1875 L 160 309.1875 Z M 160 244 " clip-rule="nonzero"/></clipPath><clipPath id="8bc2871f4b"><path d="M 212 244 L 240 244 L 240 309.1875 L 212 309.1875 Z M 212 244 " clip-rule="nonzero"/></clipPath><clipPath id="bffc938088"><path d="M 265 244 L 293 244 L 293 309.1875 L 265 309.1875 Z M 265 244 " clip-rule="nonzero"/></clipPath><clipPath id="9e4146175a"><path d="M 100 74.4375 L 109 74.4375 L 109 176 L 100 176 Z M 100 74.4375 " clip-rule="nonzero"/></clipPath></defs><path fill="#fcb424" d="M 311.640625 260.074219 L 301.050781 260.074219 C 299.015625 260.074219 297.367188 258.425781 297.367188 256.390625 C 297.367188 254.355469 299.015625 252.707031 301.050781 252.707031 L 311.640625 252.707031 C 331.597656 252.707031 347.832031 236.476562 347.832031 216.519531 L 347.832031 143.171875 C 347.832031 135.03125 341.199219 128.410156 333.050781 128.410156 L 165.492188 128.410156 C 163.457031 128.410156 161.808594 126.761719 161.808594 124.726562 C 161.808594 122.691406 163.457031 121.042969 165.492188 121.042969 L 333.050781 121.042969 C 345.261719 121.042969 355.199219 130.96875 355.199219 143.175781 L 355.199219 216.519531 C 355.199219 240.535156 335.660156 260.074219 311.640625 260.074219 Z M 311.640625 260.074219 " fill-opacity="1" fill-rule="nonzero"/><g clip-path="url(#0c4acbc164)"><path fill="#fcb424" d="M 68.242188 260.074219 L 54.703125 260.074219 C 30.6875 260.074219 11.148438 240.535156 11.148438 216.519531 L 11.148438 143.171875 C 11.148438 130.96875 21.082031 121.039062 33.296875 121.039062 L 41.722656 121.039062 C 43.757812 121.039062 45.40625 122.6875 45.40625 124.722656 C 45.40625 126.757812 43.757812 128.40625 41.722656 128.40625 L 33.296875 128.40625 C 25.148438 128.40625 18.515625 135.027344 18.515625 143.167969 L 18.515625 216.515625 C 18.515625 236.46875 34.75 252.703125 54.703125 252.703125 L 68.242188 252.703125 C 70.277344 252.703125 71.925781 254.351562 71.925781 256.386719 C 71.929688 258.425781 70.277344 260.074219 68.242188 260.074219 Z M 68.242188 260.074219 " fill-opacity="1" fill-rule="nonzero"/></g><g clip-path="url(#11fe195461)"><path fill="#fcb424" d="M 350.730469 121.039062 L 336 121.039062 C 333.964844 121.039062 332.316406 122.691406 332.316406 124.722656 C 332.316406 126.753906 333.96875 128.40625 336 128.40625 C 344.148438 128.40625 350.777344 135.035156 350.777344 143.167969 L 350.777344 216.519531 C 350.777344 236.46875 334.542969 252.707031 314.589844 252.707031 L 303.996094 252.707031 C 301.960938 252.707031 300.3125 254.355469 300.3125 256.386719 C 300.3125 258.421875 301.964844 260.070312 303.996094 260.070312 L 314.589844 260.070312 C 315.667969 260.070312 316.730469 260.027344 317.773438 259.9375 C 318.082031 260.023438 318.40625 260.070312 318.734375 260.070312 L 329.324219 260.070312 C 353.339844 260.070312 372.878906 240.53125 372.878906 216.515625 L 372.878906 143.171875 C 372.875 130.96875 362.945312 121.039062 350.730469 121.039062 Z M 350.730469 121.039062 " fill-opacity="1" fill-rule="nonzero"/></g><path fill="#fcb424" d="M 315.785156 226.921875 L 50.566406 226.921875 C 48.53125 226.921875 46.882812 225.273438 46.882812 223.238281 C 46.882812 221.207031 48.53125 219.558594 50.566406 219.558594 L 315.785156 219.558594 C 317.820312 219.558594 319.464844 221.207031 319.464844 223.238281 C 319.464844 225.273438 317.820312 226.921875 315.785156 226.921875 Z M 315.785156 226.921875 " fill-opacity="1" fill-rule="nonzero"/><path fill="#fcb424" d="M 315.785156 153.25 L 287.789062 153.25 C 285.753906 153.25 284.105469 151.601562 284.105469 149.566406 C 284.105469 147.53125 285.753906 145.882812 287.789062 145.882812 L 315.785156 145.882812 C 317.820312 145.882812 319.464844 147.53125 319.464844 149.566406 C 319.464844 151.601562 317.820312 153.25 315.785156 153.25 Z M 315.785156 153.25 " fill-opacity="1" fill-rule="nonzero"/><path fill="#fcb424" d="M 287.820312 238.910156 L 74.875 238.910156 C 67.171875 238.910156 60.910156 232.644531 60.910156 224.945312 L 60.910156 223.238281 C 60.910156 221.207031 62.558594 219.558594 64.59375 219.558594 C 66.628906 219.558594 68.273438 221.207031 68.273438 223.238281 L 68.273438 224.945312 C 68.273438 228.585938 71.238281 231.546875 74.875 231.546875 L 287.820312 231.546875 C 291.457031 231.546875 294.417969 228.589844 294.417969 224.945312 L 294.417969 223.238281 C 294.417969 221.207031 296.066406 219.558594 298.101562 219.558594 C 300.136719 219.558594 301.785156 221.207031 301.785156 223.238281 L 301.785156 224.945312 C 301.785156 232.644531 295.519531 238.910156 287.820312 238.910156 Z M 287.820312 238.910156 " fill-opacity="1" fill-rule="nonzero"/><g clip-path="url(#7732a61b29)"><path fill="#fcb424" d="M 59.644531 309.535156 C 58.671875 309.535156 57.703125 309.15625 56.976562 308.398438 C 55.574219 306.925781 55.625 304.59375 57.097656 303.1875 C 71.453125 289.46875 78.375 267.988281 74.730469 248.464844 C 74.355469 246.464844 75.675781 244.542969 77.675781 244.167969 C 79.683594 243.800781 81.601562 245.113281 81.976562 247.113281 C 86.066406 269.019531 78.296875 293.121094 62.1875 308.515625 C 61.476562 309.199219 60.558594 309.535156 59.644531 309.535156 Z M 59.644531 309.535156 " fill-opacity="1" fill-rule="nonzero"/></g><g clip-path="url(#1b14b4f7fc)"><path fill="#fcb424" d="M 111.953125 309.535156 C 110.980469 309.535156 110.011719 309.15625 109.289062 308.398438 C 107.882812 306.925781 107.9375 304.59375 109.40625 303.1875 C 123.765625 289.46875 130.6875 267.988281 127.039062 248.464844 C 126.667969 246.464844 127.988281 244.542969 129.988281 244.167969 C 131.992188 243.800781 133.910156 245.113281 134.285156 247.113281 C 138.375 269.019531 130.609375 293.121094 114.496094 308.515625 C 113.78125 309.199219 112.867188 309.535156 111.953125 309.535156 Z M 111.953125 309.535156 " fill-opacity="1" fill-rule="nonzero"/></g><g clip-path="url(#8332290c6e)"><path fill="#fcb424" d="M 164.257812 309.535156 C 163.289062 309.535156 162.316406 309.15625 161.59375 308.398438 C 160.1875 306.925781 160.242188 304.59375 161.710938 303.1875 C 176.070312 289.46875 182.992188 267.988281 179.347656 248.464844 C 178.972656 246.464844 180.292969 244.542969 182.292969 244.167969 C 184.296875 243.800781 186.214844 245.113281 186.589844 247.113281 C 190.679688 269.019531 182.914062 293.121094 166.800781 308.515625 C 166.089844 309.199219 165.171875 309.535156 164.257812 309.535156 Z M 164.257812 309.535156 " fill-opacity="1" fill-rule="nonzero"/></g><g clip-path="url(#8bc2871f4b)"><path fill="#fcb424" d="M 216.5625 309.535156 C 215.59375 309.535156 214.625 309.15625 213.898438 308.398438 C 212.496094 306.925781 212.546875 304.59375 214.019531 303.1875 C 228.375 289.46875 235.296875 267.988281 231.652344 248.464844 C 231.277344 246.464844 232.59375 244.542969 234.59375 244.167969 C 236.59375 243.800781 238.523438 245.113281 238.894531 247.113281 C 242.984375 269.019531 235.214844 293.121094 219.105469 308.515625 C 218.394531 309.199219 217.480469 309.535156 216.5625 309.535156 Z M 216.5625 309.535156 " fill-opacity="1" fill-rule="nonzero"/></g><g clip-path="url(#bffc938088)"><path fill="#fcb424" d="M 268.871094 309.535156 C 267.898438 309.535156 266.929688 309.15625 266.207031 308.398438 C 264.804688 306.925781 264.855469 304.59375 266.328125 303.1875 C 280.6875 289.46875 287.609375 267.988281 283.964844 248.464844 C 283.589844 246.464844 284.90625 244.542969 286.90625 244.167969 C 288.910156 243.800781 290.832031 245.113281 291.207031 247.113281 C 295.296875 269.019531 287.527344 293.121094 271.417969 308.515625 C 270.703125 309.199219 269.785156 309.535156 268.871094 309.535156 Z M 268.871094 309.535156 " fill-opacity="1" fill-rule="nonzero"/></g><g clip-path="url(#9e4146175a)"><path fill="#fcb424" d="M 104.414062 175.6875 C 102.382812 175.6875 100.734375 174.039062 100.734375 172.003906 L 100.734375 78.105469 C 100.734375 76.070312 102.382812 74.421875 104.414062 74.421875 C 106.449219 74.421875 108.097656 76.070312 108.097656 78.105469 L 108.097656 172.003906 C 108.097656 174.039062 106.449219 175.6875 104.414062 175.6875 Z M 104.414062 175.6875 " fill-opacity="1" fill-rule="nonzero"/></g><path fill="#fcb424" d="M 104.320312 105.824219 L 87.285156 85.9375 C 85.964844 84.390625 86.140625 82.066406 87.6875 80.742188 C 89.226562 79.417969 91.554688 79.597656 92.878906 81.140625 L 104.507812 94.714844 L 117.015625 81.050781 C 118.394531 79.550781 120.722656 79.449219 122.222656 80.824219 C 123.722656 82.195312 123.828125 84.527344 122.449219 86.027344 Z M 104.320312 105.824219 " fill-opacity="1" fill-rule="nonzero"/><path fill="#fcb424" d="M 119.734375 171.164062 C 118.753906 171.164062 117.777344 170.777344 117.054688 170.007812 L 104.910156 157.113281 L 92.761719 170.007812 C 91.367188 171.488281 89.035156 171.558594 87.554688 170.164062 C 86.074219 168.769531 86.003906 166.4375 87.398438 164.953125 L 104.90625 146.367188 L 122.414062 164.953125 C 123.808594 166.4375 123.738281 168.769531 122.257812 170.164062 C 121.550781 170.835938 120.644531 171.164062 119.734375 171.164062 Z M 119.734375 171.164062 " fill-opacity="1" fill-rule="nonzero"/><path fill="#fcb424" d="M 63.945312 151.679688 C 62.671875 151.679688 61.429688 151.015625 60.746094 149.828125 C 59.738281 148.066406 60.34375 145.8125 62.109375 144.800781 L 143.550781 98.0625 C 145.3125 97.050781 147.566406 97.660156 148.578125 99.421875 C 149.585938 101.1875 148.980469 103.441406 147.214844 104.449219 L 65.773438 151.1875 C 65.199219 151.519531 64.566406 151.679688 63.945312 151.679688 Z M 63.945312 151.679688 " fill-opacity="1" fill-rule="nonzero"/><path fill="#fcb424" d="M 148.300781 120.933594 C 148.03125 120.933594 147.761719 120.90625 147.492188 120.84375 L 121.296875 114.972656 L 130.066406 90.296875 C 130.75 88.382812 132.855469 87.378906 134.769531 88.0625 C 136.6875 88.742188 137.6875 90.847656 137.007812 92.761719 L 131.027344 109.601562 L 149.105469 113.652344 C 151.089844 114.097656 152.335938 116.070312 151.894531 118.054688 C 151.503906 119.769531 149.984375 120.933594 148.300781 120.933594 Z M 148.300781 120.933594 " fill-opacity="1" fill-rule="nonzero"/><path fill="#fcb424" d="M 75.488281 162.71875 C 75.136719 162.71875 74.777344 162.667969 74.417969 162.558594 C 72.472656 161.96875 71.375 159.910156 71.964844 157.964844 L 77.101562 141.011719 L 59.875 136.898438 C 57.894531 136.425781 56.675781 134.4375 57.148438 132.457031 C 57.621094 130.480469 59.605469 129.261719 61.585938 129.730469 L 86.421875 135.664062 L 79.011719 160.101562 C 78.53125 161.691406 77.070312 162.71875 75.488281 162.71875 Z M 75.488281 162.71875 " fill-opacity="1" fill-rule="nonzero"/><path fill="#fcb424" d="M 146.359375 151.234375 C 145.765625 151.234375 145.160156 151.089844 144.601562 150.785156 L 62.171875 105.816406 C 60.386719 104.84375 59.726562 102.605469 60.699219 100.816406 C 61.675781 99.03125 63.910156 98.375 65.699219 99.347656 L 148.128906 144.316406 C 149.914062 145.292969 150.574219 147.527344 149.601562 149.316406 C 148.929688 150.542969 147.664062 151.234375 146.359375 151.234375 Z M 146.359375 151.234375 " fill-opacity="1" fill-rule="nonzero"/><path fill="#fcb424" d="M 134.257812 162.082031 C 132.722656 162.082031 131.292969 161.121094 130.769531 159.589844 L 122.074219 134.195312 L 147.691406 128.761719 C 149.683594 128.339844 151.636719 129.609375 152.058594 131.601562 C 152.480469 133.589844 151.210938 135.546875 149.21875 135.96875 L 131.738281 139.675781 L 137.738281 157.203125 C 138.398438 159.128906 137.371094 161.222656 135.449219 161.878906 C 135.054688 162.019531 134.652344 162.082031 134.257812 162.082031 Z M 134.257812 162.082031 " fill-opacity="1" fill-rule="nonzero"/><path fill="#fcb424" d="M 60.566406 121.878906 C 58.933594 121.878906 57.441406 120.785156 57.007812 119.128906 C 56.492188 117.15625 57.667969 115.144531 59.636719 114.628906 L 76.773438 110.144531 L 71.269531 93.308594 C 70.640625 91.375 71.695312 89.296875 73.628906 88.664062 C 75.566406 88.035156 77.640625 89.085938 78.273438 91.019531 L 86.207031 115.292969 L 61.503906 121.757812 C 61.1875 121.84375 60.875 121.878906 60.566406 121.878906 Z M 60.566406 121.878906 " fill-opacity="1" fill-rule="nonzero"/><g fill="#fcb424" fill-opacity="1"><g transform="translate(351.599511, 218.799988)"><g><path d="M 4 -3.03125 C 4.488281 -3.03125 4.898438 -2.859375 5.234375 -2.515625 C 5.566406 -2.179688 5.734375 -1.773438 5.734375 -1.296875 C 5.734375 -0.816406 5.5625 -0.40625 5.21875 -0.0625 C 4.882812 0.269531 4.476562 0.4375 4 0.4375 C 3.519531 0.4375 3.109375 0.269531 2.765625 -0.0625 C 2.429688 -0.40625 2.265625 -0.816406 2.265625 -1.296875 C 2.265625 -1.785156 2.429688 -2.195312 2.765625 -2.53125 C 3.109375 -2.863281 3.519531 -3.03125 4 -3.03125 Z M 4 -3.03125 "/></g></g></g></svg>