<svg xmlns="http://www.w3.org/2000/svg" xmlns:xlink="http://www.w3.org/1999/xlink" width="512" zoomAndPan="magnify" viewBox="0 0 384 383.999986" height="512" preserveAspectRatio="xMidYMid meet" version="1.0"><defs><g/><clipPath id="c09957b382"><path d="M 66 186 L 253 186 L 253 322.929688 L 66 322.929688 Z M 66 186 " clip-rule="nonzero"/></clipPath><clipPath id="7fafd57b7f"><path d="M 30.394531 241 L 212 241 L 212 298 L 30.394531 298 Z M 30.394531 241 " clip-rule="nonzero"/></clipPath><clipPath id="e2506c7b58"><path d="M 66 77 L 351.394531 77 L 351.394531 301 L 66 301 Z M 66 77 " clip-rule="nonzero"/></clipPath></defs><g clip-path="url(#c09957b382)"><path fill="#000000" d="M 252.753906 187.605469 L 249.28125 191.957031 C 244.4375 198.03125 241.769531 205.660156 241.769531 213.429688 L 241.769531 273.636719 C 241.769531 287.375 234.203125 299.78125 222.019531 306.003906 C 207.023438 313.664062 178.554688 322.792969 128.089844 322.792969 C 88.703125 322.792969 68.488281 318.703125 66.285156 310.28125 C 64.445312 303.253906 76.292969 296.507812 76.804688 296.226562 C 77.273438 295.957031 77.875 296.128906 78.136719 296.597656 C 78.40625 297.070312 78.238281 297.671875 77.765625 297.933594 C 74.6875 299.664062 66.976562 305.160156 68.1875 309.78125 C 69.269531 313.90625 78.492188 320.832031 128.089844 320.832031 C 178.164062 320.832031 206.324219 311.816406 221.125 304.257812 C 232.644531 298.371094 239.804688 286.644531 239.804688 273.636719 L 239.804688 213.429688 C 239.804688 205.214844 242.625 197.15625 247.746094 190.734375 L 251.214844 186.382812 C 251.554688 185.957031 252.167969 185.890625 252.59375 186.226562 C 253.027344 186.566406 253.09375 187.179688 252.753906 187.605469 Z M 252.753906 187.605469 " fill-opacity="1" fill-rule="nonzero"/></g><path fill="#fcb424" d="M 182.476562 120.695312 L 179.441406 116.042969 C 177.078125 112.421875 178.105469 107.53125 181.722656 105.167969 L 183.792969 103.820312 C 187.414062 101.457031 192.300781 102.484375 194.664062 106.105469 L 197.703125 110.757812 C 200.066406 114.378906 199.039062 119.269531 195.417969 121.632812 L 193.351562 122.980469 C 189.730469 125.34375 184.839844 124.316406 182.476562 120.695312 Z M 182.476562 120.695312 " fill-opacity="1" fill-rule="nonzero"/><g clip-path="url(#7fafd57b7f)"><path fill="#000000" d="M 53.351562 245.992188 L 55.28125 263.148438 C 55.449219 264.683594 56.28125 266.074219 57.585938 266.902344 C 69.320312 274.324219 71.171875 285.777344 71.152344 292.363281 C 71.148438 295.203125 68.816406 297.496094 65.976562 297.496094 L 42.476562 297.496094 C 40.453125 297.496094 38.617188 296.316406 37.769531 294.484375 C 34.046875 286.40625 33.261719 278.335938 33.222656 273.183594 C 33.195312 269.492188 32.789062 265.8125 31.972656 262.214844 C 30.644531 256.335938 30.492188 251.125 30.621094 247.644531 C 30.722656 245.070312 32.703125 242.96875 35.265625 242.707031 L 47.667969 241.425781 C 50.496094 241.128906 53.035156 243.164062 53.351562 245.992188 Z M 174.636719 266.71875 L 158.539062 265.230469 C 156.601562 265.054688 154.808594 266.253906 154.234375 268.113281 L 146.679688 292.507812 C 145.859375 295.152344 147.835938 297.835938 150.605469 297.835938 L 207.078125 297.835938 C 210.054688 297.835938 212.050781 294.757812 210.828125 292.035156 C 204.25 277.433594 188.34375 274.027344 181.789062 273.238281 C 180.042969 273.027344 178.628906 271.710938 178.273438 269.984375 C 177.921875 268.210938 176.4375 266.882812 174.636719 266.71875 Z M 174.636719 266.71875 " fill-opacity="1" fill-rule="nonzero"/></g><path fill="#ffffff" d="M 261.824219 172.175781 L 251.101562 163.929688 C 261.796875 156.914062 270.453125 161.847656 270.453125 161.847656 Z M 230.738281 178.167969 L 243.941406 178.167969 L 246.363281 161.703125 L 234.246094 159.144531 Z M 230.738281 178.167969 " fill-opacity="1" fill-rule="nonzero"/><path fill="#000000" d="M 261.824219 172.832031 C 261.6875 172.832031 261.542969 172.785156 261.425781 172.695312 L 250.703125 164.445312 C 250.535156 164.316406 250.441406 164.113281 250.449219 163.902344 C 250.453125 163.695312 250.566406 163.496094 250.742188 163.378906 C 261.648438 156.226562 270.40625 161.070312 270.773438 161.277344 C 270.941406 161.378906 271.0625 161.539062 271.09375 161.730469 C 271.125 161.921875 271.074219 162.117188 270.949219 162.265625 L 262.328125 172.597656 C 262.199219 172.753906 262.007812 172.832031 261.824219 172.832031 Z M 252.242188 163.980469 L 261.726562 171.273438 L 269.410156 162.070312 C 267.246094 161.136719 260.496094 158.96875 252.242188 163.980469 Z M 243.941406 178.820312 L 230.738281 178.820312 C 230.542969 178.820312 230.359375 178.738281 230.234375 178.585938 C 230.109375 178.433594 230.058594 178.238281 230.097656 178.050781 L 233.605469 159.027344 C 233.640625 158.851562 233.738281 158.699219 233.886719 158.601562 C 234.03125 158.503906 234.214844 158.472656 234.386719 158.503906 L 246.5 161.070312 C 246.839844 161.140625 247.0625 161.460938 247.011719 161.800781 L 244.589844 178.265625 C 244.542969 178.578125 244.261719 178.820312 243.941406 178.820312 Z M 231.523438 177.511719 L 243.378906 177.511719 L 245.628906 162.214844 L 234.769531 159.917969 Z M 231.523438 177.511719 " fill-opacity="1" fill-rule="nonzero"/><path fill="#fcb424" d="M 236.394531 179.585938 C 236.394531 179.585938 230.8125 181.144531 221.40625 182.171875 C 222.132812 187.449219 221.109375 194.222656 216.730469 202.816406 C 202.023438 231.679688 181.078125 270.78125 181.078125 270.78125 C 181.078125 270.78125 163.140625 276.910156 151.4375 270.78125 L 164.125 229.78125 C 164.125 229.78125 162.113281 230.636719 158.773438 231.738281 C 154.433594 233.171875 150.089844 233.9375 145.820312 234.121094 L 133.894531 258.769531 C 131.261719 264.203125 125.757812 267.660156 119.722656 267.660156 L 56.289062 267.660156 C 54.417969 265.171875 51.03125 259.96875 49.828125 252.507812 C 48.753906 245.890625 49.878906 240.5 50.71875 237.574219 C 62.171875 236.6875 73.628906 235.796875 85.078125 234.90625 C 91.945312 234.375 97.664062 229.441406 99.203125 222.722656 L 102.226562 209.515625 C 97.886719 201.679688 95.695312 192.457031 96.558594 182.546875 C 99.039062 154.164062 109.964844 115.949219 149.101562 102.335938 L 173.550781 108.390625 C 173.550781 108.390625 182.027344 124.683594 177.117188 141.980469 C 177.117188 141.980469 189.171875 151.675781 238.5625 156.519531 Z M 236.394531 179.585938 " fill-opacity="1" fill-rule="nonzero"/><path fill="#ffffff" d="M 196.742188 84.679688 L 191.542969 105.359375 C 189.414062 113.835938 181.011719 119.089844 172.882812 117.050781 C 172.546875 116.964844 172.21875 116.867188 171.898438 116.761719 C 171.042969 116.480469 170.222656 116.125 169.453125 115.699219 L 161.453125 127.445312 L 147.144531 105.050781 L 156.328125 92.332031 C 156.253906 92.050781 156.183594 91.761719 156.136719 91.46875 C 155.46875 87.476562 157.480469 83.808594 160.628906 83.28125 C 162.269531 83.003906 163.894531 83.648438 165.171875 84.878906 C 171.109375 81.09375 179.34375 76.460938 182.855469 77.34375 L 194.175781 80.183594 C 196.085938 80.660156 197.238281 82.683594 196.742188 84.679688 Z M 196.742188 84.679688 " fill-opacity="1" fill-rule="nonzero"/><path fill="#000000" d="M 197.375 84.839844 L 192.179688 105.515625 C 189.960938 114.359375 181.226562 119.816406 172.71875 117.679688 C 172.363281 117.585938 172.023438 117.488281 171.683594 117.375 C 171.003906 117.152344 170.320312 116.878906 169.660156 116.546875 L 161.988281 127.8125 C 161.863281 127.992188 161.65625 128.097656 161.445312 128.097656 C 161.320312 128.097656 161.191406 128.058594 161.078125 127.988281 C 160.777344 127.785156 160.707031 127.378906 160.910156 127.078125 L 168.90625 115.335938 C 169.097656 115.058594 169.464844 114.96875 169.757812 115.125 C 170.519531 115.539062 171.304688 115.878906 172.097656 116.132812 C 172.410156 116.238281 172.71875 116.328125 173.03125 116.40625 C 180.839844 118.371094 188.851562 113.339844 190.902344 105.195312 L 196.097656 84.515625 C 196.300781 83.71875 196.191406 82.894531 195.785156 82.1875 C 195.386719 81.492188 194.757812 81.003906 194.003906 80.820312 L 182.6875 77.976562 C 180.269531 77.371094 174.601562 79.757812 166.667969 84.707031 L 178.492188 101.628906 C 178.796875 102.074219 178.695312 102.679688 178.25 102.996094 C 178.078125 103.113281 177.882812 103.171875 177.6875 103.171875 C 177.378906 103.171875 177.070312 103.027344 176.878906 102.753906 L 164.738281 85.382812 C 164.726562 85.375 164.710938 85.367188 164.707031 85.355469 C 163.519531 84.203125 162.105469 83.699219 160.726562 83.929688 C 159.402344 84.152344 158.265625 85.019531 157.519531 86.390625 C 156.738281 87.808594 156.476562 89.570312 156.777344 91.363281 C 156.824219 91.640625 156.890625 91.90625 156.957031 92.167969 C 157.007812 92.359375 156.96875 92.5625 156.851562 92.71875 L 153.792969 96.949219 L 175.578125 104.292969 C 176.09375 104.460938 176.371094 105.023438 176.195312 105.535156 C 176.054688 105.949219 175.675781 106.203125 175.265625 106.203125 C 175.160156 106.203125 175.054688 106.183594 174.949219 106.152344 L 152.65625 98.625 C 152.636719 98.617188 152.621094 98.609375 152.609375 98.605469 L 147.679688 105.429688 C 147.472656 105.726562 147.058594 105.789062 146.765625 105.582031 C 146.46875 105.371094 146.402344 104.960938 146.613281 104.664062 L 155.621094 92.195312 C 155.566406 91.980469 155.527344 91.769531 155.496094 91.574219 C 155.148438 89.5 155.464844 87.429688 156.378906 85.753906 C 157.328125 84.027344 158.792969 82.921875 160.523438 82.632812 C 161.53125 82.460938 162.570312 82.597656 163.546875 83.011719 C 163.605469 82.800781 163.730469 82.605469 163.925781 82.476562 C 164.371094 82.160156 164.980469 82.273438 165.292969 82.71875 L 165.9375 83.632812 C 174.425781 78.332031 180.179688 75.996094 183.019531 76.714844 L 194.339844 79.554688 C 195.4375 79.832031 196.359375 80.539062 196.9375 81.546875 C 197.5 82.539062 197.65625 83.710938 197.375 84.839844 Z M 186.746094 91.863281 C 185.566406 91.902344 184.644531 92.882812 184.683594 94.054688 C 184.722656 95.226562 185.703125 96.15625 186.875 96.117188 C 188.046875 96.078125 188.976562 95.09375 188.9375 93.921875 C 188.898438 92.75 187.917969 91.820312 186.746094 91.863281 Z M 189.671875 89.871094 C 189.886719 89.582031 189.828125 89.171875 189.535156 88.957031 C 188.421875 88.125 185.78125 87.214844 183.78125 89.703125 C 183.550781 89.984375 183.597656 90.394531 183.878906 90.625 C 184.003906 90.722656 184.148438 90.769531 184.289062 90.769531 C 184.480469 90.769531 184.671875 90.683594 184.800781 90.527344 C 186.476562 88.445312 188.527344 89.839844 188.753906 90.007812 C 189.042969 90.226562 189.457031 90.160156 189.671875 89.871094 Z M 189.671875 89.871094 " fill-opacity="1" fill-rule="nonzero"/><path fill="#fcb424" d="M 193.410156 97.941406 L 191.613281 105.058594 C 189.515625 113.410156 181.21875 118.804688 172.796875 117.015625 C 172.257812 116.90625 171.75 116.761719 171.25 116.597656 L 174.824219 102.375 L 178.636719 101.976562 C 181.160156 101.710938 183.539062 100.722656 185.621094 99.257812 C 189.042969 96.847656 193.410156 97.941406 193.410156 97.941406 Z M 193.410156 97.941406 " fill-opacity="1" fill-rule="nonzero"/><path fill="#000000" d="M 176.101562 118.019531 C 174.96875 118.019531 173.816406 117.898438 172.664062 117.65625 C 172.101562 117.539062 171.570312 117.394531 171.046875 117.21875 L 170.472656 117.03125 L 174.308594 101.773438 L 178.574219 101.328125 C 180.867188 101.085938 183.179688 100.1875 185.253906 98.726562 C 188.878906 96.175781 193.382812 97.269531 193.574219 97.3125 L 194.207031 97.472656 L 192.261719 105.222656 C 190.324219 112.894531 183.582031 118.019531 176.101562 118.019531 Z M 172.035156 116.152344 C 172.332031 116.238281 172.625 116.308594 172.933594 116.375 C 181.011719 118.089844 188.9375 113.050781 190.980469 104.902344 L 192.597656 98.464844 C 191.3125 98.28125 188.375 98.121094 186 99.792969 C 183.742188 101.386719 181.21875 102.359375 178.707031 102.621094 L 175.347656 102.976562 Z M 172.035156 116.152344 " fill-opacity="1" fill-rule="nonzero"/><path fill="#fcb424" d="M 178.734375 118.164062 L 173.855469 120.828125 C 170.066406 122.902344 165.269531 121.492188 163.199219 117.699219 L 162.015625 115.53125 C 159.941406 111.742188 161.347656 106.941406 165.144531 104.875 L 170.019531 102.210938 C 173.8125 100.136719 178.609375 101.542969 180.675781 105.339844 L 181.863281 107.503906 C 183.929688 111.296875 182.523438 116.085938 178.734375 118.164062 Z M 178.734375 118.164062 " fill-opacity="1" fill-rule="nonzero"/><path fill="#000000" d="M 156.144531 91.46875 C 156.273438 92.253906 156.503906 92.988281 156.804688 93.667969 L 154.480469 94.910156 C 154.480469 94.910156 149.507812 85.617188 157.648438 79.894531 L 173.449219 80.714844 L 176.613281 74.515625 L 193.78125 83.726562 C 193.78125 83.726562 182.484375 92.300781 171.277344 85.945312 L 167.1875 88.128906 C 166.105469 84.921875 163.390625 82.820312 160.632812 83.285156 C 157.480469 83.804688 155.46875 87.46875 156.144531 91.46875 Z M 182.472656 107.042969 C 183.558594 109.03125 183.800781 111.328125 183.15625 113.515625 C 182.515625 115.699219 181.070312 117.5 179.082031 118.585938 L 174.203125 121.25 C 172.941406 121.9375 171.550781 122.292969 170.152344 122.292969 C 169.347656 122.292969 168.527344 122.175781 167.730469 121.9375 C 165.757812 121.363281 164.101562 120.121094 162.996094 118.425781 C 162.644531 117.960938 162.316406 117.457031 162.023438 116.925781 C 161.746094 116.421875 161.519531 115.910156 161.320312 115.394531 C 159.304688 111.328125 160.835938 106.339844 164.855469 104.148438 L 169.734375 101.484375 C 173.851562 99.230469 179.027344 100.75 181.28125 104.867188 Z M 170.21875 117.59375 C 170.25 116.210938 169.816406 114.628906 169 113.121094 C 167.671875 110.6875 165.597656 109.0625 164.03125 109.0625 C 163.703125 109.0625 163.398438 109.136719 163.128906 109.285156 C 162.40625 109.679688 161.996094 110.582031 161.964844 111.832031 C 161.9375 112.78125 162.140625 113.835938 162.539062 114.890625 C 162.570312 114.949219 162.597656 115.015625 162.628906 115.074219 L 163.816406 117.238281 C 163.902344 117.402344 164.003906 117.554688 164.101562 117.703125 C 164.757812 118.5625 165.511719 119.269531 166.296875 119.738281 C 167.363281 120.386719 168.351562 120.523438 169.066406 120.140625 C 169.773438 119.746094 170.191406 118.84375 170.21875 117.59375 Z M 181.324219 107.667969 L 180.140625 105.503906 C 178.832031 103.113281 176.355469 101.757812 173.8125 101.757812 C 172.644531 101.757812 171.460938 102.039062 170.367188 102.640625 L 165.492188 105.304688 C 164.28125 105.96875 163.34375 106.929688 162.710938 108.050781 C 164.980469 107.019531 168.195312 108.925781 170.152344 112.5 C 171.082031 114.203125 171.570312 116.027344 171.53125 117.632812 C 171.492188 119.125 171.003906 120.296875 170.136719 120.988281 C 171.308594 120.988281 172.496094 120.707031 173.589844 120.113281 L 178.464844 117.449219 C 181.941406 115.539062 183.222656 111.152344 181.324219 107.667969 Z M 181.324219 107.667969 " fill-opacity="1" fill-rule="nonzero"/><path fill="#fcb424" d="M 204.960938 92.46875 L 197.953125 90.65625 L 156.816406 80.015625 L 157.035156 79.167969 C 159.921875 68.015625 171.121094 61.175781 181.914062 63.96875 L 183.773438 64.453125 C 192.09375 66.609375 197.847656 73.878906 198.722656 82.214844 L 206.433594 89.761719 C 207.601562 90.878906 206.511719 92.871094 204.960938 92.46875 Z M 204.960938 92.46875 " fill-opacity="1" fill-rule="nonzero"/><path fill="#000000" d="M 176.59375 85.316406 C 176.382812 85.019531 176.449219 84.617188 176.742188 84.398438 C 187.976562 76.289062 198.5 81.382812 198.605469 81.433594 C 198.925781 81.597656 199.058594 81.992188 198.902344 82.3125 C 198.738281 82.632812 198.34375 82.769531 198.023438 82.605469 C 197.925781 82.554688 188.082031 77.828125 177.507812 85.460938 C 177.390625 85.542969 177.261719 85.585938 177.128906 85.585938 C 176.921875 85.585938 176.71875 85.492188 176.59375 85.316406 Z M 162.296875 98.464844 C 162.585938 98.464844 162.871094 98.441406 163.160156 98.394531 C 163.515625 98.335938 163.757812 97.996094 163.699219 97.640625 C 163.640625 97.289062 163.296875 97.046875 162.945312 97.105469 C 160.15625 97.570312 157.394531 94.996094 156.785156 91.363281 C 156.484375 89.578125 156.746094 87.808594 157.523438 86.390625 C 158.277344 85.019531 159.417969 84.152344 160.734375 83.929688 C 161.085938 83.867188 161.328125 83.527344 161.269531 83.175781 C 161.210938 82.820312 160.875 82.578125 160.515625 82.636719 C 158.796875 82.925781 157.320312 84.039062 156.371094 85.761719 C 155.457031 87.4375 155.140625 89.503906 155.488281 91.578125 C 156.164062 95.558594 159.109375 98.464844 162.296875 98.464844 Z M 153.464844 124.675781 C 153.230469 124.398438 152.820312 124.375 152.542969 124.609375 C 152.269531 124.84375 152.242188 125.257812 152.476562 125.53125 C 152.65625 125.734375 170.65625 146.210938 200.695312 151.269531 C 200.734375 151.277344 200.765625 151.277344 200.804688 151.277344 C 201.121094 151.277344 201.394531 151.046875 201.453125 150.734375 C 201.511719 150.378906 201.269531 150.039062 200.917969 149.980469 C 171.351562 145 153.636719 124.878906 153.464844 124.675781 Z M 221.371094 181.519531 C 169.941406 183.789062 134.792969 158.863281 134.4375 158.609375 C 134.144531 158.398438 133.738281 158.464844 133.523438 158.757812 C 133.3125 159.054688 133.378906 159.460938 133.671875 159.675781 C 133.875 159.820312 145.675781 168.191406 165.523438 174.859375 L 129.941406 187.304688 C 129.601562 187.421875 129.417969 187.796875 129.542969 188.136719 C 129.632812 188.40625 129.890625 188.574219 130.15625 188.574219 C 130.230469 188.574219 130.300781 188.5625 130.375 188.535156 L 167.566406 175.527344 C 180.433594 179.660156 196.460938 182.976562 214.746094 182.976562 C 216.941406 182.976562 219.171875 182.933594 221.429688 182.828125 C 221.789062 182.8125 222.074219 182.507812 222.058594 182.148438 C 222.039062 181.785156 221.726562 181.511719 221.371094 181.519531 Z M 172.632812 200.410156 C 172.285156 200.304688 171.917969 200.5 171.8125 200.847656 L 163.179688 229.511719 C 163.148438 229.519531 163.113281 229.519531 163.082031 229.53125 C 136.109375 241.941406 115.0625 220.957031 114.851562 220.746094 C 114.597656 220.492188 114.1875 220.484375 113.929688 220.742188 C 113.675781 220.996094 113.667969 221.40625 113.925781 221.664062 C 114.085938 221.832031 127.042969 234.769531 145.742188 234.769531 C 150.992188 234.769531 156.695312 233.746094 162.691406 231.140625 L 150.808594 270.597656 C 150.703125 270.945312 150.902344 271.3125 151.246094 271.417969 C 151.3125 271.4375 151.371094 271.445312 151.4375 271.445312 C 151.71875 271.445312 151.980469 271.261719 152.066406 270.980469 L 173.070312 201.234375 C 173.175781 200.875 172.980469 200.515625 172.632812 200.410156 Z M 141.617188 118.109375 C 141.984375 117.964844 150.621094 114.679688 156.6875 125.996094 C 156.804688 126.21875 157.035156 126.34375 157.261719 126.34375 C 157.367188 126.34375 157.472656 126.316406 157.570312 126.265625 C 157.890625 126.09375 158.007812 125.695312 157.839844 125.382812 C 152.53125 115.476562 145.089844 115.960938 142.265625 116.578125 L 144.746094 106.125 C 144.832031 105.769531 144.617188 105.417969 144.261719 105.339844 C 143.910156 105.261719 143.554688 105.46875 143.476562 105.824219 L 140.742188 117.355469 C 140.683594 117.59375 140.769531 117.839844 140.953125 118.003906 C 141.132812 118.15625 141.394531 118.203125 141.617188 118.109375 Z M 231.277344 155.085938 C 230.921875 155.058594 230.601562 155.328125 230.570312 155.6875 L 228.578125 181.039062 C 228.554688 181.402344 228.820312 181.714844 229.179688 181.746094 C 229.199219 181.746094 229.214844 181.746094 229.234375 181.746094 C 229.574219 181.746094 229.863281 181.484375 229.886719 181.144531 L 231.878906 155.792969 C 231.902344 155.425781 231.636719 155.113281 231.277344 155.085938 Z M 109.335938 170.457031 L 109.335938 181.878906 C 109.335938 185.628906 106.285156 188.679688 102.535156 188.679688 L 90.207031 188.679688 C 86.457031 188.679688 83.40625 185.628906 83.40625 181.878906 L 83.40625 170.457031 C 83.40625 166.707031 86.457031 163.65625 90.207031 163.65625 L 102.535156 163.65625 C 106.285156 163.660156 109.335938 166.710938 109.335938 170.457031 Z M 104.753906 170.457031 C 104.753906 169.230469 103.757812 168.238281 102.535156 168.238281 L 90.207031 168.238281 C 88.984375 168.238281 87.988281 169.230469 87.988281 170.457031 L 87.988281 181.878906 C 87.988281 183.101562 88.984375 184.097656 90.207031 184.097656 L 102.535156 184.097656 C 103.757812 184.097656 104.753906 183.101562 104.753906 181.878906 Z M 104.753906 170.457031 " fill-opacity="1" fill-rule="nonzero"/><path fill="#ffffff" d="M 112.738281 182.015625 L 111.117188 184.648438 C 110.742188 185.25 110.546875 185.949219 110.546875 186.664062 L 110.546875 195.945312 C 110.546875 198.066406 108.832031 199.78125 106.710938 199.78125 L 86.039062 199.78125 C 83.917969 199.78125 82.203125 198.066406 82.203125 195.945312 L 82.203125 186.664062 C 82.203125 185.949219 82.007812 185.257812 81.632812 184.648438 L 80.011719 182.015625 C 78.433594 179.464844 80.273438 176.164062 83.277344 176.164062 L 109.472656 176.164062 C 112.476562 176.171875 114.308594 179.464844 112.738281 182.015625 Z M 112.738281 182.015625 " fill-opacity="1" fill-rule="nonzero"/><path fill="#000000" d="M 111.195312 188.089844 L 111.195312 186.65625 C 111.195312 186.066406 111.359375 185.492188 111.664062 184.988281 L 113.289062 182.355469 C 114.152344 180.949219 114.191406 179.253906 113.386719 177.8125 C 112.582031 176.375 111.117188 175.507812 109.464844 175.507812 L 83.277344 175.507812 C 81.628906 175.507812 80.160156 176.367188 79.355469 177.8125 C 78.550781 179.253906 78.589844 180.957031 79.453125 182.355469 L 81.078125 184.988281 C 81.386719 185.492188 81.546875 186.066406 81.546875 186.65625 L 81.546875 188.324219 C 72.75 190.171875 66.085938 198.019531 66.085938 207.355469 L 66.085938 280.949219 C 66.085938 291.644531 74.839844 300.390625 85.527344 300.390625 L 108.65625 300.390625 C 119.34375 300.390625 128.09375 291.644531 128.09375 280.949219 L 128.09375 207.359375 C 128.09375 197.527344 120.699219 189.347656 111.195312 188.089844 Z M 82.191406 184.308594 L 80.566406 181.675781 C 79.953125 180.679688 79.925781 179.476562 80.496094 178.453125 C 81.0625 177.433594 82.105469 176.824219 83.269531 176.824219 L 109.464844 176.824219 C 110.636719 176.824219 111.671875 177.433594 112.242188 178.453125 C 112.8125 179.476562 112.785156 180.679688 112.167969 181.675781 L 110.546875 184.308594 C 110.109375 185.015625 109.878906 185.832031 109.878906 186.664062 L 109.878906 187.964844 C 109.472656 187.941406 109.058594 187.921875 108.648438 187.921875 L 85.527344 187.921875 C 84.625 187.921875 83.734375 187.984375 82.859375 188.109375 L 82.859375 186.664062 C 82.859375 185.832031 82.628906 185.015625 82.191406 184.308594 Z M 82.191406 184.308594 " fill-opacity="1" fill-rule="nonzero"/><g clip-path="url(#e2506c7b58)"><path fill="#fcb424" d="M 335.449219 82.71875 L 337.480469 84.375 L 272.429688 163.929688 L 270.398438 162.273438 Z M 351.441406 79.125 C 351.363281 78.320312 350.644531 77.734375 349.839844 77.8125 L 345.65625 78.234375 C 344.851562 78.3125 344.269531 79.03125 344.347656 79.835938 L 344.40625 80.4375 C 344.484375 81.246094 345.203125 81.828125 346.007812 81.75 L 350.191406 81.328125 C 350.996094 81.25 351.578125 80.53125 351.5 79.726562 Z M 66.085938 280.953125 C 66.085938 291.648438 74.839844 300.394531 85.527344 300.394531 L 108.65625 300.394531 C 119.34375 300.394531 128.09375 291.648438 128.09375 280.953125 L 128.09375 269.441406 L 66.085938 269.441406 Z M 66.085938 280.953125 " fill-opacity="1" fill-rule="nonzero"/></g><path fill="#000000" d="M 278.613281 156.167969 C 279.375 156.789062 279.484375 157.914062 278.863281 158.671875 L 275.074219 163.316406 C 276.027344 164.402344 276.09375 166.042969 275.144531 167.195312 L 256.972656 189.417969 C 256.03125 190.578125 254.410156 190.839844 253.152344 190.121094 L 252.175781 191.316406 C 251.554688 192.078125 250.429688 192.1875 249.667969 191.566406 L 247.84375 190.066406 C 247.082031 189.445312 246.972656 188.320312 247.59375 187.558594 L 248.570312 186.363281 C 247.613281 185.277344 247.546875 183.632812 248.496094 182.480469 L 266.261719 160.753906 L 257.195312 163.71875 C 256.992188 163.785156 256.789062 163.820312 256.589844 163.820312 C 255.761719 163.820312 254.992188 163.296875 254.722656 162.464844 C 254.390625 161.4375 254.945312 160.324219 255.980469 159.988281 L 267.957031 156.070312 C 268.59375 155.859375 269.292969 155.988281 269.808594 156.414062 L 271.6875 157.953125 C 271.714844 157.972656 271.726562 158 271.753906 158.019531 L 274.28125 154.929688 C 274.902344 154.171875 276.027344 154.058594 276.789062 154.679688 Z M 347.808594 78.605469 C 347.710938 77.632812 346.835938 76.910156 345.859375 77.007812 L 337.964844 77.800781 C 337.566406 77.839844 337.21875 78.015625 336.945312 78.265625 C 336.832031 78.351562 336.726562 78.441406 336.636719 78.554688 L 331.613281 84.699219 C 330.992188 85.460938 331.105469 86.585938 331.863281 87.207031 L 333.691406 88.707031 C 334.449219 89.328125 335.574219 89.21875 336.195312 88.457031 L 340.222656 83.535156 L 346.453125 82.914062 C 347.429688 82.816406 348.148438 81.9375 348.050781 80.960938 Z M 347.808594 78.605469 " fill-opacity="1" fill-rule="nonzero"/><path fill="#ffffff" d="M 266.609375 166.339844 L 272.945312 168.445312 C 274.640625 169.007812 275.78125 170.71875 275.441406 172.464844 C 275.160156 173.914062 274.058594 174.914062 272.761719 175.203125 C 272.738281 175.207031 272.730469 175.234375 272.742188 175.253906 C 273.515625 176.15625 273.824219 177.421875 273.421875 178.625 C 273.023438 179.828125 272.015625 180.652344 270.859375 180.917969 C 270.832031 180.921875 270.824219 180.949219 270.839844 180.96875 C 271.609375 181.871094 271.917969 183.136719 271.519531 184.339844 C 271.121094 185.542969 270.113281 186.367188 268.953125 186.628906 C 268.925781 186.636719 268.921875 186.664062 268.933594 186.683594 C 269.949219 187.859375 270.164062 189.667969 269.039062 191.132812 C 268.140625 192.304688 266.539062 192.699219 265.128906 192.234375 L 265.046875 192.207031 C 261.921875 191.171875 258.90625 189.863281 256.019531 188.285156 C 253.179688 186.734375 249.257812 184.707031 245.75 183.273438 C 244.398438 182.722656 242.601562 184.707031 241.179688 185.027344 C 239.523438 185.394531 238.101562 183.816406 238.640625 182.210938 L 245.695312 161.199219 C 246.195312 159.722656 248.007812 159.175781 249.238281 160.148438 L 249.25 160.160156 C 250.285156 160.972656 251.457031 161.585938 252.707031 161.980469 C 253.765625 162.117188 254.832031 162.222656 255.84375 162.574219 Z M 266.609375 166.339844 " fill-opacity="1" fill-rule="nonzero"/><path fill="#000000" d="M 266.335938 193.070312 C 265.871094 193.070312 265.398438 193 264.941406 192.84375 L 264.863281 192.816406 C 261.726562 191.78125 258.648438 190.445312 255.722656 188.847656 C 253.019531 187.371094 249.054688 185.308594 245.519531 183.863281 C 245.003906 183.644531 244.105469 184.203125 243.320312 184.6875 C 242.671875 185.085938 241.996094 185.5 241.34375 185.648438 C 240.335938 185.871094 239.3125 185.550781 238.621094 184.777344 C 237.925781 184.003906 237.710938 182.964844 238.039062 181.984375 L 245.09375 160.972656 C 245.394531 160.074219 246.113281 159.375 247.023438 159.105469 C 247.929688 158.835938 248.917969 159.027344 249.664062 159.609375 C 250.632812 160.375 251.703125 160.945312 252.871094 161.3125 L 253.25 161.359375 C 254.1875 161.476562 255.148438 161.601562 256.085938 161.925781 L 266.820312 165.710938 L 273.140625 167.8125 C 275.203125 168.5 276.46875 170.546875 276.074219 172.578125 C 275.820312 173.898438 274.9375 174.992188 273.738281 175.542969 C 274.289062 176.542969 274.40625 177.714844 274.039062 178.816406 C 273.671875 179.914062 272.878906 180.785156 271.839844 181.257812 C 272.390625 182.257812 272.507812 183.429688 272.140625 184.523438 C 271.773438 185.621094 270.980469 186.492188 269.941406 186.964844 C 270.71875 188.386719 270.597656 190.160156 269.554688 191.511719 C 268.808594 192.523438 267.605469 193.070312 266.335938 193.070312 Z M 245.269531 182.511719 C 245.519531 182.511719 245.773438 182.558594 246.023438 182.65625 C 249.609375 184.125 253.621094 186.210938 256.359375 187.703125 C 259.214844 189.261719 262.210938 190.566406 265.273438 191.578125 L 265.351562 191.605469 C 266.550781 191.996094 267.828125 191.652344 268.535156 190.726562 C 269.523438 189.4375 269.207031 187.972656 268.457031 187.101562 C 268.304688 186.925781 268.253906 186.648438 268.324219 186.433594 C 268.398438 186.21875 268.597656 186.035156 268.820312 185.984375 C 269.816406 185.761719 270.597656 185.066406 270.910156 184.125 C 271.222656 183.179688 271.015625 182.160156 270.355469 181.386719 C 270.203125 181.210938 270.152344 180.941406 270.222656 180.726562 C 270.292969 180.511719 270.503906 180.320312 270.726562 180.273438 C 271.714844 180.050781 272.496094 179.359375 272.808594 178.414062 C 273.121094 177.472656 272.914062 176.453125 272.253906 175.679688 C 272.101562 175.503906 272.050781 175.234375 272.121094 175.019531 C 272.191406 174.800781 272.394531 174.613281 272.625 174.566406 C 273.757812 174.316406 274.589844 173.46875 274.804688 172.347656 C 275.074219 170.960938 274.191406 169.554688 272.742188 169.074219 L 266.40625 166.96875 L 255.660156 163.175781 C 254.851562 162.894531 253.996094 162.785156 253.09375 162.667969 L 252.652344 162.609375 C 252.613281 162.601562 252.582031 162.59375 252.542969 162.582031 C 251.199219 162.164062 249.96875 161.515625 248.878906 160.652344 C 248.445312 160.308594 247.914062 160.210938 247.410156 160.363281 C 246.90625 160.511719 246.515625 160.886719 246.351562 161.390625 L 239.292969 182.402344 C 239.117188 182.933594 239.234375 183.496094 239.609375 183.90625 C 239.980469 184.320312 240.523438 184.496094 241.066406 184.371094 C 241.511719 184.273438 242.089844 183.921875 242.644531 183.574219 C 243.464844 183.070312 244.375 182.511719 245.269531 182.511719 Z M 245.269531 182.511719 " fill-opacity="1" fill-rule="nonzero"/><g fill="#fcb424" fill-opacity="1"><g transform="translate(351.599511, 218.799988)"><g><path d="M 4 -3.03125 C 4.488281 -3.03125 4.898438 -2.859375 5.234375 -2.515625 C 5.566406 -2.179688 5.734375 -1.773438 5.734375 -1.296875 C 5.734375 -0.816406 5.5625 -0.40625 5.21875 -0.0625 C 4.882812 0.269531 4.476562 0.4375 4 0.4375 C 3.519531 0.4375 3.109375 0.269531 2.765625 -0.0625 C 2.429688 -0.40625 2.265625 -0.816406 2.265625 -1.296875 C 2.265625 -1.785156 2.429688 -2.195312 2.765625 -2.53125 C 3.109375 -2.863281 3.519531 -3.03125 4 -3.03125 Z M 4 -3.03125 "/></g></g></g><g fill="#fcb424" fill-opacity="1"><g transform="translate(124.007325, 199.874984)"><g><path d="M 4 -3.03125 C 4.488281 -3.03125 4.898438 -2.859375 5.234375 -2.515625 C 5.566406 -2.179688 5.734375 -1.773438 5.734375 -1.296875 C 5.734375 -0.816406 5.5625 -0.40625 5.21875 -0.0625 C 4.882812 0.269531 4.476562 0.4375 4 0.4375 C 3.519531 0.4375 3.109375 0.269531 2.765625 -0.0625 C 2.429688 -0.40625 2.265625 -0.816406 2.265625 -1.296875 C 2.265625 -1.785156 2.429688 -2.195312 2.765625 -2.53125 C 3.109375 -2.863281 3.519531 -3.03125 4 -3.03125 Z M 4 -3.03125 "/></g></g></g><g fill="#fcb424" fill-opacity="1"><g transform="translate(187.996867, 199.874984)"><g><path d="M 4 -3.03125 C 4.488281 -3.03125 4.898438 -2.859375 5.234375 -2.515625 C 5.566406 -2.179688 5.734375 -1.773438 5.734375 -1.296875 C 5.734375 -0.816406 5.5625 -0.40625 5.21875 -0.0625 C 4.882812 0.269531 4.476562 0.4375 4 0.4375 C 3.519531 0.4375 3.109375 0.269531 2.765625 -0.0625 C 2.429688 -0.40625 2.265625 -0.816406 2.265625 -1.296875 C 2.265625 -1.785156 2.429688 -2.195312 2.765625 -2.53125 C 3.109375 -2.863281 3.519531 -3.03125 4 -3.03125 Z M 4 -3.03125 "/></g></g></g></svg>