<svg xmlns="http://www.w3.org/2000/svg" xmlns:xlink="http://www.w3.org/1999/xlink" width="400" viewBox="0 0 300 299.999988" height="400" preserveAspectRatio="xMidYMid meet"><rect x="-30" width="360" fill="#ffffff" y="-29.999999" height="359.999986" fill-opacity="1"></rect><rect x="-30" width="360" fill="#ffffff" y="-29.999999" height="359.999986" fill-opacity="1"></rect><path fill="#fbb424" d="M 90.984375 31.96875 L 90.984375 49.257812 L 110.65625 68.929688 L 110.65625 31.96875 Z M 189.34375 31.96875 L 189.34375 88.023438 C 189.34375 123.613281 204.570312 154.394531 232.761719 175.089844 C 239.921875 180.480469 245.027344 188.015625 247.09375 196.375 C 248.035156 200.171875 248.460938 203.585938 248.359375 206.632812 L 264.382812 222.65625 C 268.375 214 269.140625 203.53125 266.1875 191.648438 C 263.039062 178.941406 255.375 167.472656 243.867188 158.835938 C 221.398438 142.332031 209.015625 117.199219 209.015625 88.023438 L 209.015625 31.96875 Z M 46.296875 32.390625 L 32.390625 46.296875 L 89.601562 103.507812 C 86.792969 121.015625 79.769531 133.972656 72.65625 142.96875 C 65.007812 152.644531 58.355469 157.160156 55.441406 159.335938 C 44.933594 167.226562 37.046875 178.582031 33.8125 191.648438 L 33.851562 191.648438 C 29.171875 210.46875 34.511719 226.957031 46.335938 236.21875 C 58.160156 245.480469 74.105469 248.359375 90.984375 248.359375 L 104.660156 248.359375 C 115.644531 260.101562 131.417969 268.03125 150 268.03125 C 168.582031 268.03125 184.355469 260.101562 195.339844 248.359375 L 209.015625 248.359375 C 217.027344 248.359375 224.632812 247.425781 231.839844 245.746094 L 253.703125 267.609375 L 267.609375 253.703125 Z M 106.121094 120.03125 L 214.472656 228.382812 C 212.644531 228.480469 210.929688 228.6875 209.015625 228.6875 L 192.339844 228.6875 C 191.566406 228.6875 190.800781 228.777344 190.046875 228.957031 C 189.292969 229.136719 188.570312 229.402344 187.882812 229.753906 C 187.191406 230.101562 186.550781 230.53125 185.957031 231.03125 C 185.367188 231.535156 184.84375 232.097656 184.386719 232.722656 C 178 241.5 165.28125 248.359375 150 248.359375 C 134.71875 248.359375 122 241.5 115.613281 232.722656 C 115.15625 232.097656 114.632812 231.535156 114.042969 231.03125 C 113.449219 230.53125 112.808594 230.101562 112.117188 229.753906 C 111.429688 229.402344 110.707031 229.136719 109.953125 228.957031 C 109.199219 228.777344 108.433594 228.6875 107.660156 228.6875 L 90.984375 228.6875 C 76.605469 228.6875 64.667969 225.585938 58.476562 220.734375 C 52.289062 215.886719 49.480469 210.152344 52.90625 196.375 C 54.980469 188 60.242188 180.339844 67.238281 175.089844 C 68.457031 174.175781 78.667969 167.121094 88.101562 155.1875 C 94.941406 146.535156 101.792969 134.789062 106.121094 120.03125 Z M 106.121094 120.03125 " fill-opacity="1" fill-rule="nonzero"></path></svg>