<svg xmlns="http://www.w3.org/2000/svg" xmlns:xlink="http://www.w3.org/1999/xlink" width="1500" zoomAndPan="magnify" viewBox="0 0 1125 227.249992" height="303" preserveAspectRatio="xMidYMid meet" version="1.0"><defs><g/><clipPath id="5eb69e140b"><path d="M 931.738281 25.546875 L 1035 25.546875 L 1035 201 L 931.738281 201 Z M 931.738281 25.546875 " clip-rule="nonzero"/></clipPath><clipPath id="90ce67e768"><path d="M 1030 25.546875 L 1099.933594 25.546875 L 1099.933594 150 L 1030 150 Z M 1030 25.546875 " clip-rule="nonzero"/></clipPath></defs><g fill="#000000" fill-opacity="1"><g transform="translate(415.861008, 141.59118)"><g/></g></g><g fill="#000000" fill-opacity="1"><g transform="translate(448.480849, 141.59118)"><g/></g></g><g fill="#000000" fill-opacity="1"><g transform="translate(481.106417, 141.59118)"><g><path d="M 51.0625 -6.640625 C 52.769531 -0.804688 53.171875 4.828125 52.265625 10.265625 C 51.359375 15.710938 49.367188 20.550781 46.296875 24.78125 C 43.234375 29.007812 39.207031 32.15625 34.21875 34.21875 C 29.226562 36.28125 23.410156 36.8125 16.765625 35.8125 C 14.347656 35.40625 11.628906 34.597656 8.609375 33.390625 C 5.585938 32.179688 2.644531 30.46875 -0.21875 28.25 C -3.09375 26.03125 -5.535156 23.210938 -7.546875 19.796875 C -7.546875 19.796875 -6.789062 19.71875 -5.28125 19.5625 C -3.769531 19.414062 -1.9375 19.039062 0.21875 18.4375 C 2.382812 17.832031 4.472656 16.898438 6.484375 15.640625 C 8.503906 14.378906 10.039062 12.691406 11.09375 10.578125 C 12.15625 8.460938 12.335938 5.789062 11.640625 2.5625 C 10.328125 -3.570312 9.671875 -9.207031 9.671875 -14.34375 C 9.671875 -19.488281 10.046875 -23.847656 10.796875 -27.421875 C 11.554688 -30.992188 12.289062 -33.488281 13 -34.90625 C 13 -34.90625 13.300781 -35.507812 13.90625 -36.71875 C 14.507812 -37.925781 15.460938 -39.359375 16.765625 -41.015625 C 18.078125 -42.679688 19.738281 -44.242188 21.75 -45.703125 C 23.769531 -47.160156 26.140625 -48.09375 28.859375 -48.5 C 34.097656 -49.195312 38.679688 -49.09375 42.609375 -48.1875 C 46.535156 -47.28125 49.628906 -46.273438 51.890625 -45.171875 C 54.160156 -44.066406 55.296875 -43.515625 55.296875 -43.515625 C 55.296875 -43.515625 54.84375 -42.457031 53.9375 -40.34375 C 53.03125 -38.226562 52.125 -35.40625 51.21875 -31.875 C 50.3125 -28.351562 49.726562 -24.398438 49.46875 -20.015625 C 49.21875 -15.640625 49.75 -11.179688 51.0625 -6.640625 Z M 51.0625 -6.640625 "/></g></g></g><g fill="#000000" fill-opacity="1"><g transform="translate(530.942218, 141.59118)"><g><path d="M 23.421875 -77.5 C 19.691406 -80.320312 16.363281 -82.96875 13.4375 -85.4375 C 10.519531 -87.90625 7.5 -90.75 4.375 -93.96875 C 7.5 -97.289062 10.445312 -100.234375 13.21875 -102.796875 C 15.988281 -105.367188 19.132812 -108.066406 22.65625 -110.890625 C 24.769531 -109.378906 26.707031 -107.867188 28.46875 -106.359375 C 30.238281 -104.847656 31.929688 -103.335938 33.546875 -101.828125 C 35.253906 -103.335938 36.960938 -104.847656 38.671875 -106.359375 C 40.390625 -107.867188 42.304688 -109.378906 44.421875 -110.890625 C 48.046875 -108.066406 51.21875 -105.367188 53.9375 -102.796875 C 56.65625 -100.234375 59.578125 -97.289062 62.703125 -93.96875 C 59.773438 -90.75 56.953125 -87.878906 54.234375 -85.359375 C 51.515625 -82.835938 48.441406 -80.21875 45.015625 -77.5 C 42.898438 -79.113281 40.9375 -80.597656 39.125 -81.953125 C 37.3125 -83.316406 35.550781 -84.804688 33.84375 -86.421875 C 30.613281 -83.296875 27.140625 -80.320312 23.421875 -77.5 Z M 21.75 -25.828125 C 17.519531 -33.085938 14.828125 -39.332031 13.671875 -44.5625 C 12.515625 -49.800781 12.539062 -54.179688 13.75 -57.703125 C 14.957031 -61.234375 16.894531 -64.03125 19.5625 -66.09375 C 22.226562 -68.15625 25.273438 -69.664062 28.703125 -70.625 C 32.128906 -71.582031 35.53125 -72.132812 38.90625 -72.28125 C 42.28125 -72.4375 45.25 -72.285156 47.8125 -71.828125 C 50.382812 -71.378906 52.125 -70.851562 53.03125 -70.25 C 54.4375 -69.34375 55.46875 -68.359375 56.125 -67.296875 C 56.78125 -66.242188 56.753906 -65.210938 56.046875 -64.203125 C 53.429688 -60.578125 51.71875 -56.597656 50.90625 -52.265625 C 50.101562 -47.941406 49.925781 -43.6875 50.375 -39.5 C 50.832031 -35.320312 51.515625 -31.492188 52.421875 -28.015625 C 53.328125 -24.546875 54.207031 -21.753906 55.0625 -19.640625 C 55.925781 -17.523438 56.359375 -16.46875 56.359375 -16.46875 C 56.359375 -16.46875 55.925781 -15.632812 55.0625 -13.96875 C 54.207031 -12.3125 52.671875 -10.398438 50.453125 -8.234375 C 48.242188 -6.066406 45.25 -4.148438 41.46875 -2.484375 C 37.695312 -0.828125 32.835938 0 26.890625 0 L 12.390625 0 C 7.753906 0 3.953125 -0.878906 0.984375 -2.640625 C -1.984375 -4.398438 -4.273438 -6.566406 -5.890625 -9.140625 C -7.503906 -11.710938 -8.660156 -14.253906 -9.359375 -16.765625 C -10.066406 -19.285156 -10.492188 -21.425781 -10.640625 -23.1875 C -10.796875 -24.945312 -10.875 -25.828125 -10.875 -25.828125 Z M 21.75 -25.828125 "/></g></g></g><g fill="#000000" fill-opacity="1"><g transform="translate(581.986172, 141.59118)"><g><path d="M 63.453125 -50.609375 C 62.953125 -54.140625 63.476562 -57.691406 65.03125 -61.265625 C 66.59375 -64.835938 69.210938 -67.832031 72.890625 -70.25 C 76.566406 -72.664062 81.328125 -73.972656 87.171875 -74.171875 C 93.015625 -74.378906 99.914062 -72.867188 107.875 -69.640625 C 107.164062 -69.640625 105.976562 -69.035156 104.3125 -67.828125 C 102.65625 -66.617188 101.347656 -64.859375 100.390625 -62.546875 C 99.429688 -60.234375 99.507812 -57.3125 100.625 -53.78125 C 102.832031 -46.9375 104.085938 -41.269531 104.390625 -36.78125 C 104.691406 -32.300781 104.640625 -29.003906 104.234375 -26.890625 C 103.835938 -24.773438 103.640625 -23.71875 103.640625 -23.71875 C 103.640625 -23.71875 104.140625 -23.84375 105.140625 -24.09375 C 106.148438 -24.34375 107.257812 -24.894531 108.46875 -25.75 C 109.675781 -26.613281 110.632812 -27.847656 111.34375 -29.453125 C 112.050781 -31.066406 112.101562 -33.234375 111.5 -35.953125 C 110.789062 -39.378906 110.207031 -42.929688 109.75 -46.609375 C 109.300781 -50.285156 109.300781 -53.832031 109.75 -57.25 C 110.207031 -60.675781 111.316406 -63.722656 113.078125 -66.390625 C 114.835938 -69.066406 117.484375 -71.054688 121.015625 -72.359375 C 125.742188 -74.171875 129.992188 -74.898438 133.765625 -74.546875 C 137.546875 -74.203125 140.742188 -73.398438 143.359375 -72.140625 C 145.984375 -70.878906 148 -69.617188 149.40625 -68.359375 C 150.820312 -67.097656 151.53125 -66.46875 151.53125 -66.46875 C 151.53125 -66.46875 150.925781 -65.890625 149.71875 -64.734375 C 148.507812 -63.578125 147.453125 -61.941406 146.546875 -59.828125 C 145.640625 -57.710938 145.585938 -55.191406 146.390625 -52.265625 C 147.296875 -49.242188 148.253906 -45.59375 149.265625 -41.3125 C 150.273438 -37.039062 151.003906 -32.507812 151.453125 -27.71875 C 151.910156 -22.9375 151.6875 -18.28125 150.78125 -13.75 C 149.875 -9.21875 147.929688 -5.113281 144.953125 -1.4375 C 141.984375 2.238281 137.65625 5.109375 131.96875 7.171875 C 126.28125 9.234375 118.75 10.113281 109.375 9.8125 C 109.375 9.8125 109.523438 9.15625 109.828125 7.84375 C 110.128906 6.539062 110.351562 4.957031 110.5 3.09375 C 110.65625 1.226562 110.484375 -0.65625 109.984375 -2.5625 C 109.484375 -4.476562 108.453125 -6.085938 106.890625 -7.390625 C 105.328125 -8.703125 102.9375 -9.359375 99.71875 -9.359375 C 99.71875 -9.359375 99.285156 -8.675781 98.421875 -7.3125 C 97.566406 -5.957031 96.257812 -4.375 94.5 -2.5625 C 92.738281 -0.75 90.445312 0.859375 87.625 2.265625 C 84.800781 3.671875 81.425781 4.425781 77.5 4.53125 C 73.570312 4.632812 68.988281 3.628906 63.75 1.515625 C 63.75 1.515625 64 1.0625 64.5 0.15625 C 65.007812 -0.75 65.460938 -1.859375 65.859375 -3.171875 C 66.265625 -4.484375 66.390625 -5.691406 66.234375 -6.796875 C 66.085938 -7.898438 65.359375 -8.675781 64.046875 -9.125 C 62.742188 -9.582031 60.632812 -9.410156 57.71875 -8.609375 C 57.71875 -8.609375 56.734375 -7.898438 54.765625 -6.484375 C 52.796875 -5.078125 49.769531 -3.644531 45.6875 -2.1875 C 41.613281 -0.726562 36.351562 0 29.90625 0 L 8.15625 0 C 4.332031 0 1.210938 -0.878906 -1.203125 -2.640625 C -3.617188 -4.398438 -5.484375 -6.566406 -6.796875 -9.140625 C -8.109375 -11.710938 -9.066406 -14.253906 -9.671875 -16.765625 C -10.273438 -19.285156 -10.625 -21.425781 -10.71875 -23.1875 C -10.820312 -24.945312 -10.875 -25.828125 -10.875 -25.828125 L 14.953125 -25.828125 C 16.671875 -25.828125 18.054688 -26.378906 19.109375 -27.484375 C 20.171875 -28.597656 20.648438 -29.960938 20.546875 -31.578125 L 20.390625 -44.875 C 20.390625 -47.789062 19.6875 -50.226562 18.28125 -52.1875 C 16.875 -54.15625 15.460938 -55.617188 14.046875 -56.578125 C 12.640625 -57.535156 11.9375 -58.015625 11.9375 -58.015625 C 11.9375 -58.015625 12.84375 -58.34375 14.65625 -59 C 16.46875 -59.65625 18.859375 -60.304688 21.828125 -60.953125 C 24.796875 -61.609375 28.039062 -62.007812 31.5625 -62.15625 C 35.09375 -62.3125 38.546875 -61.910156 41.921875 -60.953125 C 45.296875 -60.003906 48.34375 -58.21875 51.0625 -55.59375 C 53.78125 -52.976562 55.816406 -49.273438 57.171875 -44.484375 C 58.535156 -39.703125 58.914062 -33.484375 58.3125 -25.828125 C 58.3125 -25.828125 58.765625 -25.851562 59.671875 -25.90625 C 60.578125 -25.957031 61.582031 -26.234375 62.6875 -26.734375 C 63.800781 -27.242188 64.707031 -28.175781 65.40625 -29.53125 C 66.113281 -30.894531 66.269531 -32.835938 65.875 -35.359375 Z M 63.453125 -50.609375 "/></g></g></g><g fill="#000000" fill-opacity="1"><g transform="translate(734.664965, 141.59118)"><g><path d="M 47.4375 -25.828125 L 64.0625 0 L 49.546875 0 C 49.546875 0 48.460938 -0.0234375 46.296875 -0.078125 C 44.140625 -0.128906 41.398438 0.046875 38.078125 0.453125 C 34.753906 0.859375 31.351562 1.710938 27.875 3.015625 C 24.394531 4.328125 21.347656 6.34375 18.734375 9.0625 C 18.734375 9.0625 17.898438 8.40625 16.234375 7.09375 C 14.578125 5.789062 12.691406 3.976562 10.578125 1.65625 C 8.460938 -0.65625 6.773438 -3.320312 5.515625 -6.34375 C 4.253906 -9.363281 3.976562 -12.535156 4.6875 -15.859375 C 5.988281 -21.597656 6.789062 -27.613281 7.09375 -33.90625 C 7.394531 -40.207031 7.367188 -46.328125 7.015625 -52.265625 C 6.671875 -58.210938 6.21875 -63.601562 5.65625 -68.4375 C 5.101562 -73.269531 4.578125 -77.117188 4.078125 -79.984375 C 3.578125 -82.859375 3.328125 -84.296875 3.328125 -84.296875 C 3.328125 -84.296875 3.476562 -84.875 3.78125 -86.03125 C 4.082031 -87.195312 4.734375 -88.660156 5.734375 -90.421875 C 6.742188 -92.179688 8.304688 -93.914062 10.421875 -95.625 C 12.535156 -97.34375 15.40625 -98.804688 19.03125 -100.015625 C 24.675781 -101.828125 29.789062 -101.976562 34.375 -100.46875 C 38.957031 -98.957031 42.910156 -96.4375 46.234375 -92.90625 C 49.554688 -89.382812 52.019531 -85.457031 53.625 -81.125 C 53.625 -81.125 53.195312 -81.195312 52.34375 -81.34375 C 51.488281 -81.5 50.484375 -81.453125 49.328125 -81.203125 C 48.171875 -80.953125 47.160156 -80.296875 46.296875 -79.234375 C 45.441406 -78.179688 45.015625 -76.445312 45.015625 -74.03125 L 45.015625 -25.828125 Z M 47.4375 -25.828125 "/></g></g></g><g fill="#000000" fill-opacity="1"><g transform="translate(776.949933, 141.59118)"><g><path d="M 10.875 -25.828125 C 10.875 -25.828125 11.203125 -27.007812 11.859375 -29.375 C 12.515625 -31.75 13.546875 -34.75 14.953125 -38.375 C 16.367188 -42 18.234375 -45.828125 20.546875 -49.859375 C 22.859375 -53.890625 25.675781 -57.640625 29 -61.109375 C 32.332031 -64.585938 36.265625 -67.28125 40.796875 -69.1875 C 47.140625 -71.8125 53.078125 -72.84375 58.609375 -72.28125 C 64.148438 -71.726562 69.265625 -70.144531 73.953125 -67.53125 C 78.640625 -64.914062 82.816406 -61.691406 86.484375 -57.859375 C 90.160156 -54.035156 93.285156 -50.03125 95.859375 -45.84375 C 98.429688 -41.664062 100.394531 -37.789062 101.75 -34.21875 C 103.113281 -30.644531 103.796875 -27.847656 103.796875 -25.828125 C 103.796875 -25.828125 103.140625 -24.769531 101.828125 -22.65625 C 100.515625 -20.539062 99.023438 -17.441406 97.359375 -13.359375 C 95.703125 -9.285156 94.269531 -4.28125 93.0625 1.65625 C 92.65625 3.875 91.117188 5.613281 88.453125 6.875 C 85.785156 8.132812 82.488281 8.914062 78.5625 9.21875 C 74.632812 9.519531 70.503906 9.238281 66.171875 8.375 C 61.835938 7.519531 57.78125 6.0625 54 4 C 50.226562 1.9375 47.160156 -0.828125 44.796875 -4.296875 C 42.429688 -7.773438 41.25 -11.929688 41.25 -16.765625 C 41.25 -16.765625 40.921875 -15.882812 40.265625 -14.125 C 39.609375 -12.363281 39.050781 -10.195312 38.59375 -7.625 C 38.144531 -5.0625 38.171875 -2.519531 38.671875 0 L 11.03125 0 C 6.695312 0 3.144531 -0.878906 0.375 -2.640625 C -2.394531 -4.398438 -4.554688 -6.566406 -6.109375 -9.140625 C -7.671875 -11.710938 -8.78125 -14.253906 -9.4375 -16.765625 C -10.09375 -19.285156 -10.492188 -21.425781 -10.640625 -23.1875 C -10.796875 -24.945312 -10.875 -25.828125 -10.875 -25.828125 Z M 72.96875 -25.828125 C 71.5625 -30.566406 69.773438 -33.96875 67.609375 -36.03125 C 65.441406 -38.09375 63.550781 -39.375 61.9375 -39.875 C 60.332031 -40.382812 59.53125 -40.640625 59.53125 -40.640625 C 57.414062 -40.140625 55.523438 -39.082031 53.859375 -37.46875 C 52.191406 -35.851562 50.90625 -34.335938 50 -32.921875 C 49.09375 -31.515625 48.640625 -30.8125 48.640625 -30.8125 C 48.640625 -30.8125 49.34375 -30.359375 50.75 -29.453125 C 52.164062 -28.546875 54.054688 -27.585938 56.421875 -26.578125 C 58.796875 -25.578125 61.414062 -24.898438 64.28125 -24.546875 C 67.15625 -24.191406 70.050781 -24.617188 72.96875 -25.828125 Z M 72.96875 -25.828125 "/></g></g></g><path stroke-linecap="butt" transform="matrix(0, -0.747533, 0.747533, 0, 899.335355, 203.8487)" fill="none" stroke-linejoin="miter" d="M 0.00139665 7.499405 L 242.39773 7.499405 " stroke="#000000" stroke-width="15" stroke-opacity="1" stroke-miterlimit="4"/><g clip-path="url(#5eb69e140b)"><path fill="#fcb424" d="M 981.097656 120.945312 C 980.863281 120.953125 980.648438 121.027344 980.457031 121.160156 C 980.265625 121.296875 980.125 121.472656 980.039062 121.691406 L 969.628906 147.878906 C 969.457031 148.324219 969.171875 148.679688 968.777344 148.945312 C 968.382812 149.214844 967.941406 149.347656 967.460938 149.351562 L 933.664062 149.351562 C 933.511719 149.347656 933.363281 149.328125 933.21875 149.292969 C 933.074219 149.253906 932.933594 149.199219 932.804688 149.128906 C 932.671875 149.058594 932.546875 148.972656 932.4375 148.871094 C 932.324219 148.769531 932.226562 148.660156 932.144531 148.535156 C 932.058594 148.410156 931.992188 148.277344 931.941406 148.136719 C 931.886719 147.996094 931.851562 147.851562 931.835938 147.699219 C 931.820312 147.550781 931.820312 147.402344 931.839844 147.253906 C 931.859375 147.105469 931.898438 146.960938 931.953125 146.820312 L 980.277344 26.75 C 980.441406 26.378906 980.714844 26.140625 981.097656 26.027344 C 981.835938 25.785156 982.34375 26.003906 982.617188 26.679688 C 1000.007812 69.929688 1017.152344 112.644531 1034.050781 154.816406 C 1034.386719 155.683594 1034.386719 156.542969 1034.050781 157.394531 L 1017.742188 197.894531 C 1016.277344 201.492188 1014.832031 201.484375 1013.402344 197.867188 C 1003.574219 173.183594 993.441406 147.953125 983 122.175781 C 982.664062 121.339844 982.03125 120.929688 981.097656 120.945312 Z M 981.097656 120.945312 " fill-opacity="1" fill-rule="nonzero"/></g><g clip-path="url(#90ce67e768)"><path fill="#fcb424" d="M 1050.9375 26.75 L 1099.53125 147.589844 C 1099.609375 147.789062 1099.640625 147.992188 1099.617188 148.203125 C 1099.59375 148.414062 1099.527344 148.609375 1099.40625 148.785156 C 1099.289062 148.960938 1099.136719 149.097656 1098.949219 149.199219 C 1098.761719 149.300781 1098.5625 149.347656 1098.347656 149.351562 L 1063.128906 149.324219 C 1062.867188 149.324219 1062.632812 149.253906 1062.417969 149.109375 C 1062.203125 148.964844 1062.046875 148.769531 1061.949219 148.53125 L 1031.039062 71.488281 C 1030.90625 71.167969 1030.90625 70.84375 1031.039062 70.523438 L 1048.578125 26.75 C 1048.675781 26.511719 1048.832031 26.320312 1049.046875 26.175781 C 1049.261719 26.03125 1049.5 25.960938 1049.757812 25.960938 C 1050.015625 25.960938 1050.253906 26.03125 1050.46875 26.175781 C 1050.683594 26.320312 1050.839844 26.511719 1050.9375 26.75 Z M 1050.9375 26.75 " fill-opacity="1" fill-rule="nonzero"/></g><g fill="#fcb424" fill-opacity="1"><g transform="translate(79.601162, 211.145268)"><g><path d="M 8.203125 -18.296875 C 7.347656 -18.921875 6.585938 -19.519531 5.921875 -20.09375 C 5.265625 -20.675781 4.566406 -21.328125 3.828125 -22.046875 C 4.546875 -22.835938 5.222656 -23.523438 5.859375 -24.109375 C 6.492188 -24.703125 7.226562 -25.328125 8.0625 -25.984375 C 8.53125 -25.609375 8.972656 -25.253906 9.390625 -24.921875 C 9.804688 -24.585938 10.203125 -24.234375 10.578125 -23.859375 C 11.335938 -24.578125 12.160156 -25.285156 13.046875 -25.984375 C 13.859375 -25.328125 14.585938 -24.703125 15.234375 -24.109375 C 15.878906 -23.523438 16.5625 -22.835938 17.28125 -22.046875 C 16.613281 -21.328125 15.957031 -20.675781 15.3125 -20.09375 C 14.675781 -19.519531 13.953125 -18.921875 13.140625 -18.296875 C 12.660156 -18.640625 12.222656 -18.976562 11.828125 -19.3125 C 11.429688 -19.65625 11.035156 -20 10.640625 -20.34375 C 10.273438 -20 9.894531 -19.65625 9.5 -19.3125 C 9.101562 -18.976562 8.671875 -18.640625 8.203125 -18.296875 Z M 23.921875 0 L 21.5 0 C 21.195312 0 20.722656 0.0195312 20.078125 0.0625 C 19.441406 0.113281 18.738281 0.273438 17.96875 0.546875 C 17.207031 0.828125 16.484375 1.34375 15.796875 2.09375 C 15.796875 2.09375 15.660156 1.957031 15.390625 1.6875 C 15.117188 1.414062 14.789062 1.0625 14.40625 0.625 C 14.03125 0.1875 13.664062 -0.285156 13.3125 -0.796875 C 12.96875 -1.304688 12.71875 -1.804688 12.5625 -2.296875 C 11.976562 -1.921875 11.332031 -1.644531 10.625 -1.46875 C 9.914062 -1.300781 9.234375 -1.195312 8.578125 -1.15625 C 7.929688 -1.125 7.398438 -1.113281 6.984375 -1.125 C 6.566406 -1.132812 6.359375 -1.140625 6.359375 -1.140625 C 6.359375 -1.140625 6.164062 -1.289062 5.78125 -1.59375 C 5.40625 -1.894531 4.929688 -2.269531 4.359375 -2.71875 C 3.796875 -3.175781 3.234375 -3.632812 2.671875 -4.09375 C 2.117188 -4.5625 1.65625 -4.96875 1.28125 -5.3125 C 0.914062 -5.664062 0.742188 -5.878906 0.765625 -5.953125 C 0.785156 -6.046875 0.84375 -6.382812 0.9375 -6.96875 C 1.03125 -7.5625 1.210938 -8.289062 1.484375 -9.15625 C 1.765625 -10.03125 2.191406 -10.941406 2.765625 -11.890625 C 3.335938 -12.847656 4.101562 -13.726562 5.0625 -14.53125 C 6.019531 -15.34375 7.226562 -15.972656 8.6875 -16.421875 C 10.5 -16.953125 12.140625 -17.234375 13.609375 -17.265625 C 15.085938 -17.304688 16.347656 -17.21875 17.390625 -17 C 18.429688 -16.789062 19.234375 -16.570312 19.796875 -16.34375 C 20.367188 -16.113281 20.65625 -16 20.65625 -16 C 20.007812 -14.425781 19.613281 -13.015625 19.46875 -11.765625 C 19.332031 -10.523438 19.328125 -9.46875 19.453125 -8.59375 C 19.585938 -7.726562 19.742188 -7.070312 19.921875 -6.625 C 20.109375 -6.175781 20.203125 -5.953125 20.203125 -5.953125 L 20.875 -5.953125 Z M 11.484375 -11.609375 C 10.554688 -11.265625 9.898438 -10.816406 9.515625 -10.265625 C 9.128906 -9.722656 8.90625 -9.179688 8.84375 -8.640625 C 8.789062 -8.097656 8.804688 -7.632812 8.890625 -7.25 C 8.972656 -6.863281 9.015625 -6.671875 9.015625 -6.671875 C 9.015625 -6.671875 9.242188 -6.632812 9.703125 -6.5625 C 10.171875 -6.5 10.703125 -6.628906 11.296875 -6.953125 C 11.296875 -6.953125 11.265625 -7.359375 11.203125 -8.171875 C 11.148438 -8.984375 11.242188 -10.128906 11.484375 -11.609375 Z M 11.484375 -11.609375 "/></g></g></g><g fill="#fcb424" fill-opacity="1"><g transform="translate(99.778324, 211.145268)"><g><path d="M 5.015625 -5.953125 C 4.035156 -7.617188 3.410156 -9.050781 3.140625 -10.25 C 2.878906 -11.457031 2.882812 -12.46875 3.15625 -13.28125 C 3.4375 -14.09375 3.882812 -14.738281 4.5 -15.21875 C 5.113281 -15.695312 5.816406 -16.046875 6.609375 -16.265625 C 7.398438 -16.484375 8.179688 -16.609375 8.953125 -16.640625 C 9.734375 -16.671875 10.414062 -16.632812 11 -16.53125 C 11.59375 -16.425781 11.992188 -16.304688 12.203125 -16.171875 C 12.523438 -15.960938 12.757812 -15.734375 12.90625 -15.484375 C 13.0625 -15.242188 13.0625 -15.007812 12.90625 -14.78125 C 12.300781 -13.945312 11.90625 -13.03125 11.71875 -12.03125 C 11.53125 -11.03125 11.488281 -10.050781 11.59375 -9.09375 C 11.695312 -8.132812 11.851562 -7.253906 12.0625 -6.453125 C 12.269531 -5.648438 12.472656 -5.003906 12.671875 -4.515625 C 12.867188 -4.035156 12.96875 -3.796875 12.96875 -3.796875 C 12.96875 -3.796875 12.867188 -3.601562 12.671875 -3.21875 C 12.472656 -2.832031 12.117188 -2.390625 11.609375 -1.890625 C 11.109375 -1.390625 10.421875 -0.945312 9.546875 -0.5625 C 8.679688 -0.1875 7.5625 0 6.1875 0 L 2.859375 0 C 1.785156 0 0.90625 -0.203125 0.21875 -0.609375 C -0.457031 -1.015625 -0.976562 -1.507812 -1.34375 -2.09375 C -1.71875 -2.6875 -1.988281 -3.273438 -2.15625 -3.859375 C -2.320312 -4.441406 -2.421875 -4.9375 -2.453125 -5.34375 C -2.484375 -5.75 -2.5 -5.953125 -2.5 -5.953125 Z M 4.59375 8.96875 C 3.726562 8.320312 2.957031 7.707031 2.28125 7.125 C 1.613281 6.550781 0.921875 5.90625 0.203125 5.1875 C 0.921875 4.414062 1.597656 3.726562 2.234375 3.125 C 2.878906 2.519531 3.609375 1.894531 4.421875 1.25 C 5.390625 1.96875 6.210938 2.6875 6.890625 3.40625 C 7.671875 2.664062 8.503906 1.945312 9.390625 1.25 C 10.222656 1.894531 10.960938 2.519531 11.609375 3.125 C 12.265625 3.726562 12.953125 4.414062 13.671875 5.1875 C 12.972656 5.90625 12.3125 6.554688 11.6875 7.140625 C 11.0625 7.734375 10.34375 8.34375 9.53125 8.96875 C 9.039062 8.601562 8.59375 8.253906 8.1875 7.921875 C 7.78125 7.597656 7.378906 7.253906 6.984375 6.890625 C 6.617188 7.253906 6.242188 7.601562 5.859375 7.9375 C 5.472656 8.28125 5.050781 8.625 4.59375 8.96875 Z M 4.59375 8.96875 "/></g></g></g><g fill="#fcb424" fill-opacity="1"><g transform="translate(111.536739, 211.145268)"><g><path d="M 3.515625 -5.953125 C 3.492188 -6.878906 3.429688 -8.070312 3.328125 -9.53125 C 3.222656 -10.988281 3.117188 -12.5625 3.015625 -14.25 C 2.910156 -15.945312 2.859375 -17.617188 2.859375 -19.265625 C 2.859375 -20.453125 3.117188 -21.359375 3.640625 -21.984375 C 4.160156 -22.609375 4.832031 -23.003906 5.65625 -23.171875 C 6.476562 -23.347656 7.359375 -23.335938 8.296875 -23.140625 C 9.234375 -22.941406 10.125 -22.585938 10.96875 -22.078125 C 11.820312 -21.578125 12.535156 -20.96875 13.109375 -20.25 C 13.691406 -19.53125 14.019531 -18.738281 14.09375 -17.875 C 14.09375 -17.875 13.992188 -17.921875 13.796875 -18.015625 C 13.597656 -18.109375 13.378906 -18.1875 13.140625 -18.25 C 12.910156 -18.320312 12.710938 -18.320312 12.546875 -18.25 C 12.390625 -18.1875 12.347656 -17.992188 12.421875 -17.671875 C 12.421875 -17.671875 12.453125 -17.304688 12.515625 -16.578125 C 12.585938 -15.847656 12.648438 -14.878906 12.703125 -13.671875 C 12.765625 -12.460938 12.769531 -11.140625 12.71875 -9.703125 C 12.675781 -8.265625 12.523438 -6.828125 12.265625 -5.390625 C 12.015625 -3.953125 11.625 -2.625 11.09375 -1.40625 C 10.5625 -0.1875 9.84375 0.78125 8.9375 1.5 C 8.9375 1.5 8.769531 1.367188 8.4375 1.109375 C 8.101562 0.859375 7.597656 0.609375 6.921875 0.359375 C 6.242188 0.117188 5.394531 0 4.375 0 L 3.03125 0 C 1.914062 0 1.007812 -0.203125 0.3125 -0.609375 C -0.382812 -1.015625 -0.925781 -1.507812 -1.3125 -2.09375 C -1.707031 -2.6875 -1.988281 -3.273438 -2.15625 -3.859375 C -2.320312 -4.441406 -2.421875 -4.9375 -2.453125 -5.34375 C -2.484375 -5.75 -2.5 -5.953125 -2.5 -5.953125 Z M 3.515625 -5.953125 "/></g></g></g><g fill="#fcb424" fill-opacity="1"><g transform="translate(126.112977, 211.145268)"><g><path d="M 2.4375 -16.765625 C 3.15625 -17.523438 3.832031 -18.207031 4.46875 -18.8125 C 5.101562 -19.414062 5.835938 -20.039062 6.671875 -20.6875 C 7.515625 -20.039062 8.253906 -19.414062 8.890625 -18.8125 C 9.523438 -18.207031 10.203125 -17.523438 10.921875 -16.765625 C 10.242188 -16.023438 9.59375 -15.363281 8.96875 -14.78125 C 8.34375 -14.195312 7.625 -13.59375 6.8125 -12.96875 C 5.957031 -13.625 5.195312 -14.234375 4.53125 -14.796875 C 3.875 -15.367188 3.175781 -16.023438 2.4375 -16.765625 Z M 11.75 -1.53125 C 12.144531 -0.1875 12.238281 1.109375 12.03125 2.359375 C 11.820312 3.617188 11.363281 4.734375 10.65625 5.703125 C 9.945312 6.679688 9.019531 7.40625 7.875 7.875 C 6.726562 8.351562 5.390625 8.476562 3.859375 8.25 C 3.304688 8.15625 2.679688 7.96875 1.984375 7.6875 C 1.285156 7.40625 0.609375 7.007812 -0.046875 6.5 C -0.710938 5.988281 -1.273438 5.34375 -1.734375 4.5625 C -1.734375 4.5625 -1.5625 4.539062 -1.21875 4.5 C -0.875 4.46875 -0.453125 4.378906 0.046875 4.234375 C 0.546875 4.097656 1.023438 3.882812 1.484375 3.59375 C 1.953125 3.3125 2.304688 2.925781 2.546875 2.4375 C 2.796875 1.945312 2.835938 1.332031 2.671875 0.59375 C 2.367188 -0.820312 2.21875 -2.117188 2.21875 -3.296875 C 2.21875 -4.484375 2.304688 -5.488281 2.484375 -6.3125 C 2.660156 -7.132812 2.828125 -7.707031 2.984375 -8.03125 C 2.984375 -8.03125 3.050781 -8.171875 3.1875 -8.453125 C 3.332031 -8.734375 3.554688 -9.0625 3.859375 -9.4375 C 4.160156 -9.820312 4.539062 -10.179688 5 -10.515625 C 5.46875 -10.859375 6.015625 -11.078125 6.640625 -11.171875 C 7.847656 -11.328125 8.90625 -11.300781 9.8125 -11.09375 C 10.71875 -10.882812 11.429688 -10.648438 11.953125 -10.390625 C 12.472656 -10.140625 12.734375 -10.015625 12.734375 -10.015625 C 12.734375 -10.015625 12.628906 -9.769531 12.421875 -9.28125 C 12.210938 -8.800781 12.003906 -8.15625 11.796875 -7.34375 C 11.585938 -6.53125 11.453125 -5.617188 11.390625 -4.609375 C 11.328125 -3.597656 11.445312 -2.570312 11.75 -1.53125 Z M 11.75 -1.53125 "/></g></g></g><g fill="#fcb424" fill-opacity="1"><g transform="translate(137.593063, 211.145268)"><g><path d="M 6.75 -17.84375 C 5.882812 -18.488281 5.113281 -19.09375 4.4375 -19.65625 C 3.769531 -20.226562 3.078125 -20.890625 2.359375 -21.640625 C 3.054688 -22.398438 3.726562 -23.082031 4.375 -23.6875 C 5.03125 -24.289062 5.773438 -24.914062 6.609375 -25.5625 C 7.421875 -24.914062 8.144531 -24.289062 8.78125 -23.6875 C 9.414062 -23.082031 10.09375 -22.398438 10.8125 -21.640625 C 10.144531 -20.890625 9.503906 -20.222656 8.890625 -19.640625 C 8.273438 -19.066406 7.5625 -18.46875 6.75 -17.84375 Z M 4 -5.953125 C 3.019531 -7.617188 2.394531 -9.050781 2.125 -10.25 C 1.863281 -11.457031 1.875 -12.46875 2.15625 -13.28125 C 2.4375 -14.09375 2.882812 -14.738281 3.5 -15.21875 C 4.113281 -15.695312 4.8125 -16.046875 5.59375 -16.265625 C 6.382812 -16.484375 7.164062 -16.609375 7.9375 -16.640625 C 8.71875 -16.671875 9.40625 -16.632812 10 -16.53125 C 10.59375 -16.425781 10.992188 -16.304688 11.203125 -16.171875 C 11.523438 -15.960938 11.757812 -15.734375 11.90625 -15.484375 C 12.0625 -15.242188 12.054688 -15.007812 11.890625 -14.78125 C 11.285156 -13.945312 10.890625 -13.03125 10.703125 -12.03125 C 10.523438 -11.03125 10.488281 -10.050781 10.59375 -9.09375 C 10.695312 -8.132812 10.851562 -7.253906 11.0625 -6.453125 C 11.269531 -5.648438 11.472656 -5.003906 11.671875 -4.515625 C 11.867188 -4.035156 11.96875 -3.796875 11.96875 -3.796875 C 11.96875 -3.796875 11.867188 -3.601562 11.671875 -3.21875 C 11.472656 -2.832031 11.117188 -2.390625 10.609375 -1.890625 C 10.097656 -1.390625 9.40625 -0.945312 8.53125 -0.5625 C 7.664062 -0.1875 6.550781 0 5.1875 0 L 2.859375 0 C 1.785156 0 0.90625 -0.203125 0.21875 -0.609375 C -0.457031 -1.015625 -0.976562 -1.507812 -1.34375 -2.09375 C -1.71875 -2.6875 -1.988281 -3.273438 -2.15625 -3.859375 C -2.320312 -4.441406 -2.421875 -4.9375 -2.453125 -5.34375 C -2.484375 -5.75 -2.5 -5.953125 -2.5 -5.953125 Z M 4 -5.953125 "/></g></g></g><g fill="#fcb424" fill-opacity="1"><g transform="translate(148.377419, 211.145268)"><g><path d="M 2.5 -5.953125 C 2.5 -5.953125 2.570312 -6.222656 2.71875 -6.765625 C 2.875 -7.304688 3.113281 -7.992188 3.4375 -8.828125 C 3.769531 -9.671875 4.203125 -10.554688 4.734375 -11.484375 C 5.265625 -12.410156 5.910156 -13.269531 6.671875 -14.0625 C 7.441406 -14.863281 8.347656 -15.488281 9.390625 -15.9375 C 10.847656 -16.53125 12.210938 -16.765625 13.484375 -16.640625 C 14.765625 -16.515625 15.941406 -16.148438 17.015625 -15.546875 C 18.097656 -14.941406 19.0625 -14.195312 19.90625 -13.3125 C 20.757812 -12.4375 21.476562 -11.515625 22.0625 -10.546875 C 22.65625 -9.585938 23.109375 -8.695312 23.421875 -7.875 C 23.734375 -7.050781 23.890625 -6.410156 23.890625 -5.953125 C 23.890625 -5.953125 23.738281 -5.707031 23.4375 -5.21875 C 23.132812 -4.726562 22.789062 -4.015625 22.40625 -3.078125 C 22.03125 -2.140625 21.703125 -0.988281 21.421875 0.375 C 21.328125 0.882812 20.972656 1.285156 20.359375 1.578125 C 19.742188 1.867188 18.984375 2.046875 18.078125 2.109375 C 17.179688 2.179688 16.234375 2.117188 15.234375 1.921875 C 14.234375 1.734375 13.296875 1.398438 12.421875 0.921875 C 11.554688 0.441406 10.851562 -0.191406 10.3125 -0.984375 C 9.769531 -1.785156 9.5 -2.742188 9.5 -3.859375 C 9.5 -3.859375 9.421875 -3.65625 9.265625 -3.25 C 9.117188 -2.84375 8.992188 -2.34375 8.890625 -1.75 C 8.785156 -1.164062 8.789062 -0.582031 8.90625 0 L 2.53125 0 C 1.539062 0 0.722656 -0.203125 0.078125 -0.609375 C -0.554688 -1.015625 -1.050781 -1.507812 -1.40625 -2.09375 C -1.769531 -2.6875 -2.023438 -3.273438 -2.171875 -3.859375 C -2.328125 -4.441406 -2.421875 -4.9375 -2.453125 -5.34375 C -2.484375 -5.75 -2.5 -5.953125 -2.5 -5.953125 Z M 16.796875 -5.953125 C 16.472656 -7.035156 16.0625 -7.816406 15.5625 -8.296875 C 15.0625 -8.773438 14.625 -9.070312 14.25 -9.1875 C 13.882812 -9.300781 13.703125 -9.359375 13.703125 -9.359375 C 13.210938 -9.242188 12.773438 -9 12.390625 -8.625 C 12.015625 -8.25 11.722656 -7.898438 11.515625 -7.578125 C 11.304688 -7.253906 11.203125 -7.09375 11.203125 -7.09375 C 11.203125 -7.09375 11.363281 -6.988281 11.6875 -6.78125 C 12.007812 -6.570312 12.441406 -6.351562 12.984375 -6.125 C 13.535156 -5.894531 14.140625 -5.738281 14.796875 -5.65625 C 15.460938 -5.570312 16.128906 -5.671875 16.796875 -5.953125 Z M 16.796875 -5.953125 "/></g></g></g><g fill="#fcb424" fill-opacity="1"><g transform="translate(171.02454, 211.145268)"><g><path d="M 3.515625 -5.953125 C 3.492188 -6.878906 3.429688 -8.070312 3.328125 -9.53125 C 3.222656 -10.988281 3.117188 -12.5625 3.015625 -14.25 C 2.910156 -15.945312 2.859375 -17.617188 2.859375 -19.265625 C 2.859375 -20.453125 3.117188 -21.359375 3.640625 -21.984375 C 4.160156 -22.609375 4.832031 -23.003906 5.65625 -23.171875 C 6.476562 -23.347656 7.359375 -23.335938 8.296875 -23.140625 C 9.234375 -22.941406 10.125 -22.585938 10.96875 -22.078125 C 11.820312 -21.578125 12.535156 -20.96875 13.109375 -20.25 C 13.691406 -19.53125 14.019531 -18.738281 14.09375 -17.875 C 14.09375 -17.875 13.992188 -17.921875 13.796875 -18.015625 C 13.597656 -18.109375 13.378906 -18.1875 13.140625 -18.25 C 12.910156 -18.320312 12.710938 -18.320312 12.546875 -18.25 C 12.390625 -18.1875 12.347656 -17.992188 12.421875 -17.671875 C 12.421875 -17.671875 12.453125 -17.304688 12.515625 -16.578125 C 12.585938 -15.847656 12.648438 -14.878906 12.703125 -13.671875 C 12.765625 -12.460938 12.769531 -11.140625 12.71875 -9.703125 C 12.675781 -8.265625 12.523438 -6.828125 12.265625 -5.390625 C 12.015625 -3.953125 11.625 -2.625 11.09375 -1.40625 C 10.5625 -0.1875 9.84375 0.78125 8.9375 1.5 C 8.9375 1.5 8.769531 1.367188 8.4375 1.109375 C 8.101562 0.859375 7.597656 0.609375 6.921875 0.359375 C 6.242188 0.117188 5.394531 0 4.375 0 L 3.03125 0 C 1.914062 0 1.007812 -0.203125 0.3125 -0.609375 C -0.382812 -1.015625 -0.925781 -1.507812 -1.3125 -2.09375 C -1.707031 -2.6875 -1.988281 -3.273438 -2.15625 -3.859375 C -2.320312 -4.441406 -2.421875 -4.9375 -2.453125 -5.34375 C -2.484375 -5.75 -2.5 -5.953125 -2.5 -5.953125 Z M 3.515625 -5.953125 "/></g></g></g><g fill="#fcb424" fill-opacity="1"><g transform="translate(185.600778, 211.145268)"><g><path d="M 12.828125 -18.15625 C 12.828125 -18.15625 12.726562 -18.175781 12.53125 -18.21875 C 12.34375 -18.269531 12.125 -18.300781 11.875 -18.3125 C 11.632812 -18.320312 11.414062 -18.273438 11.21875 -18.171875 C 11.019531 -18.066406 10.921875 -17.875 10.921875 -17.59375 C 10.921875 -17.59375 10.960938 -17.320312 11.046875 -16.78125 C 11.128906 -16.238281 11.210938 -15.515625 11.296875 -14.609375 C 11.390625 -13.703125 11.453125 -12.695312 11.484375 -11.59375 C 11.523438 -10.5 11.503906 -9.390625 11.421875 -8.265625 C 11.335938 -7.140625 11.164062 -6.078125 10.90625 -5.078125 C 10.65625 -4.078125 10.28125 -3.242188 9.78125 -2.578125 C 9.03125 -1.578125 8.1875 -0.828125 7.25 -0.328125 C 6.3125 0.171875 5.398438 0.503906 4.515625 0.671875 C 3.640625 0.847656 2.914062 0.9375 2.34375 0.9375 C 1.78125 0.9375 1.5 0.9375 1.5 0.9375 C 1.5 0.9375 1.550781 0.472656 1.65625 -0.453125 C 1.757812 -1.378906 1.84375 -2.722656 1.90625 -4.484375 C 1.976562 -6.242188 1.976562 -8.367188 1.90625 -10.859375 C 1.84375 -13.359375 1.632812 -16.171875 1.28125 -19.296875 C 1.144531 -20.410156 1.296875 -21.289062 1.734375 -21.9375 C 2.179688 -22.59375 2.800781 -23.03125 3.59375 -23.25 C 4.394531 -23.46875 5.273438 -23.507812 6.234375 -23.375 C 7.203125 -23.238281 8.144531 -22.9375 9.0625 -22.46875 C 9.976562 -22 10.773438 -21.398438 11.453125 -20.671875 C 12.140625 -19.941406 12.597656 -19.101562 12.828125 -18.15625 Z M 12.828125 -18.15625 "/></g></g></g><g fill="#fcb424" fill-opacity="1"><g transform="translate(198.750698, 211.145268)"><g/></g></g><g fill="#fcb424" fill-opacity="1"><g transform="translate(206.26497, 211.145268)"><g><path d="M 10.640625 -16.828125 C 9.785156 -17.484375 9.023438 -18.09375 8.359375 -18.65625 C 7.703125 -19.226562 7.003906 -19.882812 6.265625 -20.625 C 6.984375 -21.414062 7.660156 -22.101562 8.296875 -22.6875 C 8.929688 -23.28125 9.664062 -23.90625 10.5 -24.5625 C 11.382812 -23.863281 12.207031 -23.15625 12.96875 -22.4375 C 13.363281 -22.800781 13.765625 -23.148438 14.171875 -23.484375 C 14.578125 -23.828125 15.015625 -24.1875 15.484375 -24.5625 C 16.316406 -23.90625 17.050781 -23.28125 17.6875 -22.6875 C 18.320312 -22.101562 18.988281 -21.414062 19.6875 -20.625 C 19.007812 -19.882812 18.359375 -19.222656 17.734375 -18.640625 C 17.109375 -18.054688 16.398438 -17.453125 15.609375 -16.828125 C 15.128906 -17.203125 14.679688 -17.546875 14.265625 -17.859375 C 13.847656 -18.171875 13.441406 -18.515625 13.046875 -18.890625 C 12.671875 -18.515625 12.289062 -18.164062 11.90625 -17.84375 C 11.53125 -17.519531 11.109375 -17.179688 10.640625 -16.828125 Z M 16.34375 -5.953125 C 15.351562 -7.617188 14.726562 -9.046875 14.46875 -10.234375 C 14.21875 -11.429688 14.222656 -12.429688 14.484375 -13.234375 C 14.753906 -14.035156 15.195312 -14.675781 15.8125 -15.15625 C 16.425781 -15.644531 17.125 -16 17.90625 -16.21875 C 18.695312 -16.445312 19.484375 -16.578125 20.265625 -16.609375 C 21.054688 -16.640625 21.75 -16.601562 22.34375 -16.5 C 22.9375 -16.394531 23.335938 -16.273438 23.546875 -16.140625 C 23.847656 -15.929688 24.078125 -15.695312 24.234375 -15.4375 C 24.398438 -15.1875 24.390625 -14.945312 24.203125 -14.71875 C 23.597656 -13.875 23.207031 -12.957031 23.03125 -11.96875 C 22.863281 -10.988281 22.828125 -10.023438 22.921875 -9.078125 C 23.015625 -8.128906 23.171875 -7.265625 23.390625 -6.484375 C 23.609375 -5.710938 23.8125 -5.085938 24 -4.609375 C 24.1875 -4.128906 24.28125 -3.890625 24.28125 -3.890625 C 24.28125 -3.890625 24.195312 -3.691406 24.03125 -3.296875 C 23.875 -2.910156 23.578125 -2.460938 23.140625 -1.953125 C 22.710938 -1.441406 22.082031 -0.988281 21.25 -0.59375 C 20.414062 -0.195312 19.316406 0 17.953125 0 C 18.367188 0 18.316406 0.00390625 17.796875 0.015625 C 17.273438 0.0234375 16.453125 0.03125 15.328125 0.03125 C 14.203125 0.03125 12.941406 0.0195312 11.546875 0 C 11.546875 0 11.285156 0.00390625 10.765625 0.015625 C 10.242188 0.0234375 9.570312 0.00390625 8.75 -0.046875 C 7.925781 -0.109375 7.054688 -0.253906 6.140625 -0.484375 C 5.222656 -0.710938 4.363281 -1.078125 3.5625 -1.578125 C 2.757812 -2.078125 2.128906 -2.742188 1.671875 -3.578125 C 1.023438 -4.765625 0.71875 -6.003906 0.75 -7.296875 C 0.78125 -8.597656 1.082031 -9.828125 1.65625 -10.984375 C 2.238281 -12.148438 3.054688 -13.109375 4.109375 -13.859375 C 5.171875 -14.609375 6.394531 -15.035156 7.78125 -15.140625 C 9.175781 -15.242188 10.6875 -14.878906 12.3125 -14.046875 C 12.3125 -14.046875 12.179688 -13.847656 11.921875 -13.453125 C 11.671875 -13.066406 11.375 -12.566406 11.03125 -11.953125 C 10.695312 -11.335938 10.421875 -10.6875 10.203125 -10 C 9.984375 -9.3125 9.894531 -8.660156 9.9375 -8.046875 C 9.988281 -7.429688 10.265625 -6.925781 10.765625 -6.53125 C 11.265625 -6.144531 12.082031 -5.953125 13.21875 -5.953125 Z M 16.34375 -5.953125 "/></g></g></g><g fill="#fcb424" fill-opacity="1"><g transform="translate(231.103722, 211.145268)"><g><path d="M 10.921875 -5.953125 L 14.75 0 L 11.40625 0 C 11.40625 0 11.15625 -0.00390625 10.65625 -0.015625 C 10.15625 -0.0234375 9.519531 0.015625 8.75 0.109375 C 7.988281 0.203125 7.207031 0.394531 6.40625 0.6875 C 5.613281 0.988281 4.914062 1.457031 4.3125 2.09375 C 4.3125 2.09375 4.117188 1.941406 3.734375 1.640625 C 3.359375 1.335938 2.925781 0.914062 2.4375 0.375 C 1.945312 -0.15625 1.554688 -0.765625 1.265625 -1.453125 C 0.972656 -2.148438 0.910156 -2.882812 1.078125 -3.65625 C 1.378906 -4.976562 1.5625 -6.363281 1.625 -7.8125 C 1.695312 -9.257812 1.691406 -10.664062 1.609375 -12.03125 C 1.535156 -13.40625 1.429688 -14.644531 1.296875 -15.75 C 1.171875 -16.863281 1.050781 -17.75 0.9375 -18.40625 C 0.820312 -19.070312 0.765625 -19.40625 0.765625 -19.40625 C 0.765625 -19.40625 0.796875 -19.535156 0.859375 -19.796875 C 0.929688 -20.066406 1.082031 -20.40625 1.3125 -20.8125 C 1.550781 -21.21875 1.910156 -21.617188 2.390625 -22.015625 C 2.878906 -22.410156 3.539062 -22.75 4.375 -23.03125 C 5.675781 -23.445312 6.851562 -23.476562 7.90625 -23.125 C 8.96875 -22.78125 9.878906 -22.203125 10.640625 -21.390625 C 11.410156 -20.578125 11.976562 -19.671875 12.34375 -18.671875 C 12.34375 -18.671875 12.242188 -18.6875 12.046875 -18.71875 C 11.847656 -18.757812 11.613281 -18.75 11.34375 -18.6875 C 11.082031 -18.632812 10.851562 -18.484375 10.65625 -18.234375 C 10.457031 -17.992188 10.359375 -17.597656 10.359375 -17.046875 L 10.359375 -5.953125 Z M 10.921875 -5.953125 "/></g></g></g><g fill="#fcb424" fill-opacity="1"><g transform="translate(240.844437, 211.145268)"><g><path d="M 2.5 -5.953125 C 2.5 -5.953125 2.570312 -6.222656 2.71875 -6.765625 C 2.875 -7.304688 3.113281 -7.992188 3.4375 -8.828125 C 3.769531 -9.671875 4.203125 -10.554688 4.734375 -11.484375 C 5.265625 -12.410156 5.910156 -13.269531 6.671875 -14.0625 C 7.441406 -14.863281 8.347656 -15.488281 9.390625 -15.9375 C 10.847656 -16.53125 12.210938 -16.765625 13.484375 -16.640625 C 14.765625 -16.515625 15.941406 -16.148438 17.015625 -15.546875 C 18.097656 -14.941406 19.0625 -14.195312 19.90625 -13.3125 C 20.757812 -12.4375 21.476562 -11.515625 22.0625 -10.546875 C 22.65625 -9.585938 23.109375 -8.695312 23.421875 -7.875 C 23.734375 -7.050781 23.890625 -6.410156 23.890625 -5.953125 C 23.890625 -5.953125 23.738281 -5.707031 23.4375 -5.21875 C 23.132812 -4.726562 22.789062 -4.015625 22.40625 -3.078125 C 22.03125 -2.140625 21.703125 -0.988281 21.421875 0.375 C 21.328125 0.882812 20.972656 1.285156 20.359375 1.578125 C 19.742188 1.867188 18.984375 2.046875 18.078125 2.109375 C 17.179688 2.179688 16.234375 2.117188 15.234375 1.921875 C 14.234375 1.734375 13.296875 1.398438 12.421875 0.921875 C 11.554688 0.441406 10.851562 -0.191406 10.3125 -0.984375 C 9.769531 -1.785156 9.5 -2.742188 9.5 -3.859375 C 9.5 -3.859375 9.421875 -3.65625 9.265625 -3.25 C 9.117188 -2.84375 8.992188 -2.34375 8.890625 -1.75 C 8.785156 -1.164062 8.789062 -0.582031 8.90625 0 L 2.53125 0 C 1.539062 0 0.722656 -0.203125 0.078125 -0.609375 C -0.554688 -1.015625 -1.050781 -1.507812 -1.40625 -2.09375 C -1.769531 -2.6875 -2.023438 -3.273438 -2.171875 -3.859375 C -2.328125 -4.441406 -2.421875 -4.9375 -2.453125 -5.34375 C -2.484375 -5.75 -2.5 -5.953125 -2.5 -5.953125 Z M 16.796875 -5.953125 C 16.472656 -7.035156 16.0625 -7.816406 15.5625 -8.296875 C 15.0625 -8.773438 14.625 -9.070312 14.25 -9.1875 C 13.882812 -9.300781 13.703125 -9.359375 13.703125 -9.359375 C 13.210938 -9.242188 12.773438 -9 12.390625 -8.625 C 12.015625 -8.25 11.722656 -7.898438 11.515625 -7.578125 C 11.304688 -7.253906 11.203125 -7.09375 11.203125 -7.09375 C 11.203125 -7.09375 11.363281 -6.988281 11.6875 -6.78125 C 12.007812 -6.570312 12.441406 -6.351562 12.984375 -6.125 C 13.535156 -5.894531 14.140625 -5.738281 14.796875 -5.65625 C 15.460938 -5.570312 16.128906 -5.671875 16.796875 -5.953125 Z M 16.796875 -5.953125 "/></g></g></g><g fill="#fcb424" fill-opacity="1"><g transform="translate(265.509256, 211.145268)"><g><path d="M 11.9375 -12.3125 C 12.488281 -11.9375 13.117188 -11.484375 13.828125 -10.953125 C 14.535156 -10.421875 15.179688 -9.804688 15.765625 -9.109375 C 16.359375 -8.410156 16.769531 -7.644531 17 -6.8125 C 17.238281 -5.976562 17.160156 -5.085938 16.765625 -4.140625 C 16.273438 -2.953125 15.660156 -2.054688 14.921875 -1.453125 C 14.179688 -0.859375 13.378906 -0.441406 12.515625 -0.203125 C 11.660156 0.0234375 10.785156 0.148438 9.890625 0.171875 C 9.003906 0.191406 8.164062 0.21875 7.375 0.25 C 6.1875 0.269531 5.28125 0.34375 4.65625 0.46875 C 4.03125 0.59375 3.601562 0.710938 3.375 0.828125 C 3.144531 0.953125 3.03125 1.015625 3.03125 1.015625 C 3.03125 1.015625 2.910156 0.847656 2.671875 0.515625 C 2.441406 0.191406 2.191406 -0.257812 1.921875 -0.84375 C 1.660156 -1.4375 1.457031 -2.113281 1.3125 -2.875 C 1.175781 -3.644531 1.203125 -4.484375 1.390625 -5.390625 C 1.390625 -5.390625 1.660156 -5.5 2.203125 -5.71875 C 2.753906 -5.9375 3.5625 -6.085938 4.625 -6.171875 C 5.6875 -6.253906 7.019531 -6.078125 8.625 -5.640625 C 8.625 -5.640625 8.429688 -5.75 8.046875 -5.96875 C 7.671875 -6.1875 7.203125 -6.5 6.640625 -6.90625 C 6.085938 -7.3125 5.554688 -7.785156 5.046875 -8.328125 C 4.535156 -8.867188 4.128906 -9.457031 3.828125 -10.09375 C 3.523438 -10.738281 3.457031 -11.421875 3.625 -12.140625 C 3.875 -13.296875 4.265625 -14.21875 4.796875 -14.90625 C 5.328125 -15.59375 5.898438 -16.109375 6.515625 -16.453125 C 7.128906 -16.796875 7.679688 -17.03125 8.171875 -17.15625 C 8.660156 -17.289062 8.972656 -17.378906 9.109375 -17.421875 C 9.109375 -17.421875 9.109375 -17.265625 9.109375 -16.953125 C 9.109375 -16.640625 9.171875 -16.222656 9.296875 -15.703125 C 9.429688 -15.179688 9.703125 -14.625 10.109375 -14.03125 C 10.515625 -13.4375 11.125 -12.863281 11.9375 -12.3125 Z M 11.9375 -12.3125 "/></g></g></g><g fill="#fcb424" fill-opacity="1"><g transform="translate(281.407462, 211.145268)"><g><path d="M 7.296875 -22.578125 C 8.015625 -23.359375 8.695312 -24.046875 9.34375 -24.640625 C 10 -25.234375 10.742188 -25.851562 11.578125 -26.5 C 12.390625 -25.851562 13.117188 -25.234375 13.765625 -24.640625 C 14.421875 -24.046875 15.097656 -23.359375 15.796875 -22.578125 C 15.117188 -21.828125 14.46875 -21.160156 13.84375 -20.578125 C 13.21875 -20.003906 12.5 -19.40625 11.6875 -18.78125 C 10.832031 -19.425781 10.070312 -20.03125 9.40625 -20.59375 C 8.75 -21.164062 8.046875 -21.828125 7.296875 -22.578125 Z M 7.6875 -7.859375 C 7.195312 -7.765625 6.628906 -7.859375 5.984375 -8.140625 C 5.335938 -8.421875 4.71875 -8.851562 4.125 -9.4375 C 3.53125 -10.03125 3.054688 -10.742188 2.703125 -11.578125 C 2.359375 -12.410156 2.242188 -13.347656 2.359375 -14.390625 C 2.472656 -15.441406 2.925781 -16.554688 3.71875 -17.734375 C 3.71875 -17.734375 3.875 -17.632812 4.1875 -17.4375 C 4.5 -17.238281 4.984375 -17.039062 5.640625 -16.84375 C 6.304688 -16.65625 7.140625 -16.539062 8.140625 -16.5 C 9.140625 -16.46875 10.332031 -16.613281 11.71875 -16.9375 C 14.289062 -17.539062 16.609375 -17.671875 18.671875 -17.328125 C 20.734375 -16.992188 22.53125 -16.320312 24.0625 -15.3125 C 25.59375 -14.3125 26.832031 -13.101562 27.78125 -11.6875 C 28.738281 -10.269531 29.40625 -8.765625 29.78125 -7.171875 C 30.164062 -5.585938 30.242188 -4.035156 30.015625 -2.515625 C 29.785156 -1.003906 29.242188 0.347656 28.390625 1.546875 C 27.546875 2.742188 26.382812 3.644531 24.90625 4.25 C 24.90625 4.25 24.78125 4.101562 24.53125 3.8125 C 24.289062 3.519531 23.894531 3.164062 23.34375 2.75 C 22.800781 2.332031 22.0625 1.914062 21.125 1.5 C 20.1875 1.082031 19.019531 0.726562 17.625 0.4375 C 16.238281 0.144531 14.582031 0 12.65625 0 L 3.125 0 C 1.894531 0 0.910156 -0.203125 0.171875 -0.609375 C -0.566406 -1.015625 -1.128906 -1.507812 -1.515625 -2.09375 C -1.898438 -2.6875 -2.160156 -3.273438 -2.296875 -3.859375 C -2.429688 -4.441406 -2.5 -4.9375 -2.5 -5.34375 C -2.5 -5.75 -2.5 -5.953125 -2.5 -5.953125 L 9.421875 -5.953125 C 9.421875 -5.953125 9.703125 -5.953125 10.265625 -5.953125 C 10.835938 -5.953125 11.585938 -5.929688 12.515625 -5.890625 C 13.441406 -5.859375 14.457031 -5.789062 15.5625 -5.6875 C 16.664062 -5.582031 17.753906 -5.425781 18.828125 -5.21875 C 19.910156 -5.007812 20.878906 -4.726562 21.734375 -4.375 C 21.734375 -4.375 21.601562 -4.546875 21.34375 -4.890625 C 21.09375 -5.242188 20.722656 -5.664062 20.234375 -6.15625 C 19.753906 -6.644531 19.140625 -7.113281 18.390625 -7.5625 C 17.648438 -8.019531 16.800781 -8.363281 15.84375 -8.59375 C 14.882812 -8.820312 13.800781 -8.84375 12.59375 -8.65625 C 12.175781 -8.59375 11.660156 -8.515625 11.046875 -8.421875 C 10.429688 -8.328125 9.820312 -8.234375 9.21875 -8.140625 C 8.613281 -8.046875 8.101562 -7.953125 7.6875 -7.859375 Z M 7.6875 -7.859375 "/></g></g></g><g fill="#fcb424" fill-opacity="1"><g transform="translate(310.281656, 211.145268)"><g><path d="M 3.515625 -5.953125 C 3.492188 -6.878906 3.429688 -8.070312 3.328125 -9.53125 C 3.222656 -10.988281 3.117188 -12.5625 3.015625 -14.25 C 2.910156 -15.945312 2.859375 -17.617188 2.859375 -19.265625 C 2.859375 -20.453125 3.117188 -21.359375 3.640625 -21.984375 C 4.160156 -22.609375 4.832031 -23.003906 5.65625 -23.171875 C 6.476562 -23.347656 7.359375 -23.335938 8.296875 -23.140625 C 9.234375 -22.941406 10.125 -22.585938 10.96875 -22.078125 C 11.820312 -21.578125 12.535156 -20.96875 13.109375 -20.25 C 13.691406 -19.53125 14.019531 -18.738281 14.09375 -17.875 C 14.09375 -17.875 13.992188 -17.921875 13.796875 -18.015625 C 13.597656 -18.109375 13.378906 -18.1875 13.140625 -18.25 C 12.910156 -18.320312 12.710938 -18.320312 12.546875 -18.25 C 12.390625 -18.1875 12.347656 -17.992188 12.421875 -17.671875 C 12.421875 -17.671875 12.453125 -17.304688 12.515625 -16.578125 C 12.585938 -15.847656 12.648438 -14.878906 12.703125 -13.671875 C 12.765625 -12.460938 12.769531 -11.140625 12.71875 -9.703125 C 12.675781 -8.265625 12.523438 -6.828125 12.265625 -5.390625 C 12.015625 -3.953125 11.625 -2.625 11.09375 -1.40625 C 10.5625 -0.1875 9.84375 0.78125 8.9375 1.5 C 8.9375 1.5 8.769531 1.367188 8.4375 1.109375 C 8.101562 0.859375 7.597656 0.609375 6.921875 0.359375 C 6.242188 0.117188 5.394531 0 4.375 0 L 3.03125 0 C 1.914062 0 1.007812 -0.203125 0.3125 -0.609375 C -0.382812 -1.015625 -0.925781 -1.507812 -1.3125 -2.09375 C -1.707031 -2.6875 -1.988281 -3.273438 -2.15625 -3.859375 C -2.320312 -4.441406 -2.421875 -4.9375 -2.453125 -5.34375 C -2.484375 -5.75 -2.5 -5.953125 -2.5 -5.953125 Z M 3.515625 -5.953125 "/></g></g></g><g fill="#fcb424" fill-opacity="1"><g transform="translate(323.118479, 211.145268)"><g><path d="M 3.515625 -5.953125 C 3.492188 -6.878906 3.429688 -8.070312 3.328125 -9.53125 C 3.222656 -10.988281 3.117188 -12.5625 3.015625 -14.25 C 2.910156 -15.945312 2.859375 -17.617188 2.859375 -19.265625 C 2.859375 -20.453125 3.117188 -21.359375 3.640625 -21.984375 C 4.160156 -22.609375 4.832031 -23.003906 5.65625 -23.171875 C 6.476562 -23.347656 7.359375 -23.335938 8.296875 -23.140625 C 9.234375 -22.941406 10.125 -22.585938 10.96875 -22.078125 C 11.820312 -21.578125 12.535156 -20.96875 13.109375 -20.25 C 13.691406 -19.53125 14.019531 -18.738281 14.09375 -17.875 C 14.09375 -17.875 13.992188 -17.921875 13.796875 -18.015625 C 13.597656 -18.109375 13.378906 -18.1875 13.140625 -18.25 C 12.910156 -18.320312 12.710938 -18.320312 12.546875 -18.25 C 12.390625 -18.1875 12.347656 -17.992188 12.421875 -17.671875 C 12.421875 -17.671875 12.453125 -17.304688 12.515625 -16.578125 C 12.585938 -15.847656 12.648438 -14.878906 12.703125 -13.671875 C 12.765625 -12.460938 12.769531 -11.140625 12.71875 -9.703125 C 12.675781 -8.265625 12.523438 -6.828125 12.265625 -5.390625 C 12.015625 -3.953125 11.625 -2.625 11.09375 -1.40625 C 10.5625 -0.1875 9.84375 0.78125 8.9375 1.5 C 8.9375 1.5 8.769531 1.367188 8.4375 1.109375 C 8.101562 0.859375 7.597656 0.609375 6.921875 0.359375 C 6.242188 0.117188 5.394531 0 4.375 0 L 3.03125 0 C 1.914062 0 1.007812 -0.203125 0.3125 -0.609375 C -0.382812 -1.015625 -0.925781 -1.507812 -1.3125 -2.09375 C -1.707031 -2.6875 -1.988281 -3.273438 -2.15625 -3.859375 C -2.320312 -4.441406 -2.421875 -4.9375 -2.453125 -5.34375 C -2.484375 -5.75 -2.5 -5.953125 -2.5 -5.953125 Z M 3.515625 -5.953125 "/></g></g></g><g fill="#000000" fill-opacity="1"><g transform="translate(134.064163, 141.59118)"><g><path d="M 22.203125 -72.21875 C 25.328125 -75.539062 28.273438 -78.484375 31.046875 -81.046875 C 33.816406 -83.617188 37.066406 -86.316406 40.796875 -89.140625 C 44.316406 -86.316406 47.460938 -83.617188 50.234375 -81.046875 C 53.003906 -78.484375 55.953125 -75.539062 59.078125 -72.21875 C 56.148438 -68.988281 53.328125 -66.113281 50.609375 -63.59375 C 47.890625 -61.082031 44.769531 -58.46875 41.25 -55.75 C 37.519531 -58.570312 34.21875 -61.210938 31.34375 -63.671875 C 28.476562 -66.140625 25.429688 -68.988281 22.203125 -72.21875 Z M 50.609375 -48.1875 C 50.609375 -48.1875 51.613281 -48.738281 53.625 -49.84375 C 55.644531 -50.957031 58.34375 -52.171875 61.71875 -53.484375 C 65.09375 -54.796875 68.789062 -55.773438 72.8125 -56.421875 C 76.84375 -57.078125 80.894531 -56.953125 84.96875 -56.046875 C 89.050781 -55.140625 92.832031 -53.070312 96.3125 -49.84375 C 99.789062 -46.625 102.632812 -41.691406 104.84375 -35.046875 C 104.84375 -35.046875 104.160156 -34.289062 102.796875 -32.78125 C 101.441406 -31.269531 100.082031 -29.050781 98.71875 -26.125 C 97.363281 -23.207031 96.632812 -19.554688 96.53125 -15.171875 C 96.4375 -10.796875 97.648438 -5.738281 100.171875 0 C 100.171875 0 99.738281 0.726562 98.875 2.1875 C 98.019531 3.644531 96.582031 5.457031 94.5625 7.625 C 92.550781 9.789062 89.832031 11.957031 86.40625 14.125 C 82.988281 16.289062 78.785156 18.101562 73.796875 19.5625 C 68.816406 21.019531 62.851562 21.75 55.90625 21.75 C 46.4375 21.75 38.398438 20.742188 31.796875 18.734375 C 25.203125 16.722656 19.835938 14.03125 15.703125 10.65625 C 11.578125 7.28125 8.53125 3.578125 6.5625 -0.453125 C 4.601562 -4.484375 3.546875 -8.5625 3.390625 -12.6875 C 3.242188 -16.820312 3.773438 -20.648438 4.984375 -24.171875 C 6.191406 -27.691406 7.953125 -30.613281 10.265625 -32.9375 C 14.503906 -37.164062 18.507812 -39.957031 22.28125 -41.3125 C 26.0625 -42.675781 29.535156 -43.054688 32.703125 -42.453125 C 35.878906 -41.847656 38.722656 -40.6875 41.234375 -38.96875 C 43.753906 -37.257812 45.894531 -35.375 47.65625 -33.3125 C 49.425781 -31.25 50.785156 -29.484375 51.734375 -28.015625 C 52.691406 -26.554688 53.171875 -25.828125 53.171875 -25.828125 C 53.171875 -25.828125 52.566406 -25.273438 51.359375 -24.171875 C 50.148438 -23.066406 48.863281 -21.53125 47.5 -19.5625 C 46.144531 -17.601562 45.21875 -15.335938 44.71875 -12.765625 C 44.21875 -10.191406 44.59375 -7.445312 45.84375 -4.53125 C 47.101562 -1.613281 49.800781 1.351562 53.9375 4.375 C 53.9375 4.375 54.238281 3.742188 54.84375 2.484375 C 55.445312 1.234375 56.078125 -0.875 56.734375 -3.84375 C 57.390625 -6.820312 57.71875 -10.878906 57.71875 -16.015625 C 57.914062 -23.867188 57.410156 -30.160156 56.203125 -34.890625 C 54.992188 -39.628906 53.757812 -43.03125 52.5 -45.09375 C 51.238281 -47.15625 50.609375 -48.1875 50.609375 -48.1875 Z M 50.609375 -48.1875 "/></g></g></g><g fill="#000000" fill-opacity="1"><g transform="translate(234.339892, 141.59118)"><g><path d="M 21.75 -25.828125 C 17.519531 -33.085938 14.828125 -39.332031 13.671875 -44.5625 C 12.515625 -49.800781 12.539062 -54.179688 13.75 -57.703125 C 14.957031 -61.234375 16.894531 -64.03125 19.5625 -66.09375 C 22.226562 -68.15625 25.273438 -69.664062 28.703125 -70.625 C 32.128906 -71.582031 35.53125 -72.132812 38.90625 -72.28125 C 42.28125 -72.4375 45.25 -72.285156 47.8125 -71.828125 C 50.382812 -71.378906 52.125 -70.851562 53.03125 -70.25 C 54.4375 -69.34375 55.46875 -68.359375 56.125 -67.296875 C 56.78125 -66.242188 56.753906 -65.210938 56.046875 -64.203125 C 53.429688 -60.578125 51.71875 -56.597656 50.90625 -52.265625 C 50.101562 -47.941406 49.925781 -43.6875 50.375 -39.5 C 50.832031 -35.320312 51.515625 -31.492188 52.421875 -28.015625 C 53.328125 -24.546875 54.207031 -21.753906 55.0625 -19.640625 C 55.925781 -17.523438 56.359375 -16.46875 56.359375 -16.46875 C 56.359375 -16.46875 55.925781 -15.632812 55.0625 -13.96875 C 54.207031 -12.3125 52.671875 -10.398438 50.453125 -8.234375 C 48.242188 -6.066406 45.25 -4.148438 41.46875 -2.484375 C 37.695312 -0.828125 32.835938 0 26.890625 0 L 12.390625 0 C 7.753906 0 3.953125 -0.878906 0.984375 -2.640625 C -1.984375 -4.398438 -4.273438 -6.566406 -5.890625 -9.140625 C -7.503906 -11.710938 -8.660156 -14.253906 -9.359375 -16.765625 C -10.066406 -19.285156 -10.492188 -21.425781 -10.640625 -23.1875 C -10.796875 -24.945312 -10.875 -25.828125 -10.875 -25.828125 Z M 19.9375 38.984375 C 16.21875 36.160156 12.894531 33.488281 9.96875 30.96875 C 7.050781 28.445312 4.03125 25.628906 0.90625 22.515625 C 4.03125 19.191406 6.976562 16.21875 9.75 13.59375 C 12.519531 10.976562 15.664062 8.257812 19.1875 5.4375 C 23.414062 8.5625 26.988281 11.6875 29.90625 14.8125 C 33.332031 11.582031 36.960938 8.457031 40.796875 5.4375 C 44.421875 8.257812 47.640625 10.976562 50.453125 13.59375 C 53.273438 16.21875 56.25 19.191406 59.375 22.515625 C 56.351562 25.628906 53.484375 28.472656 50.765625 31.046875 C 48.046875 33.617188 44.921875 36.265625 41.390625 38.984375 C 39.273438 37.367188 37.335938 35.851562 35.578125 34.4375 C 33.816406 33.03125 32.078125 31.519531 30.359375 29.90625 C 28.753906 31.519531 27.117188 33.054688 25.453125 34.515625 C 23.796875 35.984375 21.957031 37.472656 19.9375 38.984375 Z M 19.9375 38.984375 "/></g></g></g><g fill="#000000" fill-opacity="1"><g transform="translate(285.383846, 141.59118)"><g><path d="M 15.265625 -25.828125 C 15.160156 -29.859375 14.878906 -35.046875 14.421875 -41.390625 C 13.972656 -47.734375 13.519531 -54.582031 13.0625 -61.9375 C 12.613281 -69.289062 12.390625 -76.546875 12.390625 -83.703125 C 12.390625 -88.835938 13.519531 -92.765625 15.78125 -95.484375 C 18.050781 -98.203125 20.972656 -99.9375 24.546875 -100.6875 C 28.117188 -101.445312 31.945312 -101.398438 36.03125 -100.546875 C 40.113281 -99.691406 43.988281 -98.15625 47.65625 -95.9375 C 51.332031 -93.71875 54.429688 -91.046875 56.953125 -87.921875 C 59.472656 -84.804688 60.882812 -81.382812 61.1875 -77.65625 C 61.1875 -77.65625 60.757812 -77.851562 59.90625 -78.25 C 59.050781 -78.65625 58.117188 -79.007812 57.109375 -79.3125 C 56.097656 -79.613281 55.238281 -79.613281 54.53125 -79.3125 C 53.832031 -79.007812 53.632812 -78.15625 53.9375 -76.75 C 53.9375 -76.75 54.085938 -75.160156 54.390625 -71.984375 C 54.691406 -68.816406 54.96875 -64.613281 55.21875 -59.375 C 55.46875 -54.132812 55.492188 -48.390625 55.296875 -42.140625 C 55.097656 -35.898438 54.441406 -29.65625 53.328125 -23.40625 C 52.222656 -17.164062 50.507812 -11.398438 48.1875 -6.109375 C 45.875 -0.828125 42.753906 3.375 38.828125 6.5 C 38.828125 6.5 38.097656 5.941406 36.640625 4.828125 C 35.179688 3.722656 32.988281 2.640625 30.0625 1.578125 C 27.144531 0.523438 23.46875 0 19.03125 0 L 13.140625 0 C 8.304688 0 4.378906 -0.878906 1.359375 -2.640625 C -1.660156 -4.398438 -4.023438 -6.566406 -5.734375 -9.140625 C -7.453125 -11.710938 -8.660156 -14.253906 -9.359375 -16.765625 C -10.066406 -19.285156 -10.492188 -21.425781 -10.640625 -23.1875 C -10.796875 -24.945312 -10.875 -25.828125 -10.875 -25.828125 Z M 15.265625 -25.828125 "/></g></g></g><g fill="#000000" fill-opacity="1"><g transform="translate(341.109357, 141.59118)"><g><path d="M 94.421875 -62.25 C 94.421875 -62.25 93.691406 -62.570312 92.234375 -63.21875 C 90.773438 -63.875 88.707031 -64.503906 86.03125 -65.109375 C 83.363281 -65.710938 80.140625 -65.9375 76.359375 -65.78125 C 72.585938 -65.632812 68.332031 -64.78125 63.59375 -63.21875 C 58.863281 -61.664062 53.726562 -59.023438 48.1875 -55.296875 C 48.1875 -55.296875 49.546875 -55.296875 52.265625 -55.296875 C 54.992188 -55.296875 58.519531 -55.117188 62.84375 -54.765625 C 67.175781 -54.410156 71.757812 -53.675781 76.59375 -52.5625 C 81.425781 -51.457031 85.984375 -49.820312 90.265625 -47.65625 C 94.546875 -45.5 98.046875 -42.609375 100.765625 -38.984375 C 103.484375 -35.359375 104.894531 -30.820312 105 -25.375 C 105.101562 -19.9375 103.289062 -13.390625 99.5625 -5.734375 C 97.945312 -2.410156 95.878906 0.378906 93.359375 2.640625 C 90.847656 4.910156 88.332031 6.671875 85.8125 7.921875 C 83.289062 9.179688 81.175781 10.085938 79.46875 10.640625 C 77.757812 11.203125 76.90625 11.484375 76.90625 11.484375 C 76.90625 11.484375 76.195312 10.898438 74.78125 9.734375 C 73.375 8.578125 71.132812 7.242188 68.0625 5.734375 C 64.988281 4.222656 61.082031 2.890625 56.34375 1.734375 C 51.613281 0.578125 45.925781 0 39.28125 0 L 8.15625 0 C 4.332031 0 1.210938 -0.878906 -1.203125 -2.640625 C -3.617188 -4.398438 -5.484375 -6.566406 -6.796875 -9.140625 C -8.109375 -11.710938 -9.066406 -14.253906 -9.671875 -16.765625 C -10.273438 -19.285156 -10.625 -21.425781 -10.71875 -23.1875 C -10.820312 -24.945312 -10.875 -25.828125 -10.875 -25.828125 L 36.265625 -25.828125 C 36.660156 -25.828125 38.164062 -25.851562 40.78125 -25.90625 C 43.40625 -25.957031 46.554688 -25.859375 50.234375 -25.609375 C 53.910156 -25.359375 57.5625 -24.828125 61.1875 -24.015625 C 64.8125 -23.210938 67.882812 -21.957031 70.40625 -20.25 C 69.09375 -22.664062 66.597656 -25.128906 62.921875 -27.640625 C 59.242188 -30.160156 54.757812 -32.273438 49.46875 -33.984375 C 44.1875 -35.703125 38.421875 -36.5625 32.171875 -36.5625 C 29.054688 -36.5625 26.59375 -35.929688 24.78125 -34.671875 C 22.96875 -33.410156 22.0625 -32.78125 22.0625 -32.78125 C 22.0625 -32.78125 21.226562 -33.304688 19.5625 -34.359375 C 17.90625 -35.421875 16.066406 -36.910156 14.046875 -38.828125 C 12.035156 -40.742188 10.472656 -43.0625 9.359375 -45.78125 C 8.253906 -48.5 8.253906 -51.519531 9.359375 -54.84375 C 10.878906 -59.476562 13.472656 -64.5625 17.140625 -70.09375 C 20.816406 -75.632812 25.453125 -81.023438 31.046875 -86.265625 C 36.640625 -91.503906 42.984375 -95.960938 50.078125 -99.640625 C 57.179688 -103.316406 64.988281 -105.707031 73.5 -106.8125 C 82.007812 -107.914062 91 -107.109375 100.46875 -104.390625 C 100.46875 -104.390625 100.96875 -104.140625 101.96875 -103.640625 C 102.976562 -103.140625 104.113281 -102.15625 105.375 -100.6875 C 106.632812 -99.226562 107.664062 -97.113281 108.46875 -94.34375 C 109.28125 -91.570312 109.429688 -87.921875 108.921875 -83.390625 C 108.523438 -79.066406 107.546875 -75.519531 105.984375 -72.75 C 104.421875 -69.976562 102.757812 -67.8125 101 -66.25 C 99.238281 -64.6875 97.703125 -63.628906 96.390625 -63.078125 C 95.078125 -62.523438 94.421875 -62.25 94.421875 -62.25 Z M 94.421875 -62.25 "/></g></g></g></svg>