<svg xmlns="http://www.w3.org/2000/svg" xmlns:xlink="http://www.w3.org/1999/xlink" width="400" viewBox="0 0 300 299.999988" height="400" preserveAspectRatio="xMidYMid meet"><defs><clipPath id="0fa2b6e233"><path d="M 43 82.199219 L 79 82.199219 L 79 108 L 43 108 Z M 43 82.199219 " clip-rule="nonzero"></path></clipPath><clipPath id="3f325cfcfa"><path d="M 30 109 L 58 109 L 58 217.949219 L 30 217.949219 Z M 30 109 " clip-rule="nonzero"></path></clipPath><clipPath id="b1220fcfd1"><path d="M 221 82.199219 L 257 82.199219 L 257 108 L 221 108 Z M 221 82.199219 " clip-rule="nonzero"></path></clipPath><clipPath id="9e4db3c63d"><path d="M 242 109 L 270 109 L 270 217.949219 L 242 217.949219 Z M 242 109 " clip-rule="nonzero"></path></clipPath></defs><path fill="#fbb424" d="M 84.167969 145.0625 L 84.167969 182.316406 L 215.859375 182.316406 L 215.859375 145.0625 C 215.859375 144.242188 215.992188 143.421875 216.257812 142.628906 C 216.703125 139.871094 217.910156 137.378906 219.632812 135.34375 C 218.796875 134.898438 217.847656 134.644531 216.835938 134.644531 L 83.191406 134.644531 C 82.179688 134.644531 81.226562 134.898438 80.394531 135.34375 C 82.117188 137.378906 83.324219 139.867188 83.769531 142.625 C 84.035156 143.417969 84.167969 144.234375 84.167969 145.0625 Z M 151.128906 165.890625 C 151.128906 164.578125 152.195312 163.511719 153.511719 163.511719 L 211.242188 163.511719 C 212.554688 163.511719 213.621094 164.578125 213.621094 165.890625 L 213.621094 177.792969 C 213.621094 179.109375 212.554688 180.175781 211.242188 180.175781 L 153.511719 180.175781 C 152.195312 180.175781 151.128906 179.109375 151.128906 177.792969 Z M 86.40625 165.890625 C 86.40625 164.578125 87.472656 163.511719 88.785156 163.511719 L 146.515625 163.511719 C 147.832031 163.511719 148.898438 164.578125 148.898438 165.890625 L 148.898438 177.792969 C 148.898438 179.109375 147.832031 180.175781 146.515625 180.175781 L 88.785156 180.175781 C 87.472656 180.175781 86.40625 179.109375 86.40625 177.792969 Z M 86.40625 165.890625 " fill-opacity="1" fill-rule="nonzero"></path><path fill="#fbb424" d="M 72.222656 194.261719 C 73.332031 195.367188 74.863281 196.003906 76.433594 196.003906 L 223.59375 196.003906 C 225.160156 196.003906 226.695312 195.367188 227.800781 194.261719 C 228.910156 193.152344 229.542969 191.617188 229.542969 190.050781 L 229.542969 163.992188 C 227.378906 163.96875 225.445312 162.753906 224.484375 160.808594 C 223.8125 159.441406 223.714844 157.894531 224.203125 156.453125 C 224.695312 155.007812 225.71875 153.84375 227.085938 153.171875 C 233.710938 149.902344 238.859375 144.78125 242.4375 137.925781 C 240.074219 134.203125 235.914062 131.730469 231.179688 131.730469 C 224.496094 131.730469 218.964844 136.644531 217.996094 143.058594 C 217.773438 143.6875 217.644531 144.359375 217.644531 145.0625 L 217.644531 184.101562 L 82.382812 184.101562 L 82.382812 145.0625 C 82.382812 144.355469 82.253906 143.683594 82.03125 143.054688 C 81.0625 136.644531 75.53125 131.730469 68.847656 131.730469 C 64.109375 131.730469 59.949219 134.207031 57.585938 137.933594 C 61.160156 144.785156 66.304688 149.902344 72.941406 153.171875 C 75.761719 154.5625 76.925781 157.988281 75.539062 160.808594 C 74.578125 162.753906 72.644531 163.964844 70.480469 163.988281 L 70.480469 190.050781 C 70.480469 191.621094 71.117188 193.152344 72.222656 194.261719 Z M 72.222656 194.261719 " fill-opacity="1" fill-rule="nonzero"></path><path fill="#fbb424" d="M 75.894531 197.648438 L 75.894531 200.59375 L 83.078125 200.59375 L 83.078125 197.648438 Z M 75.894531 197.648438 " fill-opacity="1" fill-rule="nonzero"></path><path fill="#fbb424" d="M 216.949219 197.648438 L 216.949219 200.59375 L 224.132812 200.59375 L 224.132812 197.648438 Z M 216.949219 197.648438 " fill-opacity="1" fill-rule="nonzero"></path><path fill="#fbb424" d="M 146.421875 197.648438 L 146.421875 200.59375 L 153.605469 200.59375 L 153.605469 197.648438 Z M 146.421875 197.648438 " fill-opacity="1" fill-rule="nonzero"></path><g clip-path="url(#0fa2b6e233)"><path fill="#fbb424" d="M 56.710938 107.898438 C 63.214844 107.898438 68.582031 103.0625 69.425781 96.789062 C 68.269531 96.730469 67.046875 96.605469 65.792969 96.414062 C 59.222656 95.390625 54.15625 92.816406 54.300781 90.609375 C 55.167969 92.582031 60.257812 94.101562 66.421875 94.101562 C 71.074219 94.101562 75.121094 93.238281 77.199219 91.964844 C 78.148438 91.386719 78.6875 90.71875 78.6875 90.011719 C 78.6875 87.753906 73.195312 85.925781 66.421875 85.925781 C 66.1875 85.925781 65.964844 85.929688 65.734375 85.933594 C 63.417969 83.640625 60.230469 82.226562 56.710938 82.226562 C 49.621094 82.226562 43.875 87.972656 43.875 95.0625 C 43.875 102.152344 49.621094 107.898438 56.710938 107.898438 Z M 56.710938 107.898438 " fill-opacity="1" fill-rule="nonzero"></path></g><g clip-path="url(#3f325cfcfa)"><path fill="#fbb424" d="M 39.550781 161.074219 C 41.003906 165.859375 42.816406 173.734375 42.800781 183.183594 C 42.800781 190.722656 41.671875 199.253906 38.371094 208.167969 C 37.003906 211.863281 38.890625 215.964844 42.585938 217.332031 C 43.402344 217.636719 44.238281 217.777344 45.058594 217.777344 C 47.957031 217.777344 50.683594 216 51.746094 213.121094 C 55.714844 202.410156 57.066406 192.144531 57.0625 183.183594 C 57.046875 168.894531 53.691406 157.902344 51.878906 152.980469 C 51.742188 151.949219 51.65625 150.890625 51.601562 149.824219 C 48.390625 145.511719 46.242188 141.09375 44.816406 137.300781 C 41.707031 129.050781 41.292969 122.183594 41.242188 120.890625 C 41.199219 119.3125 41.753906 117.863281 42.800781 116.757812 C 43.847656 115.652344 45.261719 115.019531 46.785156 114.976562 L 46.945312 114.972656 C 50.054688 114.972656 52.558594 117.410156 52.644531 120.519531 L 52.652344 120.652344 C 52.660156 120.804688 52.675781 121.035156 52.703125 121.339844 C 52.777344 122.191406 52.894531 123.136719 53.046875 124.078125 C 53.230469 125.230469 53.519531 126.722656 53.960938 128.417969 C 54.292969 126.769531 54.617188 125.199219 54.902344 123.746094 C 56.539062 118.066406 54.394531 111.273438 49.527344 110.058594 C 44.65625 108.84375 37.597656 111.488281 34.726562 119.84375 C 30.84375 131.351562 30.007812 138.84375 31.484375 151.515625 C 32.6875 157.71875 35.949219 160.160156 39.550781 161.074219 Z M 39.550781 161.074219 " fill-opacity="1" fill-rule="nonzero"></path></g><path fill="#fbb424" d="M 51.566406 121.441406 C 51.539062 121.117188 51.523438 120.875 51.515625 120.722656 C 51.507812 120.648438 51.507812 120.59375 51.507812 120.566406 C 51.507812 120.550781 51.507812 120.550781 51.507812 120.550781 C 51.433594 118.03125 49.335938 116.046875 46.816406 116.117188 C 44.296875 116.1875 42.3125 118.285156 42.382812 120.804688 C 42.398438 121.128906 42.597656 128.175781 45.882812 136.898438 C 49.148438 145.582031 55.714844 156.144531 68.40625 162.382812 C 69.050781 162.703125 69.742188 162.855469 70.417969 162.855469 C 72.101562 162.855469 73.71875 161.917969 74.515625 160.304688 C 75.628906 158.042969 74.695312 155.308594 72.4375 154.195312 C 62.382812 149.238281 57.210938 140.992188 54.421875 133.671875 C 53.042969 130.03125 52.304688 126.667969 51.921875 124.257812 C 51.726562 123.054688 51.621094 122.085938 51.566406 121.441406 Z M 51.566406 121.441406 " fill-opacity="1" fill-rule="nonzero"></path><g clip-path="url(#b1220fcfd1)"><path fill="#fbb424" d="M 222.828125 91.964844 C 224.90625 93.238281 228.953125 94.101562 233.605469 94.101562 C 239.769531 94.101562 244.855469 92.582031 245.726562 90.609375 C 245.871094 92.816406 240.804688 95.390625 234.234375 96.414062 C 232.976562 96.605469 231.757812 96.730469 230.597656 96.789062 C 231.441406 103.0625 236.8125 107.898438 243.316406 107.898438 C 250.402344 107.898438 256.152344 102.152344 256.152344 95.0625 C 256.152344 87.972656 250.402344 82.226562 243.316406 82.226562 C 239.796875 82.226562 236.609375 83.640625 234.292969 85.9375 C 234.0625 85.929688 233.835938 85.925781 233.605469 85.925781 C 226.832031 85.925781 221.339844 87.753906 221.339844 90.011719 C 221.339844 90.71875 221.878906 91.386719 222.828125 91.964844 Z M 222.828125 91.964844 " fill-opacity="1" fill-rule="nonzero"></path></g><g clip-path="url(#9e4db3c63d)"><path fill="#fbb424" d="M 253.078125 114.972656 L 253.242188 114.976562 C 254.761719 115.015625 256.179688 115.648438 257.226562 116.757812 C 258.273438 117.863281 258.824219 119.3125 258.785156 120.835938 L 258.78125 120.84375 L 258.78125 120.894531 C 258.726562 122.1875 258.3125 129.066406 255.207031 137.300781 C 253.78125 141.09375 251.632812 145.511719 248.421875 149.824219 C 248.371094 150.890625 248.285156 151.945312 248.148438 152.976562 C 246.335938 157.894531 242.976562 168.890625 242.960938 183.183594 C 242.957031 192.140625 244.304688 202.40625 248.277344 213.121094 C 249.34375 216 252.066406 217.777344 254.964844 217.777344 C 255.789062 217.777344 256.625 217.636719 257.441406 217.332031 C 261.132812 215.964844 263.019531 211.863281 261.652344 208.167969 C 258.347656 199.253906 257.222656 190.726562 257.222656 183.183594 C 257.21875 175.125 258.519531 168.214844 259.8125 163.382812 C 260.035156 162.546875 260.257812 161.777344 260.472656 161.074219 C 264.074219 160.160156 267.335938 157.71875 268.542969 151.515625 C 270.019531 138.84375 269.183594 131.351562 265.300781 119.84375 C 262.429688 111.492188 255.367188 108.84375 250.5 110.058594 C 245.628906 111.273438 243.488281 118.070312 245.125 123.746094 C 245.410156 125.203125 245.734375 126.777344 246.070312 128.429688 C 247.25 123.863281 247.375 120.578125 247.378906 120.535156 C 247.464844 117.410156 249.96875 114.972656 253.078125 114.972656 Z M 253.078125 114.972656 " fill-opacity="1" fill-rule="nonzero"></path></g><path fill="#fbb424" d="M 227.589844 154.195312 C 225.328125 155.308594 224.398438 158.042969 225.511719 160.304688 C 226.304688 161.917969 227.921875 162.855469 229.609375 162.855469 C 230.285156 162.855469 230.972656 162.703125 231.621094 162.382812 C 244.308594 156.140625 250.878906 145.582031 254.140625 136.898438 C 257.429688 128.171875 257.628906 121.128906 257.644531 120.804688 C 257.714844 118.285156 255.726562 116.183594 253.210938 116.117188 C 250.6875 116.046875 248.589844 118.03125 248.519531 120.550781 C 248.519531 120.550781 248.519531 120.550781 248.519531 120.5625 C 248.507812 121.015625 248.171875 127.238281 245.335938 134.355469 C 242.480469 141.507812 237.332031 149.390625 227.589844 154.195312 Z M 227.589844 154.195312 " fill-opacity="1" fill-rule="nonzero"></path></svg>